<svg xmlns="http://www.w3.org/2000/svg" width="187" height="45" viewBox="0 0 188 45">
  <path style="stroke:none;fill-rule:nonzero;fill:#000;fill-opacity:1" d="M15.063 29.172h-7.93q-.165-.001-.328.004c-.133.012-.176.058-.188.187a1 1 0 0 0-.004.196c.02.574.04 1.144.13 1.714.038.227.093.454.167.672a2.17 2.17 0 0 0 1.34 1.367 4.5 4.5 0 0 0 1.36.27c.382.02.769.023 1.152.023H23.05c.187 0 .375-.003.558.032.352.066.52.242.555.601.012.086.008.176.008.266v2.445c0 .121-.004.242-.027.36-.055.261-.207.433-.48.48q-.164.025-.333.04c-.086.003-.176 0-.262 0-4.187 0-8.37.003-12.554-.005-1.024 0-2.047-.054-3.063-.242-.738-.133-1.457-.332-2.137-.664-1.238-.602-2.086-1.563-2.582-2.836a9 9 0 0 1-.539-2.344 24 24 0 0 1-.105-2.508c0-1.464-.008-2.93.004-4.398.015-1.09.086-2.176.367-3.242.187-.695.453-1.356.863-1.953.567-.836 1.332-1.43 2.25-1.832a8.7 8.7 0 0 1 2.258-.621c.957-.141 1.926-.184 2.895-.184h12.386c.168 0 .332 0 .492.027.36.059.516.239.555.598.008.09.004.18.004.266v2.445c0 .133 0 .266-.031.394a.56.56 0 0 1-.512.446c-.14.02-.289.012-.43.012H10.738c-.586 0-1.168.03-1.746.12-.262.04-.52.11-.765.204a2.15 2.15 0 0 0-1.32 1.347 4.8 4.8 0 0 0-.235 1.094c-.043.383-.055.77-.07 1.156-.012.317.015.332.332.336h16.023c.145 0 .29-.004.43.012.363.04.554.242.586.598q.005.081.004.168v2.148c0 .086 0 .176-.016.262a.58.58 0 0 1-.461.504c-.152.035-.305.035-.46.035h-7.993Zm57.387 0h-7.966q-.179-.002-.359.008c-.09.008-.14.062-.152.148a.4.4 0 0 0-.012.098c-.012.715.004 1.433.168 2.137.11.476.305.917.672 1.265.277.262.605.438.965.547q.59.18 1.203.207c.375.02.746.02 1.12.02h12.259c.195 0 .394 0 .59.035.351.062.515.246.546.601.004.051.004.11.004.164v2.711c-.015.442-.195.64-.64.696-.153.02-.305.015-.457.015H69.484c-.386 0-.773-.008-1.156 0a25 25 0 0 1-2.016-.066c-.902-.055-1.796-.18-2.667-.45-.743-.226-1.434-.562-2.043-1.054-.622-.504-1.07-1.133-1.403-1.852-.336-.715-.511-1.476-.629-2.25-.11-.746-.14-1.488-.136-2.242.007-1.906-.008-3.812.011-5.719.008-1.14.176-2.261.575-3.336.406-1.09 1.066-1.972 2.042-2.609a6.3 6.3 0 0 1 1.805-.793c.63-.176 1.27-.289 1.918-.348q1.149-.111 2.309-.105h12.293c.164 0 .332 0 .496.016.406.054.578.25.601.652v2.68c0 .097 0 .199-.011.297-.04.312-.223.496-.54.527-.14.015-.285.012-.43.012h-12.42c-.586 0-1.164.035-1.746.125a3.4 3.4 0 0 0-.828.218c-.621.262-1.055.703-1.281 1.344-.16.453-.22.922-.254 1.39-.028.321-.02.641-.02.958 0 .168.055.21.223.218.12.008.242 0 .367 0H80.27c.14 0 .285 0 .425.008.356.032.535.196.602.551.016.094.023.2.023.293 0 .676.004 1.344 0 2.016 0 .133-.02.265-.047.394a.54.54 0 0 1-.414.422 1.5 1.5 0 0 1-.257.04c-.11.007-.22 0-.329 0h-7.832Zm25.214.273H89.7c-.496 0-.496-.023-.496.485v6.875c0 .144 0 .289-.02.43-.054.359-.199.5-.55.558a3 3 0 0 1-.363.027h-2.743q-.2 0-.394-.035c-.32-.058-.48-.222-.531-.547-.02-.14-.02-.285-.02-.43v-4.43c0-2.542-.008-5.089 0-7.632.004-.984.086-1.96.309-2.922.152-.68.39-1.332.75-1.933.57-.965 1.39-1.637 2.406-2.086.719-.32 1.476-.512 2.254-.625a20 20 0 0 1 2.867-.188h12.422c.176 0 .355-.012.527.028.32.07.477.23.524.554q.016.113.015.23v2.579c0 .09 0 .176-.02.262-.05.304-.245.488-.554.523-.14.012-.285.008-.43.008H93.328c-.582 0-1.164.031-1.746.125a4 4 0 0 0-.516.113c-.843.234-1.379.793-1.632 1.621q-.181.623-.215 1.27c-.02.351-.016.707-.016 1.058 0 .067 0 .13.012.196.015.086.07.14.156.148q.2.012.399.012h15.691c.168 0 .332 0 .492.035.32.074.477.246.508.566q.01.116.008.23v2.087c0 .086 0 .175-.012.265-.039.313-.223.5-.539.532-.129.011-.266.007-.395.007H97.66Zm-70.211-5.082V17.95c0-.133-.004-.265.008-.398.035-.285.191-.457.477-.516a2 2 0 0 1 .359-.039h2.937q.152 0 .297.024c.297.062.461.234.5.535.016.133.008.261.008.398v11.27c0 .507 0 1.015.066 1.515.047.375.11.742.235 1.098.246.684.703 1.156 1.39 1.402.243.086.489.153.739.184.336.047.676.098 1.02.09.363-.004.726 0 1.09 0h11.03c.145 0 .29 0 .43.015.336.047.512.22.563.555.02.094.02.2.02.297v2.578c0 .148 0 .29-.052.426-.066.207-.203.344-.414.383a3 3 0 0 1-.46.05c-.31.008-.618 0-.923 0-3.632 0-7.27.008-10.902 0-1.156 0-2.312-.07-3.45-.312a8 8 0 0 1-1.358-.402 5.6 5.6 0 0 1-1.7-1.063 5.1 5.1 0 0 1-1.172-1.668c-.32-.707-.5-1.457-.613-2.219a14 14 0 0 1-.137-1.945V24.36ZM51.2 27.414v-9.387c0-.168-.005-.332.027-.492.054-.281.214-.453.5-.504q.176-.03.359-.031h2.875c.098 0 .2.004.297.02.336.058.48.199.543.53q.018.113.023.231c.004.102 0 .2 0 .297v18.61c0 .152 0 .304-.011.457-.047.437-.211.609-.641.66q-.151.016-.3.015h-2.708c-.168 0-.328-.011-.492-.05a.56.56 0 0 1-.426-.415 2 2 0 0 1-.047-.324c-.004-.113 0-.222 0-.332zm0 0"/>
  <path style="stroke:none;fill-rule:nonzero;fill:#fd0013;fill-opacity:1" d="M126.324 5.285c.43 0 .45.027.278.422-1 2.29-2.008 4.582-3.008 6.871-1.121 2.563-2.25 5.121-3.371 7.688q-1.353 3.088-2.7 6.175c-.968 2.211-1.937 4.418-2.906 6.63l-1.683 3.847c-.164.371-.176.375-.559.379-.531.004-.46-.078-.297-.457q.855-1.976 1.723-3.938l1.722-3.933c.688-1.563 1.372-3.13 2.055-4.692l2.715-6.207c.91-2.082 1.824-4.156 2.734-6.238q1.212-2.766 2.422-5.539c.102-.234.211-.461.301-.7.086-.222.219-.347.469-.316.035.004.07 0 .101 0ZM85.355 9.066V5.86c0-.441.008-.445.442-.445.187 0 .375.004.562 0 .145 0 .25.047.34.164.203.274.418.543.621.813l2.828 3.703c.055.066.106.203.176.176.106-.036.051-.168.051-.262V5.91q.001-.499.488-.5c.211 0 .418 0 .63.008.144.004.195.059.206.203.012.09.008.18.008.266V12.3c0 .097 0 .199-.012.297-.015.109-.066.168-.172.172-.277.007-.546.003-.824 0-.125 0-.191-.098-.261-.184-.18-.234-.368-.473-.543-.711-.997-1.305-1.989-2.605-2.989-3.91a2 2 0 0 0-.125-.152c-.011-.016-.043-.02-.058-.016a.07.07 0 0 0-.032.05 6 6 0 0 0-.007.266v4.199q-.001.165-.02.329c-.012.07-.062.113-.137.129q-.045.009-.097.007c-.278 0-.555.008-.825 0-.19-.004-.234-.05-.25-.23-.007-.102-.003-.2-.003-.3V9.077ZM74.61 10.23c0 .399-.008.793.003 1.192.012.25-.086.406-.281.55-.887.65-1.871.981-2.969.926-1.004-.046-1.89-.398-2.582-1.152a3.6 3.6 0 0 1-.906-1.844c-.172-.906-.07-1.78.363-2.601.57-1.082 1.465-1.739 2.668-1.957.813-.149 1.602-.04 2.367.261.34.133.649.329.926.563.14.117.149.164.043.3-.187.231-.379.462-.57.684-.113.133-.156.133-.309.032-.074-.051-.14-.106-.21-.157-.618-.445-1.313-.558-2.044-.449-.554.086-1.004.395-1.343.84a2.68 2.68 0 0 0-.536 1.992c.02.2.043.395.106.582.3.922.91 1.488 1.871 1.649.656.109 1.27-.028 1.852-.328.187-.098.28-.227.27-.446-.013-.254 0-.508-.005-.762-.004-.27-.027-.296-.308-.3h-1.094c-.086 0-.176 0-.262-.008-.105-.012-.16-.063-.164-.172a11 11 0 0 1 0-.793c.004-.129.059-.172.188-.184.066-.007.129-.007.199-.007h2.344c.37 0 .386.02.386.398v1.191Zm2.703-1.144V5.949c0-.12.003-.242.019-.363.016-.106.07-.152.18-.164q.13-.01.265-.008h4.524c.414 0 .43.016.43.422 0 .2 0 .398-.012.598-.008.128-.063.18-.184.191q-.151.01-.297.008h-3.172c-.421 0-.421 0-.421.418v.992q-.002.118.007.23c.008.114.051.157.16.168q.152.01.297.008h2.711q.146-.001.297.016c.07.004.117.058.133.125q.019.083.02.164c0 .2.007.398 0 .594-.008.273-.043.308-.305.316h-2.906c-.407 0-.41 0-.41.399v1.09q0 .117.003.23c.012.11.059.152.176.164.098.008.2.008.297.008h3.203c.457 0 .461 0 .461.46 0 .188 0 .376-.016.56-.007.128-.066.175-.187.187-.09.011-.18.008-.266.008h-4.727c-.218-.016-.261-.06-.273-.286-.007-.097-.004-.199-.004-.296v-3.11Zm-12.219 3.687c-.14 0-.285-.003-.43 0-.164.004-.266-.07-.324-.222-.035-.094-.078-.184-.117-.274-.13-.304-.25-.609-.38-.914-.156-.375-.128-.363-.558-.363h-2.344c-.132 0-.265.004-.398 0q-.205-.002-.281.184l-.27.64c-.101.242-.207.485-.308.727-.059.152-.164.226-.325.222-.289-.003-.574 0-.859-.003-.191-.004-.227-.067-.156-.258.015-.051.039-.102.062-.153.7-1.625 1.407-3.25 2.106-4.882.258-.594.523-1.184.77-1.79.1-.25.241-.367.519-.343.21.02.418.008.629.004.152 0 .242.07.304.207q.284.668.578 1.332c.79 1.828 1.575 3.66 2.364 5.488.156.371.148.39-.242.395h-.329Zm-3.117-2.976h.855c.316-.004.344-.047.227-.324l-.93-2.188c-.024-.047-.047-.098-.078-.144a.048.048 0 0 0-.078-.008c-.024.027-.035.058-.051.086-.32.754-.633 1.5-.953 2.25-.024.062-.051.125-.063.187-.015.063.016.11.082.121q.114.019.23.02zM98.105 5.29a3.75 3.75 0 0 1 2.602.964c.2.18.203.223.027.43-.183.21-.359.418-.546.62-.094.102-.149.102-.254.02-.23-.191-.461-.383-.735-.508-.847-.402-1.68-.406-2.472.145-.438.305-.727.73-.887 1.242a2.86 2.86 0 0 0 .062 1.942c.285.718.785 1.226 1.543 1.421.672.172 1.332.106 1.934-.285q.322-.21.601-.46c.106-.094.165-.094.262 0 .195.19.39.386.574.585.125.137.121.207-.007.34-.102.106-.215.191-.32.29a3.58 3.58 0 0 1-2.137.859c-1.036.074-1.965-.2-2.762-.88-.66-.566-1.059-1.288-1.223-2.136-.191-.977-.043-1.91.465-2.77.574-.972 1.434-1.562 2.547-1.765a5 5 0 0 1 .394-.051c.11-.008.22 0 .329 0Zm7.355 5.956c0-.355-.007-.707 0-1.059a1 1 0 0 0-.17-.585c-.774-1.18-1.536-2.364-2.302-3.551a10 10 0 0 1-.293-.48c-.039-.067-.004-.137.07-.15.051-.003.11-.007.16-.007.31 0 .618.004.927 0 .21-.008.347.078.457.258.254.426.523.844.785 1.262l.84 1.343q.067.117.148.223c.035.043.102.043.14-.008q.059-.083.11-.164.783-1.243 1.566-2.492c.293-.465.235-.414.762-.418h.66c.07 0 .133.004.2.016.054.007.085.078.062.132q-.048.105-.11.2-.41.638-.827 1.277c-.54.828-1.079 1.66-1.633 2.488a1.17 1.17 0 0 0-.211.711c.011.703.004 1.41 0 2.117 0 .41-.012.418-.43.418q-.345.001-.691-.004c-.145-.007-.2-.062-.215-.203-.008-.09-.004-.175-.004-.265zm0 0"/>
  <path style="stroke:none;fill-rule:nonzero;fill:#000;fill-opacity:1" d="M167.727 33.855v-2.148c.007-.336.043-.371.386-.371.606 0 1.211-.004 1.817 0q.505 0 .957.219c.629.3.875.925.789 1.53a1.33 1.33 0 0 1-.781 1.071c-.118.055-.247.098-.368.149-.086.035-.101.078-.047.152.18.25.364.496.547.746q.306.405.614.82c.039.055.078.106.113.164.059.098.02.168-.094.184-.043.008-.09.008-.133.008-.37.008-.386 0-.605-.293-.34-.461-.688-.918-1.012-1.383-.129-.187-.273-.266-.496-.254-.262.016-.527 0-.793.008-.184.008-.234.055-.238.242-.004.406 0 .813-.004 1.223 0 .098-.004.195-.02.297q-.017.13-.152.148c-.02 0-.043.008-.066.008-.344.027-.407-.031-.418-.375v-2.148Zm1.625-1.91v-.008h-.559c-.078 0-.152 0-.23.012-.11.012-.157.063-.172.164a1 1 0 0 0-.012.133v1.285c0 .043 0 .09.008.133.02.125.066.168.191.188.024 0 .043.003.067.003.472 0 .945 0 1.417-.011.31-.008.575-.133.782-.364.36-.394.312-1.156-.29-1.414a1.4 1.4 0 0 0-.511-.12h-.688Zm-28.938 1.915v-2.114c0-.39.024-.406.41-.41.594 0 1.192-.004 1.781 0 .395 0 .766.09 1.102.3.488.302.684.762.66 1.317-.031.598-.347 1.004-.887 1.25-.05.02-.101.043-.152.059-.234.097-.242.101-.082.32q.479.65.965 1.3c.031.044.07.083.098.13.054.105.21.18.136.308-.062.102-.203.047-.308.063-.219.023-.371-.059-.504-.242-.328-.47-.676-.926-1.016-1.383-.047-.059-.094-.125-.14-.18a.3.3 0 0 0-.23-.113c-.34 0-.685-.004-1.024 0-.13 0-.18.055-.184.187-.008.176-.004.352-.008.528 0 .32 0 .636-.004.957-.004.187-.058.23-.242.242h-.066c-.25 0-.313-.05-.313-.309-.004-.738 0-1.476 0-2.21Zm1.621-1.91v-.009h-.527c-.098 0-.2 0-.297.012-.11.008-.152.059-.168.168l-.004.133v1.285q-.001.067.004.133c.012.125.055.164.187.18q.067.006.133.007h1.188c.097 0 .195 0 .293-.023.523-.102.949-.422.87-1.11a.77.77 0 0 0-.398-.609 1.2 1.2 0 0 0-.562-.16c-.238-.004-.484 0-.727 0Zm33.535-6.587V23.38c0-.067-.004-.129 0-.195.008-.118-.027-.254.106-.325.152-.078.418-.043.531.07.07.071.125.153.188.231q1.264 1.629 2.535 3.258c.058.078.097.172.199.207.113-.082.059-.2.059-.3.003-.981 0-1.958 0-2.942 0-.078-.004-.156 0-.23.003-.106-.032-.231.093-.29a.5.5 0 0 1 .414.008.16.16 0 0 1 .075.102q.029.146.027.293v4.265c-.012.117.02.27-.121.309-.172.05-.352.062-.485-.102-.14-.168-.277-.343-.414-.515q-1.201-1.553-2.41-3.102c-.039-.05-.074-.144-.133-.129-.097.028-.05.133-.05.203v3.203q.001.165-.016.329c-.008.074-.063.12-.133.128q-.112.018-.23.012c-.164-.008-.215-.055-.23-.215-.009-.09-.009-.18-.009-.27v-2.015Zm-22.086 8.492v-2.183c.008-.305.036-.336.348-.336.629-.004 1.254 0 1.879 0 .312 0 .613.074.894.21.543.27.817.716.813 1.329 0 .594-.27 1.031-.805 1.293-.117.055-.246.102-.363.156-.043.024-.062.07-.035.114.043.078.097.152.144.222q.506.674 1 1.352c.067.093.207.18.13.308-.067.102-.204.051-.31.063-.222.023-.37-.078-.495-.258-.313-.437-.637-.871-.957-1.305-.059-.078-.122-.152-.18-.234a.29.29 0 0 0-.254-.129c-.32 0-.64-.004-.957 0-.168.004-.215.059-.219.223-.008.398-.004.793-.008 1.191 0 .11 0 .219-.015.328-.008.11-.067.153-.168.172-.024 0-.043.004-.067.008-.34.008-.379-.047-.379-.344v-2.18Zm1.61 0v-.011c.242 0 .484.008.726 0 .246-.012.465-.11.66-.266.465-.367.461-1.27-.25-1.543a1.3 1.3 0 0 0-.417-.086c-.485-.004-.97-.012-1.454-.004-.191 0-.242.051-.242.235-.008.484-.008.965 0 1.453 0 .164.055.219.219.222.25.008.508 0 .758 0M143.45 16.844v-2.082c0-.418.01-.422.425-.426h1.816q.488-.001.922.215c.555.277.801.738.79 1.34-.012.64-.348 1.07-.926 1.32-.102.043-.25.027-.286.14-.039.126.094.212.16.305q.512.69 1.024 1.375c.055.078.164.157.117.258-.058.117-.191.074-.297.082h-.132a.38.38 0 0 1-.333-.176q-.241-.331-.488-.664c-.21-.285-.426-.566-.625-.851-.113-.157-.25-.239-.445-.23-.25.007-.504 0-.758 0-.297.007-.324.03-.328.32-.004.375 0 .746 0 1.12 0 .09 0 .18-.008.266-.012.145-.062.188-.207.207-.031 0-.07.004-.101.004-.247 0-.31-.058-.31-.316-.003-.738 0-1.473 0-2.211Zm.628-.973h-.004v.2c0 .199 0 .398.008.597.004.125.055.168.184.184h1.422c.199 0 .39-.063.57-.149.308-.152.554-.445.504-.95-.035-.37-.25-.636-.637-.757a1.5 1.5 0 0 0-.227-.043c-.535-.082-1.074-.039-1.609-.039-.148 0-.203.05-.207.2-.008.253 0 .507 0 .757Zm-13.41 15.391c1.3 0 2.328.906 2.508 2.203.086.66-.035 1.277-.39 1.832-.509.781-1.235 1.168-2.169 1.156-1.02-.02-1.765-.504-2.215-1.402-.363-.727-.375-1.489-.062-2.242.34-.809.953-1.301 1.8-1.504.173-.043.348-.043.524-.043Zm-1.879 2.539v.136c-.012 1 .805 2.036 2.086 1.91.617-.062 1.074-.367 1.39-.886.227-.379.305-.793.282-1.234-.05-1.07-.844-1.79-1.68-1.864-.687-.058-1.254.157-1.676.711a1.9 1.9 0 0 0-.402 1.23Zm34.902 2.652a2.44 2.44 0 0 1-2.394-1.77c-.309-1.062-.09-2.007.719-2.78.492-.473 1.097-.669 1.78-.645.864.031 1.54.406 2.017 1.12.25.376.375.794.41 1.243a2.74 2.74 0 0 1-.332 1.559c-.442.82-1.348 1.304-2.2 1.273m-1.859-2.598c.004.2.008.391.059.586.175.7.855 1.47 1.91 1.41.617-.03 1.094-.288 1.441-.796.297-.438.387-.926.34-1.446-.086-.922-.746-1.617-1.66-1.738-.656-.09-1.215.125-1.64.64a1.94 1.94 0 0 0-.45 1.348ZM136.215 16.82c.008.825-.278 1.528-.922 2.059-1.395 1.144-3.621.531-4.059-1.406-.191-.844-.027-1.621.508-2.301.422-.535.985-.832 1.664-.906a2.55 2.55 0 0 1 1.016.074 2.495 2.495 0 0 1 1.793 2.25c.004.078 0 .152 0 .23m-2.672 2.032c.898-.012 1.45-.332 1.789-.965.34-.645.36-1.317.043-1.973-.324-.684-.879-1.062-1.645-1.078-.757-.012-1.324.336-1.687 1.012-.203.386-.227.797-.211 1.218.04.891.797 1.817 1.711 1.79Zm35.469 6.511c.015-.96.39-1.73 1.218-2.246 1.344-.836 3.2-.234 3.708 1.367.28.883.152 1.72-.391 2.477a2.3 2.3 0 0 1-1.434.926c-.972.203-1.812-.04-2.48-.793-.43-.492-.625-1.078-.621-1.73m2.523-2.015c-.547 0-1.02.199-1.355.57-.668.746-.715 1.965-.086 2.742.902 1.113 2.535.832 3.09-.3.222-.454.28-.919.203-1.41-.149-.934-.969-1.637-1.852-1.602m-40.101 4.511h-.133c-.137.007-.227-.063-.281-.188-.09-.211-.188-.422-.278-.633-.238-.55-.164-.492-.742-.496h-1.914a.25.25 0 0 0-.234.152q-.072.17-.149.332c-.094.211-.191.422-.277.633-.063.14-.16.195-.309.2-.37.011-.41-.04-.254-.391.395-.887.793-1.766 1.188-2.649.246-.554.496-1.105.738-1.66l.031-.058c.133-.293.285-.372.602-.293a.2.2 0 0 1 .129.09c.035.058.07.113.094.175q.977 2.18 1.949 4.367c.02.04.035.082.054.122.11.261.086.292-.21.292Zm-2.196-1.883h.528c.129 0 .265 0 .394-.008.05 0 .078-.043.067-.098-.016-.05-.04-.101-.059-.152q-.336-.77-.676-1.54a10 10 0 0 0-.21-.452c-.02-.043-.079-.043-.11 0a2 2 0 0 0-.078.148q-.407.915-.813 1.84a.5.5 0 0 0-.043.125c-.015.058.016.113.075.125.062.012.132.015.195.015h.726Zm25.387 1.883h-.129q-.187.001-.258-.169-.157-.345-.308-.691c-.032-.074-.07-.14-.098-.215-.062-.183-.191-.242-.383-.242q-1.038.012-2.082 0c-.18 0-.285.07-.351.234-.106.266-.243.524-.34.793-.09.23-.238.328-.48.297h-.067c-.152-.012-.188-.066-.129-.219.027-.082.066-.164.102-.246.644-1.437 1.285-2.879 1.93-4.316.011-.031.027-.059.038-.09a.28.28 0 0 1 .278-.191c.328-.016.375.004.507.304.399.883.79 1.77 1.188 2.653.238.543.484 1.09.727 1.629l.07.152c.117.293.097.324-.215.32Zm-2.168-1.883h.758c.05 0 .11-.004.16-.012a.07.07 0 0 0 .05-.074.7.7 0 0 0-.05-.157c-.273-.636-.555-1.273-.832-1.906a.5.5 0 0 0-.066-.113c-.02-.031-.059-.031-.086 0a.5.5 0 0 0-.067.113c-.277.621-.55 1.246-.828 1.871-.02.04-.031.082-.043.121-.023.094.016.149.113.153q.117.009.23.007h.661Zm-14.152-9.883v1.222c0 .223.02.442.097.649q.246.681.946.836c.261.054.527.058.785 0 .55-.13.879-.485.992-1.031q.071-.34.066-.692v-2.316q-.001-.146.016-.297c.008-.07.063-.117.133-.125a1 1 0 0 1 .129-.012c.285-.012.34.035.344.309.003.902.007 1.804 0 2.71 0 .298-.067.59-.172.872-.215.562-.614.93-1.188 1.11-.465.14-.933.148-1.402.01-.77-.218-1.188-.76-1.344-1.523a3 3 0 0 1-.066-.691c.004-.77 0-1.54 0-2.312v-.098c0-.399.074-.402.433-.383.14.008.192.055.207.203q.017.151.016.3v1.259Zm-3.039 16.992v1.254c0 .234.027.46.117.68q.294.73 1.07.812c.172.02.352.02.527 0 .516-.059.875-.332 1.055-.824a2.2 2.2 0 0 0 .121-.781v-2.414c0-.098 0-.196.012-.297.008-.106.059-.153.168-.168.02 0 .043-.008.066-.008.332-.012.383.039.38.34v2.68c0 .23-.04.46-.106.683-.219.738-.696 1.21-1.461 1.363a2.46 2.46 0 0 1-1.305-.078c-.62-.21-1-.66-1.18-1.281a3.4 3.4 0 0 1-.117-.883v-2.383q-.001-.082.004-.164c.02-.23.074-.281.313-.281.27 0 .328.047.332.324.008.477 0 .95 0 1.422Zm13.132.762V31.73c0-.375.02-.394.391-.394h1.484q.351.002.684.098c.68.187 1.125.707 1.168 1.359.059.746-.305 1.355-.973 1.64q-.382.166-.804.172c-.328.004-.66 0-.989.008-.316.004-.336.02-.34.34v1.09c0 .297-.062.348-.347.34a1 1 0 0 1-.133-.016c-.07-.02-.121-.062-.125-.137-.012-.097-.012-.195-.016-.296v-2.079Zm1.465-1.903c-.187-.004-.37-.011-.558 0-.235.008-.27.047-.282.27-.003.09 0 .176 0 .262v1.285c0 .25.036.281.293.285.329.004.657 0 .989 0 .23 0 .453-.067.66-.176a.99.99 0 0 0 .535-1.012c-.043-.414-.3-.718-.723-.847a1.5 1.5 0 0 0-.39-.063h-.528Zm-27.289-.675c.489 0 .985.148 1.43.46.047.036.09.067.133.106.039.039.062.09.039.148q-.09.18-.239.313c-.046.043-.101.039-.152.008-.097-.059-.183-.121-.281-.176-.445-.25-.922-.356-1.43-.23-.402.097-.625.402-.61.785a.63.63 0 0 0 .274.504c.164.117.348.19.54.246.199.054.406.097.609.152.265.066.527.152.773.281.43.227.7.559.715 1.067.02.527-.187.941-.633 1.226-.406.262-.86.324-1.332.281a2.83 2.83 0 0 1-1.46-.554 2 2 0 0 1-.177-.153c-.097-.09-.109-.152-.027-.257.262-.336.27-.313.54-.094.491.402 1.054.515 1.671.457.203-.024.379-.102.54-.227.339-.281.366-.925-.106-1.175a2.6 2.6 0 0 0-.551-.215c-.203-.051-.406-.098-.61-.149a3.5 3.5 0 0 1-.707-.265c-.91-.434-.867-1.68-.183-2.18.351-.254.746-.371 1.234-.363Zm19.547-3.344c-.684.015-1.25-.219-1.762-.61-.035-.027-.074-.05-.101-.086-.082-.078-.09-.14-.031-.23q.035-.054.078-.11c.175-.218.226-.21.43-.05a2.3 2.3 0 0 0 1.062.496c.3.047.594.047.883-.047.355-.121.578-.422.57-.766-.008-.238-.102-.425-.305-.55a2 2 0 0 0-.511-.223 48 48 0 0 0-.801-.203c-.27-.07-.52-.172-.758-.32a1.09 1.09 0 0 1-.535-.934 1.4 1.4 0 0 1 .027-.457 1.26 1.26 0 0 1 .469-.703 1.87 1.87 0 0 1 1.144-.367c.512 0 1 .117 1.438.41l.11.074c.167.129.179.18.066.355q-.052.084-.117.157c-.063.074-.122.086-.204.039-.074-.043-.144-.094-.222-.145a2.03 2.03 0 0 0-1.36-.289 1 1 0 0 0-.425.164c-.387.246-.43.946.03 1.196a3 3 0 0 0 .645.246c.192.05.387.093.575.14.238.059.46.149.68.262.675.363.89 1.145.5 1.813-.2.343-.505.542-.876.656a2 2 0 0 1-.691.082Zm-18.215-.008a2.6 2.6 0 0 1-1.636-.52c-.063-.046-.125-.09-.18-.144-.13-.117-.133-.176-.031-.313.004-.011.011-.015.02-.023.198-.238.234-.258.476-.066.449.367.96.53 1.535.503a1.35 1.35 0 0 0 .62-.195c.423-.246.45-1.004-.038-1.242a3 3 0 0 0-.524-.2c-.316-.085-.636-.167-.953-.257a2.2 2.2 0 0 1-.484-.215c-.711-.418-.77-1.398-.262-1.953a1.57 1.57 0 0 1 .817-.477 2.43 2.43 0 0 1 1.488.114c.219.086.422.195.605.336.133.101.145.164.043.304-.218.305-.226.305-.511.11a1.95 1.95 0 0 0-1.32-.332 1 1 0 0 0-.497.164c-.492.343-.394.988.02 1.21.215.118.441.196.68.255.288.066.581.132.859.234.156.059.305.129.449.219.77.465.7 1.425.305 1.902-.297.36-.688.54-1.145.586-.11.008-.219 0-.328 0Zm23.234-5.102h1.488c.24.008.321.047.31.352-.008.18-.07.238-.243.25-.09.004-.175 0-.265 0h-2.016c-.098 0-.195 0-.297.016a.14.14 0 0 0-.129.128q-.018.095-.02.2v1.023c0 .05 0 .11.012.16.016.11.063.153.176.164q.136.01.266.008h1.882c.27.012.333.074.313.34-.012.176-.058.234-.242.25-.098.008-.195.004-.297.004h-1.652c-.09 0-.176 0-.266.012-.12.015-.172.066-.183.195-.012.09-.008.176-.008.266v1.289c0 .359-.051.406-.406.379-.172-.012-.22-.051-.239-.211-.012-.09-.008-.18-.008-.266v-4.07c0-.489.012-.496.5-.496h1.32Zm9.555 2.544c.016.578.192 1.097.625 1.507a1.84 1.84 0 0 0 2.024.332c.191-.086.37-.195.527-.336a2 2 0 0 1 .156-.12c.098-.067.149-.067.235.019.281.265.304.293 0 .558-.867.754-2.164.844-3.067.235-.71-.477-1.082-1.164-1.132-2.024a2.7 2.7 0 0 1 .519-1.8 2.3 2.3 0 0 1 1.281-.883c.832-.23 1.61-.098 2.313.418.054.039.11.082.152.125.176.16.176.191.012.37q-.054.062-.113.122c-.106.101-.141.105-.258.023-.13-.09-.25-.183-.375-.27a1.85 1.85 0 0 0-2.824 1.13 1.9 1.9 0 0 0-.075.59Zm-29.222-7.083c0-.199-.004-.394 0-.593a.93.93 0 0 0-.184-.618c-.539-.78-1.066-1.562-1.594-2.347-.062-.098-.203-.192-.144-.313.066-.136.238-.058.363-.074.195-.027.324.066.43.23.406.618.816 1.227 1.222 1.84.246.371.246.371.496 0q.579-.86 1.157-1.726.076-.11.148-.219a.28.28 0 0 1 .219-.125c.133 0 .262 0 .398.008.075 0 .106.074.07.144-.034.067-.077.133-.12.2-.532.78-1.059 1.566-1.598 2.343a1.02 1.02 0 0 0-.211.672c.016.363 0 .727 0 1.094v.2c-.008.116.027.257-.098.327-.132.07-.277.055-.418.02-.058-.012-.101-.055-.105-.113a1.4 1.4 0 0 1-.027-.262v-.695Zm54.644 17.032c0-.23-.004-.465 0-.696a.73.73 0 0 0-.129-.433c-.336-.489-.672-.985-1.004-1.477q-.346-.503-.687-1.012a2 2 0 0 1-.117-.195c-.032-.07.007-.14.086-.144.14-.004.289-.004.43 0 .081 0 .144.046.19.113q.078.107.15.215l1.171 1.761c.05.075.094.149.148.215.06.082.118.078.184-.011.055-.07.098-.145.149-.22.394-.585.78-1.171 1.175-1.757.235-.348.2-.34.676-.332q.048.002.098.016c.058.007.097.074.074.12q-.065.118-.14.223c-.544.801-1.083 1.61-1.633 2.403a1.02 1.02 0 0 0-.196.644c.008.399.004.797 0 1.192 0 .09 0 .18-.012.261-.011.11-.058.153-.171.168a1 1 0 0 1-.098.008c-.277.012-.336-.043-.344-.312-.008-.25 0-.508 0-.762Zm-47.773-9.684v-1.754q0-.45-.434-.453h-.793q-.118.002-.23-.008c-.106-.015-.157-.062-.172-.172a.8.8 0 0 1-.012-.199c.012-.144.059-.2.2-.219.077-.011.152-.011.23-.011h3.105c.38 0 .399.082.364.449-.008.086-.07.133-.157.144-.097.012-.199.012-.297.016h-.89c-.207.004-.246.05-.258.262-.008.097 0 .195 0 .297v3.37c0 .114 0 .223-.012.333-.015.11-.066.16-.172.164-.406.023-.468.02-.468-.41v-1.817Zm29.422.004v1.715q.001.135-.004.27c-.016.198-.063.238-.27.245-.3.012-.351-.03-.351-.328v-3.605c0-.098 0-.2-.004-.297-.012-.152-.051-.195-.203-.2-.32-.007-.641 0-.961-.007-.098 0-.2 0-.297-.008-.11-.012-.16-.062-.176-.164q.001-.019-.004-.031c-.035-.324.027-.395.356-.399 1.058-.004 2.113 0 3.171 0h.067c.347-.011.367.215.289.5-.016.059-.07.086-.129.09q-.131.01-.262.008-.493-.001-.992.004c-.172 0-.215.047-.223.219-.007.175-.003.347-.003.527v1.457Zm13.184 8.511v-1.816c0-.37-.012-.383-.4-.386-.308 0-.613.003-.921 0-.293-.008-.344-.067-.324-.36.011-.183.058-.226.246-.238.078-.008.152-.004.23-.004h2.969q.136-.002.266.008c.125.008.18.062.199.18l.004.066c.011.265-.047.34-.313.348-.297.007-.594 0-.89.003-.442 0-.446 0-.446.442v3.734c-.007.207-.058.258-.254.266h-.129c-.167-.016-.222-.063-.23-.223-.008-.12-.004-.238-.004-.363v-1.652Zm-57.747-.257v1.945q.001.134-.004.262c-.015.234-.07.281-.308.285-.27 0-.332-.05-.336-.324-.008-.387 0-.77 0-1.156v-3.032c0-.12.004-.242.023-.36.012-.105.07-.151.176-.163a1 1 0 0 1 .098-.008c.289-.008.351.043.355.34.008.738 0 1.473 0 2.21Zm40.407-.004v2.148c-.005.106.03.239-.079.305-.125.082-.273.055-.414.027-.058-.015-.101-.054-.11-.113a2 2 0 0 1-.019-.262v-4.328c.012-.273.063-.324.336-.316.235.008.281.047.285.297.004.746 0 1.496 0 2.246Zm13.648-.051v-2.211c.008-.23.05-.273.27-.281.308-.008.35.05.35.336v4.293q.001.136-.015.265c-.004.07-.054.114-.125.133a.5.5 0 0 1-.133.016c-.312.004-.347-.059-.347-.34zm-6.422-8.5v-2.206c0-.208.012-.298.324-.298.031 0 .067 0 .098.008.125.016.176.066.195.188a2 2 0 0 1 .012.199v4.254c0 .382-.059.414-.461.382-.09-.007-.14-.058-.152-.144a3 3 0 0 1-.016-.297v-2.078Zm-28.172-.004v2.211c-.004.098.027.219-.07.277-.137.086-.293.067-.446.024-.046-.012-.074-.055-.078-.098a2 2 0 0 1-.023-.293v-4.32c.012-.242.078-.3.328-.297.055 0 .11.012.164.02.07.02.113.07.121.14.004.098.008.2.008.297v2.043Zm0 0"/>
</svg>
