<?xml version="1.0" encoding="UTF-8"?>
<svg id="Layer_2" data-name="Layer 2" xmlns="http://www.w3.org/2000/svg" viewBox="0 0 110.84 186.59">
  <defs>
    <style>
      .cls-1 {
        fill: #229ad6;
      }

      .cls-2 {
        fill: #ac5c25;
      }

      .cls-3 {
        fill: #1d598f;
      }

      .cls-4 {
        fill: #e0ae2a;
      }
    </style>
  </defs>
  <g id="Calque_1" data-name="Calque 1">
    <g>
      <path class="cls-3" d="M24.9,40.75c0,1.18-.35,2.13-1.02,2.9-.7,.76-1.62,1.18-2.8,1.18h-.25c1.3,.41,2.16,1.5,2.58,3.25,.1,.45,.57,.67,1.37,.67v.45h-3.12v-.7c0-1.24-.29-2.2-.89-2.83-.51-.51-1.15-.8-1.88-.8h-.25v-.76h1.08c1.15,0,2.04-.38,2.67-1.15,.6-.7,.89-1.56,.89-2.58,0-1.08-.22-1.94-.67-2.58s-1.08-.95-1.94-.95c-.64,0-1.21,.25-1.72,.76-.54,.54-.8,1.18-.8,1.94v7c0,.92,.06,1.5,.19,1.72,.16,.29,.6,.45,1.3,.48v.45h-4.65v-.45c.67,0,1.11-.16,1.27-.45,.13-.19,.19-.76,.19-1.72v-7.22c0-.95,.41-1.75,1.24-2.32,.76-.54,1.65-.8,2.74-.8,1.27,0,2.35,.45,3.21,1.37,.83,.86,1.24,1.91,1.24,3.15h.02Z"/>
      <path class="cls-3" d="M34.16,45.65c0-1.21-.25-2.2-.76-2.99-.54-.86-1.24-1.27-2.13-1.27-.95,0-1.69,.32-2.16,.99-.41,.57-.64,1.3-.64,2.23,0,1.15,.22,2.1,.7,2.9,.57,.95,1.4,1.43,2.51,1.43,.83,0,1.46-.32,1.91-.99,.35-.64,.57-1.4,.57-2.29h0Zm1.69-.81c0,1.37-.48,2.48-1.4,3.37-.92,.86-2.1,1.3-3.56,1.3-1.21,0-2.2-.38-2.96-1.18s-1.18-1.78-1.18-3.02c0-1.37,.41-2.45,1.27-3.31,.86-.83,2.04-1.27,3.53-1.27,1.21,0,2.2,.38,3.02,1.18,.86,.83,1.27,1.78,1.27,2.93h0Z"/>
      <path class="cls-3" d="M47.17,41.42c-.67,0-1.11,.1-1.34,.32-.19,.22-.32,.6-.32,1.18v3.28c0,.92-.35,1.69-1.11,2.26-.57,.45-1.15,.67-1.78,.73v2.29c0,.95,.06,1.56,.22,1.78,.16,.29,.6,.45,1.27,.45v.45h-4.55v-.45c.7-.03,1.15-.22,1.3-.48,.13-.22,.19-.8,.19-1.75v-2.29c-.64-.03-1.21-.29-1.78-.73-.73-.57-1.08-1.34-1.08-2.26v-3.28c0-.57-.1-.99-.32-1.18-.19-.22-.64-.32-1.3-.32v-.45h3.18v4.71c0,.99,.1,1.65,.29,2.07,.32,.64,.92,.95,1.81,.95s1.46-.32,1.78-.95c.22-.45,.32-1.11,.32-2.07v-4.71h3.21v.45h.01Z"/>
      <path class="cls-3" d="M57.74,49.18h-3.02v-5.15c0-.8-.25-1.43-.73-1.94s-1.08-.76-1.81-.76c-.89,0-1.56,.32-2,.95-.45,.64-.67,1.5-.67,2.61,0,.92,.22,1.69,.7,2.32,.51,.7,1.21,1.08,2.1,1.08,.76,0,1.4-.35,1.91-1.05v.76c-.54,.92-1.4,1.4-2.58,1.4s-2.13-.38-2.77-1.18c-.6-.73-.92-1.72-.92-2.96s.45-2.35,1.3-3.21c.86-.86,1.94-1.3,3.25-1.3,.95,0,1.81,.25,2.55,.8,.83,.6,1.24,1.37,1.24,2.32v3.75c0,.48,.06,.76,.19,.89s.45,.19,.92,.22h.35v.45h-.01Z"/>
      <path class="cls-3" d="M68.94,41.42c-.67,0-1.11,.16-1.27,.45-.13,.25-.22,.83-.22,1.78v2.35c0,.76,.06,1.34,.22,1.72,.19,.48,.57,.83,1.11,1.02v.45h-.16c-.8,0-1.46-.32-2-.92-.76,.8-1.81,1.18-3.18,1.18s-2.55-.51-3.31-1.5c-.73-.92-1.08-2.16-1.08-3.66s.35-2.7,1.02-3.88,1.56-1.97,2.67-2.42l.06,.1c-1.4,1.15-2.1,3.4-2.07,6.78,0,1.24,.29,2.23,.83,2.96,.51,.7,1.11,1.05,1.85,1.05,1.65,0,2.45-.8,2.45-2.35v-2.83c0-.95-.06-1.56-.22-1.78-.16-.29-.6-.45-1.27-.45v-.45h4.55v.41h.02Z"/>
      <path class="cls-3" d="M85.89,45.9c0,1.43-.35,2.7-1.02,3.88s-1.56,1.97-2.67,2.42l-.06-.1c1.4-1.15,2.1-3.4,2.07-6.78,0-1.24-.29-2.23-.83-2.99-.51-.7-1.11-1.05-1.85-1.05-1.65,0-2.45,.8-2.45,2.35v2.83c0,.95,.06,1.56,.22,1.78,.16,.29,.6,.45,1.27,.45v.45h-4.55v-.45c.67,0,1.11-.16,1.27-.45,.13-.25,.22-.83,.22-1.78v-2.83c0-1.59-.83-2.35-2.45-2.35-.73,0-1.34,.35-1.85,1.05-.54,.76-.83,1.75-.83,2.99-.03,3.37,.67,5.63,2.07,6.78l-.06,.1c-1.11-.45-2-1.24-2.67-2.42s-1.02-2.45-1.02-3.88,.35-2.74,1.08-3.66c.8-1.02,1.91-1.5,3.31-1.5s2.45,.41,3.21,1.27c.76-.86,1.85-1.27,3.21-1.27s2.51,.51,3.31,1.5c.7,.92,1.05,2.13,1.05,3.66h.02Z"/>
      <path class="cls-3" d="M94.2,43.61c0-.6-.19-1.15-.6-1.62-.48-.54-1.05-.8-1.78-.8s-1.3,.22-1.75,.7c-.48,.48-.73,1.05-.8,1.72h4.93Zm1.62,.74h-6.62c0,1.34,.32,2.35,.95,3.09,.6,.67,1.4,.99,2.39,.99,.73,0,1.46-.25,2.23-.76v.73c-.8,.7-1.75,1.05-2.86,1.05-1.34,0-2.39-.38-3.15-1.15-.76-.76-1.15-1.78-1.15-3.05s.45-2.39,1.3-3.25c.86-.89,1.94-1.34,3.21-1.34,1.05,0,1.91,.32,2.58,.95,.73,.64,1.08,1.56,1.11,2.74h0Z"/>
      <path class="cls-3" d="M24.84,55.1c-.67,0-1.08,.13-1.24,.41-.13,.22-.19,.83-.19,1.78v7.67c0,.99-.41,1.75-1.21,2.35-.73,.54-1.65,.83-2.77,.83-1.24,0-2.29-.45-3.15-1.34s-1.27-1.97-1.27-3.21,.32-2.23,.92-2.96c.67-.8,1.59-1.21,2.8-1.21s2.04,.48,2.58,1.4v.76c-.51-.7-1.15-1.05-1.91-1.05-.89,0-1.59,.35-2.1,1.08-.48,.64-.7,1.43-.7,2.35,0,1.11,.22,1.97,.64,2.61,.48,.67,1.15,.99,2.04,.99,.64,0,1.21-.29,1.75-.83,.54-.54,.8-1.18,.8-1.91v-7.48c0-.95-.06-1.56-.22-1.78s-.57-.38-1.27-.41v-.45h4.52v.38l-.02,.02h0Z"/>
      <path class="cls-3" d="M35.47,60.09c-.7,0-1.11,.16-1.27,.45-.16,.25-.22,.83-.22,1.81v2.35c0,.76,.1,1.34,.25,1.72,.19,.48,.57,.83,1.11,1.02v.45h-.16c-.8,0-1.46-.32-2-.92-.76,.8-1.85,1.18-3.18,1.18-1.43,0-2.55-.51-3.34-1.53-.73-.92-1.08-2.16-1.08-3.66s.35-2.74,1.02-3.91c.67-1.18,1.56-1.97,2.67-2.42l.06,.1c-1.4,1.15-2.1,3.4-2.07,6.81,0,1.24,.29,2.23,.83,2.99,.51,.7,1.11,1.05,1.85,1.05,1.65,0,2.48-.8,2.48-2.39v-2.83c0-.95-.06-1.56-.22-1.81-.16-.29-.6-.45-1.27-.45v-.45h4.58v.45h-.04Z"/>
      <path class="cls-3" d="M58.88,61.69c0,1.72-.35,3.31-1.02,4.77-.73,1.56-1.72,2.7-2.99,3.44l-.06-.1c.8-1.24,1.34-2.48,1.69-3.79,.32-1.27,.51-2.77,.51-4.49,0-1.5-.22-2.74-.64-3.82-.57-1.4-1.43-2.1-2.61-2.1-.67,0-1.21,.19-1.69,.6-.64,.54-.95,1.43-.95,2.61v5.5c0,1.27,.06,2.07,.22,2.42,.22,.45,.7,.64,1.46,.64v.45h-5.06v-.45c.76,0,1.27-.22,1.46-.64,.16-.35,.22-1.15,.22-2.42v-5.5c0-1.18-.32-2.07-.95-2.61-.45-.38-1.02-.6-1.69-.6-1.15,0-2,.7-2.61,2.1-.45,1.05-.64,2.32-.64,3.82,0,1.69,.16,3.18,.51,4.49,.35,1.27,.89,2.55,1.69,3.79l-.06,.1c-1.27-.73-2.26-1.88-2.99-3.44-.7-1.46-1.05-3.05-1.05-4.77,0-1.81,.41-3.34,1.18-4.58,.95-1.46,2.26-2.2,3.95-2.2,1.53,0,2.7,.57,3.5,1.69,.8-1.11,1.97-1.69,3.53-1.69,1.69,0,3.02,.73,3.95,2.2,.73,1.24,1.15,2.77,1.15,4.58h0Z"/>
      <path class="cls-3" d="M70.34,67.89h-3.05v-5.15c0-.8-.25-1.43-.73-1.97-.48-.51-1.08-.76-1.81-.76-.89,0-1.56,.32-2,.95-.45,.64-.67,1.53-.67,2.64,0,.92,.22,1.69,.7,2.35,.54,.73,1.24,1.08,2.1,1.08,.76,0,1.4-.35,1.91-1.05v.76c-.54,.92-1.4,1.4-2.58,1.4s-2.13-.41-2.8-1.18c-.6-.73-.92-1.75-.92-2.99s.45-2.35,1.3-3.25c.86-.86,1.97-1.3,3.28-1.3,.95,0,1.81,.29,2.55,.83,.83,.6,1.24,1.37,1.24,2.32v3.79c0,.48,.06,.76,.19,.89s.45,.19,.95,.22h.35v.41h-.01Z"/>
      <path class="cls-3" d="M76.92,59.9l-.22,.8c-.29-.51-.67-.76-1.21-.76-.67,0-1.15,.38-1.4,1.15-.16,.45-.22,1.11-.22,1.97v2.13c0,.95,.06,1.56,.22,1.81,.16,.29,.6,.45,1.27,.45v.45h-4.58v-.45c.7-.06,1.15-.22,1.34-.48,.13-.22,.19-.8,.19-1.78v-1.53c0-1.21,.22-2.2,.64-2.93,.54-.89,1.34-1.37,2.39-1.37,.6,.03,1.11,.19,1.59,.54h0Z"/>
      <path class="cls-3" d="M85.32,64.36c0-1.21-.25-2.2-.76-3.02-.54-.86-1.27-1.3-2.16-1.3-.95,0-1.69,.32-2.2,.99-.41,.57-.64,1.3-.64,2.26,0,1.15,.22,2.1,.7,2.9,.57,.95,1.4,1.43,2.51,1.43,.83,0,1.46-.35,1.91-1.02,.41-.57,.64-1.34,.64-2.23h0Zm1.69-.81c0,1.37-.48,2.51-1.4,3.37-.92,.89-2.13,1.3-3.6,1.3-1.21,0-2.2-.38-2.99-1.18s-1.18-1.78-1.18-3.02c0-1.37,.41-2.48,1.27-3.31,.86-.86,2.04-1.27,3.53-1.27,1.21,0,2.23,.38,3.05,1.18,.89,.8,1.3,1.78,1.3,2.93h.02Z"/>
      <path class="cls-3" d="M95.82,59.87l-.29,2.32h-.51l-.06-.64c-.06-.51-.29-.92-.64-1.21-.38-.32-.86-.45-1.43-.45-.89,0-1.62,.35-2.13,1.02-.48,.64-.7,1.4-.7,2.39,0,1.34,.35,2.35,1.08,3.05,.64,.6,1.5,.92,2.51,.92,.67,0,1.3-.25,1.94-.7v.67c-.64,.64-1.5,.95-2.64,.95-1.34,0-2.42-.35-3.21-1.05-.86-.73-1.27-1.78-1.27-3.09s.45-2.39,1.37-3.31,2-1.37,3.28-1.37c.92-.1,1.85,.1,2.7,.48v.02Z"/>
      <path class="cls-3" d="M24.9,40.75c0,1.18-.35,2.13-1.02,2.9-.7,.76-1.62,1.18-2.8,1.18h-.25c1.3,.41,2.16,1.5,2.58,3.25,.1,.45,.57,.67,1.37,.67v.45h-3.12v-.7c0-1.24-.29-2.2-.89-2.83-.51-.51-1.15-.8-1.88-.8h-.25v-.76h1.08c1.15,0,2.04-.38,2.67-1.15,.6-.7,.89-1.56,.89-2.58,0-1.08-.22-1.94-.67-2.58s-1.08-.95-1.94-.95c-.64,0-1.21,.25-1.72,.76-.54,.54-.8,1.18-.8,1.94v7c0,.92,.06,1.5,.19,1.72,.16,.29,.6,.45,1.3,.48v.45h-4.65v-.45c.67,0,1.11-.16,1.27-.45,.13-.19,.19-.76,.19-1.72v-7.22c0-.95,.41-1.75,1.24-2.32,.76-.54,1.65-.8,2.74-.8,1.27,0,2.35,.45,3.21,1.37,.83,.86,1.24,1.91,1.24,3.15h.02Z"/>
      <path class="cls-3" d="M34.16,45.65c0-1.21-.25-2.2-.76-2.99-.54-.86-1.24-1.27-2.13-1.27-.95,0-1.69,.32-2.16,.99-.41,.57-.64,1.3-.64,2.23,0,1.15,.22,2.1,.7,2.9,.57,.95,1.4,1.43,2.51,1.43,.83,0,1.46-.32,1.91-.99,.35-.64,.57-1.4,.57-2.29h0Zm1.69-.81c0,1.37-.48,2.48-1.4,3.37-.92,.86-2.1,1.3-3.56,1.3-1.21,0-2.2-.38-2.96-1.18s-1.18-1.78-1.18-3.02c0-1.37,.41-2.45,1.27-3.31,.86-.83,2.04-1.27,3.53-1.27,1.21,0,2.2,.38,3.02,1.18,.86,.83,1.27,1.78,1.27,2.93h0Z"/>
      <path class="cls-3" d="M47.17,41.42c-.67,0-1.11,.1-1.34,.32-.19,.22-.32,.6-.32,1.18v3.28c0,.92-.35,1.69-1.11,2.26-.57,.45-1.15,.67-1.78,.73v2.29c0,.95,.06,1.56,.22,1.78,.16,.29,.6,.45,1.27,.45v.45h-4.55v-.45c.7-.03,1.15-.22,1.3-.48,.13-.22,.19-.8,.19-1.75v-2.29c-.64-.03-1.21-.29-1.78-.73-.73-.57-1.08-1.34-1.08-2.26v-3.28c0-.57-.1-.99-.32-1.18-.19-.22-.64-.32-1.3-.32v-.45h3.18v4.71c0,.99,.1,1.65,.29,2.07,.32,.64,.92,.95,1.81,.95s1.46-.32,1.78-.95c.22-.45,.32-1.11,.32-2.07v-4.71h3.21v.45h.01Z"/>
      <path class="cls-3" d="M57.74,49.18h-3.02v-5.15c0-.8-.25-1.43-.73-1.94s-1.08-.76-1.81-.76c-.89,0-1.56,.32-2,.95-.45,.64-.67,1.5-.67,2.61,0,.92,.22,1.69,.7,2.32,.51,.7,1.21,1.08,2.1,1.08,.76,0,1.4-.35,1.91-1.05v.76c-.54,.92-1.4,1.4-2.58,1.4s-2.13-.38-2.77-1.18c-.6-.73-.92-1.72-.92-2.96s.45-2.35,1.3-3.21c.86-.86,1.94-1.3,3.25-1.3,.95,0,1.81,.25,2.55,.8,.83,.6,1.24,1.37,1.24,2.32v3.75c0,.48,.06,.76,.19,.89s.45,.19,.92,.22h.35v.45h-.01Z"/>
      <path class="cls-3" d="M68.94,41.42c-.67,0-1.11,.16-1.27,.45-.13,.25-.22,.83-.22,1.78v2.35c0,.76,.06,1.34,.22,1.72,.19,.48,.57,.83,1.11,1.02v.45h-.16c-.8,0-1.46-.32-2-.92-.76,.8-1.81,1.18-3.18,1.18s-2.55-.51-3.31-1.5c-.73-.92-1.08-2.16-1.08-3.66s.35-2.7,1.02-3.88,1.56-1.97,2.67-2.42l.06,.1c-1.4,1.15-2.1,3.4-2.07,6.78,0,1.24,.29,2.23,.83,2.96,.51,.7,1.11,1.05,1.85,1.05,1.65,0,2.45-.8,2.45-2.35v-2.83c0-.95-.06-1.56-.22-1.78-.16-.29-.6-.45-1.27-.45v-.45h4.55v.41h.02Z"/>
      <path class="cls-3" d="M85.89,45.9c0,1.43-.35,2.7-1.02,3.88s-1.56,1.97-2.67,2.42l-.06-.1c1.4-1.15,2.1-3.4,2.07-6.78,0-1.24-.29-2.23-.83-2.99-.51-.7-1.11-1.05-1.85-1.05-1.65,0-2.45,.8-2.45,2.35v2.83c0,.95,.06,1.56,.22,1.78,.16,.29,.6,.45,1.27,.45v.45h-4.55v-.45c.67,0,1.11-.16,1.27-.45,.13-.25,.22-.83,.22-1.78v-2.83c0-1.59-.83-2.35-2.45-2.35-.73,0-1.34,.35-1.85,1.05-.54,.76-.83,1.75-.83,2.99-.03,3.37,.67,5.63,2.07,6.78l-.06,.1c-1.11-.45-2-1.24-2.67-2.42s-1.02-2.45-1.02-3.88,.35-2.74,1.08-3.66c.8-1.02,1.91-1.5,3.31-1.5s2.45,.41,3.21,1.27c.76-.86,1.85-1.27,3.21-1.27s2.51,.51,3.31,1.5c.7,.92,1.05,2.13,1.05,3.66h.02Z"/>
      <path class="cls-3" d="M94.2,43.61c0-.6-.19-1.15-.6-1.62-.48-.54-1.05-.8-1.78-.8s-1.3,.22-1.75,.7c-.48,.48-.73,1.05-.8,1.72h4.93Zm1.62,.74h-6.62c0,1.34,.32,2.35,.95,3.09,.6,.67,1.4,.99,2.39,.99,.73,0,1.46-.25,2.23-.76v.73c-.8,.7-1.75,1.05-2.86,1.05-1.34,0-2.39-.38-3.15-1.15-.76-.76-1.15-1.78-1.15-3.05s.45-2.39,1.3-3.25c.86-.89,1.94-1.34,3.21-1.34,1.05,0,1.91,.32,2.58,.95,.73,.64,1.08,1.56,1.11,2.74h0Z"/>
      <path class="cls-3" d="M24.84,55.1c-.67,0-1.08,.13-1.24,.41-.13,.22-.19,.83-.19,1.78v7.67c0,.99-.41,1.75-1.21,2.35-.73,.54-1.65,.83-2.77,.83-1.24,0-2.29-.45-3.15-1.34s-1.27-1.97-1.27-3.21,.32-2.23,.92-2.96c.67-.8,1.59-1.21,2.8-1.21s2.04,.48,2.58,1.4v.76c-.51-.7-1.15-1.05-1.91-1.05-.89,0-1.59,.35-2.1,1.08-.48,.64-.7,1.43-.7,2.35,0,1.11,.22,1.97,.64,2.61,.48,.67,1.15,.99,2.04,.99,.64,0,1.21-.29,1.75-.83,.54-.54,.8-1.18,.8-1.91v-7.48c0-.95-.06-1.56-.22-1.78s-.57-.38-1.27-.41v-.45h4.52v.38l-.02,.02h0Z"/>
      <path class="cls-3" d="M35.47,60.09c-.7,0-1.11,.16-1.27,.45-.16,.25-.22,.83-.22,1.81v2.35c0,.76,.1,1.34,.25,1.72,.19,.48,.57,.83,1.11,1.02v.45h-.16c-.8,0-1.46-.32-2-.92-.76,.8-1.85,1.18-3.18,1.18-1.43,0-2.55-.51-3.34-1.53-.73-.92-1.08-2.16-1.08-3.66s.35-2.74,1.02-3.91c.67-1.18,1.56-1.97,2.67-2.42l.06,.1c-1.4,1.15-2.1,3.4-2.07,6.81,0,1.24,.29,2.23,.83,2.99,.51,.7,1.11,1.05,1.85,1.05,1.65,0,2.48-.8,2.48-2.39v-2.83c0-.95-.06-1.56-.22-1.81-.16-.29-.6-.45-1.27-.45v-.45h4.58v.45h-.04Z"/>
      <path class="cls-3" d="M58.88,61.69c0,1.72-.35,3.31-1.02,4.77-.73,1.56-1.72,2.7-2.99,3.44l-.06-.1c.8-1.24,1.34-2.48,1.69-3.79,.32-1.27,.51-2.77,.51-4.49,0-1.5-.22-2.74-.64-3.82-.57-1.4-1.43-2.1-2.61-2.1-.67,0-1.21,.19-1.69,.6-.64,.54-.95,1.43-.95,2.61v5.5c0,1.27,.06,2.07,.22,2.42,.22,.45,.7,.64,1.46,.64v.45h-5.06v-.45c.76,0,1.27-.22,1.46-.64,.16-.35,.22-1.15,.22-2.42v-5.5c0-1.18-.32-2.07-.95-2.61-.45-.38-1.02-.6-1.69-.6-1.15,0-2,.7-2.61,2.1-.45,1.05-.64,2.32-.64,3.82,0,1.69,.16,3.18,.51,4.49,.35,1.27,.89,2.55,1.69,3.79l-.06,.1c-1.27-.73-2.26-1.88-2.99-3.44-.7-1.46-1.05-3.05-1.05-4.77,0-1.81,.41-3.34,1.18-4.58,.95-1.46,2.26-2.2,3.95-2.2,1.53,0,2.7,.57,3.5,1.69,.8-1.11,1.97-1.69,3.53-1.69,1.69,0,3.02,.73,3.95,2.2,.73,1.24,1.15,2.77,1.15,4.58h0Z"/>
      <path class="cls-3" d="M70.34,67.89h-3.05v-5.15c0-.8-.25-1.43-.73-1.97-.48-.51-1.08-.76-1.81-.76-.89,0-1.56,.32-2,.95-.45,.64-.67,1.53-.67,2.64,0,.92,.22,1.69,.7,2.35,.54,.73,1.24,1.08,2.1,1.08,.76,0,1.4-.35,1.91-1.05v.76c-.54,.92-1.4,1.4-2.58,1.4s-2.13-.41-2.8-1.18c-.6-.73-.92-1.75-.92-2.99s.45-2.35,1.3-3.25c.86-.86,1.97-1.3,3.28-1.3,.95,0,1.81,.29,2.55,.83,.83,.6,1.24,1.37,1.24,2.32v3.79c0,.48,.06,.76,.19,.89s.45,.19,.95,.22h.35v.41h-.01Z"/>
      <path class="cls-3" d="M76.92,59.9l-.22,.8c-.29-.51-.67-.76-1.21-.76-.67,0-1.15,.38-1.4,1.15-.16,.45-.22,1.11-.22,1.97v2.13c0,.95,.06,1.56,.22,1.81,.16,.29,.6,.45,1.27,.45v.45h-4.58v-.45c.7-.06,1.15-.22,1.34-.48,.13-.22,.19-.8,.19-1.78v-1.53c0-1.21,.22-2.2,.64-2.93,.54-.89,1.34-1.37,2.39-1.37,.6,.03,1.11,.19,1.59,.54h0Z"/>
      <path class="cls-3" d="M85.32,64.36c0-1.21-.25-2.2-.76-3.02-.54-.86-1.27-1.3-2.16-1.3-.95,0-1.69,.32-2.2,.99-.41,.57-.64,1.3-.64,2.26,0,1.15,.22,2.1,.7,2.9,.57,.95,1.4,1.43,2.51,1.43,.83,0,1.46-.35,1.91-1.02,.41-.57,.64-1.34,.64-2.23h0Zm1.69-.81c0,1.37-.48,2.51-1.4,3.37-.92,.89-2.13,1.3-3.6,1.3-1.21,0-2.2-.38-2.99-1.18s-1.18-1.78-1.18-3.02c0-1.37,.41-2.48,1.27-3.31,.86-.86,2.04-1.27,3.53-1.27,1.21,0,2.23,.38,3.05,1.18,.89,.8,1.3,1.78,1.3,2.93h.02Z"/>
      <path class="cls-3" d="M95.82,59.87l-.29,2.32h-.51l-.06-.64c-.06-.51-.29-.92-.64-1.21-.38-.32-.86-.45-1.43-.45-.89,0-1.62,.35-2.13,1.02-.48,.64-.7,1.4-.7,2.39,0,1.34,.35,2.35,1.08,3.05,.64,.6,1.5,.92,2.51,.92,.67,0,1.3-.25,1.94-.7v.67c-.64,.64-1.5,.95-2.64,.95-1.34,0-2.42-.35-3.21-1.05-.86-.73-1.27-1.78-1.27-3.09s.45-2.39,1.37-3.31,2-1.37,3.28-1.37c.92-.1,1.85,.1,2.7,.48v.02Z"/>
      <path class="cls-3" d="M72.82,19.69s-.03,.03-.06,.03v-.13c.1-.03,.13,0,.06,.1m-.38,.54c0,.06-.03,.06-.03,0-.1-.16,.06-.22,.13-.32,.13-.29,.29,.13-.1,.32m-.61-.8c-.29,.19-.7-.29-.35-.45,.19-.1,.25-.19,.41,.03,.1,.16,.13,.32-.06,.41m-.67-4.76c-.6-.19-.03-.57,.38-.45,.45,.16,.76,.64,.7,1.11-.03,.25-.25,.38-.41,.54-.22,0-.41-.06-.19-.25,.16-.16,.22-.41,.03-.57-.1-.03-.19-.06-.32-.06-.13-.1-.1-.25-.19-.32m-.38,3.95c-.19,.13-.22,.25-.29,.48-.06,.19-.19,.25-.25,.41-.06,.13,.03,.25,0,.38s-.16,.19-.22,.32c-.03,.16,.06,.25-.1,.38-.13,.13-.22,.19-.32,.35-.22,.41-.41,.67-.76,.99-.22,.19-.25,.38-.54,.45-.29,.06-.54,.06-.83,.1-.32,.03-.45,.16-.6,.45-.13,.22-.16,.45-.48,.41-.54-.06,.51-1.15,.73-1.27,.22-.13,.41-.29,.6-.48,.06-.1,.13-.16,.22-.25,.06-.06,.06-.13,.06-.22,.1,0,.16-.06,.19-.19,.25-.67,.67-1.21,.67-1.91,.03-.13,.13-.8,.35-.64,.29,.1,.13,.54,.06,.73-.06,.16-.16,.25,0,.35s.19,.1,.32-.06c.22-.32,.1-.45,.16-.76,.16-.67,.45-1.18,0-1.78-.19-.25-.25-.67-.51-.86-.22-.16-.35-.41-.57-.57-.19-.16-.54-.29-.8-.19-.38,.16,.19,.41,.38,.41,.19,.06,.86,.67,.38,.73-.19-.29-.54-.35-.83-.41-.16-.03-.32-.03-.48-.06-.13-.22-.16-.51-.25-.76-.29-.19-.38-.16-.6,.06s-.57,.13-.86,.22c-.38,.1-.6,.19-1.02,.06-.41-.16-.89-.03-1.34-.13-.41-.13-.64-.13-.8-.57-.13-.29-.13-.54,.22-.57,.45-.06,.92,.03,1.37,.1,.57,.06,1.05-.06,1.62-.16s.95,.41,1.56,.16c.22-.1,.45-.35,.7-.29,.45,.06,.73,.16,1.08,.45,.51,.41,1.27,.67,1.4,1.34,.32,.25,.06,.64,.25,.8,.25,.16-.13,.57-.1,.83,.03,.29,.22,.29,.22,.57,.03,.13,.06,.45-.03,.64m-.63,4.73c-.16,.19-.19,.41-.32,.6-.06,.13-.51,.48-.54,.22-.03-.16,.32-.35,.41-.48,.25-.35,.03-.32-.03-.64-.06-.25-.32-.22-.41,.03-.13,.29-.57,0-.6-.19,.48-.45,1.34-.32,1.5,.45m-4.46-1.17c-.25-.06-.64,.16-.64-.25,.29-.19,.35-.57,.8-.45,.22,.06,.57,.19,.7,.41,.06,.1-.06,.25-.16,.32-.25,.16-.45,.03-.7-.03m-.38,.89c-.25-.35,.03-.51,.38-.41,0,.29-.03,.45-.38,.41m-.26,1.98c-.13-.16-.29-.13-.45-.13-.22-.03-.38-.13-.57-.25-.19-.13-.41-.19-.64-.25-.25-.03-.35-.16-.54-.25-.22-.03-.35-.06-.54-.16-.16-.1-.32,0-.45-.13-.16-.16-.54-.1-.76-.1-.25-.06-.48-.1-.73-.13-1.02-.19-2.13-.29-3.15-.22-.35,.03-.7-.22-.95,.03,.06,.19,.22,.29,.41,.29,.29,.03,.41,.13,.67,.19,.38-.03,.7,.03,1.08,.19,.1,.03,.6,.67,.41,.7-.25,.03-.57,.16-.76-.16-.06-.1-.1-.29-.25-.32s-.13,.22-.32,.25-.67-.54-.92-.6c-.54-.13-.1,.41-.1,.64-.03,.25-.32,.25-.54,.22-.25-.06-.41-.03-.67-.03-.32,0-.19-.22-.38-.41-.16-.16-.38-.25-.41-.51,.32,0,.83-.19,.48-.6,0-.03-1.4-.03-1.53,.03-.16,.13-.29,.22-.51,.25-.1-.16-.38-.19-.54-.19-.45-.03-.89,.03-1.34,.03-.22,0-.35,.19-.6,.19-.29,.03-.51,.03-.76,.13-.22,.1-.45,.16-.67,.19-.25,.03-.25-.25-.03-.35,.13-.1,.38-.06,.54-.1,.29-.06,.57-.16,.86-.25,.19-.06,.41-.03,.6-.06,.35-.03,.1-.29,.06-.45,.25-.1,.57-.22,.83-.1,.16,.06,.25,.22,.45,.22s.38-.03,.57-.06c.35-.03,.73,.1,1.08,0s.25-.48,.54-.67c.64-.48,1.21,.06,1.88,.22,.13,.03,.25,.06,.38,.1,.03,.1,.06,.19,.13,.25,.1,.1,.29,.16,.41,.16,.41,.06,.83,.03,1.24,0h.41c.06-.16,.1-.32,.25-.35s.35-.03,.51,.03c.16,.1,.03,.32,.19,.41,.38,.29,.92,.25,1.37,.32,.48,.06,.89,.25,1.34,.41,.19,.06,.54-.03,.67,.13,.13,.16,.35,.03,.54,.19,.13,.13,.25,.13,.41,.16,.25,.03,.19-.03,.38-.16,.45-.35,.25,.35,.48,.54,.29,.22,.54,.51-.06,.51m-.38,3.66c.16-.06,.29-.22,.45-.22,.03,0,.16,.64,.16,.73-.29-.03-.6-.19-.6-.51m-1.09-2.57c.16-.1,.29-.32,.48-.32s.29,.22,.22,.41c-.16,.35-.64,.22-.7-.1m-1.08-.37c-.16-.29-.13-.54,.25-.48,.19,.25,.13,.51-.25,.48m.63,.66c.22,0,.29,.1,.22,.32-.32,0-.45,0-.22-.32m-.12,1.18c-.16,.06-.51-.03-.41-.25,.16-.29,.41,.06,.41,.25m-3.31-3.12c.19,0,.35,.13,.54,.13,.25,0,.32-.1,.48,.13,.19,.29,.57,.57,.03,.67-.25,.03-.57,0-.8-.1-.16-.06-.29-.67-.25-.83m-1.82,.8c.57,0-.19,.57,0,0m-2.38,.09c.1-.13,.16-.1,.35-.1,.25,.35-.29,.38-.35,.1m-.73,.1c.25-.73,.45,.54,0,0m-1.25,.22c-.22,0-.45,.06-.7,.06-.45-.03-.41-.25-.35-.64,.06-.35-.51-.51-.57-.92,.13-.16,.41-.16,.64-.16,.41,0,.73-.1,1.11-.06,.32,0,.25,.1,.35,.35,.06,.22,.16,.38-.06,.48-.29,.16-.64,.03-.95,.06,0,.29,.51,.45,.54,.83m-3.47-.86c-.16,.1-.32,.06-.38-.13,.16-.16,.38-.1,.38,.13m.19-.28c.45-.29,.83-.48,1.15,.1,.13,.25,.06,.35-.19,.35-.1,.03-.19,.06-.29,.03-.06,.13-.13,.22-.29,.25-.57-.54-.13,1.15-.67,.6,.1-.29,.06-.57,.06-.86,.35-.13,.29-.16,.22-.48m14.1,4.11c-.13,.13-.6-.03-.76-.1-.16-.25-.25-.19-.54-.19-.19-.06-.38-.13-.57-.19-.8-.25-1.59-.41-2.42-.57-.67-.13-1.34-.16-2-.29-.73-.1-1.5-.16-2.26-.19-1.4-.03-2.86,.03-4.23,.35-.7,0-1.3,.03-2,.22-.38,0-.7,.1-1.08,.19-.16,.06-.32,.1-.48,.13-.22,.03-.35,.19-.57,.19-.29,0-1.62,.86-1.69,.38-.03-.25,.22-.29,.35-.45,.1-.1,.16-.19,.29-.29,.1-.06,.19,.1,.35,.1,.19-.13,.29-.35,.51-.48,.29-.16,.6-.22,.92-.32,.8-.19,1.62-.64,2.45-.67,.76-.03,1.5-.16,2.26-.22,.35-.03,.7-.06,1.05-.13,.35-.1,.76,.06,1.11,0,.38-.06,.8-.1,1.18-.06,.38,.03,.76-.16,1.08-.1,.38,.06,.7,.22,1.05,.35,.41,.03,.76,.1,1.18,.22,.25,.06,.51,.13,.76,.13,.25,.03,.35,.19,.6,.19,.19,0,.48-.06,.6,.16,.13,.25,.38,.25,.51,.45,.13,.22,.25,.25,.51,.22,.32,0,.45,.22,.67,.35,.19,.13,1.43,.13,1.18,.6m-9.11-.3c.19-.22,.57-.19,.64,.13-.25,.16-.64,.25-.64-.13m-.73-.16c.19-.03,.45,.03,.32,.32-.1,.22-.48,0-.32-.32m6.68,.83c-.16,.19-.48,.1-.67,.13-.32,.1-.57,.16-.92,.19-.64,.06-1.34,.19-1.94,.32-.64,0-1.24,.03-1.88,0-.6,0-1.18,.16-1.78,.13-1.05-.06-2.07-.19-3.12-.25-.41-.03-1.91,.13-2.1-.38,.06,0,.22-.25,.38-.29,.19-.06,.45-.03,.6-.13,.6,0,1.21,.06,1.81,.16,.64,.1,1.24,.16,1.91,.16,.57,0,1.15,.13,1.72,.1,1.05-.1,2.13-.16,3.21-.16,.57-.13,1.18-.03,1.78-.22,.19-.06,.41-.13,.64-.06,.06,.06,.45,.22,.35,.32m-4.89,2.21c-.25,.32-.48,.19-.83,.19s-.6,.29-.99,.16c-.19-.06-.16-.13-.38-.13-.19,0-.32-.03-.48-.13-.13-.06-.25-.19-.32-.32-.06-.22,.13-.22,.25-.32,.25-.16,.64-.06,.95-.03,.35,.03,.57,.06,.95,0,.35-.06,.73-.1,1.11-.03,.19,.41,0,.38-.29,.6m-5.25-.18c-.19,0-.54-.1-.45-.35,.13-.03,.64,.13,.45,.35m-5.41-6.18c-.16,.03-1.24,.64-.76,0,.22-.29,.6-.86,1.02-.76,.22,.06,.22,.13,.45,.1,.22,0,.45-.13,.48,.16,.06,.48-.92,.51-1.18,.51m-1.5-2.3c-.29-.22-.7-.45-.25-.73,.29-.19,.95-.22,1.27-.16,.25,.06,.7,.7,.19,.57-.51-.1-.76,.32-1.21,.32m-.29,.42c-.45,.41-1.15,0-1.3-.48-.1-.29-.19-.32-.51-.41-.16-.03-.35-.03-.45-.19-.13-.22,0-.32-.32-.41-.38-.1-.73-.76-.92-1.11-.06-.13-.06-.32-.06-.48-.03-.19-.13-.35-.19-.51-.03-.13,.03-.22,.03-.35,0-.19-.19-.35-.32-.48-.32-.32-.25-.8-.25-1.24,0-.73,.25-.95,.67-1.53,.16-.25,.19-.51,.51-.64,.25-.13,.25-.32,.32-.57,.03-.19,.25-.13,.41-.16,.16-.1,.32-.19,.51-.29,.25-.13,.7-.29,.95-.29s.41,.25,.64,.35c.29,.13,.6,.22,.92,.13,.22-.06,.41-.45,.67-.16,.25,.32,.67,.1,1.02,.22,.57,.22,1.24-.13,1.81-.03,.06,0,.03,.22,.03,.29-.03,.19-.25,.25-.41,.32-.48,.22-.92,.22-1.4,.38-.32,.1-.7,.16-.99-.06-.16-.16-.22-.35-.48-.35-.25,.35-.45,.48-.86,.38-.32-.06-.6-.13-.95-.06-.16,.03-.35,.1-.51,.19-.06,.13-.06,.29-.13,.41-.16,.35-.25,.16-.38,.03-.32-.29-.86,.57-.92,.86s.03,.51,.03,.8c0,.35-.1,.7-.06,1.02,.03,.13,.06,.22,.16,.32,.13,.19-.03,.41,.06,.6,.13,.25,.29,.38,.48,.57,.22,.22,.1,.67,.25,.95,.19,.35,.6,.48,.92,.73,.16,.32,.45,.48,.67,.76-.06,0,.48,.48,.35,.48m-2.45,.29c-.51,.19-1.02-.16-.41-.57,.16-.1,.51-.41,.67-.13,0,.03-.22,.54-.25,.7m-2.14-8.43c-.19,.03-.54-.1-.6-.32,.16-.19,.29-.19,.51-.25,.45-.13,.76,.19,.83,.64,.03,.19,.06,.38-.03,.54-.13,.06-.29,.38-.35,.16-.1-.25,.22-.38,.06-.7-.06-.19-.25-.1-.41-.06m-.3,4.35c-.06,.16-.13,.22-.25,.32-.19-.03-.41-.29-.48,0-.03,.16,0,.32-.06,.45-.19,0-.16-.22-.16-.38-.32-.54,1.11-1.34,1.27-.45-.1,.03-.22,.06-.32,.06m4.39-5.88c.32,0,.32,.45,.73,.25,.25-.1,.41-.22,.45,.16-.32,.22-1.4,.22-1.18-.41m.04-.9c.25-.16,.35-.38,.73-.35,.45,.06,.57,.45,.6,.86-.22,0-.29-.51-.57-.22-.19,.22-.83-.03-.76-.29m4.04,.83c.32-.29,.83-.22,.73,.32-.19,.06-.25,.19-.51,.16-.22-.06-.22-.32-.22-.48m2.26-3.34c.32-.03,.83-.1,.8,.35-.03,.29-.29,.54-.6,.48-.03-.25-.25-.51-.19-.83m-2.15,.8c.16-.13,.19-.22,.25-.41,.13-.16,.29-.25,.41-.38,.25,0,.51-.03,.73,.06,.32,.16,.6,.76,.29,1.05-.25,.25-.38-.1-.64-.13-.13,.22-.16,.45,0,.64,.32,.45,.76,.64,1.24,.32,.29-.22,.73-.45,.95-.73,.16-.22,.29-.76,.35-1.05v-.57c.03-.13,.16-.19,.22-.32,.22-.67-.13-1.05-.83-1.02-.25,.03-.48,.06-.51,.38-.06,.38,.29-.03,.48,.16,.25,.22-.29,.22-.35,.25-.29,.03-.54-.38-.57-.64-.1-.19,.29-.73,.41-.89,.19-.25,.54-.16,.8-.32,.22,.03,.54,.06,.7,.22,.22,.19,.03,.54,.29,.8,.57,.51,.57,1.59,.19,2.23-.67,1.15-1.37,2.35-2.83,2.48-.48,.06-.8-.38-1.08-.73-.32-.32-.7-1.05-.51-1.4m1.48,9.29c.32,0,.6,.19,.92,.19,.35,0,.54,0,.76,.25,.29,.38,.76,.99,.8,1.5-.54,.32-1.34,.35-1.75-.16-.35-.38-1.05-1.27-.73-1.78m2.06-1.4c-.22,.29-.35,.48-.76,.41-.25-.06-.45-.22-.48-.48-.16-.83,1.15-.64,1.24,.06m-5.66,1.92c-.32,.22-.51,.35-.89,.19-.32-.13-.51-.41-.54-.73-.03-.22,.1-.22,.29-.35,.29,0,.35,0,.57,.16,.29,.22,.57,.35,.57,.73m2.07-2.87c-.51-.19-1.15,.22-1.37,.7-.16,.35,.22,1.18-.25,1.24-.25-.41-.95-.67-1.37-.7-.32-.03-.64,.06-.92,.25-.38,.25-.6,.45-.48,.89,.06,.25,.32,.41,.35,.67,.03,.48-.35,.19-.48,.03-.57-.6-.99-1.24-.99-2.1,0-1.5,1.5-2.58,2.93-2.45,.8,.06,1.53-.06,2.32-.22,.22-.06,.73-.03,.92-.16,.32,0,.51,.35,.83,.51,.57,.25,1.05-.16,1.56,0,.29,.1,.95,.86,.95,1.21,0,.25-.32-.06-.41-.1-.22-.13-.48-.19-.73-.19-.54-.03-1.11,.22-1.27,.73-.1,.32,.13,.45,.25,.73,.03,.13,.22,.51,0,.51-.16-.25-.51-.45-.73-.67-.38-.41-.7-.73-1.11-.89m-.67,1.63c0-.57,.7-.86,1.02-.32,.19,.29,0,.51-.25,.67-.32,.16-.57-.19-.76-.35m.72,3.47c-.51-.38-.95-.83-1.34-1.34-.16-.22-.38-.32-.22-.6,.13-.19,.86-.03,1.08-.03,.38,.03,.57,.03,.76,.32,.16,.22,.35,.45,.48,.7,.1,.16,.25,.45,.19,.64-.03,.22-.76,.32-.95,.32m-.09,2.89c-.13,.06-.41,.06-.48,.22-.06,.1-.19,.73-.29,.22-.16-.48,.8-1.18,.76-.45m-.28-1.23c-.67-.19,.29-.38,.38-.48,.89-.03,.03,.7-.38,.48m2.07,.92c-.1,.1-.29,.06-.41,.1-.25,.03-.03,.16-.25,.25-.38,.38-.54-.13-.57-.45,.32-.13,.57-.19,.8-.45,.29,0,.83,.25,.45,.54m.14,.39c.16,0,.48,.19,.16,.29-.22,.13-.22-.16-.16-.29m4.23-4.1c-.13,.8-.95-.19-1.15-.48-.16-.22-.06-.51-.29-.67-.25-.16-.32-.45-.38-.7-.06-.22-.06-.41,.19-.38,.35,.06,.48,.16,.64,.51,.29,.6,.51,1.27,.99,1.72m-1.05-5.35c0,.29,.13,.41,.16,.7,.03,.22,.13,.19,.19,.38,0,.19-.03,.29,.1,.45,.19,.25-.03,.6,.16,.83,.16,.16,.1,.38,.1,.57,0,.38,.13,.1,.16,.45,.03,.32,.38,.51,.45,.83,.1,.1,.22,.06,.29,.16s.1,.25,.16,.35c.32,.35,1.21-.6,1.3,.25-.22,0-.6-.03-.83,.1-.22,.13-.41,.38-.64,.13-.51-.57-.95-1.24-.92-2-.35,0-.38-.73-.38-.99-.1-.29-.35-.51-.48-.8-.13-.25-.22-.6-.25-.89-.06-.48-.48-.89-.76-1.27-.35-.51-.57-1.34-1.37-.95-.03,.19-.06,.19,.1,.32,.22,.16,.29,.25,.16,.51-.1,.16-.32,.13-.35,.32-.03,.13-.06,.22-.22,.19-.1,0-.51-.48-.6-.6-.22-.29-.19-.67-.1-.99s.06-.57,.41-.67c.29-.06,.64-.03,.89,0s.45,.03,.67,.22c.29,.25,.76,.13,.76,.57,0,.16,.13,.67,.25,.8,.16,.19,.03,.41,.19,.6,.16,.13,.35,.25,.41,.45m3.39-3.04c-.13,.38-.41,.89-.8,1.02-.1,.03-1.05-.22-1.05-.16-.03-.45,.1-.67,.45-.99,.38-.35,1.02-.19,1.4,.13m-.22-3.12c-.25,.54-1.21,.25-1.53-.06-.41-.38-.57-1.18,.03-1.53,.22-.13,.6-.25,.83-.25,.35,.03,.48,.16,.64,.48,.22,.48,.25,.92,.03,1.37m-2.7-1.19c0-1.02,1.15-1.27,1.75-1.88,.16-.16,.29-.29,.51-.29,.25,.22,.54,.38,.83,.57,.45,.25,.83,.67,1.24,.99,.35,.25,.51,.89,.41,1.3-.1,.41-.06,1.05-.45,1.3-.1,.19-.16,.38-.32,.54-.13,.13-.57,.57-.57,.16,.48-.32,.76-.86,.92-1.4,.13-.41-.13-.73-.06-1.15,.03-.25-.57-.8-.76-.95-.38-.32-.89-.48-1.4-.41-.22,.03-.54,.06-.7,.22-.16,.19-.35,.06-.54,.32-.25,.41-.67,.76-.67,1.37,0,.41,.22,1.05,.48,1.37,.29,.35,.6,.54,1.02,.7,.22,.06,.8,.19,.86,.45-.67,0-1.43,.13-1.97-.48-.32-.35-.54-.76-.7-1.21-.19-.57-.03-.99,.13-1.53m.31-1.83c.13-.13,.19-.29,.29-.45,.1,.06,.13,.19,.22,.25,.13,.1,.32,.03,.25,.22-.32,.16-.76,.57-.76-.03m.28-.63c.1,.1,.03,.13,.03,.16-.06,0-.03-.13-.03-.16m1.08,.1c-.1,0-.1,.03-.16,.06,0-.13,.1-.19,.16-.06m.23-.19s-.06,0-.03-.06c0,.03,.03,.06,.03,.06m-1.79-1.98c-.19-.16-.48-.19-.64-.38-.35-.38,.51-.38,.54-.19,.03,.25,.1,.29,.29,.45,.1,.1,.51,.29,.57,.35,.1,.19,.13,.16,.35,.13,.06,.13,.06,.25,.13,.38,.16,.1,.32,.19,.45,.29,.13,.1,.16,.22,.29,.32,.13,.06,.25,.03,.38,.1,.1,.06,.16,.19,.22,.29,.19,.25,.48,.25,.51,.6-.22,0-.38-.22-.57-.35-.32-.22-.35-.16-.7-.13,.03-.13,.13-.22,.13-.35-.13-.06-.19-.16-.29-.29-.1-.13-.22-.03-.32-.13-.06-.06-.22-.29-.29-.29,0,.13-.25,.89-.41,.95,0-.22-.1-.32,.03-.51,.1-.19,.16-.29,.13-.48-.1-.29-.54-.54-.8-.76m1.09-.6s.32-.45,.29-.45c.19,0,.22,.38,.25,.54-.57-.06-.06,.13-.41,.35,0-.13-.19-.29-.13-.45m.44-1.04c.13,.03,.13,.1,.13,.25-.19,.29-.22-.06-.13-.25m.35-1.3c.32,0,.64,.35,.51,.67-.06,.22-.1,.1-.29,.03-.29-.1-.13,.22-.38,.29-.16-.25,.03-.73,.16-.99m.64,1.2c-.32,0,.1-.83,0,0m.09,2.23c-.1,.16-.29,.29-.48,.32-.22,.03-.6-.19-.54-.48,.22-.6,1.05-.51,1.02,.16m.07-1.97c.16,.19-.1,.64-.13,.22,0-.1-.03-.35,.13-.22m.44,1.05c-.13,.19,.1,.38-.19,.41,0-.16,.03-.29-.1-.38-.19-.13-.13-.32-.03-.48,.13,.1,.22,.29,.32,.45m.1,2.89c-.03,.06,0,.03-.06,0h.06Zm-.07-2.32c.1,0,.16,.32,.22,.38,.29-.22,.67-.38,.92-.64,.48-.45-.19-.25-.25-.45,.22,.03,.73-.22,.73,.1,0,.16-.03,.22-.19,.29-.22,.1-.13,.16-.25,.32-.13,.16-.32,.32-.48,.41-.35,.19-.32,.35-.41,.7-.22-.1-.41-.95-.29-1.11m.51,1.91c0-.06,.03-.06,.1-.03,0,.38-.03,.06-.03,.22-.03-.06-.16-.19-.06-.19m-.1-.25c-.16-.06-.19-.51,0-.51,.1,.16,.1,.32,0,.51m.41,.76c0,.19,.1,.32,.16,.48-.22,0-.32,.1-.51-.13-.22-.22,.16-.51,.35-.35m1.15,8.18c.1-.22-.13-.51,.19-.57,.22-.06,.29-.1,.41-.29,.1-.16,.06-.35,.16-.48,.1-.13,.29-.06,.41-.1,.13-.03,.22-.13,.29-.22,.73-.7,2.35,.83,1.65,1.59-.38,.45-.7,.48-1.21,.22-.45-.22,.16-.83-.22-.92-.19-.06-.41,.25-.54,.41-.22,.29-.16,.6-.13,.95,.06,.76-.67,.45-.89,.95-.13,.22-.03,.54-.19,.8s-.29,.45-.54,.6c0,.57,.06,1.08-.06,1.65-.06,.25-.29,.45-.38,.7-.13,.29-.29,.48-.45,.73-.19,.16-.25,.48-.51,.54-.16-.32,.22-.54,.35-.8,.35-.6,.32-1.24,.45-1.91,.06-.29,.16-.54,.38-.73,0-.16,.1-.38-.03-.54-.1-.13-.16-.19-.16-.35,.32-.19,.35-.13,.35-.51,.13-.35,.19-.35,.03-.67-.32-.7,.45-.64,.64-1.08m5.72,6.99c.06-.16,.35-.57,.54-.6,0,.35-.19,.76-.6,.76,.03-.03,.03-.1,.06-.16m-1.27-2.99c.22-.6,1.59-.73,1.15,0-.16,.25-.29,.51-.57,.6-.35,.13-.83-.22-.57-.6m.06,1.56c.29,0,.54,.13,.8,.06,.19-.03,.57-.19,.73,.03,.16,.29-.76,1.15-.92,1.43-.19,.35-1.15,.25-1.5,.03-.25-.19,.13-.45,.22-.64,.22-.29,.38-.64,.67-.92m-.93-1.42c.16-.1,.19-.19,.38-.22,0,.13,.06,.29-.1,.35-.16,.1-.25,.06-.29-.13m-.43,1.88c.29-.25,.22-1.02,.67-1.08,.06,.41-.29,1.05-.67,1.21v-.13m-.38-2.07c.51,0,.25,.54-.1,.57-.64,.03-.06-.38,.1-.57m-1.18,.19c-.32-.54,.29-1.37,.89-1.05,.6,.35-.6,1.05-.89,1.05m-.03,.96c.32-.19,1.53-.32,1.62,.06-.45,.45-.51,1.15-.99,1.56-.41,.35-.89,.13-1.37,.1-.25-.35,.38-1.5,.73-1.72m-.66-1.72c.51,0-.16,.45,0,0m-.77,2.03c-.06,.06-.13,.13-.19,.22,.1,.16,.03,.25-.13,.32-.13,.19-.19,.41-.38,.57-.22,.16-.45,.1-.7,.06,0-.22,.25-.41,.38-.6,.29-.41,.48-.89,.76-1.3,.22-.32,.45-.29,.45,.1-.22,.22-.1,.41-.19,.64m.48,.31c-.06,.1-.22,.29-.32,.29,0-.32,.19-.57,.29-.83,0-.35,0-.92,.41-.92,.13,.16,0,.48-.1,.67-.06,.13-.16,.25-.22,.38-.03,.1,0,.32-.06,.41m6.08,.35c-.06,.16-.19,.29-.38,.32,0-.25,.16-.48,.38-.32m.16-.95c-.19-.29-.06-.38,.13-.67,.22-.29,.64-.48,.99-.35,.03,.22-.35,.19-.45,.38-.35,.1-.32,.57-.67,.64m.82-.29c.22-.16,.7-.29,.8,.06,.06,.35-.13,.45-.38,.64-.19,.16-.45,.22-.67,.03-.25-.25,.03-.54,.25-.73m1.72-.03c-.19-.16-.22-.57-.45-.83-.22-.22-.48-.35-.76-.41-.25-.03-.57,.06-.83,.1-.35,.1-.51,.51-.89,.54-.06-.35-.16-.67-.35-.99s-.41-.38-.73-.51c-.92-.41-1.18,.54-1.88,.8-.32-.6-.35-1.46-1.3-1.4-.41,.03-.8,.25-1.15,.51-.25,.19-.51,.57-.8,.64,0-.38,.13-.45,.29-.76,0-.29,.03-.35,.25-.54,.16-.19,.35-.38,.54-.54,.25-.22,.38,.16,.57,.1,.32-.1,.67,.03,.99-.06,.35-.13,.67-.35,.95-.6,.29-.29,.67-.19,1.05-.1,.38,.1,.73,.16,1.15,.13,.86-.06,1.72-.1,2.55,.19,.8,.29,1.11,.76,1.59,1.4,.51,.7-.03,1.53-.19,2.23-.03,.16-.48,1.08-.67,.99-.22-.13,.19-.64,.06-.86m-7.56-10.02c.29,0,.8-.13,.6,.32-.06,.13-.29,.54-.29,.64,0,0-.29-.22-.32-.25,0-.32-.22-.45,0-.7m.14-.84c-.25,.13-.67,.06-.41-.25,.22-.32,.41,0,.41,.25m-1.56-.44c.03-.41,.06-.99,.38-1.34,.32-.32,1.21-.32,1.53,0,.16,.16,.03,.54,.19,.57,.13,.03,.13,.73,.03,.8-.13,.13-.22-.06-.32-.19-.16-.29-.25-.45-.64-.45-.51-.03-.83,.6-.92,1.05-.03,.16-.1,.29,0,.45,.16,.29,.03,.54,.13,.83,.06,.06,.13,.16,.16,.25,0,.1-.03,.19,.03,.29,.13,.19,.19,.41,.41,.51,.32,.16,.67,.16,.99,.29,.29,.13,.45,.35,.76,.35,.16-.13,.48-.16,.57-.38,.06-.13-.1-.13,.03-.25,.1-.1,.13-.19,0-.29-.22-.19-.41,.1-.67,0-.29-.1-.41-.51-.22-.76,.16-.51,.86-.32,1.18-.13,.6,.32,.54,.76,.29,1.37-.19,.45-.6,1.11-1.11,1.27-.67,.19-1.3-.16-1.85-.48-.25-.13-.48-.29-.67-.51-.13-.19-.1-.32-.16-.54-.06-.16-.19-.19-.22-.38-.16-.76-.1-1.59,.1-2.32m7.28,3.87c.57-.8,1.53-.22,1.59,.6-.29,0-.25-.35-.51-.45-.22-.06-.38,.06-.54,.19-.13,.1-.38,.29-.54,.22-.29-.13-.13-.41,0-.57m-20.61,16.58s-.06,.03-.1,.03c.06-.38,.29-.1,.1-.03m27.61-10.34c-.29-.06-.35-.38-.7-.41-.22-.03-.6,.06-.73-.1,.1-.57-.03-1.24,.22-1.78,.13-.29,.54-.32,.7-.6,.19-.29,.32-.67,.19-1.02-.19-.54-.67-1.15-1.27-1.15-.35,0-.54,.19-.8,.38-.32,.25-.45,.13-.8-.06-.32-.19-.45-.45-.83-.54-.32-.06-.86-.1-.95-.45-.19-.57-.29-1.21-1.05-1.34-.6-.06-1.37,.19-1.53,.83-.1,.41,.03,.86-.41,1.02-.19,.06-.45,.06-.67,.03-.19,0-.48,.03-.64-.06-.29-.1-.13-.48-.29-.7-.41-.57,.1-1.27-.06-1.94-.16-.76-.76-1.18-1.5-1.3-.25-.03-.41-.22-.25-.45,.16-.25,.16-.6,.13-.89-.1-.48-.41-1.08-.83-1.34-.45-.25-.99-.25-1.5-.25s-.89,.57-1.15,.99c-.1,.16-.03,.51-.29,.29-.22-.19-.1-.25-.16-.51-.06-.06-.13-.13-.16-.22,0-.16,.03-.25-.1-.38s-.1-.32-.13-.48c-.06-.19-.13-.13-.16-.38-.03-.29-.16-.41-.16-.73,.25-.16,.41-.41,.67-.6,.29-.19,1.59-.92,.92-1.24-.51-.25-2.16,.29-2.35-.35-.06-.22-.03-.48-.19-.64-.25-.22-.16-.7-.29-.99-.1-.22-.22-.45-.32-.7s-.06-.57-.35-.67c-.35,.38-.35,.99-.51,1.46-.1,.25-.25,.51-.25,.76,0,.19-.13,.76-.35,.86-.29,.19-.83,.13-1.18,.13-.45,0-.89-.03-1.34,.03-.25,.03-.06,.32,.03,.41,.29,.19,.51,.45,.76,.67,.29,.25,1.15,.6,1.15,1.02,0,.54-.35,.95-.35,1.46-.03,.06-.1,.13-.13,.19,0,.19,0,.38-.06,.54-.03,.1-.16,.6-.29,.6,0-.1-.41-.54-.48-.7-.16-.32-.35-.45-.64-.64-.38-.29-1.46-.13-1.91,.06-.51,.22-.86,.7-.92,1.21-.03,.25-.1,.6,.03,.86,.32,.57-.25,.29-.6,.51-.25,.16-.57,.29-.83,.51-.16,.13-.19,.22-.22,.45-.03,.25-.13,.16-.16,.35-.16,.54,.22,.89,.32,1.37,.06,.25-.19,.64-.25,.92-.06,.29,.03,.54-.29,.67-.48,.19-1.59,.16-1.65-.48-.06-.6,.1-1.02-.51-1.43-.6-.41-1.43,.06-1.72,.67-.03,.38-.1,.7-.54,.7-.16,0-.41-.06-.51,.06-.1,.13-.29,.19-.41,.25-.35,.16-.57,.32-.86,.54-.38,.32-.45-.06-.76-.16-.57-.16-1.24-.06-1.59,.48-.32,.51-.06,1.37,.45,1.65,.35,.19,.22,.95,.22,1.24,0,.25-.03,.51-.06,.76-.03,.32-.29,.32-.57,.45-.7,.32-.86,1.27-.41,1.88,.22,.32,.57,.54,.95,.57,.35,.03,.83-.32,1.11-.1,.32,.29,.51,.7,.8,1.02,.35,.41-.1,.45-.29,.76-.35,.54-.32,1.53,.32,1.78,.67,.29,1.27,.32,1.72-.32,.22-.29,.29-.38,.64-.29,.29,.1,.6,.06,.89,.19,.41,.19,.06,.38,.16,.64,.03,.13,.1,.13,.13,.22,.06,.13,0,.32-.03,.45-.03,.32,.03,.73,.22,1.02,.19,.29,.54,.16,.8,.29,.03-.38,.76-1.21,.86-.41-.1,.06-.22,.06-.32,.16-.13,.1-.06,.29-.19,.38-.16,.13-.22,0-.38,0-.13,.06-.25,.1-.38,.16-.29,.13,.03,.38,.16,.51-.03,.16-.16,.22-.25,.32-.16,.13-.13,.35-.13,.54-.03,.29-.29,.67-.16,.95,.1,.19,.19,.13,.19,.41,0,.19,.03,.25,.1,.41,.45,1.02,2.07,1.37,3.05,1.65,.76,0,1.46,.29,2.2,.32,.89,.03,1.75,.16,2.64,.19,.86,.03,1.69,0,2.55,0s1.78-.1,2.67-.1c.73-.16,1.46-.06,2.2-.19,.41-.06,.83-.06,1.24-.1,.41-.03,.86-.16,1.27-.25,.35-.1,.73-.06,1.05-.19,.32-.13,.54-.22,.92-.22,.76-.19,1.18-.73,1.34-1.46,.03-.7,.13-1.37-.03-2.04-.1-.35,.19-.6,.16-.92-.03-.35-.29-.51,.03-.83,.22-.22,.03-.6,.1-.89,.06-.32,.03-.95,.32-1.05,.35-.16,.73-.32,1.08-.45,.35-.1,.6-.03,.7,.32,.06,.32,.35,.54,.57,.73,.35,.22,.51,.19,.86,.06,.45,0,1.08-.73,.99-1.21-.03-.19-.13-.57-.25-.7-.16-.19-.41-.25-.54-.48-.16-.32,.19-.57,.35-.86,.22-.38,.57-.67,.86-.99,.54-.03,1.24,.73,1.81,.22,.45-.45,.73-1.27,.13-1.85"/>
      <path class="cls-3" d="M22.23,155.35c-.54-.89-1.24-1.37-2.32-1.37-1.15,0-2.42,.8-2.42,2.07,0,1.15,1.11,1.72,2.04,2.07l1.05,.41c2.07,.8,3.6,1.94,3.6,4.36,0,2.64-2.04,4.52-4.65,4.52-2.35,0-4.17-1.75-4.49-4.07l1.81-.38c-.03,1.59,1.24,2.77,2.8,2.77s2.67-1.3,2.67-2.83-1.24-2.23-2.51-2.77l-1.02-.41c-1.65-.7-3.15-1.65-3.15-3.69,0-2.35,2.07-3.75,4.26-3.75,1.62,0,2.96,.8,3.72,2.2l-1.4,.89v-.02h0Z"/>
      <path class="cls-3" d="M44.02,159.87c0-3.18-2.39-5.89-5.79-5.89s-5.79,2.67-5.79,5.89,2.67,5.89,5.79,5.89,5.79-2.58,5.79-5.89Zm1.82,0c0,4.33-3.4,7.57-7.6,7.57s-7.6-3.25-7.6-7.57,3.44-7.57,7.6-7.57,7.6,3.4,7.6,7.57Z"/>
      <path class="cls-3" d="M54.71,152.62v8.56c0,2.39,.7,4.55,3.5,4.55s3.5-2.2,3.5-4.55v-8.56h1.81v9.19c0,3.18-1.97,5.63-5.31,5.63s-5.31-2.45-5.31-5.63v-9.19h1.81Z"/>
      <path class="cls-3" d="M78,155.35c-.54-.89-1.24-1.37-2.32-1.37-1.15,0-2.42,.8-2.42,2.07,0,1.15,1.11,1.72,2.04,2.07l1.05,.41c2.07,.8,3.6,1.94,3.6,4.36,0,2.64-2.04,4.52-4.65,4.52-2.35,0-4.17-1.75-4.49-4.07l1.85-.38c-.03,1.59,1.24,2.77,2.8,2.77s2.67-1.3,2.67-2.83-1.24-2.23-2.51-2.77l-1.02-.41c-1.65-.7-3.15-1.65-3.15-3.69,0-2.35,2.07-3.75,4.3-3.75,1.62,0,2.96,.8,3.72,2.2l-1.46,.89v-.02h-.01Z"/>
      <path class="cls-3" d="M93.91,155.35c-.54-.89-1.24-1.37-2.32-1.37-1.15,0-2.42,.8-2.42,2.07,0,1.15,1.11,1.72,2.04,2.07l1.05,.41c2.07,.8,3.6,1.94,3.6,4.36,0,2.64-2.04,4.52-4.65,4.52-2.35,0-4.17-1.75-4.49-4.07l1.85-.38c-.03,1.59,1.24,2.77,2.8,2.77s2.67-1.3,2.67-2.83-1.24-2.23-2.51-2.77l-1.02-.41c-1.65-.7-3.15-1.65-3.15-3.69,0-2.35,2.07-3.75,4.26-3.75,1.62,0,2.96,.8,3.72,2.2l-1.43,.89v-.02h0Z"/>
      <polygon class="cls-3" points="17.27 172.88 20.7 172.88 23.41 180.04 26.27 172.88 29.74 172.88 31.77 186.25 28.27 186.25 27.32 178.55 27.29 178.55 24.07 186.25 22.67 186.25 19.62 178.55 19.59 178.55 18.48 186.25 15.01 186.25 17.27 172.88"/>
      <path class="cls-3" d="M42.81,177.02h-.03l-1.43,4.26h2.9l-1.43-4.26h-.01Zm-2.45,6.9l-.92,2.32h-3.69l5.15-13.36h3.79l5.06,13.36h-3.72l-.86-2.32h-4.81Z"/>
      <path class="cls-3" d="M61.87,176.32c-.64-.54-1.46-.89-2.32-.89-.64,0-1.5,.38-1.5,1.11s.95,1.08,1.56,1.27l.89,.25c1.85,.54,3.31,1.5,3.31,3.66,0,1.34-.32,2.7-1.4,3.6-1.05,.89-2.45,1.27-3.79,1.27-1.69,0-3.34-.57-4.71-1.53l1.5-2.8c.86,.76,1.91,1.4,3.09,1.4,.83,0,1.69-.41,1.69-1.34,0-.99-1.37-1.3-2.1-1.53-2.16-.6-3.63-1.18-3.63-3.79s1.94-4.49,4.61-4.49c1.34,0,2.99,.41,4.2,1.11l-1.4,2.67v.03h0Z"/>
      <path class="cls-3" d="M76.54,176.32c-.64-.54-1.46-.89-2.32-.89-.64,0-1.5,.38-1.5,1.11s.95,1.08,1.56,1.27l.89,.25c1.85,.54,3.31,1.5,3.31,3.66,0,1.34-.32,2.7-1.4,3.6-1.05,.89-2.45,1.27-3.79,1.27-1.69,0-3.34-.57-4.71-1.53l1.5-2.8c.86,.76,1.91,1.4,3.09,1.4,.83,0,1.69-.41,1.69-1.34,0-.99-1.37-1.3-2.13-1.53-2.16-.6-3.63-1.18-3.63-3.79s1.94-4.49,4.61-4.49c1.34,0,2.99,.41,4.2,1.11l-1.37,2.67v.03h0Z"/>
      <path class="cls-3" d="M89.68,177.02h-.03l-1.43,4.26h2.9l-1.43-4.26h-.01Zm-2.42,6.9l-.92,2.32h-3.69l5.15-13.36h3.79l5.03,13.36h-3.69l-.86-2.32h-4.81Z"/>
      <path class="cls-3" d="M32.12,127.77l-2.45,2.86-.76-.35,2-2.9,1.21,.38h0Zm-4.45,4.81v5.41h6.01v.89h-6.01v6.81h6.17v.89h-7.09v-14.89h7.09v.89h-6.17Z"/>
      <path class="cls-3" d="M52.77,139.38c.03,1.88-.22,3.5-1.56,4.96-1.43,1.53-3.56,2.42-5.63,2.42-4.14,0-7.64-3.47-7.64-7.57s3.5-7.7,7.76-7.7c2.7,0,4.9,1.34,6.46,3.47l-.76,.6c-1.3-1.97-3.34-3.21-5.73-3.21-3.63,0-6.75,3.18-6.75,6.75s3.05,6.75,6.75,6.75c1.59,0,3.15-.67,4.39-1.65,1.27-1.08,1.75-2.32,1.81-3.95h-5.38v-.89h6.27v.03h0Z"/>
      <rect class="cls-3" x="57.2" y="131.68" width=".95" height="14.89"/>
      <path class="cls-3" d="M63.5,139.13c0,3.66,3.05,6.75,6.78,6.75s6.78-3.09,6.78-6.75-3.09-6.75-6.78-6.75c-3.72-.03-6.78,3.05-6.78,6.75Zm14.47,0c0,4.17-3.53,7.64-7.7,7.64s-7.7-3.44-7.7-7.64,3.5-7.64,7.7-7.64,7.7,3.44,7.7,7.64Z"/>
      <polygon class="cls-3" points="95.82 147.05 83.32 133.78 83.32 146.54 82.36 146.54 82.36 131.49 94.87 144.66 94.87 131.68 95.82 131.68 95.82 147.05"/>
      <path class="cls-3" d="M15.96,138.62v-6.05h.6c.86,0,1.88-.03,2.67,.35,1.08,.48,1.59,1.59,1.59,2.67,0,.89-.35,1.78-1.05,2.35-.76,.64-1.69,.7-2.61,.7h-1.21v-.03h.01Zm7.16,7.93l-4.93-7.06c2.1-.22,3.53-1.53,3.53-3.85,0-1.27-.45-2.45-1.5-3.18-1.02-.73-2.2-.76-3.4-.76h-1.81v14.89h.95v-7.03h1.21l4.87,7.03h1.08v-.03h0Z"/>
      <path class="cls-1" d="M55.41,76.45v-.25H15v49.35c1.46-.64,3.02-1.27,4.68-1.88,2.7-.99,5.82-1.97,9.35-2.83-7.41-31.18,21.44-42.67,26.38-44.38h0Z"/>
      <path class="cls-2" d="M55.41,76.23v.25c4.93,1.72,33.92,13.27,26.31,44.64,4.2,.8,9.13,1.53,14.09,1.3v-46.2H55.41Z"/>
      <path class="cls-4" d="M32.98,119.97c11.39-2.29,26.31-3.18,44.35,.29l1.69,.32c1.02,.19,2.1,.41,3.21,.6h.16c8.43-34.33-26.98-44.96-26.98-44.96,0,0-1.34,.41-3.4,1.3-7.13,3.82-25.45,16.42-19.03,42.32v.13h0Z"/>
      <path class="cls-3" d="M110.77,116.95c-.1-.13-.29-.16-.45-.06h0c-9.48,7.22-22.59,4.65-31.28,2.96l-1.69-.32c-26.22-5-45.82-.89-57.65,3.44C7.01,127.62,.29,133.5,.1,133.69H.1c-.13,.13-.13,.32-.03,.45,.13,.13,.32,.13,.45,.03,.19-.16,20.84-17.5,65.25-9.99l1.72,.29c12.69,2.16,28.48,4.87,43.27-7.09,.1-.1,.1-.29,0-.41v-.02h0Z"/>
      <path class="cls-3" d="M33.68,119.85c-7.92-31.94,21.73-43.62,21.73-43.62,0,0-35.32,10.63-27.04,44.83,1.69-.45,3.44-.86,5.31-1.21Z"/>
    </g>
  </g>
</svg>