<?xml version="1.0" encoding="UTF-8"?>
<svg id="Layer_2" data-name="Layer 2" xmlns="http://www.w3.org/2000/svg" viewBox="0 0 215.12 70.1">
  <defs>
    <style>
      .cls-1 {
        fill: #e41f2e;
      }
    </style>
  </defs>
  <g id="Calque_1" data-name="Calque 1">
    <g>
      <path class="cls-1" d="M192.81,19.8c.14,.61-.36,.97-.64,1.4-7.2,9.59-15.29,18.29-25.06,25.35-.68,.5-1.32,1.04-1.65,1.83-1.47,3.4-2.97,6.8-3.54,10.49-.21,1.25-.79,2.86,.64,3.58s2.4-.75,3.22-1.65c2.94-3.19,4.9-7.02,7.3-10.6,3.4-5.05,7.05-9.92,12.03-13.6,1.65-1.22,3.33-2.36,5.48-2.36,1.29,0,2.51,.14,3.37,1.29,.54,.68,1.07,.97,1.61,0,.32-.57,.9-.54,1.43-.54,1.43,0,2.86-.04,4.3-.04,1.54,0,1.61,.11,.86,1.47-3.58,6.34-7.2,12.64-10.78,18.97-.93,1.65-1.79,3.37-2.65,5.08-.25,.5-.75,1.15-.11,1.61,.57,.43,1.15-.11,1.61-.43,1.72-1.18,3.22-2.65,4.48-4.33,1.22-1.61,2.36-3.29,3.54-4.94,.25-.32,.43-.75,.75-.97,.61-.47,1.47-.5,2-.07,.54,.39-.11,.97-.36,1.36-3.08,4.76-6.41,9.34-10.74,13.1-1.29,1.11-2.72,1.93-4.19,2.72-3.29,1.75-5.66,.43-5.87-3.29,0-.21-.04-.47-.11-.97-1.04,.86-1.93,1.58-2.83,2.33-1.07,.86-2.22,1.61-3.47,2.15-3.19,1.36-5.94-.39-6.12-3.87-.04-.57,.14-1.18-.21-1.93-.97,.97-1.83,1.9-2.76,2.76-1.29,1.25-2.72,2.36-4.37,3.04-2.72,1.15-5.16,.04-6.12-2.79-.64-1.9-.32-3.76,.04-5.66,.5-2.72,1.36-5.33,2.26-7.91,.39-1.15,.32-1.54-1.07-1.54-1.5,0-2.22,.79-2.9,1.93-2.51,4.3-5.3,8.38-8.99,11.74-1.68,1.54-3.47,2.9-5.55,3.87-4.37,2.08-7.66,.04-7.8-4.8-.07-2.54,.64-4.98,1.61-7.3,3.26-7.84,7.91-14.68,14.93-19.65,1.9-1.36,3.97-2.43,6.41-2.4,2.43,.04,3.76,1.07,4.3,3.44,.57,2.58-.32,4.94-1.11,7.34-.14,.47-.39,.86-.5,1.32-.18,.75-1.22,1.4-.5,2.22,.47,.54,2.72-.43,3.22-1.36,1.11-2.11,2.15-4.26,3.26-6.37,6.41-12.03,13.96-23.2,24.13-32.4,2.61-2.36,5.23-4.73,8.41-6.34,1.4-.72,2.83-1.22,4.44-1.11,1.32,.11,2.11,.79,2.29,2.08,.32,2.51-.54,4.69-1.75,6.8-.18,.32-.5,.54-.86,.61-.5,.11-1.11,.54-1.5,.04-.36-.39,.11-.86,.29-1.29,.5-1.29,1.36-2.4,1.54-3.79,.07-.47,.25-1-.18-1.36-.5-.43-1-.04-1.47,.21-1.32,.68-2.43,1.72-3.54,2.72-7.59,6.84-13.17,15.18-18.47,23.81-2.26,3.69-4.48,7.45-6.23,11.46,2.61-1.58,4.87-3.54,7.02-5.66,5.12-5.01,10.06-10.2,14.36-15.93,.82-.97,1.11-1.04,2.9-.86h-.03Zm-16.65,40.88c0,1.36,.75,1.86,1.97,1.22,1.04-.5,1.9-1.25,2.58-2.18,.97-1.36,1.93-2.72,2.86-4.08,3.37-5.05,6.09-10.53,9.31-15.68,.32-.54,.57-1.15,.07-1.65-.54-.57-1.25-.43-1.83-.07-.72,.43-1.4,.93-2,1.47-5.26,4.83-8.95,10.81-11.99,17.18-.57,1.18-.86,2.47-.97,3.79h0Zm-37.73-1.79c-.04,1.43-.04,2.43,.93,3.01,.97,.57,1.86,.11,2.72-.29,.32-.14,.61-.36,.9-.61,3.01-2.61,5.33-5.76,7.23-9.24,.47-.86,.39-1.4-.5-1.86-1.5-.79-2.79-1.86-3.76-3.26-.64-.93-1-.68-1.54,.07-2.15,2.9-3.87,6.01-5.19,9.34-.43,1.07-.79,2.15-.79,2.83h0Zm9.38-15.85c.04,1.79,.9,3.19,2.29,4.22,1.75,1.32,2,1.25,2.94-.79,.32-.72,.68-1.4,.9-2.15,.54-1.65,1.04-3.33,.72-5.08-.25-1.47-.97-1.93-2.4-1.65-2.26,.47-4.48,3.15-4.44,5.44h0Z"/>
      <path class="cls-1" d="M78.18,47.44c-1.54,1.32-2.76,2.58-4.26,3.4-.82,.47-1.65,.93-2.58,1.18-3.04,.82-5.41-.86-5.51-4.01-.07-1.32,.36-2.58,.61-4.05-.9,.29-1.29,.93-1.83,1.43-2.18,2.15-4.44,4.19-7.23,5.51-2.9,1.4-5.91,2.36-8.77,.07-2.94-2.36-3.01-5.66-2.36-9.02,.5-2.61,1.68-4.98,2.79-7.34,.29-.57,.72-1.11,.72-1.9-1.58-.11-2.69,.43-3.47,1.83-2.79,4.94-6.09,9.56-10.38,13.35-1.9,1.68-3.94,3.11-6.34,3.94-3.33,1.07-5.8-.32-6.55-3.76-.72-3.29,.04-6.44,1.29-9.45,3.29-7.95,8.38-14.54,15.57-19.37,1.07-.72,2.29-1.29,3.51-1.75,4.62-1.72,7.91,.93,7.27,5.87-.21,1.65-.64,3.26-1.29,4.83-.18,.47-.64,1.07-.21,1.5,.54,.54,1.15,0,1.61-.29,2.22-1.29,4.19-2.94,6.01-4.76,1.93-1.93,3.87-3.9,6.16-5.44,2-1.36,4.19-2.33,6.69-2.11,2.54,.21,4.4,1.86,4.37,4.33-.04,3.19-1.32,5.91-3.83,7.95-.75,.61-1.65,1.04-2.61,.39-1-.68-1.11-1.65-.82-2.69,.5-1.9,1.61-3.33,3.54-3.94,.72-.25,1.43-.43,1.22-1.4-.21-1-1-1.07-1.83-.97-1.43,.21-2.47,1.18-3.47,2.08-4.62,4.05-7.8,9.13-10.24,14.71-.75,1.75-1.54,3.51-1.61,5.44-.14,3.37,1.68,4.65,4.76,3.33,2.26-.97,3.97-2.65,5.58-4.37,2.94-3.15,5.55-6.55,8.02-10.06,3.26-4.58,6.73-8.99,11.31-12.35,1.07-.79,2.15-1.5,3.4-2,1.93-.75,3.83-.86,5.51,.72,.25,.21,.54,.68,.86,.39,1.4-1.36,3.08-.68,4.62-.72,3.01-.11,3.04-.04,1.5,2.61-3.94,6.84-7.88,13.64-11.81,20.44-.47,.82-.9,1.68-1.32,2.54-.18,.39-.25,.82,.11,1.15,.39,.36,.79,.11,1.15-.11,1.22-.64,2.22-1.58,3.22-2.54,1.97-1.93,3.54-4.19,5.26-6.34,.39-.5,.75-1.11,1.54-1.07,.47,.04,1.04-.21,1.32,.25,.25,.39-.18,.79-.39,1.11-3.65,5.26-7.48,10.35-12.71,14.18-1,.75-2.08,1.4-3.29,1.75-2.69,.75-4.44-.5-4.69-3.29-.07-.25-.07-.54-.11-1.22v.04h0Zm-3.55-4.05c.04,.72-.04,1.32,.61,1.72,.64,.36,1.15-.04,1.65-.32,1.72-1.04,2.97-2.58,4.05-4.22,3.83-5.76,7.16-11.81,10.56-17.83,.29-.47,.86-1,.25-1.61-.54-.54-1.22-.36-1.86-.11-1.32,.54-2.29,1.47-3.19,2.54-3.15,3.97-6.44,7.84-8.91,12.28-1.36,2.4-2.69,4.87-3.15,7.55h-.01Zm-43.14-1.25c.04,1.04,.14,2,1.04,2.58,.93,.61,1.83,.14,2.69-.32,.86-.47,1.58-1.07,2.26-1.75,2.58-2.54,4.48-5.55,6.34-8.59,.61-1,.32-1.47-.68-1.86-1.65-.64-3.04-1.65-4.08-3.08-.57-.82-1-.64-1.43,.07-1.07,1.79-2.18,3.54-3.26,5.33-1.4,2.43-2.47,4.9-2.86,7.63h-.02Zm16.62-18.63c-.04-2.65-1.65-3.65-3.83-2.51-1.18,.64-2,1.65-2.65,2.83-1.47,2.76,.11,5.84,3.22,6.3,.61,.11,1.04,0,1.32-.57,1-1.97,1.75-4.01,1.93-6.05h.01Z"/>
      <path class="cls-1" d="M149.39,3.73c-1.93-.39-3.33-.11-4.73,.57-4.9,2.36-9.09,5.66-12.89,9.52-6.37,6.59-11.92,13.78-16.43,21.8-3.37,5.94-6.09,12.17-6.84,19.08-.18,1.68-.21,3.33,.32,4.94,1.04,3.11,3.76,4.55,6.91,3.69,2.43-.68,4.4-2.15,6.16-3.83,4.8-4.65,8.38-10.06,9.77-16.72,.21-1,.32-2,.14-3.01-.25-1.65-1.29-2.22-2.86-1.54-1.07,.47-1.9,1.22-2.61,2.15-1.68,2.15-3.04,4.44-3.58,7.12-.25,1.15-.79,1.9-1.86,2.43-2.79,1.36-5.05,3.51-7.2,5.62-.47-.07-.47-.36-.43-.57,1-6.59,3.22-12.6,8.34-17.18,1.86-1.68,4.01-2.79,6.44-3.33,3.58-.79,5.66,.75,6.09,4.37,.32,2.65-.07,5.3-1.04,7.73-3.37,8.7-8.7,15.86-16.83,20.69-1.65,1-3.44,1.65-5.37,1.9-6.23,.79-11.03-3.4-11.99-10.27-.79-5.37,.75-10.35,2.76-15.14,5.62-13.43,14.14-24.81,25.31-34.15,4.76-3.97,10.1-7.02,16.07-8.77,2.9-.86,5.76-1.07,8.38,.9,.68,.5,1.29,.36,2,.14,1.97-.64,3.94-1.32,6.05-1.5,3.54-.29,6.87,.54,10.06,2.04,4.12,1.93,7.95,4.33,11.89,6.59,1.04,.57,1.22,1.11,.29,2-1.11,1.07-2.22,2.18-3.19,3.4-.86,1.11-1.65,1.11-2.72,.39-3.29-2.15-6.62-4.26-9.95-6.37-2.47-1.61-5.16-2.69-8.02-3.47-1-.29-2-.32-3.01-.25-.93,.04-1.32,.47-1.36,1.43-.21,8.16-4.19,14.5-9.99,19.87-1.18,1.11-2.61,1.86-4.19,2.29-2.72,.79-4.62-.43-5.01-3.22-.39-2.76,.82-5.12,2.04-7.48,2.94-5.8,7.41-10.1,13.07-13.85h0Zm1.86,2.35c-.61-.21-.97,.11-1.29,.32-5.98,3.69-10.24,8.81-12.92,15.32-.29,.72-.43,1.5-.43,2.26,.04,1.5,.97,2.18,2.36,1.79,.57-.14,1.11-.47,1.58-.79,3.62-2.4,6.19-5.73,8.16-9.52,1.54-2.97,2.33-6.09,2.54-9.38h0Z"/>
      <path class="cls-1" d="M92.68,70.1c-.93-.5-1.83-1-2.79-1.47-4.08-2-8.38-3.08-12.96-3.01-3.19,.04-5.94,1.15-7.98,3.72-.57,.72-.93,.97-1.58,.07-4.19-6.01-10.42-6.84-17.01-6.52-7.34,.36-14.25,2.79-21.34,4.4-4.08,.93-8.13,1.93-12.35,1.9-9.34-.07-15.64-5.76-16.54-15.07-.57-5.91,.72-11.53,2.9-16.93C8.87,22.76,18.6,11.66,31.96,3.72c3.33-1.97,6.95-3.11,10.78-3.65,4.69-.64,7.88,2.94,6.69,7.52-.47,1.83-1.32,3.44-2.43,4.94-.39,.54-.9,.97-1.47,1.32-.97,.61-1.97,.93-3.01,.18-1.04-.75-1.07-1.86-.75-2.9,.61-1.97,1.68-3.54,3.83-4.12,.79-.21,1.5-.43,1.4-1.47-.11-1.04-.68-1.65-1.68-1.79-1.15-.14-2.26,.07-3.33,.5-3.65,1.36-6.73,3.62-9.49,6.27-8.7,8.38-15.79,18.04-20.12,29.54-1.65,4.33-2.76,8.74-2.51,13.43,.36,6.66,3.26,9.7,9.7,11.24,4.3,1.04,8.52,0,12.75-.9,8.81-1.86,17.4-4.62,26.31-6.01,5.26-.82,10.6-.97,15.82,.25,7.23,1.68,12.82,6.16,18.04,11.13,.18,.18,.43,.39,.18,.9h0Z"/>
      <path class="cls-1" d="M215.12,.9c-2.94,6.3-7.55,10.99-13.5,14.36-3.94,2.18-8.13,3.69-12.75,3.69-1.36,0-3.26,.25-3.83-.79-.61-1.07,1.25-2,1.86-3.11,.07-.14,.21-.29,.32-.43,1.25-1.72,2.72-2.47,5.05-2.51,7.52-.04,13.71-3.51,19.37-8.16,1.22-.93,2.33-2,3.47-3.04h.01Z"/>
      <path class="cls-1" d="M106.14,24.1c-2.53,0-3.25-.93-2.18-2.79,1.29-2.25,3.26-3.36,5.91-3.33,.79,0,1.9-.43,2.29,.39,.32,.64-.57,1.32-.93,2-.14,.25-.32,.5-.47,.75-.97,2.22-2.33,3.76-4.62,2.97h0Z"/>
    </g>
  </g>
</svg>