<?xml version="1.0" encoding="UTF-8"?>
<svg id="Layer_2" data-name="Layer 2" xmlns="http://www.w3.org/2000/svg" viewBox="0 0 228.81 76.05">
  <defs>
    <style>
      .cls-1 {
        fill: #525252;
      }

      .cls-2 {
        fill: #941918;
      }
    </style>
  </defs>
  <g id="Calque_1" data-name="Calque 1">
    <g>
      <g>
        <path class="cls-2" d="M58.1,.01V76.04h-23.67V37.31h18.29c1.61,0,1.61-10.04,0-10.04H4.3v10.04H23.67v38.73H0V17.22L58.1,0h0Z"/>
        <path class="cls-1" d="M111.89,27.27v9.32h-38.38c-.08,0-1.08,1-1.08,1.08v27.97c0,.08,1,1.08,1.08,1.08h29.05v-10.04h-19.37v-9.32h28.69v28.69H63.1V27.27h48.79Z"/>
      </g>
      <g>
        <path class="cls-1" d="M170.71,27.27v9.32h-38.38c-.08,0-1.08,1-1.08,1.08v29.05h39.45v9.32h-48.78V27.26h48.79Z"/>
        <path class="cls-1" d="M228.81,27.27v9.32h-37.66c-.08,0-1.08,1-1.08,1.08v29.05h38.73v9.32h-48.06V27.26h48.07Z"/>
      </g>
    </g>
  </g>
</svg>