<?xml version="1.0" encoding="UTF-8"?>
<svg id="Layer_2" data-name="Layer 2" xmlns="http://www.w3.org/2000/svg" viewBox="0 0 203.83 67.86">
  <defs>
    <style>
      .cls-1 {
        fill: #ce152e;
      }

      .cls-2 {
        fill: #0a6939;
      }
    </style>
  </defs>
  <g id="Calque_1" data-name="Calque 1">
    <g>
      <path class="cls-1" d="M136.39,39.81c.7,.32,1.34,.57,1.94,.9,4.19,2.29,6.42,5.82,6.62,10.6,.13,3.02-.36,5.92-1.9,8.57-2.1,3.62-5.29,5.71-9.34,6.56-1.2,.25-2.41,.36-3.63,.36h-26.99c-.44,0-.66-.21-.66-.64v-20.16c0-.48-.25-.72-.74-.72-1.52,0-3.05-.01-4.57,0-.38,0-.5-.12-.49-.49,.01-2.63,.01-5.26,0-7.89,0-.36,.11-.47,.47-.46,1.59,.02,3.18-.01,4.76,.02,.48,0,.58-.15,.58-.6-.01-6.32,0-12.64,0-18.96,0-.45,.22-.68,.67-.68,8.44,0,16.87-.02,25.31,0,2.96,0,5.77,.65,8.27,2.31,3.08,2.06,4.84,4.99,5.41,8.62,.38,2.46,.3,4.9-.66,7.24-.93,2.26-2.47,3.99-4.62,5.17-.11,.06-.21,.13-.4,.23l-.03,.02h0Zm-15.65,18.17h8.13c.79,0,1.57-.08,2.34-.27,3.94-.97,6.01-5.29,4.17-8.86-1.28-2.46-3.47-3.54-6.17-3.55-5.76-.04-11.52,0-17.27-.02-.45,0-.6,.1-.6,.58,.02,3.85,.02,7.7,0,11.55,0,.48,.15,.59,.6,.58,2.94-.02,5.87,0,8.81,0h-.01Zm-.86-21.53h0c2.61,0,5.23,.01,7.84-.01,1.33-.01,2.57-.38,3.61-1.25,1.79-1.52,2.48-4.17,1.68-6.4-.83-2.32-2.79-3.7-5.36-3.72-5.28-.02-10.55,0-15.83-.02-.39,0-.48,.14-.48,.5,.01,3.46,.01,6.93,0,10.39,0,.39,.1,.52,.51,.51,2.68-.02,5.36,0,8.04,0h-.01Z"/>
      <path class="cls-2" d="M42.15,34.88v31.32c0,.43-.22,.65-.65,.65-2.33,0-4.65-.01-6.98,.01-.46,0-.59-.12-.59-.58,.01-8.65,.01-17.29,.01-25.94,0-.47-.23-.7-.7-.7H14.28c-.84,0-.76-.06-.76,.74v25.79c0,.45-.23,.67-.68,.67-2.33,0-4.65-.01-6.98,0-.43,0-.53-.13-.53-.54,.01-8.68,0-17.35,0-26.03,0-.43-.22-.64-.66-.64H.44c-.33,0-.44-.09-.44-.43,.01-3.43,.01-6.86,0-10.3,0-.36,.11-.46,.47-.46,1.43,.02,2.86-.01,4.28,.02,.46,0,.59-.11,.59-.58-.01-8.13,0-16.26-.02-24.4,0-.49,.12-.62,.61-.61,2.33,.03,4.65,.03,6.98,0,.49,0,.61,.14,.61,.62-.01,8.08-.01,16.17-.01,24.25,0,.47,.23,.71,.7,.71h19.1c.41,0,.62-.21,.62-.63V3.52c0-.43,.21-.64,.62-.64h6.93c.44,0,.66,.22,.66,.65v31.35h.01Z"/>
      <path class="cls-1" d="M70.39,15.16c4.57,.08,8.96,.89,13.03,3.08,2.14,1.15,4.04,2.6,5.74,4.33,.23,.23,.31,.37,.02,.64-2.02,1.86-4.02,3.73-6.02,5.61-.26,.24-.4,.19-.62-.03-1.65-1.65-3.43-3.17-5.57-4.13-4.23-1.9-8.56-2.23-12.95-.57-1.12,.42-2.12,1.07-2.93,1.97-1.26,1.39-1.8,3-1.5,4.87,.22,1.38,.97,2.38,2.2,3.03,2,1.05,4.16,1.54,6.37,1.93,3.17,.56,6.4,.76,9.57,1.35,2.79,.53,5.47,1.37,7.85,2.99,3.13,2.13,4.86,5.04,5.15,8.85,.27,3.6-.28,6.96-2.33,10-1.77,2.64-4.13,4.6-6.94,6-5.25,2.62-10.8,3.34-16.57,2.36-5.58-.95-10.51-3.25-14.6-7.23-.45-.44-.87-.9-1.33-1.33-.27-.25-.28-.41,.01-.68,2.05-1.89,4.09-3.8,6.11-5.72,.27-.26,.4-.23,.64,.03,1.61,1.77,3.48,3.22,5.59,4.35,4.92,2.63,10.01,2.82,15.2,.94,1.72-.62,3.22-1.61,4.13-3.28,.77-1.41,.94-2.92,.58-4.48-.29-1.23-1.07-2.09-2.18-2.66-2.11-1.08-4.39-1.59-6.69-2.02-3.15-.58-6.37-.79-9.51-1.44-2.51-.52-4.92-1.31-7.12-2.68-3.84-2.38-5.58-5.88-5.63-10.35-.06-5.57,2.62-9.51,7.2-12.32,3.39-2.08,7.13-3.09,11.08-3.32,.67-.04,1.35-.06,2.02-.09h0Z"/>
      <path class="cls-2" d="M177.64,0c-.23,.93-.33,1.87-.42,2.8-.11,1.12-.23,2.23-.26,3.35-.05,2.07-.69,4-1.3,5.95-1.14,3.63-2.25,7.26-3.43,10.87-1.27,3.87-2.57,7.73-4.19,11.47-1,2.32-2.11,4.6-3.27,6.85-1.32,2.57-2.74,5.08-4.09,7.62-1.63,3.07-3.24,6.15-4.82,9.25-.23,.45-.41,.95-.88,1.36,.04-.65,.28-1.13,.52-1.61,.81-1.57,1.1-3.22,.97-4.98-.15-2.12,.01-4.23,.2-6.34,.26-2.87,.63-5.74,1.22-8.56,.51-2.41,1.11-4.81,1.74-7.19,.63-2.36,1.33-4.69,2.19-6.97,.42-1.11,.89-2.2,1.4-3.27,1.77-3.77,3.82-7.37,6.03-10.89,.86-1.36,2-2.5,3.02-3.74,.92-1.11,1.99-2.04,3.11-2.93,.2-.16,.41-.42,.62,.07,.13,.31,.34,.05,.4-.12,.2-.47,.36-.96,.53-1.44,.19-.54,.39-1.08,.7-1.56h.01Z"/>
      <path class="cls-2" d="M180.88,16.16c.04,3.53-.34,6.95-1.02,10.34-.29,1.44-.66,2.87-1.12,4.27-.4,1.23-.83,2.46-1.35,3.64-.96,2.2-2,4.36-3.31,6.39-.68,1.05-1.35,2.09-2.08,3.1-1.55,2.12-3.25,4.12-5.01,6.08-1.42,1.59-3.01,2.96-4.66,4.28-.76,.61-1.42,1.35-2.2,1.94-.45,.34-.9,.66-1.42,.87-.43,.17-.6,.07-.64-.39-.06-.8,.17-1.55,.53-2.22,1.08-2,2.22-3.96,3.34-5.93,1.05-1.85,2.14-3.68,3.15-5.55,.78-1.44,1.56-2.89,2.3-4.36,.58-1.14,1.09-2.32,1.63-3.47,.31-.67,.61-1.37,.88-2.08,.51-1.37,1.05-2.73,1.52-4.12,.32-.95,.6-1.92,.95-2.86,.77-2.06,1.35-4.19,1.99-6.3,.59-1.96,1.12-3.93,1.63-5.91,.45-1.72,.95-3.43,1.34-5.16,.15-.66,.3-1.31,.7-1.87,.27-.38,.4-.39,.69-.03,.55,.7,.92,1.49,1.25,2.32,.91,2.29,1.14,4.65,.9,7.02h.01Z"/>
      <path class="cls-2" d="M165.11,57.92c0-.36,.15-.49,.37-.6,1.38-.67,2.32-1.76,3.05-3.09,1.37-2.5,3.11-4.74,4.94-6.91,2.7-3.21,5.71-6.1,8.89-8.83,1.47-1.26,3.06-2.38,4.71-3.4,2.22-1.39,4.49-2.67,6.85-3.8,2.23-1.07,4.57-1.85,7.05-2.13,.23-.03,.51-.14,.59,.27,.06,.3,.26,.06,.35-.01,.61-.46,1.22-.94,1.92-1.49-.18,.44-.5,.61-.71,.87-.71,.89-1.4,1.79-2.03,2.75-1.17,1.79-2.83,3.08-4.41,4.47-2.51,2.21-5.03,4.42-7.63,6.53-2.97,2.42-6.01,4.74-9.3,6.73-3.95,2.39-7.99,4.62-11.92,7.04-.88,.55-1.77,1.08-2.74,1.61h.02Z"/>
      <path class="cls-2" d="M201.83,33.66c.05,.4-.06,.82-.13,1.25-.36,2.47-1.77,4.42-3.14,6.39-.66,.95-1.32,1.9-2.04,2.79-1.81,2.26-3.87,4.27-6.2,5.99-1.78,1.32-3.67,2.46-5.65,3.44-1.93,.94-3.94,1.71-5.99,2.34-1.5,.46-2.98,1.01-4.53,1.26-1.44,.23-2.89,.41-4.32,.71-.44,.09-.92,.09-1.38,0-.49-.11-.56-.29-.24-.68,.56-.68,1.25-1.17,2.03-1.59,1.38-.74,2.75-1.51,4.12-2.27,1.39-.76,2.79-1.5,4.17-2.28,.89-.5,1.75-1.07,2.63-1.58,1.49-.87,2.93-1.84,4.3-2.88,1.4-1.06,2.79-2.15,4.14-3.29,1.65-1.39,3.26-2.84,4.87-4.28,.64-.58,1.28-1.16,1.91-1.75,1.42-1.34,2.83-2.7,4.24-4.05,.05-.04,.09-.09,.14-.13,.27-.21,.52-.58,.9-.4,.34,.16,.14,.54,.16,.83v.18h0Z"/>
      <path class="cls-2" d="M61.79,6.56c-.84,0-1.34,.42-1.51,1.25-.08,.41-.15,.82-.19,1.23-.03,.28-.15,.33-.4,.33-.97,0-.97,.02-.73-.89,.39-1.49,.67-3,.92-4.52,.05-.34,.14-.46,.5-.44,.85,.05,.85,.02,.65,.85-.1,.39-.17,.78-.28,1.17-.09,.32,.02,.44,.35,.43,.59-.01,1.19-.01,1.78,0,.3,0,.43-.12,.48-.4,.1-.55,.22-1.1,.31-1.65,.04-.29,.14-.4,.46-.39,.88,.03,.88,.01,.67,.86-.36,1.46-.67,2.93-.89,4.42-.06,.42-.2,.6-.66,.57-.75-.05-.74-.01-.57-.75,.13-.56,.25-1.13,.38-1.69,.06-.26,0-.39-.3-.38-.32,.01-.64,0-.96,0h-.01Z"/>
      <path class="cls-2" d="M131.47,6.32c.96,.4,1.22,.75,1.17,1.5-.06,.74-.55,1.28-1.37,1.47-.87,.2-1.76,.03-2.64,.07-.3,.01-.18-.19-.14-.33,.38-1.49,.69-3,.95-4.51,.16-.95,.17-.95,1.14-.98,.37-.01,.74-.02,1.11-.02,.77,0,1.23,.31,1.36,.89,.15,.64-.19,1.32-.83,1.63-.21,.1-.44,.17-.75,.28h0Zm-.05,1.28c.02-.68-.28-1.06-.85-1.1-.23-.02-.36,.04-.41,.28-.12,.61-.24,1.22-.38,1.83-.06,.27,.04,.37,.31,.38,.76,.02,1.3-.53,1.32-1.38h.01Zm.47-2.92s-.03-.2-.08-.33c-.15-.38-.49-.4-.84-.4-.33,0-.3,.28-.35,.48-.1,.42-.17,.84-.27,1.26-.07,.28,.04,.37,.31,.37,.73,0,1.23-.53,1.22-1.38h0Z"/>
      <path class="cls-2" d="M96.62,8.97c-.3,.16-.51,.4-.82,.47-.85,.18-1.58-.31-1.7-1.19s.07-1.69,.63-2.4c.62-.77,1.5-.88,2.28-.28,.23,.17,.29,.11,.33-.13,.13-.73,.27-1.45,.4-2.17,.03-.13,.02-.33,.21-.32,.3,.01,.61-.06,.9,.06,.03,.01,.01,.18,0,.27-.44,1.92-.85,3.85-1.16,5.8-.08,.53-.51,.21-.78,.29-.33,.09-.26-.19-.29-.39h0Zm.43-2.35c-.02-.37-.03-.8-.53-.92-.48-.11-.74,.21-.92,.6-.26,.56-.4,1.15-.4,1.76,0,.35,.09,.7,.48,.81,.4,.12,.68-.11,.88-.43,.35-.54,.44-1.16,.49-1.82h0Z"/>
      <path class="cls-2" d="M141.64,5.88c.44-.4,.83-.64,1.31-.67,.81-.06,1.25,.35,1.12,1.15-.15,.93-.37,1.85-.54,2.78-.03,.18-.12,.24-.29,.23h-.92c.23-.95,.45-1.87,.67-2.78,.07-.28,.1-.56-.21-.71-.29-.15-.56-.04-.8,.16-.26,.22-.39,.51-.49,.81-.25,.71-.37,1.46-.5,2.2-.03,.15-.03,.35-.26,.33-.3-.02-.61,.07-.89-.06-.03-.01,0-.18,.02-.27,.44-1.92,.86-3.84,1.21-5.78,.04-.23,.15-.34,.39-.31,.14,.02,.29,.02,.43,0,.33-.04,.42,.04,.32,.39-.18,.63-.32,1.27-.46,1.91-.04,.16-.05,.33-.09,.63h-.02Z"/>
      <path class="cls-2" d="M106.08,7.95c.17,.57,.43,1.02,1.05,1.07,.43,.04,.81-.05,1.04-.44,.24-.41,.1-.78-.19-1.1-.3-.31-.63-.59-.95-.88-.66-.62-.85-1.33-.55-2.08,.28-.71,.9-1.09,1.8-1.1,.42,0,.83,.06,1.21,.24,.24,.11,.37,.23,.21,.51-.12,.2-.09,.47-.27,.65-.19-.08-.16-.28-.23-.41-.2-.36-.51-.52-.91-.5-.34,.01-.62,.15-.78,.47-.18,.37-.06,.7,.19,.97,.33,.35,.69,.66,1.04,.99,.61,.56,.78,1.24,.5,2.01-.28,.77-.92,1.07-1.69,1.12-.53,.04-1.05-.03-1.54-.26-.26-.12-.4-.26-.23-.55,.12-.2,.09-.46,.3-.7h0Z"/>
      <path class="cls-2" d="M67.65,8.88c-.42,.43-.91,.64-1.51,.59-.63-.05-.98-.39-.88-1,.16-.99,.38-1.98,.57-2.97,.03-.15,.11-.19,.27-.2,.97-.04,.97-.05,.72,.91-.16,.64-.31,1.28-.46,1.91-.07,.28-.08,.56,.22,.72,.28,.15,.53,.04,.76-.13,.29-.22,.45-.54,.55-.88,.21-.69,.38-1.39,.47-2.11,.05-.37,.18-.47,.52-.41,.12,.02,.26,.01,.38,0,.22-.03,.29,.07,.24,.28-.28,1.15-.49,2.32-.72,3.48-.11,.56-.61,.24-.92,.27-.37,.03,0-.31-.2-.46h-.01Z"/>
      <path class="cls-2" d="M101.33,8.83c-.57,.52-1.09,.72-1.7,.64-.55-.06-.9-.4-.81-.92,.16-1.03,.39-2.04,.58-3.06,.03-.14,.11-.16,.24-.18,.98-.09,1-.07,.76,.86-.16,.63-.32,1.27-.46,1.91-.06,.28-.12,.6,.2,.77,.32,.17,.59,.02,.83-.19,.26-.23,.4-.53,.5-.86,.2-.68,.36-1.36,.45-2.06,.04-.32,.15-.46,.48-.41,.14,.02,.29,.02,.43,0,.24-.04,.29,.07,.24,.27-.3,1.15-.53,2.31-.72,3.48-.07,.45-.39,.27-.63,.29-.27,.02-.67,.13-.4-.53h.01Z"/>
      <path class="cls-2" d="M161.13,5.92c.5-.38,.84-.66,1.31-.71,.86-.09,1.32,.29,1.2,1.15-.14,.93-.38,1.85-.56,2.78-.06,.33-.3,.22-.49,.22-.75,.01-.74,.01-.54-.71,.18-.66,.34-1.33,.5-2,.06-.27,.12-.56-.16-.74-.31-.2-.59-.06-.84,.13-.28,.21-.42,.52-.53,.84-.22,.67-.35,1.36-.48,2.06-.03,.16,.02,.4-.22,.42-.3,.03-.61,.01-.9-.03-.1-.01-.02-.17,0-.26,.24-1.14,.51-2.28,.72-3.43,.08-.44,.35-.31,.6-.31,.3,0,.74-.16,.38,.59h.01Z"/>
      <path class="cls-2" d="M117.26,8.86c-.42,.44-.9,.65-1.48,.62-.69-.03-1.02-.37-.93-1.04,.09-.63,.25-1.26,.38-1.88,.03-.13,.05-.25,.08-.38,.17-.83,.17-.8,1-.86,.39-.03,.32,.12,.26,.37-.21,.82-.41,1.65-.61,2.47-.06,.25-.06,.48,.17,.65,.25,.18,.49,.1,.72-.04,.37-.22,.55-.58,.65-.97,.16-.64,.34-1.27,.43-1.92,.06-.44,.2-.6,.66-.56,.57,.05,.57,0,.45,.56-.21,1-.41,2.01-.62,3.01-.08,.39-.73,.68-1.06,.46-.18-.12,.05-.3-.08-.49h-.02Z"/>
      <path class="cls-2" d="M111.84,9.48c-1.01,0-1.65-.58-1.75-1.59-.17-1.67,1.37-3.01,3-2.62,.94,.23,1.42,1.23,1.14,2.36-.27,1.11-1.22,1.84-2.39,1.84h0Zm1.35-2.79c.02-.69-.17-1.07-.54-1.16-.4-.09-.8,.18-1.05,.74-.28,.65-.44,1.34-.4,2.05,.02,.37,.08,.77,.53,.87,.44,.09,.72-.18,.93-.53,.37-.62,.47-1.32,.53-1.97h0Z"/>
      <path class="cls-2" d="M156.21,6c-.08-.31,.02-.46,.24-.55,.25-.11,.51-.18,.78-.22,1.32-.18,1.84,.35,1.6,1.65-.1,.55-.22,1.1-.31,1.65-.05,.29-.08,.6,.38,.64-.45,.4-.96,.39-1.28-.03-.15-.19-.19-.17-.35-.03-.41,.38-1.08,.49-1.5,.25-.46-.26-.54-.68-.49-1.16,.06-.52,.42-.94,.96-1.07,.34-.08,.69-.12,1.04-.17,.3-.04,.51-.15,.52-.51,0-.37-.15-.62-.51-.71-.38-.1-.72,.05-1.08,.25h0Zm.18,2.41c.01,.21,.02,.48,.35,.54,.32,.06,.51-.11,.64-.38,.15-.32,.18-.67,.26-1.01,.07-.29-.06-.32-.3-.29-.64,.08-.96,.44-.95,1.14Z"/>
      <path class="cls-2" d="M145.52,5.98c-.13-.28-.01-.43,.21-.52,.58-.25,1.17-.33,1.78-.17,.52,.14,.78,.58,.68,1.21s-.25,1.26-.36,1.88c-.05,.29-.17,.59,.23,.77,.18,.08,.02,.19-.08,.22-.4,.14-.8,.16-1.08-.23-.14-.19-.2-.17-.35-.02-.4,.38-1.03,.48-1.46,.25-.44-.23-.58-.63-.54-1.09,.05-.6,.41-1.01,.99-1.15,.34-.08,.69-.12,1.04-.17,.3-.04,.53-.16,.52-.51,0-.33-.13-.59-.48-.69-.4-.12-.75,.03-1.09,.21h-.01Zm.7,2.98c.11,0,.26-.08,.37-.24,.25-.39,.28-.85,.35-1.29,.03-.16-.08-.17-.21-.18-.71-.02-1.26,.73-1.02,1.39,.08,.21,.21,.31,.51,.31h0Z"/>
      <path class="cls-2" d="M46.41,9.36c-.42,0-.83-.02-1.25,0-.26,.01-.34-.04-.27-.31,.44-1.72,.8-3.46,1.06-5.21,.03-.23,.13-.31,.38-.31,1,0,1-.02,.77,.97-.31,1.31-.59,2.62-.83,3.94-.06,.31,.03,.41,.33,.39,.4-.02,.8-.02,1.2,0,.11,0,.34-.1,.3,.16-.02,.17-.01,.4-.31,.39-.46-.01-.93,0-1.39,0h0v-.02h.01Z"/>
      <path class="cls-2" d="M136.72,8.54c0,.59-.32,.78-.76,.85-.78,.12-1.54,.1-2.06-.58-.58-.75-.52-1.6-.15-2.41,.38-.82,1.06-1.22,1.97-1.2,1.07,.02,1.68,.83,1.48,1.89-.04,.23-.14,.28-.35,.27-.59-.02-1.19,0-1.78-.03-.32-.01-.46,.09-.45,.44,.02,.43,.04,.86,.46,1.09,.43,.24,.87,.15,1.28-.08,.11-.06,.21-.14,.36-.24h0Zm-1.32-1.55c.77,0,.92-.17,.81-.91-.04-.23-.11-.44-.36-.51-.24-.08-.44,0-.61,.16-.3,.28-.38,.65-.47,1.03-.04,.16,.06,.23,.21,.24h.42Z"/>
      <path class="cls-2" d="M52.18,8.57c-.01,.57-.32,.75-.77,.81-.84,.13-1.62,.08-2.15-.69-.49-.71-.43-1.82,.11-2.59,.53-.76,1.27-1.03,2.18-.87,.93,.16,1.25,1.04,1.08,1.94-.04,.23-.24,.18-.39,.18-.58,0-1.15,0-1.73-.02-.37-.02-.47,.15-.46,.49,0,.97,.69,1.43,1.58,1.05,.17-.07,.33-.18,.54-.29h.01Zm-1.29-1.59c.75,0,.82-.07,.79-.76,0-.06-.01-.13-.02-.19-.1-.52-.55-.68-.96-.33-.15,.13-.24,.3-.31,.48-.32,.74-.29,.8,.5,.8Z"/>
      <path class="cls-2" d="M77.82,8.56c0,.54-.28,.74-.71,.82-.72,.13-1.42,.12-1.98-.42-.66-.63-.72-1.94-.15-2.81,.54-.82,1.6-1.18,2.49-.85,.66,.25,1.09,1.29,.8,1.91-.09,.18-.23,.14-.37,.14-.58,0-1.15,0-1.73-.02-.37-.02-.47,.15-.46,.48,.01,1.02,.73,1.47,1.66,1.02,.14-.07,.27-.16,.45-.27h0Zm-1.31-1.57c.77,0,.87-.1,.81-.82,0-.05,0-.1-.02-.14-.1-.49-.54-.66-.93-.33-.32,.27-.43,.66-.51,1.05-.03,.17,.06,.23,.22,.24h.43Z"/>
      <path class="cls-2" d="M87.61,8.56c-.02,.54-.29,.75-.72,.82-.85,.14-1.65,.1-2.2-.69-.49-.7-.41-1.87,.14-2.63,.52-.72,1.37-1.02,2.26-.8,.75,.19,1.27,1.23,.97,1.94-.09,.21-.26,.15-.41,.15-.58,0-1.15,0-1.73-.02-.31-.01-.42,.12-.43,.42-.03,1.03,.74,1.53,1.66,1.08,.14-.07,.27-.16,.45-.27h.01Zm-1.31-1.57c.77,0,.82-.05,.8-.74,0-.06,0-.13-.01-.19-.03-.21-.1-.41-.33-.49-.24-.09-.44-.01-.62,.14-.17,.14-.26,.32-.34,.52-.3,.73-.27,.77,.5,.77h0Z"/>
      <path class="cls-2" d="M72.66,9.36c-.61,0-.6,0-.45-.61,.44-1.76,.79-3.53,1.12-5.31,.03-.17-.04-.45,.21-.48,.33-.03,.67-.01,1,.04,.12,.02,.05,.2,.03,.3-.49,1.91-.89,3.84-1.24,5.78-.05,.29-.07,.29-.68,.29h.01Z"/>
      <path class="cls-2" d="M138.1,9.36h-.34c-.21,.02-.28-.05-.22-.27,.5-1.92,.9-3.86,1.23-5.82,.05-.29,.19-.35,.46-.33,.85,.04,.85,.03,.64,.86-.42,1.71-.78,3.43-1.08,5.16-.05,.27-.28,.4-.69,.4h0Z"/>
      <path class="cls-2" d="M55.69,6.37c-.26-.55-.55-.9-1.11-.79-.26,.05-.45,.17-.52,.43-.07,.26,.09,.43,.28,.56,.29,.2,.62,.35,.9,.56,.73,.55,.69,1.57-.09,2.05-.61,.38-1.28,.36-1.95,.16-.18-.05-.28-.16-.2-.36,.08-.17,.04-.39,.21-.56,.23,.41,.51,.74,1.04,.7,.3-.02,.54-.13,.63-.43,.09-.29-.07-.49-.31-.64-.2-.13-.41-.25-.62-.37-.5-.28-.75-.7-.65-1.27,.1-.59,.45-.98,1.03-1.15,.38-.11,.76-.08,1.14,0,.37,.07,.56,.21,.36,.61-.06,.11-.07,.24-.14,.5h0Z"/>
      <path class="cls-2" d="M88.65,8.43c.23,.46,.54,.77,1.09,.7,.28-.03,.49-.15,.57-.43,.08-.27-.05-.47-.28-.61-.22-.14-.43-.27-.66-.4-.45-.25-.69-.63-.66-1.14,.04-.53,.3-.94,.79-1.18,.31-.16,.65-.21,.98-.16,1.1,.15,.93,.19,.64,1.05-.18-.04-.16-.22-.24-.33-.23-.32-.71-.46-1.07-.3-.4,.18-.45,.65-.08,.92,.26,.19,.55,.33,.82,.5,.47,.29,.69,.7,.59,1.26-.09,.55-.44,.88-.94,1.05-.34,.12-.69,.13-1.05,.1-.81-.06-.92-.26-.52-1.04h.02Z"/>
      <path class="cls-2" d="M151.38,6.35c-.2-.56-.5-.84-1.04-.76-.26,.04-.46,.15-.53,.41-.08,.28,.07,.46,.29,.6,.28,.18,.59,.33,.86,.53,.77,.58,.71,1.63-.13,2.1-.61,.35-1.26,.32-1.91,.12-.18-.05-.27-.15-.18-.35,.07-.17,.11-.36,.18-.61,.25,.43,.5,.75,.97,.75,.33,0,.61-.09,.72-.43,.11-.32-.1-.51-.35-.66-.18-.11-.36-.21-.53-.32-.58-.35-.79-.77-.69-1.35,.11-.58,.55-1.03,1.16-1.13,.2-.03,.42-.06,.62-.03,1.09,.17,.92,.17,.56,1.13Z"/>
      <path class="cls-2" d="M152.17,8.37c.26,.45,.52,.78,1.02,.77,.32,0,.57-.11,.68-.42,.11-.32-.09-.51-.33-.66-.2-.13-.41-.25-.62-.37-.5-.29-.72-.72-.61-1.29,.1-.57,.45-.95,1-1.11,.24-.07,.51-.08,.76-.07,.91,.05,.97,.16,.6,1.07-.23-.39-.45-.76-.97-.71-.29,.03-.54,.12-.63,.42-.09,.3,.11,.48,.33,.63,.27,.17,.56,.31,.82,.5,.76,.55,.7,1.65-.13,2.11-.59,.33-1.23,.31-1.86,.14-.24-.06-.3-.19-.22-.42,.06-.16,.09-.32,.16-.57v-.02h0Z"/>
      <path class="cls-2" d="M122.05,6.25c-.12-.01-.13-.12-.17-.21-.21-.43-.58-.52-1.01-.44-.22,.04-.38,.18-.44,.4-.07,.23,.04,.42,.22,.54,.26,.18,.55,.33,.82,.5,.42,.26,.69,.62,.64,1.14-.06,.56-.36,.95-.88,1.16-.45,.18-.91,.17-1.37,.1-.55-.09-.58-.15-.43-.69,.03-.09,.06-.18,.08-.27,.18,0,.19,.17,.26,.26,.25,.33,.58,.44,.97,.38,.26-.04,.44-.19,.51-.45,.06-.25-.06-.44-.26-.57-.22-.14-.44-.27-.66-.4-.57-.35-.76-.73-.65-1.31,.11-.59,.48-.97,1.05-1.13,.25-.07,.51-.09,.76-.05,.93,.16,.92,.12,.56,1.03h0Z"/>
      <path class="cls-2" d="M122.83,8.35c.24,.55,.56,.83,1.08,.79,.28-.02,.5-.14,.59-.42,.09-.29-.05-.5-.29-.64-.2-.13-.42-.24-.62-.37-.57-.36-.76-.73-.65-1.32,.11-.6,.48-.97,1.06-1.12,.21-.06,.45-.07,.67-.06,.92,.05,.98,.15,.67,1.04-.16-.02-.16-.18-.22-.27-.23-.37-.57-.45-.96-.37-.23,.05-.41,.19-.46,.44-.05,.23,.06,.41,.25,.53,.28,.18,.59,.33,.86,.52,.85,.59,.74,1.77-.21,2.21-.49,.23-1,.21-1.51,.14-.4-.06-.62-.24-.39-.67,.05-.09,.07-.2,.14-.41v-.02h-.01Z"/>
      <path class="cls-2" d="M80.44,5.95c.25-.21,.42-.49,.71-.63,.2-.1,.43-.21,.63-.06,.19,.15-.04,.31-.05,.47-.02,.39-.1,.63-.62,.53-.41-.08-.7,.25-.84,.65-.23,.65-.35,1.34-.44,2.02-.05,.34-.17,.45-.52,.44-.71-.02-.7,0-.54-.72,.22-1,.43-2.01,.64-3.01,.03-.13,0-.32,.21-.32,.27,0,.57-.05,.8,.05,.15,.07-.08,.35,.01,.57h.01Z"/>
      <path class="cls-2" d="M82.47,9.36c-.6,0-.59,0-.45-.58,.24-1,.47-1.99,.62-3.01,.05-.31,.11-.51,.52-.46,.73,.08,.73,.04,.57,.78-.2,.89-.39,1.78-.56,2.68-.11,.59-.09,.6-.7,.59Z"/>
      <path class="cls-2" d="M71.12,5.33c.68,0,.67,0,.53,.59-.21,.94-.45,1.87-.58,2.82-.07,.51-.24,.67-.75,.63-.57-.05-.55,0-.43-.57,.21-.95,.42-1.91,.6-2.87,.08-.42,.15-.77,.63-.6Z"/>
      <path class="cls-2" d="M72.09,3.77c-.04,.3-.24,.51-.62,.51-.35,0-.63-.31-.59-.67,.04-.36,.25-.58,.63-.58,.36,0,.61,.3,.58,.73h0Z"/>
      <path class="cls-2" d="M83.52,3.04c.42,0,.72,.29,.69,.64-.02,.36-.22,.59-.6,.6-.36,.01-.63-.27-.61-.64,.02-.37,.23-.57,.52-.61h0Z"/>
    </g>
  </g>
</svg>