<?xml version="1.0" encoding="UTF-8"?>
<svg id="Layer_2" data-name="Layer 2" xmlns="http://www.w3.org/2000/svg" viewBox="0 0 120.84 137.82">
  <defs>
    <style>
      .cls-1 {
        fill: #116736;
      }

      .cls-2 {
        fill: #d91f28;
      }
    </style>
  </defs>
  <g id="Calque_1" data-name="Calque 1">
    <g>
      <path class="cls-1" d="M120.83,100.43H30.05c5.09-5.03,10.71-9.51,16.8-13.28,4.58-2.84,8.44-4.29,13.58-5.88,7.03-2.19,14.27-3.87,21.62-4.53,4.37-6.14,8.63-12.36,12.78-18.64l26,42.34h0Z"/>
      <path class="cls-1" d="M22.93,100.43H.05L22.71,62.1c.14,0,.19,2.43,.24,2.73,1.05,7.08,6.48,12.47,12.31,16.06-5.16,5.69-10.19,12.03-12.33,19.54h0Z"/>
      <path class="cls-1" d="M49.37,112.16v1.93c.29-.19,.41-.6,.67-.89,1.95-2.16,5.66-2.13,6.83,.74,1.23-2.01,3.64-2.84,5.82-1.81,.96,.45,1.98,1.86,1.98,2.92v8.99h-4.01v-7.8c0-.8-.64-1.37-1.41-1.42-2.03-.14-1.96,1.18-2.31,2.76v6.46h-3.86v-7.5c0-.09-.25-.89-.32-1.02-.57-1.1-2.52-.93-3.07,.16-.37,.73-.44,2.78-.48,3.68-.07,1.55,.05,3.12,0,4.68h-3.86v-11.89h4.02Z"/>
      <path class="cls-1" d="M86.81,124.05v-1.78c-1.38,1.67-2.73,2.46-4.98,2.23-5.65-.58-5.91-11.79-.08-12.71,2.09-.33,3.69,.22,4.84,2.01,.34,.06,.2-.15,.22-.37,.03-.47-.02-.95,0-1.41l3.72,.15v11.89h-3.72Zm-3.01-9.04c-3.02,.37-2.98,5.39-.42,5.99,4.65,1.08,4.73-6.52,.42-5.99Z"/>
      <path class="cls-1" d="M9.26,124.05v-1.78c-2.67,3.7-7.76,2.79-8.94-1.69-1.06-4.04,.48-9.21,5.45-8.87,1.57,.11,2.64,.91,3.41,2.23l.07-1.93,3.71,.15v11.89h-3.7Zm-3.01-9.03c-3.02,.49-2.89,5.65-.02,6.04,4.52,.62,4.13-6.71,.02-6.04Z"/>
      <path class="cls-1" d="M43.02,118.12c0,3.56-2.89,6.44-6.44,6.44s-6.44-2.89-6.44-6.44,2.89-6.44,6.44-6.44,6.44,2.89,6.44,6.44Zm-7.21-2.8c-2.23,.46-2.39,5.15,.18,5.69,3.93,.83,4.18-6.59-.18-5.69Z"/>
      <path class="cls-1" d="M105.98,124.05h-4.01v-7.06c0-.74-.6-1.86-1.42-2-1.18-.19-2.11,.16-2.58,1.27-.18,.43-.46,1.65-.46,2.06v5.72h-3.86v-11.89h3.71v2.23l1.06-1.4c2.42-2.42,7.56-1.35,7.56,2.51v8.56h0Z"/>
      <path class="cls-1" d="M120.83,118.85h-8.54c-.62,0,.05,2.55,1.41,2.9,.82,.21,2.06,.13,2.75-.38,.27-.19,.7-.9,.76-.9,.15-.02,2.5,.92,2.77,1.08,.57,.33-.38,1.3-.71,1.61-1.35,1.25-3.45,1.46-5.21,1.34-7.96-.56-7.59-12.35,.15-12.79,4.38-.25,6.86,2.96,6.62,7.14h0Zm-4.01-2.23c-.11-3.12-4.51-3.17-4.61,0h4.61Z"/>
      <rect class="cls-1" x="16.24" y="105.63" width="4.01" height="18.42"/>
      <path class="cls-1" d="M71.51,114.69l.96-1.49c1.1-1.26,2.48-1.46,4.09-1.34l-.3,3.86c-1.42-.42-3.1-.4-3.99,.99-.15,.23-.62,1.41-.62,1.61v5.72h-4.01v-11.89h3.86v2.53h.01Z"/>
      <path d="M14.9,129.99c.45,.07,1.6-.17,1.86,.15,.72,1.54,1.26,3.31,2.02,4.81,.1,.2,.19,.48,.42,.54,.27-.68,2-5.32,2.25-5.47,.23-.15,1.38,.05,1.76-.02v7.58h-1.63v-4.46l-1.8,4.44c-.38,0-1.14,.14-1.4-.13l-1.85-4.31v4.46h-1.63v-7.58h0Z"/>
      <path d="M46.85,137.57c-.27-.04-1.58,.06-1.64,0-.04-.04,.03-.45,0-.6-2.09,1.7-4.72,.36-4.76-2.3-.04-2.73,2.57-4.21,4.76-2.45,.03-.14-.04-.55,0-.6,.06-.06,1.37,.05,1.64,0v5.94h0Zm-3.46-4.72c-1.95,.25-1.63,3.74,.39,3.54,2.07-.21,1.83-3.82-.39-3.54Z"/>
      <path d="M30.65,137.57c-.27-.04-1.58,.06-1.64,0-.04-.04,.03-.45,0-.6-2.09,1.73-4.71,.34-4.76-2.3-.05-2.7,2.61-4.23,4.76-2.45,.03-.14-.04-.55,0-.6,.06-.06,1.37,.05,1.64,0v5.94h0Zm-3.45-4.72c-1.96,.37-1.6,3.68,.39,3.53,2.17-.16,1.75-3.94-.39-3.53Z"/>
      <path d="M99.14,137.57c-.27-.04-1.58,.06-1.64,0-.04-.04,.03-.45,0-.6-1.58,1.39-3.87,.83-4.53-1.19-.99-3,1.86-5.71,4.53-3.56,.03-.14-.04-.55,0-.6,.06-.06,1.37,.05,1.64,0v5.94h0Zm-3.3-4.72c-2.51,.29-1.4,4.62,.91,3.3,1.42-.81,.84-3.5-.91-3.3Z"/>
      <path d="M100.78,133.04c-.1-.3-.69-.18-.74-.23-.04-.04-.04-1.14,0-1.18,.05-.05,.53,.07,.67-.14,.12-.17,.05-.74,.13-1.06,.29-1.09,1.47-1.31,2.46-1.33-.06,.36,.09,.95,0,1.25-.04,.17-.58,.08-.82,.4-.15,.2-.33,.88,0,.88h3.34v5.94h-1.49v-4.53c0-.33-2.08-.33-2.08,0v4.53h-1.49c0-.83,.17-4.02,0-4.53h.02Z"/>
      <path d="M91.86,132.07c-.49-.08-1.25,.11-1.68,0-.18-.04-.15-.48-.4-.67-.58-.45-1.74-.25-1.78,.6-.07,1.33,3.56,1,3.86,2.82,.62,3.81-5.18,3.58-5.46,.99-.07-.64,1.07-.59,1.51-.49,.14,.03,.28,.71,.61,.91,.9,.54,2.18-.08,1.64-1.2-.37-.77-3.56-.62-3.78-2.62-.36-3.24,5.24-3.48,5.49-.36v.02h0Z"/>
      <path d="M69.43,129.55v2.67c.9-.9,2.52-1.07,3.49-.15,.17,.16,.67,.94,.67,1.11v4.38h-1.49v-3.64c0-.49-.74-1.1-1.27-1.12-.48-.02-1.41,.54-1.41,.98v3.79h-1.63v-8.02h1.64Z"/>
      <path d="M49.82,129.55v4.46c.53-.37,1.45-2.1,1.93-2.3,.52-.22,1.36,0,1.93-.08,.16,.12-2.39,2.71-2.5,3.05,.21,.24,2.65,2.78,2.5,2.89-.57-.07-1.41,.14-1.93-.08-.49-.2-1.4-1.93-1.93-2.3v2.38h-1.63v-8.02h1.63Z"/>
      <path d="M60.22,135.04h-4.46c.08,1.01,1.01,1.6,1.98,1.31,.3-.09,.46-.53,.7-.63,.44-.2,1.14-.02,1.63-.08-1.01,3.39-5.99,2.53-5.93-1.1,.08-4.43,6.82-3.89,6.08,.5h0Zm-1.64-1.04c-.09-1.68-2.52-1.59-2.82,0h2.82Z"/>
      <path d="M66.75,133.71c-.44-.07-1.14,.11-1.54-.02-.35-.12-.35-.92-1.36-.88-1.83,.08-1.8,3.67,.14,3.59,.87-.04,.89-.77,1.22-.88,.39-.14,1.09,.04,1.54-.02-1.28,4.01-6.67,2.47-5.73-1.94,.59-2.76,5.33-2.83,5.73,.16h0Z"/>
      <path d="M31.99,131.63c.27,.04,1.58-.06,1.64,0,.04,.05-.03,.58,0,.74,.3-.27,1.49-1.3,1.86-.75,.12,.17,.12,1.19,0,1.35-.14,.2-1.06,.1-1.46,.43-.09,.07-.4,.64-.4,.68v3.49h-1.63v-5.94h-.01Z"/>
      <path d="M36.45,131.63c.27,.04,1.58-.06,1.64,0,.06,.07-.11,.53,.07,.59,.46-.44,1.05-.79,1.71-.74-.04,.27,.06,1.58,0,1.64-.08,.07-1.78-.07-1.78,.82v3.64h-1.63v-5.94h0Z"/>
      <path d="M82.35,133.11c-.04,.33,.12,1.09-.14,1.27-.18,.13-4.08,.14-4.37,.04-.41-.14-.2-.95-.24-1.32h4.75Z"/>
      <path d="M104.9,129.12c1.36-.24,1.7,2.08-.18,1.76-.87-.15-.8-1.58,.18-1.76Z"/>
      <path class="cls-2" d="M94.39,57.19c-10.78,4.19-21.96,8.2-33.4,10.21-6.78,1.19-16.38,2.47-22.27-1.7-7.54-5.35-9.03-13.04-.47-18.37,5.66-3.53,12.03-3.17,16.71,1.69,.12,.12,.2,.41,.24,.43,.33,.19,2.69-1.47,3.14-1.79,2.66-1.84,7.84-5.97,7.96-9.43,.11-3.11-4.62-5.18-7.15-5.74-7.05-1.58-14.81,1.73-20.46,5.78l-3.58,2.81L59.4,0l34.99,57.2h0Z"/>
    </g>
  </g>
</svg>