<?xml version="1.0" encoding="UTF-8"?>
<svg id="Layer_2" data-name="Layer 2" xmlns="http://www.w3.org/2000/svg" viewBox="0 0 131.31 153.64">
  <defs>
    <style>
      .cls-1 {
        fill: #db1e31;
      }

      .cls-2 {
        fill: #fff;
      }

      .cls-3 {
        fill: #1f8450;
      }

      .cls-4 {
        fill: #252628;
      }

      .cls-5 {
        fill: #116736;
      }

      .cls-6 {
        fill: #d91f28;
      }
    </style>
  </defs>
  <g id="Calque_1" data-name="Calque 1">
    <g>
      <path class="cls-6" d="M101.56,58.66c-.68-.22-1.23,.2-1.78,.42-7.19,2.83-14.47,5.42-21.81,7.87-3.22,1.08-6.44,2.26-9.76,2.91-6.55,1.29-13.04,1.42-19.42-.96-2.48-.92-4.84-2.13-6.79-3.94-2.8-2.59-4.41-5.92-4.82-9.73-.4-3.82,1.93-6.66,5.9-7.98,2.37-.79,4.85-.97,7.34-1.05,5.35-.15,10.44,.86,15.17,3.44,.51-.35,.61-.9,.83-1.36,1.32-2.65,2.56-5.35,3.95-7.98,.77-1.43,.2-3.68-1.65-4.52-9.38-4.21-19.38-2.98-27.22,4.01-1.45,1.31-2.74,2.76-4.05,4.19l.02,.04c-.09-.39,.15-.64,.31-.94,3.57-5.68,7.15-11.36,10.72-17.05,3.53-5.65,7.06-11.29,10.59-16.95,1.73-2.76,3.46-5.52,5.2-8.27,.18-.28,.29-.63,.79-.81,.74,1.08,1.47,2.19,2.23,3.31,5.09,7.7,10.21,15.41,15.3,23.11,6.86,10.39,13.7,20.8,20.56,31.19-.46,.28-1.03,.35-1.36,.83-.18-.09-.37-.17-.29,.18l.04,.04h0Z"/>
      <path class="cls-5" d="M101.82,58.52c.33-.48,.92-.55,1.36-.83,9.32,14.2,18.63,28.39,28.13,42.86-32.38-.09-64.51,.06-96.67-.28-.35-.99,.17-1.43,.83-1.82,3.29-1.99,6.62-3.92,9.97-5.79,4.93-2.74,9.91-5.37,15.01-7.8,8.53-4.05,17.18-7.78,26.41-9.93,2.43-.57,4.89-.79,7.47-1.05,1.69-3.51,3.44-7.02,5.11-10.59,.72-1.53,1.64-2.98,2.1-4.62l-.04,.02c.15-.07,.24-.13,.33-.18h0Z"/>
      <path class="cls-5" d="M26.96,136.28v-3.77c.85-.11,1.67-.18,2.43-.5,.77-.31,1.25-.81,1.43-1.67,.26-1.21,.26-2.45,.13-3.64-.33-3.22-.06-6.42-.2-9.75,1.43-.44,2.83-.17,4.36-.22v6.34h45.4c.29-2.13-.07-4.27,.24-6.47,2.39,0,4.73-.02,7.06,0,1.89,.02,3.2,1.01,4.06,2.63,.53,.99,.83,2.08,1.21,3.22h5.9c.28-.39,.09-.77,.07-1.16-.04-.83-.13-1.65-.13-2.48,.04-3,1.67-5.19,4.56-6.07,2.41-.74,4.87-.86,7.52-.68,.13,1.51,.04,3,.06,4.38-.39,.46-.81,.35-1.18,.35-1.18,.02-2.34,.02-3.51,.04-.29,0-.59,.02-.88,.07-1.49,.24-2.48,1.08-2.56,2.19-.11,1.6,.75,2.91,2.26,3.33,.46,.13,.96,.26,1.43,.26,4.08,.02,8.16,.02,12.43,.02,.26-6.34,0-12.61,.13-18.9h4.01v23.78c-1.65,.06-3.35,.02-5.04,.02h-25.01c-.48,.7-.04,1.42-.5,2-.39,.28-.88,.15-1.36,.17-2.54,.11-5.08-.09-7.59,.15-.42,.04-.86-.09-1.31-.11-1.29-.06-2.13-.63-2.3-1.99-.46-.26-.96-.13-1.43-.13H41.36c-1.07,0-2.15-.09-3.22-.09-2.65-.02-2.96,.28-3.07,2.87-.04,.97-.24,1.93-.55,2.85-.18,.55-.48,1.07-.81,1.54-.63,.88-1.47,1.42-2.59,1.38h-.74c-1.07,.06-2.17,.06-3.44,.06l.02-.02h0Zm58-15.1c-.02,1.34-.2,2.59,.09,3.81,1.14,.5,1.64,.53,3.57,.26,.75-2.54-.75-4.28-3.66-4.06h0Z"/>
      <path class="cls-5" d="M28.65,57.76c.17,.51-.13,.94-.31,1.4-.51,1.32-.83,2.7-1.01,4.1-.04,.28-.04,.59,.02,.86,.85,4.19,2.48,7.98,5.55,11.05,.94,.94,1.95,1.75,3.13,2.39,1.03,.55,2.02,1.18,2.85,2.02,1.12,1.2,1.14,1.54,.11,2.85-2.52,3.22-5.08,6.42-7.56,9.65-2,2.63-3.94,5.3-5.61,8.22-7.91,.18-15.78,.13-23.76,.15,.15-.77,.59-1.25,.9-1.77,4.05-6.47,8.11-12.95,12.17-19.42,4.45-7.1,8.88-14.18,13.31-21.28,.06-.07,.15-.13,.2-.2v-.02h.01Z"/>
      <path class="cls-5" d="M4.51,116.81c.74,3.57-.18,7.08,.44,10.54,2,.4,3.9,.18,5.79,.11,.42-.53,.37-1.12,.37-1.69,0-1.75-.04-3.51-.04-5.26,0-.83-.02-1.65,.06-2.48,.13-1.16,.68-1.43,2.57-1.43,1.6,.02,2.04,.22,2.02,1.43-.02,3.64,.33,7.3-.2,10.94-.39,2.67-1.4,3.49-4.12,3.46-2.54-.04-5.06-.06-7.59,0-2.28,.04-3.09-.72-3.55-3-.18-.86-.26-1.73-.26-2.61v-7.45c0-.29,0-.59,.02-.88,.11-1.6,.37-1.86,1.93-1.89,.63-.02,1.27,.02,1.89,.06,.2,.02,.39,.09,.66,.17v-.02h0Z"/>
      <path class="cls-3" d="M23.34,128.06h-4.54v-23.63c1.47-.17,2.96-.06,4.54-.07v23.7Z"/>
      <path class="cls-5" d="M125.95,104.05c1.45-.09,2.8-.09,4.19-.02v23.57h-4.19v-23.56h0Z"/>
      <path class="cls-4" d="M87.9,150.05c-.86-.24-1.56-.09-2.23-.29-.99-.33-1.49-.9-1.34-1.91,.2-1.45,.96-2.65,2.04-3.6,.64-.57,1.2-.46,1.91,.24,.79,.77,1.03,1.84,1.43,2.85h6.82c.04-.68-.63-1.07-.55-1.84,.35-.37,.77-.81,1.25-1.34,.61,1.12,1.18,2.17,1.73,3.22h2.19c-.02-.66-.59-1.1-.64-1.77,.39-.44,.79-.92,1.21-1.42,.81,.92,1.1,2.08,1.73,3.07,.5,.26,1.03,.06,1.54,.13,.28-.68-.39-.97-.5-1.56,.44-.55,.92-1.14,1.4-1.71,1.67,1.45,1.25,3.6-.07,5.74-2.5,.24-2.89,.18-3.73-.44-1.18,.77-3.59,.75-4.62-.06-.46,.59-1.12,.61-1.82,.61-1.99-.02-3.99,0-5.98,0-.48,1.08-.9,2.13-1.73,2.92-1.03,.97-1.71,1.01-2.76,.06-.46-.42-.88-.88-1.23-1.58,1.56,.26,2.87,.07,3.94-1.31h0Zm-1.78-2.93c.59,.37,1.12,.31,1.71,.13-.15-.59-.28-1.14-.96-1.12-.5,0-.74,.35-.75,.99Z"/>
      <path class="cls-4" d="M45.92,149.85c-2.8,.18-2.87,.17-3.64-.46-1.54,.79-3.07,.7-4.62,.07-.46,.11-.81,.48-1.4,.46-2.63-.04-5.26-.02-7.7-.02-.57-.22-.37-.7-.64-.9-.46-.13-.42,.51-.83,.51-1.38-.11-2.76-.22-4.21-.57,.26-.75,.5-1.49,.72-2.21,.15-.5,.44-.9,.9-1.08,1.2-.5,2.28-1.12,3.11-2.17,.26-.31,.59-.64,1.12-.77,.53,1.49,.53,3.13,1.18,4.62h6.64c.11-.64-.4-1.07-.51-1.67,.29-.57,.77-1.03,1.32-1.54,.55,1.08,1.08,2.11,1.62,3.18,.72,.15,1.45,.07,2.21,.04,.02-.64-.55-1.05-.57-1.73,.22-.51,.72-.9,1.25-1.47,.61,1.1,1.18,2.13,1.73,3.14,.59,.11,1.12,.13,1.64,0-.04-.51-.4-.88-.63-1.31,.24-.77,.92-1.23,1.34-1.88,1.69,1.53,1.36,3.25-.02,5.76h-.01Zm-18.43-2.85c.02-.44-.07-.81-.39-1.1-.44,.24-.9,.5-1.47,.81,.63,.24,1.14,.44,1.86,.29Z"/>
      <path class="cls-4" d="M67.97,146.89c-.02,.59-.07,1.16-.06,1.75,.06,1.69,.92,2.46,2.63,2.32,1.08-.09,2.08-.46,2.89-1.25-.17-1.18-.81-2.15-1.43-3.14,.5-.53,.96-1.01,1.43-1.54,.77,.63,.86,1.53,1.31,2.32h2.26c.07-.68-.48-1.08-.59-1.73,.39-.44,.79-.92,1.27-1.45,.75,.99,1.1,2.15,1.75,3.16,.53,.11,1.05,.13,1.58,0,.2-.63-.51-.9-.55-1.51,.42-.53,.88-1.08,1.34-1.65,1.49,1.32,1.49,2.92,.04,5.63-2.1,.35-2.98,.24-3.88-.46-.85,1.08-2.08,.39-3.13,.68-.06,.07-.13,.13-.17,.22-.35,.77-.31,1.73-1.2,2.23-1.25,.72-2.54,1.23-4.01,1.05-1.71-.2-2.96-1.97-2.59-3.73,.2-.94,.55-1.86,.85-2.78,.07-.04,.17-.07,.26-.09v-.03h0Z"/>
      <path class="cls-4" d="M51.25,139.85v7.39c1.54,.29,3,.09,4.41,.15,.86-1.01,1.62-2.02,2.5-2.92,1.21-1.25,2.06-1.16,3.07,.28,1.07,1.51,1.43,3.05,.24,4.69-.28,.39-.44,.86-.92,1.23-1.34-.53-2.74-1.07-4.21-1.64-.55,.85-1.4,1.01-2.37,.94-1.01-.07-2.04-.02-3.07-.02-.53,0-1.08,.06-1.62-.35-.29-.4-.15-.96-.15-1.49-.02-1.71,.06-3.42-.04-5.11-.04-.92,.2-1.6,.96-2.11,.37-.29,.59-.79,1.2-1.03h0Zm8,5.91c-.63,.15-.99,.53-1.29,1.14,.88,.28,1.56,.83,2.5,.86-.15-.9-.22-1.75-1.21-2Z"/>
      <path class="cls-3" d="M6.01,116.81c-.04-1.03,.75-1.91,1.73-1.97,1.12-.04,1.86,.55,1.89,1.54,.04,1.08-.9,2.21-1.88,2.26-.85,.04-1.71-.88-1.75-1.84h.01Z"/>
      <path class="cls-4" d="M27.8,140.58c-.39,.04-.53,.48-.99,.42-.5-.33-.96-.79-1.47-1.34,.39-.35,.74-.68,1.12-1.03,.31,.2,.63,.39,.94,.57,.42,0,.57-.5,1.03-.55,.48,.39,.97,.83,1.51,1.27-.26,.55-.72,.81-1.1,1.1-.48,.06-.66-.42-1.03-.44h-.01Z"/>
      <path class="cls-1" d="M37.48,44.04c-.06,.07-.09,.15-.15,.2-.11-.22,.04-.18,.17-.18l-.02-.02h0Z"/>
      <path class="cls-3" d="M28.69,57.8c.04-.07,.09-.13,.13-.2,.02,.06,.04,.11,.04,.17h-.2l.04,.04h-.01Z"/>
      <path class="cls-2" d="M101.82,58.52c-.09,.06-.2,.13-.29,.18-.07-.37,.11-.28,.29-.18Z"/>
    </g>
  </g>
</svg>