<?xml version="1.0" encoding="UTF-8"?>
<svg id="Layer_2" data-name="Layer 2" xmlns="http://www.w3.org/2000/svg" viewBox="0 0 182.46 84.01">
  <defs>
    <style>
      .cls-1 {
        fill: #432e17;
      }
    </style>
  </defs>
  <g id="Calque_1" data-name="Calque 1">
    <g>
      <path class="cls-1" d="M106.46,40.06c-.9,1.03-1.56,1.83-2.26,2.59-.41,.45-.83,.89-1.31,1.26-2.41,1.87-3.28,1.82-5.46-.3-1.15-1.12-2.33-2.22-3.41-3.41-4.07-4.44-3.98-10.09,.29-14.29,1.86-1.83,3.9-3.47,5.85-5.2,.56-.5,1.1-.55,1.78-.19,.84,.45,1.71,.87,2.61,1.17,1.54,.52,2.14,.05,2.13-1.54,0-.17,0-.35-.02-.52-.12-2.08-.21-2.15-2.29-2.16-11.91-.07-23.83-.14-35.74-.22-.3,0-.61,0-.91-.03-.65-.07-1.02-.43-1.04-1.11-.02-.67,.3-1.1,.96-1.18,.78-.09,1.56-.12,2.34-.12,11.04,.03,22.09,.06,33.13,.09,.57,0,1.13,.02,1.7-.02,1.45-.08,1.9-.54,1.8-1.95-.24-3.25-.74-6.47-1.47-9.65-.17-.72-.61-1.24-1.1-1.73-.32-.31-.64-.62-.42-1.12,.23-.53,.69-.44,1.12-.38,2.13,.28,4.16,.84,5.97,2.07,.95,.65,1.42,1.43,1.39,2.6-.07,2.61-.04,5.22-.1,7.82-.05,2.11,.14,2.35,2.22,2.35h60.27c.48,0,.96-.02,1.43,.05,.68,.1,1.13,.49,1.09,1.22-.03,.65-.41,1.05-1.07,1.1-.52,.04-1.04,.02-1.56,.03-20.22,.07-40.44-.16-60.66,.16-1.52,.02-1.84,.31-1.84,1.84,0,7.61-.21,15.22,.21,22.82,.08,1.53,.8,2.48,2.35,2.85,.74,.18,1.2,.48,1.18,1.28-.02,.85-.67,.85-1.28,.99-2.08,.48-4.05,.03-6-.62-.86-.29-1-1-1.11-1.75-.23-1.49-.45-2.99-.73-4.82l-.04,.02h0Zm.09-8.54v-1.6c0-3.94-.37-4.41-4.21-5.44-.08-.02-.17-.05-.25-.07-2.64-.63-5.33,1.1-5.68,3.78-.63,4.89,1.68,8.82,4.32,12.6,.6,.86,1.62,.79,2.47,.21,1.8-1.23,2.99-2.86,3.24-5.1,.18-1.56,.16-3.12,.11-4.4v.02h0Z"/>
      <path class="cls-1" d="M34.42,14.49c-1.05,4.54-2.18,8.9-3.04,13.3-.68,3.43-1.52,6.87-.99,10.45,.29,1.96,.6,2.47,2.5,2.93,.51,.12,1.07,.21,1.25,.79,.22,.75,.08,1.37-.88,1.26-2.73-.3-5.47-.1-8.21-.15-.71-.01-1.21-.23-1.32-.95-.11-.74,.44-.96,1.01-1.12,1.54-.42,2.31-1.42,2.41-3.01,.49-7.85,2.81-15.36,4.19-23.05,.19-1.07,.39-2.14,.54-3.21,.19-1.4-.27-2.02-1.64-2.32-.47-.1-.94-.17-1.41-.25-.43-.07-.95-.07-.92-.67,.02-.54,.25-1.1,.88-1.11,2.17-.02,4.36-.29,6.49,.2,1.45,.34,2.33,1.36,2.9,2.74,2.18,5.22,3.58,10.7,5.53,15.99,.75,2.04,1.68,4,2.61,5.96,.39,.83,.67,.86,1.15,.05,1.35-2.3,2.17-4.82,3.11-7.3,1.61-4.27,2.97-8.62,4.12-13.03,.33-1.28,1.03-1.78,2.31-1.76,1.69,.03,3.39-.05,5.09-.06,.54,0,1.28,.06,.81,.81-1.52,2.46-.96,5.04-.6,7.61,1.06,7.44,2.16,14.87,3.22,22.31,.31,2.14,.02,4.26-.58,6.32-.46,1.57-1.65,2.43-3.25,2.61-1.42,.16-2.86,.18-4.29,.28-.41,.03-.76,.01-.94-.47-.17-.43-.02-.76,.22-1.08,.03-.03,.06-.07,.09-.09,3.14-2.41,3.12-5.65,2.43-9.1-1.34-6.65-2.39-13.34-2.93-20.1-.02-.24,.03-.54-.34-.7-.42,.44-.52,1.04-.72,1.59-2.66,7.36-5.79,14.51-9.11,21.59-.25,.53-.51,1.05-1.18,1.04-.72-.01-.84-.67-1.08-1.16-3.95-8.13-6.56-16.71-8.65-25.47-.13-.53-.18-1.1-.74-1.69l-.04,.02h0Z"/>
      <path class="cls-1" d="M119.37,57.66c.83,1.31,1.97,1.84,3.04,2.48,3.9,2.34,3.9,6.84,.03,9.26-1.08,.68-2.23,1.15-3.41,1.6-.44,.17-.97,.34-.8,.98,.13,.51,.59,.55,1.05,.56,1.56,.03,3.13,.13,4.69,.12,1.56,0,2.68,.65,3.36,2.02,.66,1.32,.47,2.56-.37,3.8-2,2.93-5.08,3.94-8.27,4.74-4.56,1.15-9.13,.96-13.69,0-1.88-.4-3.28-1.51-4.35-3.09-.77-1.13-.66-2.17,.1-3.25,.84-1.2,1.96-1.81,3.43-1.75,.46,.02,.61,.28,.37,.71-.11,.19-.23,.37-.31,.57-.25,.61-.54,1.57-.02,1.77,.76,.3,1.3-.56,1.53-1.25,.51-1.48,.39-3-.03-4.5-.52-1.89-1.39-3.65-2.09-5.47-.26-.69-.74-.9-1.44-.79-2.06,.3-4.13,.61-6.19,.87-.69,.09-.93,.55-1.13,1.1-.51,1.34-1.03,2.67-1.55,4.01-.44,1.13-1.29,1.81-2.36,2.29-.58,.26-1.02,.16-1.37-.31-.39-.52,.09-.77,.39-1.06,.86-.83,1.44-1.81,1.9-2.92,2.29-5.63,4.63-11.24,6.95-16.85,.37-.9,.95-1.66,1.56-2.39,.71-.84,1.4-.75,1.72,.28,2.22,7.04,5.17,13.82,7.5,20.82,.43,1.28,.61,2.62,.53,3.98-.1,1.56-.89,2.58-2.36,3.1-.8,.29-1.58,.64-2.55,1.03,1.1,.85,2.22,1.17,3.35,1.3,4.6,.5,9.11-.02,13.52-1.39,.74-.23,1.45-.6,2.1-1.01,.57-.35,.95-.89,.81-1.65-.15-.79-.68-1.23-1.43-1.31-1.73-.19-3.46-.33-5.19-.47-1-.08-2-.13-2.92-.58-.78-.38-1.43-.91-1.45-1.84-.03-.93,.67-1.33,1.4-1.69,1.37-.67,1.37-.68,.22-1.65-3.51-2.99-3.26-6.5,.67-9.22,1.13-.78,2.49-1.29,3.07-2.93v-.02h0Zm2.7,8.72c0-1.98-.4-3.03-1.43-4.1-1.31-1.36-2.73-1.14-3.53,.54-.79,1.65-.32,3.88,1.13,5.1,.77,.64,1.56,1.28,2.69,.78,1.15-.5,1.19-1.48,1.15-2.32h-.01Zm-22.32-10.17c-1.18,2.81-2.22,5.27-3.24,7.75-.25,.6-.38,1.31,.66,1.16,1.54-.23,3.06-.54,4.59-.84,.59-.11,.77-.45,.55-1.04-.83-2.22-1.63-4.45-2.56-7.03h0Z"/>
      <path class="cls-1" d="M153.27,71.97c-1.09,.93-1.73,1.95-2.69,2.63-1.29,.91-2.12,.85-3.21-.24-.77-.77-1.55-1.52-2.34-2.27-2.74-2.61-2.88-6.52-.36-9.34,1.25-1.4,2.73-2.55,4.13-3.78,.55-.49,1.14-.56,1.79-.17,.22,.13,.46,.26,.71,.33,.55,.15,1.11,.75,1.68,.18,.58-.59,.46-1.41,.3-2.1-.18-.79-.95-.63-1.53-.63-12.52-.04-25.04-.08-37.55-.11-.65,0-1.3-.05-1.95-.07-.45-.01-.8-.21-.82-.66-.02-.49,.28-.83,.79-.87,.65-.05,1.3-.05,1.95-.05,12.17,.02,24.34,.05,36.51,.08,.43,0,.87,0,1.3-.02,.94-.06,1.49-.54,1.35-1.51-.37-2.56-.22-5.24-1.76-7.53-.57-.85,.07-.94,.68-.99,2.45-.2,4.64,1.82,4.68,4.37,.02,.99-.14,1.99-.2,2.99-.15,2.22,.52,3,2.74,2.85,6.95-.46,13.91-.11,20.86-.24h.78c.64,0,1.33,.03,1.35,.85,.03,.92-.75,.79-1.33,.8-7.3,.05-14.6,.09-21.9,.11-2.13,0-2.33,.16-2.33,2.27,0,4.39,.03,8.78,.04,13.17,0,1.41,.15,2.74,1.84,3.17,.33,.09,.51,.32,.5,.67,0,.43-.3,.6-.66,.7-1.5,.4-2.94,.11-4.32-.48-.53-.23-.61-.8-.68-1.33-.1-.85-.22-1.7-.36-2.76v-.02h.01Zm.03-5.94v-1.18c0-2.48-1.21-3.67-3.71-3.65-1.85,.01-3.44,1.63-3.29,3.46,.2,2.31,.85,4.5,2.17,6.44,1.33,1.95,2.45,1.97,3.86,.05,.39-.53,.65-1.11,.77-1.76,.23-1.16,.23-2.32,.18-3.35h.02Z"/>
      <path class="cls-1" d="M143.07,18.41c.95,2.13,2.56,2.98,4.45,3.61,2.02,.67,3.09,2.31,3.41,4.4,.66,4.28,.64,8.56,0,12.85-.62,4.12-3.22,6.47-6.82,8.03-.36,.15-.64,.22-.93-.1-.3-.34-.42-.78-.1-1.06,3.65-3.21,2.48-7.63,2.86-11.62,.2-2.1,.19-4.26-.14-6.37-.34-2.18-1.91-3.3-4.35-3.12-2.13,.15-3.52,1.6-3.53,3.73v9.26c0,2.27-.65,3.06-2.87,3.64-1.31,.34-2.65,.46-3.99,.59-.5,.05-1.1,.17-1.21-.61-.08-.59,.12-.97,.74-1.18,1.36-.45,1.8-1.59,1.86-2.86,.17-3.47,.16-6.95,0-10.43-.08-1.49-.89-2.57-2.05-3.47-1.07-.83-1-1.25,.22-1.82,1.84-.86,3.78-.9,5.75-.65,1.12,.14,1.14,1.15,1.44,2.08,1.87-1.5,4.35-2.16,5.3-4.91h-.04Z"/>
      <path class="cls-1" d="M164.02,18.36c.73,1.69,1.78,2.48,3.19,2.95,2.69,.89,3.88,2.6,3.91,5.47,.06,4.73-.05,9.47,.17,14.2,.06,1.31,.37,2.57,.6,3.86,.19,1.08,.83,1.46,1.89,1.09,.42-.15,.91-.52,1.21,.15,.31,.68,.19,1.37-.46,1.71-1.75,.92-3.66,1.35-5.61,1.5-.83,.06-1.04-.68-1.25-1.29-.71-2.1-1.23-4.25-1.59-6.43-.28-1.69-.29-1.67-1.84-.96-1.1,.51-2.21,1.01-3.36,1.4-2.05,.7-3.96-.1-5.09-2.03-1.09-1.87-.8-3.98,.81-5.44,2.28-2.07,4.91-3.54,7.8-4.59,1.62-.59,1.9-1.46,1.42-3.98-.24-1.28-1.39-2.3-2.61-2.34-1.34-.04-2.16,.66-2.25,2.14-.06,.94-.46,1.38-1.3,1.69-1.02,.38-2.05,.71-3.13,.84-.92,.11-1.33-.4-.98-1.25,.89-2.14,2.19-3.94,4.31-5.02,1.62-.82,3.39-1.45,4.15-3.67h0Zm1.85,16.79v-.39c-.02-.58,.27-1.25-.48-1.61-.67-.32-1.13,.11-1.66,.42-1.56,.94-1.83,2.41-1.83,4.04,0,1.48,.64,1.89,2.04,1.31,1.74-.72,1.89-2.21,1.92-3.78h.01Z"/>
      <path class="cls-1" d="M78.71,18.3c.64,1.98,1.93,2.7,3.36,3.33,4.14,1.85,6.15,5.85,5.23,10.23-.27,1.3-.93,2.01-2.34,2.18-2.83,.33-5.53-.04-8.2-.96-1.5-.52-1.72-.37-1.59,1.16,.09,1.08,.2,2.16,.4,3.23,.41,2.16,2.1,3.23,4.24,2.7,.71-.18,1.41-.44,2.1-.7,.59-.22,1.12-.25,1.42,.42s.06,1.1-.56,1.5c-5.22,3.47-12.26,.43-13.23-5.76-.71-4.58,.21-8.72,3.55-12.13,.68-.69,1.49-1.2,2.32-1.66,1.36-.75,2.56-1.64,3.28-3.54h.02Zm2.71,10.66c.02-1.57-.48-3.07-1.32-3.97-1.06-1.14-2.34-1.13-3.35,.05-.6,.7-.94,1.55-1.21,2.42-.86,2.84-.29,3.74,2.68,4.2,2.45,.37,3.17-.23,3.2-2.69h0Z"/>
      <path class="cls-1" d="M79.93,71.99c-.94,.95-1.78,1.82-2.65,2.66-.55,.52-1.26,.8-1.88,.26-2.27-1.95-4.69-3.81-5.16-7.08-.25-1.77,.2-3.37,1.3-4.76,1.08-1.37,2.38-2.52,3.69-3.68,.97-.86,1.99-.95,3.11-.33,.47,.26,1.03,.81,1.5,.21,.49-.64,.42-1.49,.25-2.26-.15-.68-.74-.63-1.26-.63-2.74,.01-5.48,.03-8.21,.05h-1.04c-.55-.02-1.08-.09-1.08-.82s.49-.82,1.07-.82h8.48c2.13,0,2.17-.05,2.04-2.22-.14-2.35-.33-4.68-1.57-6.78-.39-.66-.11-.9,.61-.95,2.37-.2,4.37,1.61,4.49,4.21,.06,1.34-.05,2.69-.06,4.04-.02,1.56,.36,1.88,1.91,1.77,.79-.05,1.96-.28,1.98,.81,.02,1.11-1.17,.75-1.88,.74-1.78-.02-2.03,.18-2.02,2,.02,4.61,.07,9.21,.09,13.82,0,1.26,.25,2.34,1.63,2.79,.37,.12,.53,.42,.52,.81,0,.51-.4,.61-.78,.73-2.24,.71-3.93-.26-4.54-2.56-.16-.62-.03-1.31-.51-2.01h-.03Zm.18-4.79v-2.99c0-1.94-.89-2.79-3.21-3.08-1.49-.19-2.94,.83-3.19,2.43-.51,3.27,.87,6.02,2.66,8.59,.43,.61,1.1,.56,1.73,.1,1.74-1.26,2.18-3.04,2.01-5.05h0Z"/>
      <path class="cls-1" d="M124.94,29.18c-.14,2.97-.03,5.84-.29,8.7-.39,4.29-3.4,7.02-7.67,6.81-.43-.02-.91,0-1-.59-.08-.54-.09-1.07,.57-1.28,1.71-.53,2.16-1.9,2.26-3.45,.26-4.3,.27-8.6,.07-12.9-.05-1.13-.51-2.01-1.66-2.4-.56-.19-1.09-.41-.95-1.17,.11-.63,.58-.84,1.12-.91,2.11-.29,4.22-.54,6.33-.85,.92-.14,1.26,.16,1.24,1.1-.04,2.35,0,4.7,0,6.94h-.02Z"/>
      <path class="cls-1" d="M139.68,66.88c-.27,2.58-.09,4.78,.27,6.97,.14,.85,.38,1.55,1.48,1.32,.59-.13,.77,.23,.85,.71,.08,.48-.04,.88-.55,1.03-1.25,.37-2.52,.64-3.83,.64-.68,0-.88-.45-.99-.99-.27-1.32-.55-2.63-.78-3.95-.16-.93-.62-1.18-1.46-.8-.55,.25-1.09,.53-1.65,.77-1.56,.67-2.77,.36-3.64-.92-.88-1.3-.71-2.95,.49-4.01,1.34-1.2,2.91-2.02,4.58-2.67,1.71-.67,2.13-2.2,1.05-3.73-.73-1.04-2.16-.88-2.83,.38-.57,1.05-1.29,1.85-2.53,2.02-.38,.05-.79,.12-1.08-.26-.32-.4-.05-.75,.12-1.08,.57-1.16,1.43-2.05,2.55-2.7,1.03-.61,2.08-1.81,3.05-1.75,1,.07,2.03,1.16,3.15,1.63,1.02,.43,1.43,1.37,1.5,2.42,.12,1.77,.19,3.55,.26,4.97h0Zm-3.79,1.24c0-.42,.38-1.04-.32-1.29-.65-.24-1.01,.28-1.41,.68-.52,.52-.71,1.18-.87,1.85-.1,.46-.25,.97,.31,1.26,.5,.26,1,.19,1.46-.14,.81-.57,.96-1.39,.83-2.36Z"/>
      <path class="cls-1" d="M174.4,62.24c1.08-.84,1.98-1.52,2.86-2.23,.89-.72,1.76-.57,2.65-.03,.63,.38,.92,.94,.73,1.66-.29,1.06-.9,1.87-2,2.22-.39,.12-.65-.18-.92-.38-.75-.56-1.54-.83-2.42-.32-.85,.5-1.03,1.32-1.02,2.24,0,1.83-.02,3.65-.1,5.48-.1,2.2-2.03,4.08-4.03,4-.73-.03-1.41-.4-.78-1.07,1.7-1.79,1.31-3.98,1.28-6.04-.03-2.37-.15-4.79-1.56-6.89-.26-.39-.16-.8,.37-.87,1.42-.2,2.84-.39,4.26-.5,.68-.06,.68,.52,.68,1.01v1.73h0Z"/>
      <path class="cls-1" d="M7.74,18.55c2.01,.03,3.86-.24,4.65-2.49,.13-.37,.37-.61,.79-.47,.36,.12,.37,.45,.33,.77-.2,1.7-.92,3.15-2.21,4.3-.47,.42-1.01,.43-1.58,.16-2.64-1.24-5.41-1.49-8.27-1.18-.44,.05-1.08,.26-1.2-.4-.1-.56,.54-.58,.9-.74,.63-.28,.93-.74,.93-1.42,0-3.52-.02-7.04-.01-10.56,0-.92-.45-1.44-1.3-1.71-.34-.11-.89-.18-.74-.72,.16-.57,.7-.41,1.11-.32,1.82,.4,3.64,.81,5.46,1.22,.35,.08,.74,.16,.76,.58,.03,.47-.41,.52-.74,.54-1.25,.08-1.55,.81-1.53,1.94,.06,2.61,.03,5.21,.04,7.82,.02,2.59,.07,2.64,2.59,2.67h.02Z"/>
      <path class="cls-1" d="M19.93,13.56c-.13-.58-.11-1.35-.96-1.6-.82-.25-1.17,.26-1.48,.9-.15,.3-.39,.58-.65,.79-.57,.48-1.34,.77-1.89,.26-.55-.51,.11-1.1,.39-1.6,.8-1.39,2.59-1.57,3.5-2.84,.05-.06,.24-.06,.34-.03,1.87,.51,3.41,2.51,3.45,4.48,.06,2.47,.13,4.95,.18,7.42,.02,.78,.02,1.45,1.15,1.47,.76,0,.56,.61,.24,1.01-.49,.63-1.16,.91-1.96,.77-.78-.14-1.37-.6-1.63-1.34-.26-.73-.44-1.5-.59-2.26-.15-.75-.48-.96-1.17-.58-.34,.19-.71,.33-1.07,.47-1.34,.5-2.09,.27-2.77-.85-.68-1.11-.57-2.15,.41-3.04,.94-.85,2.06-1.43,3.25-1.87,.68-.25,1.27-.61,1.25-1.55h0Zm-.11,4.04c-.12-.3,.3-1.02-.37-.97-.94,.07-1.37,.84-1.44,1.73-.03,.4-.04,.99,.59,.95,.99-.07,1.26-.77,1.22-1.71Z"/>
      <path class="cls-1" d="M165.83,65.71c0,1.74,.05,3.47,0,5.21-.08,2.24-2.04,4.07-4.16,3.97-.39-.02-.81,.02-.94-.48-.11-.42,.16-.65,.48-.82,1.02-.54,1.26-1.43,1.25-2.51-.03-2.43-.02-4.86,.02-7.29,.02-1.06-.17-1.96-1.13-2.6-.76-.51-.47-.95,.24-1.16,1.21-.36,2.46-.52,3.72-.56,.78-.03,.79,.48,.79,1.03v5.2h-.27Z"/>
      <path class="cls-1" d="M122.17,12.76c-.58-.1-.95-.4-1.26-.77-.95-1.13-1.89-2.26-2.83-3.39-.45-.54-.37-1.05,.15-1.47,1.09-.86,2.08-1.83,3.02-2.86,.64-.7,1.23-.7,1.82,.08,.78,1.04,1.58,2.06,2.38,3.09,.42,.54,.58,1.11,.03,1.63-1.03,.95-1.87,2.04-2.65,3.2-.15,.23-.47,.35-.66,.49h0Z"/>
      <path class="cls-1" d="M167.83,8.19c-.02,.1-.02,.2-.07,.27-1.03,1.49-2.17,2.9-3.44,4.18-.38,.38-.93-.06-1.23-.41-1.06-1.25-2.1-2.53-3.12-3.82-.32-.4-.2-.82,.16-1.16,1.13-1.08,2.25-2.16,3.4-3.22,.4-.37,.89-.45,1.26,.01,.98,1.21,1.92,2.45,2.87,3.69,.1,.13,.13,.32,.18,.47h0Z"/>
      <path class="cls-1" d="M79.16,12.73c-.71-.19-1.2-.69-1.64-1.23-.79-.98-1.39-2.1-2.38-2.92-.5-.41-.34-.89,.06-1.23,1.25-1.07,2.59-2.03,3.61-3.36,.34-.44,.78-.29,1.1,.11,.92,1.15,1.84,2.31,2.74,3.48,.41,.53,.37,1.1-.13,1.51-1.07,.86-1.91,1.89-2.54,3.1-.16,.31-.4,.57-.81,.54h-.01Z"/>
      <path class="cls-1" d="M92.02,50.44c-.08,2.37-.6,4.39-1.13,6.4-.1,.37-.28,.74-.51,1.03-.26,.33-.63,.66-1.11,.5-.44-.15-.49-.58-.51-.97-.07-2.13-.16-4.25-.18-6.38,0-1.09,1.36-2.44,2.44-2.5,.56-.03,.95,.17,1,.76,.04,.47,0,.95,0,1.16h0Z"/>
      <path class="cls-1" d="M134.62,48.46c.95,.54,1.39,1.4,1.95,2.16,.35,.48,.22,.88-.16,1.27-.15,.16-.28,.34-.41,.5-1.47,1.8-1.54,1.8-3.01,.02-.85-1.03-.81-1.82,.15-2.71,.47-.44,.99-.83,1.49-1.24h0Z"/>
      <path class="cls-1" d="M166.02,50.7c.03,.65-1.33,2.23-1.94,2.25-.41,.02-2.36-1.81-2.41-2.26-.04-.34,1.83-2.06,2.32-2.13,.6-.08,2,1.39,2.03,2.13h0Z"/>
      <path class="cls-1" d="M19.54,8.12c-1.65,0-3.3,.01-4.94-.01-.3,0-.8,.16-.8-.37,0-.38,.41-.38,.72-.38h10.02c.35,0,.82,.02,.79,.45-.03,.49-.54,.3-.85,.3-1.65,.02-3.3,.01-4.94,0h0Z"/>
      <path class="cls-1" d="M19.17,4.49c-.92,0-1.83-.84-1.79-1.61,.03-.59,1.27-1.9,1.78-1.86,.57,.05,1.72,1.37,1.65,2-.1,1-.86,1.31-1.64,1.47h0Z"/>
    </g>
  </g>
</svg>