<?xml version="1.0" encoding="UTF-8"?>
<svg id="Layer_2" data-name="Layer 2" xmlns="http://www.w3.org/2000/svg" xmlns:xlink="http://www.w3.org/1999/xlink" viewBox="0 0 203.54 64.42">
  <defs>
    <style>
      .cls-1 {
        fill: url(#linear-gradient-2);
      }

      .cls-2 {
        fill: #fff;
      }

      .cls-3 {
        fill: url(#linear-gradient-6);
      }

      .cls-4 {
        fill: url(#linear-gradient-5);
      }

      .cls-5 {
        fill: url(#linear-gradient-3);
      }

      .cls-6 {
        fill: url(#linear-gradient);
      }

      .cls-7 {
        fill: url(#linear-gradient-4);
      }
    </style>
    <linearGradient id="linear-gradient" x1="76.31" y1="-4.93" x2="148.62" y2="92.92" gradientTransform="translate(0 60.51) scale(1 -1)" gradientUnits="userSpaceOnUse">
      <stop offset="0" stop-color="#1273b8"/>
      <stop offset="1" stop-color="#1d3867"/>
    </linearGradient>
    <linearGradient id="linear-gradient-2" x1="-83.43" y1="124.55" x2="-76.89" y2="124.55" gradientTransform="translate(149.67 152.17) rotate(6.46) scale(1 -1)" xlink:href="#linear-gradient"/>
    <linearGradient id="linear-gradient-3" x1="-79.06" y1="124.23" x2="-78.5" y2="124.23" gradientTransform="translate(149.67 152.17) rotate(6.46) scale(1 -1)" xlink:href="#linear-gradient"/>
    <linearGradient id="linear-gradient-4" x1="-81.75" y1="124.36" x2="-81.2" y2="124.36" gradientTransform="translate(149.67 152.17) rotate(6.46) scale(1 -1)" xlink:href="#linear-gradient"/>
    <linearGradient id="linear-gradient-5" x1="-80.44" y1="122.09" x2="-79.89" y2="122.09" gradientTransform="translate(149.67 152.17) rotate(6.46) scale(1 -1)" xlink:href="#linear-gradient"/>
    <linearGradient id="linear-gradient-6" x1="-3458.74" y1="-1635.49" x2="-3458.63" y2="-1635.49" gradientTransform="translate(30323.14 27058.4) rotate(16.5) scale(10.6)" xlink:href="#linear-gradient"/>
  </defs>
  <g id="Calque_1" data-name="Calque 1">
    <g>
      <path class="cls-6" d="M199.72,28.36c-3.51-5.82-8.34-9.57-8.52-9.72-.92-.71-2.12-1.02-3.29-.8-.8,.15-1.54,.52-2.12,1.11,.31-1.05,.22-2.18-.31-3.17-.55-1.08-1.57-1.85-2.74-2.09l-6.25-1.42c-2-.46-4,.62-4.77,2.49l-4.92,12.19-1.2-7.23c-.28-1.75-1.66-3.14-3.45-3.42l-4.8-.77c-.09,0-.18-.03-.28-.03-.65-.06-2.89-.06-4.22,2.37-.12,.25-.28,.55-.43,.95-.25,.55-.52,1.32-.86,2.31-.03,.12-.09,.22-.12,.34v-6.86c0-1.17-.49-2.31-1.38-3.08-.86-.8-2.03-1.17-3.2-1.05l-9.08,.92c-1.48,.15-2.77,1.08-3.38,2.46l-4.98,11.35,1.42-14.09c.15-1.51-.55-2.98-1.78-3.85L119.43,.72c-1.2-.83-2.77-.95-4.09-.34-1.32,.62-2.22,1.88-2.4,3.32l-2.77,25.85-3.94-15.14c-.37-1.45-1.51-2.58-2.92-2.95l-9.02-2.43c-1.14-.31-2.34-.12-3.32,.52-.98,.65-1.66,1.66-1.85,2.83l-2.49,15.45s-.06-.03-.09-.03l-6.98-1.45,1.11-12.12c.12-1.2-.31-2.4-1.14-3.26-.83-.86-2-1.32-3.23-1.26l-6.4,.34c-2.03,.12-3.69,1.69-3.91,3.69l-1.35,13.08-3.14-6.65c-.77-1.6-2.46-2.55-4.25-2.37l-4.83,.55c-.09,0-.18,.03-.28,.03-.52,.09-2.03,.49-2.89,2.06l-.62-3.91c-.18-1.17-.86-2.18-1.85-2.83-.98-.65-2.22-.83-3.32-.52l-9.02,2.43c-1.45,.4-2.55,1.51-2.92,2.95l-1.2,4.62c-2.06-3.75-5.32-6.98-9.69-9.6-4.86-2.89-9.88-4.25-12.19-4.74-.52-.28-1.08-.43-1.69-.46-2.34-.15-4.28,1.6-4.4,3.91L.01,54.54c-.06,.71,.09,1.48,.4,2.15,1.11,2.25,3.26,2.43,5.14,2.43h.55c1.2,0,3.08-.09,5.35-.49,4.52-.77,8.43-2.34,11.63-4.58,.09,.25,.22,.46,.34,.68,.62,.98,1.6,1.63,2.74,1.85l6.77,1.26c2.06,.37,4.06-.8,4.71-2.8l.28-.86c.18,.03,.34,.09,.52,.12l1.78,6.98c.28,1.14,1.02,2.09,2.06,2.65,.62,.34,1.29,.49,1.97,.49,.46,0,.92-.06,1.35-.22l6.8-2.34c1.91-.65,3.08-2.58,2.74-4.58l-.06-.4c3.38,.15,4.06,.06,5.2-.83,.65-.49,1.14-1.17,1.38-1.94l1.72,3.6c.65,1.35,2,2.25,3.51,2.34l5.48,.31h.25c1.94,0,3.6-1.35,4.03-3.2,.12,.03,.28,.06,.4,.06l6.98,.86c.18,.03,.34,.03,.52,.03,.43,0,.86-.06,1.29-.22l6.28,2.15c.43,.15,.89,.22,1.35,.22,.68,0,1.35-.15,1.97-.49,1.02-.55,1.75-1.51,2.06-2.65l1.78-6.98c.18-.03,.34-.09,.52-.12l.28,.86c.65,1.97,2.68,3.17,4.71,2.8l2.89-.52-.52,4.98c-.15,1.29,.34,2.58,1.29,3.48,.77,.71,1.78,1.11,2.83,1.11,.25,0,.49-.03,.74-.06l22.83-4.09c.95-.18,1.75-.65,2.37-1.32,.28,.52,.68,1.02,1.17,1.38,.74,.55,1.6,.83,2.49,.83,.34,0,.71-.03,1.05-.12l6.43-1.69c1.75-.46,2.98-2,3.11-3.78,1.57,.43,2.18,.37,3.17,0,.77-.31,1.42-.83,1.88-1.48l.68,3.94c.25,1.48,1.29,2.71,2.74,3.2l5.17,1.82c.46,.15,.92,.25,1.35,.25,1.29,0,2.52-.62,3.32-1.66,.77,.31,1.66,.62,2.71,.95,3.14,.95,6.18,1.45,9.05,1.45,7.66,0,14.12-3.38,18.37-9.85,4.89-7.51,4.83-15.85-.18-24.12v-.02h0Z"/>
      <g>
        <path class="cls-1" d="M87.28,19.1c-.06-.12-.15-.22-.28-.22l-.62-.09-.15-.25c-.06-.09-.15-.15-.28-.18h-.03c.03-.06,.03-.12,.03-.15v-.09c0-.37-.31-.71-.68-.77h.06c.43,0,.77-.31,.8-.71v-.09c0-.31-.22-.62-.52-.74-.09-.09-.22-.18-.34-.28l-.03-.92c0-.18-.12-.34-.31-.37-.18-.03-.34,.06-.4,.25l-.31,.8c-.77,.09-1.42,.74-1.6,1.6,0,.06-.03,.12-.03,.18-.03,.31,0,.62,.09,.89l-.03,.03c-.06-.06-.12-.12-.22-.12-.09-.03-.22,0-.28,.06l-.25,.18-.65-.09c-.12-.03-.25,.03-.34,.12-.09,.09-.12,.22-.09,.34l.31,1.23c.03,.12,.12,.22,.25,.28l.22,.06v.03l-.09,.18c-.03,.09-.03,.18,0,.28l.12,.37c.03,.09,.12,.18,.25,.22l.15,.06-.03,.03c-.06,.09-.09,.25-.03,.34l.22,.49c.06,.12,.15,.18,.25,.22l.22,.49v.03c-.18,.15-.28,.37-.31,.62v.09c0,.52,.34,.95,.86,1.05h.22c.43,0,.89-.31,.95-.86v-.09c0-.22-.06-.43-.15-.58l.37-.43h.09c.12,0,.25-.06,.34-.15l.25-.34c.06-.09,.09-.18,.06-.28l-.03-.22h.22c.09,0,.18-.06,.28-.12l.28-.34c.09-.09,.12-.22,.09-.34l-.03-.15h.09c.12,0,.25-.06,.31-.15l.71-1.05c.09-.09,.09-.22,.03-.34h-.01Zm-1.69,.85l-.28,.31c-.09,.09-.12,.22-.09,.34l.03,.18h-.22c-.09,0-.18,.06-.28,.12l-.28,.34c-.06,.09-.09,.22-.09,.31l.03,.18h0c-.12,0-.25,.03-.31,.12l-.58,.68h0l-.37-.83c-.06-.12-.15-.18-.25-.22l-.03-.03,.03-.03c.06-.09,.06-.22,.03-.34l-.18-.43c-.03-.09-.12-.18-.22-.22l-.15-.06,.09-.22c.03-.09,.03-.22,0-.31l-.18-.4c-.03-.09-.12-.15-.22-.18l-.15-.06-.06-.28,.12,.03c.09,0,.18,0,.28-.06,.06,.09,.15,.15,.28,.15h.09c.09,0,.15,0,.22-.06,.06,.06,.12,.09,.22,.12l.12,.03h.15c.12-.03,.34-.09,.49-.15l.12-.03c.06-.03,.09-.06,.15-.09,.03,.06,.09,.12,.15,.15l.12,.06c.22,.12,.4,.22,.49,.28h.03c.12,.06,.25,.06,.34,0l.03,.03c.06,.09,.15,.12,.28,.15,.09,0,.18-.03,.25-.06,.06,.06,.15,.12,.25,.12h.09l-.15,.22h-.09c-.12,0-.22,.03-.31,.12v.02h.01Zm-2.34,3.54s.03-.06,.06-.09h.03s.06-.03,.09-.06c.03,.03,.06,.06,.09,.09l.03,.03s.06,.03,.06,.12v.03s0,.09-.12,.09h-.03c-.18-.03-.22-.12-.22-.22h.01Zm1.91-6.21h0Z"/>
        <path class="cls-2" d="M85.13,18.21h0c.06,0,.09-.06,.09-.09v-.03c0-.06-.03-.09-.09-.09h0c-.06,0-.09,.06-.09,.09v.03s.03,.06,.09,.09Z"/>
        <path class="cls-2" d="M85.31,16.61h0c.06,0,.12-.03,.12-.09h0c0-.06-.06-.09-.09-.09h0c-.06,0-.09,.03-.12,.09h0c0,.06,.06,.09,.09,.09Zm.03-.1h0v0Z"/>
        <g>
          <path class="cls-2" d="M83.56,17.04s0,.06-.03,.12c-.03,.37,.09,.71,.31,.89v-.06h.06l.43-1.82c-.31,.06-.68,.4-.77,.86h0Z"/>
          <path class="cls-2" d="M86.08,19.22h0l-.22-.34-.31,.28-.25-.31-.25,.18h-.03c-.09-.06-.28-.15-.49-.25l-.12-.06,.12-.03c.18-.03,.34-.12,.49-.25h.09c.18,0,.34-.12,.34-.31v-.03c0-.15-.12-.31-.31-.31h-.06c-.18,0-.34,.12-.34,.31v.09l-.03,.03s-.06,.03-.09,.06h-.09l.25-2.09,.06,.03c.06,.03,.09,.06,.15,.09l.03,.03-.03,.03s-.03,.06-.03,.12v.03c0,.15,.12,.31,.31,.31h.06c.18,0,.34-.12,.34-.31v-.03c0-.15-.12-.28-.28-.31h-.03c-.12-.15-.31-.28-.49-.37h-.03l-.03-.68-.25,.62h-.12c-.62,0-1.17,.52-1.32,1.23,0,.06-.03,.09-.03,.15-.06,.62,.18,1.17,.65,1.45l.09,.06-.12,.03c-.15,.06-.4,.12-.49,.15h0l-.09-.03h-.03l-.18-.34-.28,.28h-.09l-.22-.34-.31,.25-.68-.09,.25,1.02,.34,.12,.22,.31-.12,.37,.09,.28,.34,.12,.18,.43-.12,.22,.18,.4,.18,.03,.37,.83v.37h-.03c-.12,.06-.28,.18-.28,.37v.03c0,.28,.15,.49,.46,.55h.12c.22,0,.46-.15,.49-.43v-.06c0-.25-.09-.34-.18-.43l-.03-.03,.09-.37,.58-.68,.28,.03,.18-.25-.06-.4,.28-.34,.4-.03,.22-.25-.09-.37,.28-.31h.31l.58-.89h-.77v.03h0Zm-2.06-1.11h-.06v.03l-.03,.06-.06-.03c-.31-.22-.49-.62-.43-1.05,0-.03,0-.09,.03-.12,.12-.52,.52-.92,.98-.92h.06l-.49,2.03h0Z"/>
        </g>
        <path class="cls-5" d="M85.1,19.78c-.03,.15,.03,.31,.18,.34s.31-.03,.34-.18-.03-.31-.18-.34h-.06c-.12-.03-.25,.03-.28,.18"/>
        <path class="cls-7" d="M82.42,19.35c-.03,.15,.03,.31,.18,.34s.31-.03,.34-.18-.03-.31-.18-.34h-.06c-.09-.03-.22,.06-.28,.18"/>
        <path class="cls-4" d="M83.47,21.75c-.03,.15,.03,.31,.18,.34s.31-.03,.34-.18c.03-.15-.03-.31-.18-.34h-.06c-.09-.03-.22,.03-.28,.18"/>
        <path class="cls-3" d="M84.36,20.48h.06c-.06,.25-.31,.37-.52,.37-.03,0-.06,0-.09-.03-.25-.06-.37-.31-.37-.52,0-.03,0-.06,.03-.09,.06-.25,.31-.37,.52-.37,.03,0,.06,0,.09,.03,.25,.06,.37,.31,.37,.52,0,.03,0,.06-.03,.09h-.12v-.06c.03-.18-.09-.37-.28-.43h-.06c-.18-.03-.37,.09-.43,.28v.06c-.03,.18,.09,.37,.28,.43h.06c.18,.03,.37-.09,.43-.28h.06Z"/>
      </g>
      <g>
        <path class="cls-2" d="M189.66,46.21c-3.35,4.71-8,5.38-9.75,4.86l9.82-15.08s4.03,4.46-.06,10.22m-1.03-24.28l-19.94,32.86c-.31,.09,18.12,9.94,27.72-4.65,9.69-14.74-7.78-28.22-7.78-28.22"/>
        <path class="cls-2" d="M153.07,50.02s-.15,.06-4.58-1.48c-1.42-.49,7.57-29.05,8.18-28.99l4.8,.77,3.6,21.85,10.49-25.91,6.25,1.42-15.39,39.69-5.17-1.82-3.23-18.52-4.95,12.99h0Z"/>
        <path class="cls-2" d="M57.74,52.79s-.12,.09-4.8-.15c-1.51-.09-.68-30-.06-30.09l4.83-.55,9.42,20.03,2.98-27.79,6.4-.34-3.91,42.37-5.48-.31-8.18-16.92-1.2,13.75Z"/>
        <path class="cls-2" d="M135.04,38.15l4.62-10.12,.71,11.57-5.32-1.45h0Zm3.17-22.62l-13.51,30.68,5.85,1.08,2.4-4.34c1.69,.4,5.69,2.15,7.66,2.65l.28,9.72,6.43-1.69V14.55l-9.11,.98h0Z"/>
        <polygon class="cls-2" points="111.28 58.64 117.07 4.18 126.67 10.7 122.64 51.1 133.62 48.15 134.08 54.55 111.28 58.64"/>
        <polygon class="cls-2" points="77.16 30.12 85.71 31.9 84.57 53.99 77.59 53.13 77.16 30.12"/>
        <path class="cls-2" d="M20.63,36.15c-.86,6.28-5.17,10.99-8.06,10.77l1.72-21.29s7.57,2.55,6.34,10.52M6.45,12.51l-2.31,42.34c-.28,.25,22.19,1.75,24.52-18.15C31,16.58,6.44,12.7,6.44,12.7"/>
        <path class="cls-2" d="M98.02,40.39l1.14-9.88,3.05,9.32-4.18,.55h-.01Zm-4.8-27.31l-6.55,40.77,6.8,2.34,2.4-9.38c1.97-.49,4.98-1.23,6.68-1.63l1.48,4.49,6.77-1.26-8.55-32.89-9.02-2.43h-.01Z"/>
        <path class="cls-2" d="M35.5,43.96l3.05-9.32,1.14,9.88-4.18-.55h-.01Zm0-24.35l-8.58,32.89,6.77,1.26,1.48-4.49c1.69,.4,4.71,1.14,6.68,1.63l2.4,9.38,6.8-2.34-6.52-40.77-9.02,2.43h-.01Z"/>
      </g>
    </g>
  </g>
</svg>