<?xml version="1.0" encoding="UTF-8"?>
<svg id="Layer_2" data-name="Layer 2" xmlns="http://www.w3.org/2000/svg" viewBox="0 0 244.26 86">
  <defs>
    <style>
      .cls-1 {
        fill: #ff6d2d;
      }

      .cls-2, .cls-3 {
        fill: #5b6883;
      }

      .cls-3 {
        fill-rule: evenodd;
      }
    </style>
  </defs>
  <g id="Calque_1" data-name="Calque 1">
    <g>
      <g>
        <path class="cls-2" d="M38.08,36.54c.68-.65,1.5-.97,2.47-.97h3.18v27.91c0,1.46-.54,2.71-1.62,3.74-1.08,1.03-2.4,1.55-3.95,1.55h-1.08v-3.26c-2.93,2.22-6.27,3.32-10,3.32-4.6,0-8.52-1.62-11.78-4.87s-4.88-7.16-4.88-11.75,1.63-8.53,4.88-11.78c3.26-3.25,7.18-4.87,11.78-4.87,3.74,0,7.07,1.11,10,3.32,0-.92,.34-1.71,1.01-2.36v.02h0Zm-11.02,25.65c2.75,0,5.08-.95,7-2.85,1.91-1.9,2.92-4.26,3.01-7.08v-.1c-.09-2.82-1.09-5.18-3.01-7.08-1.92-1.91-4.25-2.86-7-2.86s-5.13,.97-7.08,2.92-2.92,4.31-2.92,7.08,.97,5.1,2.92,7.05,4.31,2.92,7.08,2.92Z"/>
        <path class="cls-2" d="M81.31,35.57c2.32,0,4.22,.42,5.71,1.26,1.49,.84,2.66,1.87,3.53,3.1,.87,1.23,1.5,2.45,1.89,3.68s.69,2.68,.9,4.36v20.88h-1.11c-1.53,0-2.84-.52-3.92-1.55-1.08-1.03-1.62-2.28-1.62-3.74v-13.42c0-5.7-1.79-8.43-5.37-8.2-1.85,0-3.63,1.01-5.36,3.02-1.72,2.01-2.59,4.45-2.59,7.31v16.59h-1.11c-1.53,0-2.85-.52-3.94-1.55-1.09-1.03-1.64-2.28-1.64-3.74v-13.42c0-5.7-1.78-8.43-5.34-8.2-1.85,0-3.64,1.01-5.37,3.02-1.74,2.01-2.6,4.45-2.6,7.31v11.29c0,1.46-.54,2.71-1.62,3.74-1.08,1.03-2.39,1.55-3.92,1.55h-1.12v-27.98c0-1.46,.54-2.71,1.62-3.74,1.08-1.03,2.39-1.55,3.92-1.55h1.12v5.58c.5-1.51,1.51-2.81,3.06-3.92,1.54-1.11,3.18-1.66,4.92-1.66,3.02,0,5.36,.68,7.01,2.05,1.66,1.37,2.83,2.89,3.53,4.57,1.01-1.68,2.31-3.2,3.89-4.57,1.58-1.36,3.42-2.05,5.54-2.05v-.02h-.01Z"/>
        <path class="cls-2" d="M123.24,36.54c.68-.65,1.5-.97,2.47-.97h3.18v27.91c0,1.46-.54,2.71-1.62,3.74-1.08,1.03-2.4,1.55-3.95,1.55h-1.08v-3.26c-2.93,2.22-6.27,3.32-10,3.32-4.6,0-8.52-1.62-11.78-4.87s-4.88-7.16-4.88-11.75,1.63-8.53,4.88-11.78c3.26-3.25,7.18-4.87,11.78-4.87,3.74,0,7.08,1.11,10,3.32,0-.92,.34-1.71,1.01-2.36v.02h0Zm-11.02,25.65c2.75,0,5.08-.95,7-2.85,1.92-1.9,2.92-4.26,3.01-7.08v-.1c-.09-2.82-1.09-5.18-3.01-7.08-1.91-1.91-4.25-2.86-7-2.86s-5.13,.97-7.08,2.92-2.92,4.31-2.92,7.08,.98,5.1,2.92,7.05c1.95,1.95,4.31,2.92,7.08,2.92Z"/>
        <path class="cls-2" d="M138.51,22.59V57.18c0,1.46,.36,2.71,1.08,3.74,.72,1.03,1.85,1.55,3.38,1.55,1.06,0,1.97,.36,2.74,1.08,.77,.72,1.15,1.6,1.15,2.63v2.65h-3.89c-3.09,0-5.71-1.03-7.88-3.1-2.16-2.06-3.24-4.57-3.24-7.52V27.88c0-1.46,.54-2.71,1.62-3.74,1.08-1.03,2.39-1.55,3.92-1.55h1.12Z"/>
        <path class="cls-1" d="M145.65,35.6c2.5,0,4.29,1.3,5.38,3.9l5.24,18.11,5.51-18.17c.27-.56,.65-.84,1.15-.84s.89,.28,1.18,.84l5.51,18.17,5.24-18.11c1.08-2.6,2.87-3.9,5.38-3.9h2.7l-9.67,33.24h-3.11c-2.5,0-4.28-1.29-5.34-3.87l-1.89-6.42-2.97,10.29h-3.11c-2.5,0-4.29-1.29-5.38-3.87l-8.52-29.37h2.7Z"/>
        <path class="cls-1" d="M209.23,36.54c.68-.65,1.5-.97,2.47-.97h3.18v27.91c0,1.46-.54,2.71-1.62,3.74-1.08,1.03-2.4,1.55-3.96,1.55h-1.08v-3.26c-2.93,2.22-6.26,3.32-10,3.32-4.6,0-8.52-1.62-11.78-4.87s-4.88-7.16-4.88-11.75,1.63-8.53,4.88-11.78c3.26-3.25,7.18-4.87,11.78-4.87,3.74,0,7.08,1.11,10,3.32,0-.92,.34-1.71,1.01-2.36v.02h0Zm-11.02,25.65c2.75,0,5.08-.95,7-2.85,1.92-1.9,2.92-4.26,3.01-7.08v-.1c-.09-2.82-1.09-5.18-3.01-7.08-1.92-1.91-4.25-2.86-7-2.86s-5.13,.97-7.08,2.92-2.92,4.31-2.92,7.08,.98,5.1,2.92,7.05c1.95,1.95,4.31,2.92,7.08,2.92Z"/>
        <path class="cls-1" d="M235.78,38.99c1.15-2.28,2.88-3.42,5.2-3.42h3.28l-14.91,37.4c-1.15,2.28-2.89,3.42-5.21,3.42h-3.28l6.36-15.97-9.8-24.85h3.48c2.37,0,4.11,1.19,5.24,3.58l4.53,12.62,5.1-12.78h.01Z"/>
        <path class="cls-1" d="M27.06,59.19c1.92,0,3.56-.67,4.9-2s2.04-2.99,2.1-4.96v-.07c-.06-1.97-.77-3.63-2.1-4.96-1.34-1.33-2.97-2-4.9-2s-3.59,.68-4.96,2.04c-1.36,1.36-2.05,3.02-2.05,4.96s.68,3.57,2.05,4.94c1.37,1.36,3.02,2.04,4.96,2.04h0Z"/>
        <path class="cls-1" d="M112.22,59.19c1.92,0,3.56-.67,4.9-2s2.04-2.99,2.11-4.96v-.07c-.06-1.97-.77-3.63-2.11-4.96-1.34-1.33-2.97-2-4.9-2s-3.59,.68-4.96,2.04c-1.36,1.36-2.05,3.02-2.05,4.96s.68,3.57,2.05,4.94,3.02,2.04,4.96,2.04h0Z"/>
        <path class="cls-1" d="M198.21,59.19c1.92,0,3.56-.67,4.9-2s2.04-2.99,2.11-4.96v-.07c-.06-1.97-.77-3.63-2.11-4.96-1.34-1.33-2.97-2-4.9-2s-3.59,.68-4.96,2.04c-1.36,1.36-2.05,3.02-2.05,4.96s.68,3.57,2.05,4.94,3.02,2.04,4.96,2.04h0Z"/>
        <g>
          <path class="cls-3" d="M2.83,67.46c-.3-3.64-.55-3.19-2.74-4.22,0,0,.67,8.04,1.35,12.8,1.03,7.27,7.31,8.5,10.37,8.84,2.21,.24,4.84,.31,8.78,.48,14.04,.61,20.51,.28,23.21,.11l1.12-.09c2.29-.16,3.99-3.27,5.67-5.72-3.48,1.38-13.41,3.08-40.51,.68-4.58-.41-6.67-4.29-7.26-12.87h.01Z"/>
          <path class="cls-3" d="M46.89,4.87c-17.71,.63-29.93,2.91-37.87,5.19,.69-.93,1.44-1.78,2.24-2.52C17.17,2.05,46.63-.08,56.99,0c-.52,1.59-1,3.24-1.46,4.94l-.08,.29c-2.44-.31-5.06-.4-7.31-.39l-1.26,.03h.01Z"/>
          <path class="cls-3" d="M0,57.54c.31,.51,1.31,.99,2.82,1.41v-.09c-.44-11.65,.54-31.37,1.65-38.69,0-.43,0-.84,.03-1.24C1.21,28.23-.1,50.82,0,57.46v.08h0Z"/>
          <path class="cls-3" d="M81.26,13.47c-4.53-1.73-8.1-3.1-10.76-4.08-.7-.26-1.35-.51-1.94-.74l-.27-.1c-2.27-.86-5.44-2.03-9.79-2.84l.05-.19c.12-.48,.25-.94,.37-1.4,1.01-3.3,1.89-3.07,3.54-2.63,5.45,2.04,11.86,4.71,18.8,7.7l.06,.04c6.37,2.72,12.75,5.92,19.03,8.45,4.25,1.72,6.03,3.06,6.8,5.2-9.42-3.43-18.02-6.48-25.83-9.38l-.06-.02h0Z"/>
        </g>
      </g>
      <g>
        <path class="cls-2" d="M64.15,85.71l-1.09-2.09h-6.29l-1.09,2.09h-1.69l4.95-9.36h1.95l4.95,9.36h-1.69Zm-4.23-8.02l-2.39,4.52h4.77l-2.38-4.52Z"/>
        <path class="cls-2" d="M72.79,85.98c-1.63,0-3.1-.48-4.12-1.25-1.24-.94-1.87-2.18-1.87-3.71s.63-2.74,1.9-3.7c1.06-.81,2.53-1.27,4.23-1.27,2.09,0,3.71,.71,5.07,2.26l-1.45,.72c-.94-1.01-2.14-1.56-3.75-1.56-1.16,0-2.24,.34-2.99,.88-.93,.68-1.4,1.58-1.4,2.66,0,2.08,1.73,3.54,4.38,3.54,2.03,0,3.44-.87,4.03-2.42h-4.35v-1.41h6.29v.14c0,3.04-2.35,5.1-5.97,5.1v.02h0Z"/>
        <path class="cls-2" d="M89.57,85.71l-1.09-2.09h-6.29l-1.09,2.09h-1.69l4.95-9.36h1.95l4.95,9.36h-1.69Zm-4.23-8.02l-2.39,4.52h4.77l-2.38-4.52Z"/>
        <path class="cls-2" d="M103.94,81.14c0,1.32-.52,2.47-1.51,3.33-.9,.8-2.13,1.24-3.49,1.24h-6.22v-9.36h5.92c3.27,0,5.3,1.89,5.3,4.78h0Zm-1.68-.03c0-1.99-1.4-3.33-3.49-3.33h-4.5v6.54h4.79c1.86,0,3.19-1.33,3.19-3.2h.01Z"/>
        <path class="cls-2" d="M106.29,85.71v-9.36h1.55v9.36h-1.55Z"/>
        <path class="cls-2" d="M119.59,85.71l-2.53-3.57h-4.73v3.57h-1.55v-9.36h7.38c1.96,0,3.15,1.14,3.15,2.95,0,1.65-1.03,2.53-2.43,2.76l2.51,3.64h-1.8Zm.13-6.4c0-1.03-.63-1.54-1.94-1.54h-5.45v2.97h5.59c1.16,0,1.8-.52,1.8-1.43Z"/>
        <path class="cls-2" d="M132.01,77.77v7.95h-1.55v-7.95h-4.47v-1.41h10.49v1.41h-4.47Z"/>
        <path class="cls-2" d="M146.73,85.71l-2.53-3.57h-4.73v3.57h-1.55v-9.36h7.38c1.96,0,3.15,1.14,3.15,2.95,0,1.65-1.03,2.53-2.43,2.76l2.51,3.64h-1.8Zm.13-6.4c0-1.03-.63-1.54-1.94-1.54h-5.45v2.97h5.59c1.16,0,1.8-.52,1.8-1.43Z"/>
        <path class="cls-2" d="M159.33,85.71l-1.09-2.09h-6.29l-1.09,2.09h-1.69l4.95-9.36h1.95l4.95,9.36h-1.69Zm-4.23-8.02l-2.39,4.52h4.77l-2.38-4.52Z"/>
        <path class="cls-2" d="M173.79,85.71v-7.65h-.04l-4.86,6.1-4.82-6.1h-.04v7.65h-1.55v-9.36h1.92l4.5,5.66,4.51-5.66h1.93v9.36h-1.55Z"/>
        <path class="cls-2" d="M189.27,83.26c0,1.6-1.2,2.46-3.54,2.46h-7.46v-9.36h7.56c1.92,0,3.05,1.02,3.05,2.56,0,.88-.37,1.5-1.21,1.98,1.06,.36,1.6,1.16,1.6,2.36h0Zm-1.9-4.25c0-.75-.56-1.24-1.45-1.24h-6.1v2.51h6.03c.87,0,1.51-.57,1.51-1.27h0Zm.31,4.03c0-.93-.54-1.36-1.69-1.36h-6.16v2.62h5.92c1.32,0,1.94-.37,1.94-1.27h-.01Z"/>
        <path class="cls-2" d="M196.99,86c-3.28,0-5.31-1.41-5.31-3.31v-6.33h1.55v5.96c0,1.45,1.29,2.26,3.76,2.26s3.73-.81,3.73-2.26v-5.96h1.55v6.33c0,1.91-2.02,3.31-5.28,3.31h0Z"/>
        <path class="cls-2" d="M209.1,77.49c-1.94,0-2.96,.49-2.96,1.27,0,.43,.27,.71,.81,.9,1.02,.36,2.56,.25,4.46,.49,2.33,.3,3.44,1.1,3.44,2.66,0,1.96-1.78,3.11-5.1,3.11-2.38,0-4.21-.5-5.57-1.58l.85-1.12c1.5,.92,3.02,1.34,4.73,1.34,2.22,0,3.41-.65,3.41-1.65,0-1.33-1.59-1.33-4.34-1.51-2.88-.19-4.33-.65-4.33-2.44s1.68-2.84,4.72-2.84c2.02,0,3.71,.46,5.06,1.38l-.94,1.05c-1.4-.71-2.77-1.06-4.24-1.06h0Z"/>
      </g>
    </g>
  </g>
</svg>