<?xml version="1.0" encoding="UTF-8"?>
<svg id="Layer_2" data-name="Layer 2" xmlns="http://www.w3.org/2000/svg" viewBox="0 0 221.11 65.22">
  <defs>
    <style>
      .cls-1 {
        fill: #1f385e;
      }

      .cls-2 {
        fill: #ec740e;
      }
    </style>
  </defs>
  <g id="Calque_1" data-name="Calque 1">
    <g>
      <path class="cls-1" d="M138.3,22c-.76-1.05-1.73-1.85-2.71-2.72,.47-.63,.92-1.22,1.36-1.81,1.14-1.56,1.78-3.43,1.83-5.36,.22-6.07-4.32-10.86-10.43-10.96-4.05-.07-8.1-.06-12.15-.07-.63,0-1.27-.13-1.98,.11,0,1.45,0,2.93-.02,4.41,.55,.21,1.09,.12,1.62,.12,3.73,.03,7.46,.05,11.19,.06,1.29-.05,2.56,.27,3.66,.94,2.12,1.38,3.12,3.96,2.48,6.41-.7,2.61-2.69,4.2-5.49,4.27-2.56,.05-5.12,0-7.67-.03-.36,0-.75,.12-1.27-.42,0-2.07,.02-4.37,.03-6.92-1.72,1.27-3.17,2.34-4.59,3.4-.05,8.36-.09,16.65-.13,24.88,.42,.32,.8,.2,1.16,.2,4.74,.03,9.49,.05,14.22,.08,.75,0,1.49-.08,2.22-.23,7.54-1.29,11.12-10.16,6.67-16.38m-4.1,8.81c-.86,1.82-2.63,3.04-4.63,3.22-.58,.05-1.17,.07-1.75,.06-2.97,0-5.95-.03-9.09-.05,.02-4.08,.04-7.94,.06-11.98h2.57c2.55,.02,5.11-.03,7.66,.06,4.49,.16,7.24,4.72,5.21,8.69"/>
      <path class="cls-1" d="M195.35,10.88c-.05,9.27-.1,18.54-.14,27.94l-5.17-.03c.06-12.42,.13-24.82,.19-37.28l5.87,.03,23.46,37.52-3.18-.02-3.02-.02c-5.88-9.39-11.76-18.8-17.66-28.22l-.32,.07"/>
      <path class="cls-1" d="M155.53,1.33l5.49,.03c1.98,3.16,3.95,6.32,5.91,9.47,2.14,3.43,4.25,6.89,6.41,10.3,.5,.75,.74,1.64,.71,2.55-.06,2.54-.04,5.09-.35,7.74-4.17-6.71-8.35-13.42-12.53-20.13l-.28,.1c-.05,9.07-.09,18.14-.14,27.3-1.8,.11-3.6,.1-5.4-.03,.06-12.47,.13-24.86,.19-37.32"/>
      <path class="cls-1" d="M150.4,38.72c-1.88-.09-3.58,.09-5.35-.15,.06-12.41,.13-24.76,.19-37.23l5.35,.03c-.06,12.41-.13,24.8-.19,37.35"/>
      <path class="cls-1" d="M183.71,38.8l-5.33-.03c.06-12.46,.13-24.85,.19-37.3l5.33,.03c-.06,12.45-.13,24.84-.19,37.31"/>
      <path class="cls-1" d="M210.02,38.96l-12.22-.06c-.17-1.7-.03-3.37-.04-5.13l9.02,.05,3.23,5.14"/>
      <path class="cls-1" d="M15.33,.62l5.58,.03c1.71,4.77,3.43,9.57,5.28,14.73,2.01-5.01,3.64-9.85,5.52-14.65l5.4,.03c.62,1.2,13.07,35.83,13.42,37.36l-5.42-.03c-3.48-9.72-6.99-19.5-10.52-29.36-.56,.16-.54,.65-.68,.99-1.54,4.14-3.07,8.29-4.62,12.43-.25,.64-.25,1.35,.02,1.99,1.62,4.4,3.16,8.82,4.74,13.25,.11,.22,.12,.47,.03,.69l-5.3-.03L18.25,8.69l-.32-.02L7.11,37.93l-5.52-.03C6.2,25.42,10.77,13.06,15.35,.65"/>
      <path class="cls-1" d="M101.38,1.04l5.13,.03c.32,.46,.18,.97,.18,1.41-.03,7.36-.15,14.72-.08,22.08,.08,9.17-8.75,15.62-17.45,13.43-6.35-1.6-10.6-6.84-10.62-13.32-.03-7.57,.06-15.14,.11-22.72,0-.32-.07-.65,.24-.97l5.13,.03c.31,.5,.16,.99,.16,1.45-.03,7.31-.05,14.61-.12,21.92-.02,2.56,.58,4.85,2.41,6.72,2.33,2.37,5.14,3.23,8.33,2.33,3.19-.9,5.22-2.98,6.03-6.21,.2-.94,.29-1.9,.27-2.86,.03-7.41,.06-14.83,.11-22.24-.06-.36,0-.74,.19-1.05"/>
      <path class="cls-2" d="M55.65,38.8c-.96-2.08-1.73-4.24-2.28-6.46,1.83,.9,3.49,1.34,5.29,1.1,3.01-.41,5.17-2.11,6.82-4.54,2.74-4.02,3.25-8.46,2.41-13.14-.46-2.53-1.58-4.88-3.25-6.83-3.49-4.16-9.62-4.91-13.86,.09-1.24,1.46-2.18,3.15-2.78,4.98-.18,.55-.36,1.1-.61,1.89-.97-1.76-1.4-3.48-2.02-5.12-1.06-2.79-1.03-2.79,.91-5.09C49.05,2.41,52.48,.29,56.81,.03c5.31-.32,9.54,1.94,12.68,6.09,4.05,5.36,5.17,11.43,3.91,17.99-.72,3.76-2.25,7.12-4.85,9.9-3.45,3.69-7.67,5.63-12.92,4.8"/>
      <rect class="cls-2" y="48.41" width="2.87" height="16.39"/>
      <polygon class="cls-2" points="16.21 48.4 20.7 48.4 24.89 60.05 24.96 60.05 29.11 48.4 33.62 48.4 33.62 64.79 30.77 64.79 30.77 51.62 30.72 51.62 25.83 64.79 23.82 64.79 18.99 51.62 18.95 51.62 18.95 64.79 16.21 64.79 16.21 48.4"/>
      <polygon class="cls-2" points="46.97 48.4 51.46 48.4 55.65 60.05 55.71 60.05 59.86 48.4 64.37 48.4 64.37 64.79 61.52 64.79 61.52 51.62 61.48 51.62 56.58 64.79 54.58 64.79 49.75 51.62 49.7 51.62 49.7 64.79 46.97 64.79 46.97 48.4"/>
      <path class="cls-2" d="M76.95,56.55c-.02-1.22,.2-2.42,.65-3.55,.4-1.02,1.02-1.93,1.8-2.7,.78-.75,1.71-1.34,2.73-1.71,1.1-.41,2.27-.61,3.45-.6,1.19-.01,2.37,.19,3.49,.6,1.03,.38,1.96,.96,2.76,1.71,.79,.76,1.41,1.68,1.81,2.7,.45,1.13,.67,2.34,.65,3.55,.02,1.2-.2,2.39-.65,3.51-.41,1.03-1.03,1.96-1.81,2.73-.79,.77-1.73,1.38-2.76,1.78-1.11,.44-2.29,.66-3.49,.65-1.18,0-2.35-.21-3.45-.65-1.02-.4-1.95-1.01-2.73-1.78-.78-.78-1.39-1.71-1.8-2.73-.44-1.11-.66-2.31-.65-3.51m3.12,0c0,.82,.13,1.64,.4,2.42,.25,.71,.64,1.35,1.14,1.91,.49,.54,1.09,.97,1.75,1.26,.71,.31,1.47,.46,2.24,.45,.78,0,1.55-.14,2.26-.45,.67-.29,1.27-.72,1.77-1.26,.5-.56,.89-1.2,1.14-1.91,.27-.78,.41-1.6,.4-2.42,0-.8-.13-1.6-.4-2.36-.25-.7-.63-1.34-1.13-1.9-.49-.54-1.09-.98-1.75-1.27-.72-.31-1.49-.47-2.28-.46-.78-.01-1.55,.15-2.26,.46-.66,.3-1.26,.73-1.74,1.27-.49,.55-.88,1.2-1.13,1.9-.27,.76-.4,1.56-.4,2.36"/>
      <path class="cls-2" d="M106.86,48.41h6.3c.61,0,1.21,.07,1.8,.22,.57,.14,1.11,.38,1.58,.72,.47,.34,.85,.78,1.13,1.29,.3,.59,.45,1.24,.43,1.9,.03,.83-.24,1.65-.78,2.29-.54,.61-1.24,1.06-2.03,1.29v.05c.95,.11,1.83,.53,2.5,1.21,.67,.72,1.02,1.68,.97,2.66,.03,.79-.15,1.57-.52,2.26-.33,.59-.81,1.1-1.38,1.47-.6,.38-1.26,.65-1.96,.8-.74,.16-1.49,.24-2.24,.24h-5.82v-16.4h.02Zm2.87,6.66h2.55c.96,0,1.69-.19,2.19-.58s.78-1.01,.75-1.64c0-.74-.26-1.27-.77-1.57-.51-.31-1.32-.46-2.42-.46h-2.3v4.26h0Zm0,7.26h2.58c.4,0,.79-.03,1.19-.08,.41-.04,.8-.15,1.17-.32,.35-.17,.66-.42,.89-.74,.25-.38,.37-.84,.35-1.29,0-.86-.29-1.46-.87-1.81-.58-.34-1.45-.51-2.62-.51h-2.69v4.75Z"/>
      <rect class="cls-2" x="131.39" y="48.41" width="2.87" height="16.39"/>
      <polygon class="cls-2" points="147.61 48.4 150.48 48.4 150.48 62.2 157.34 62.2 157.34 64.79 147.61 64.79 147.61 48.4"/>
      <rect class="cls-2" x="169.05" y="48.41" width="2.87" height="16.39"/>
      <polygon class="cls-2" points="185.27 48.4 195.95 48.4 195.95 50.95 188.14 50.95 188.14 55.12 195.54 55.12 195.54 57.57 188.14 57.57 188.14 62.2 196.36 62.2 196.36 64.79 185.27 64.79 185.27 48.4"/>
      <path class="cls-2" d="M208.96,48.41h5.6c.74,0,1.48,.08,2.21,.24,.68,.15,1.32,.42,1.9,.8,.55,.37,1.01,.87,1.33,1.46,.35,.68,.52,1.44,.5,2.2,.05,1.06-.31,2.1-.99,2.91-.71,.78-1.66,1.31-2.7,1.52l4.3,7.27h-3.46l-3.74-6.95h-2.1v6.94h-2.87v-16.39h.02Zm5.22,7.05c.41,0,.82-.03,1.23-.09,.39-.05,.76-.17,1.11-.35,.73-.36,1.17-1.13,1.13-1.94,.02-.39-.09-.77-.3-1.1-.2-.28-.45-.52-.75-.68-.32-.18-.67-.29-1.03-.35-.37-.06-.75-.09-1.13-.09h-2.58v4.6h2.32Z"/>
    </g>
  </g>
</svg>