<?xml version="1.0" encoding="UTF-8"?>
<svg id="Layer_2" data-name="Layer 2" xmlns="http://www.w3.org/2000/svg" viewBox="0 0 143.67 131.01">
  <defs>
    <style>
      .cls-1 {
        fill: #801433;
      }
    </style>
  </defs>
  <g id="Calque_1" data-name="Calque 1">
    <g>
      <g>
        <path class="cls-1" d="M16.89,82.52l-5.91-7.39,4.92-3.94c1.2-.97,1.97-1.55,2.31-1.71,.33-.17,.79-.27,1.38-.32v-.46h-6.55v.46c.72,.02,1.17,.08,1.35,.17,.35,.18,.53,.43,.53,.74,0,.42-.43,.98-1.3,1.68l-6.23,5.04v-5.22c0-.85,.05-1.38,.15-1.59,.12-.27,.29-.47,.51-.58,.3-.16,.73-.25,1.3-.25v-.46H.99v.46h.56c.47,0,.84,.08,1.12,.24,.27,.16,.46,.35,.55,.56,.09,.22,.14,.75,.14,1.61v11.04c0,.84-.05,1.36-.14,1.56-.11,.28-.28,.48-.49,.59-.3,.17-.69,.26-1.18,.26H.99v.46H9.46v-.46c-.62,0-1.07-.08-1.35-.23-.28-.15-.47-.34-.57-.55-.1-.21-.15-.76-.15-1.63v-4.58l.62-.52,3.85,4.84c.76,.96,1.14,1.61,1.14,1.96,0,.18-.08,.33-.24,.46-.16,.12-.52,.21-1.07,.26v.46h8.74v-.46c-.49,0-.95-.13-1.39-.4-.6-.37-1.32-1.08-2.15-2.12v.02h0Z"/>
        <path class="cls-1" d="M36.45,82.13l-6.05-13.77h-.24l-6,13.4c-.57,1.28-1.05,2.12-1.44,2.53-.39,.41-.88,.66-1.48,.75v.46h5.58v-.46c-.88-.07-1.42-.17-1.65-.3-.38-.22-.57-.57-.57-1.04,0-.35,.11-.81,.35-1.35l.71-1.63h5.93l.89,2.09c.23,.55,.35,.86,.37,.93,.05,.16,.07,.31,.07,.46,0,.25-.09,.44-.27,.57-.26,.18-.72,.27-1.37,.27h-.33v.46h8.12v-.46c-.51-.04-.91-.19-1.19-.45-.37-.34-.85-1.16-1.42-2.46h-.01Zm-10.36-2.33l2.58-5.78,2.5,5.78h-5.08Z"/>
        <path class="cls-1" d="M52.41,69.17c.93-.02,1.6,.21,1.99,.69,.29,.35,.43,1.04,.43,2.04v7.22l-8.28-10.41h-5.96v.46c.51,.02,.9,.09,1.18,.23,.27,.14,.58,.43,.94,.88l.36,.45v11.85c0,.89-.18,1.52-.54,1.89s-1.01,.56-1.93,.57v.46h5.96v-.46h-.4c-.57,0-1.08-.17-1.52-.51-.44-.34-.66-.99-.66-1.96v-10.67l11.35,13.98h.42v-13.98c0-.79,.07-1.35,.2-1.68,.14-.33,.33-.56,.57-.71s.72-.26,1.43-.35v-.46h-5.55v.46h.01Z"/>
        <path class="cls-1" d="M60.36,73.25h.47c.19-1.24,.64-2.19,1.36-2.86,.51-.48,1.33-.72,2.46-.72h1.21v12.95c0,.84-.05,1.36-.14,1.56-.13,.28-.29,.48-.51,.59-.3,.17-.69,.26-1.18,.26h-.56v.46h8.79v-.46h-.56c-.48,0-.86-.08-1.13-.24-.28-.16-.46-.35-.56-.56-.09-.21-.14-.75-.14-1.61v-12.95h1.25c.78,0,1.33,.07,1.64,.22,.56,.27,1,.64,1.32,1.1,.32,.46,.62,1.21,.88,2.26h.45v-4.54h-15.08v4.54h.03Z"/>
        <path class="cls-1" d="M90.77,82.13l-6.05-13.77h-.24l-6,13.4c-.57,1.28-1.05,2.12-1.44,2.53-.39,.41-.88,.66-1.48,.75v.46h5.58v-.46c-.88-.07-1.42-.17-1.65-.3-.38-.22-.57-.57-.57-1.04,0-.35,.12-.81,.35-1.35l.71-1.63h5.93l.89,2.09c.23,.55,.35,.86,.37,.93,.05,.16,.07,.31,.07,.46,0,.25-.09,.44-.27,.57-.26,.18-.72,.27-1.37,.27h-.33v.46h8.12v-.46c-.51-.04-.91-.19-1.19-.45-.37-.34-.85-1.16-1.42-2.46h-.01Zm-10.36-2.33l2.58-5.78,2.5,5.78h-5.08Z"/>
        <path class="cls-1" d="M104.36,68.47c-2.48-.1-4.56,.68-6.26,2.35-1.7,1.66-2.54,3.74-2.54,6.23,0,2.22,.65,4.14,1.96,5.76,1.65,2.05,3.99,3.07,7.01,3.07s5.34-1.07,7-3.22c1.25-1.62,1.87-3.49,1.87-5.62,0-2.49-.84-4.57-2.51-6.23s-3.84-2.44-6.52-2.34h0Zm3.95,13.33c-.41,1.16-.97,2-1.7,2.53-.57,.41-1.28,.62-2.13,.62-1.26,0-2.24-.48-2.95-1.44-1.01-1.37-1.51-3.49-1.51-6.35,0-2.41,.33-4.26,.98-5.55,.8-1.57,1.97-2.35,3.5-2.35,.83,0,1.57,.23,2.21,.68s1.16,1.23,1.58,2.33c.41,1.1,.62,2.76,.62,4.98,0,1.86-.2,3.38-.61,4.54h.01Z"/>
        <path class="cls-1" d="M127.25,69.17c.68,0,1.2,.09,1.57,.29,.24,.12,.44,.35,.59,.67,.16,.32,.24,.86,.24,1.61v6.85c0,1.78-.16,3.03-.48,3.75s-.8,1.28-1.44,1.69c-.64,.41-1.41,.61-2.32,.61-.79,0-1.45-.16-1.97-.48s-.89-.73-1.12-1.21c-.23-.49-.34-1.48-.34-2.98v-8.22c0-.96,.05-1.55,.16-1.79,.1-.24,.27-.43,.52-.56,.24-.14,.69-.2,1.34-.2h.43v-.46h-8.66v.46c.71,0,1.2,.06,1.46,.2s.45,.33,.56,.56c.11,.24,.16,.83,.16,1.8v8.22c0,1.39,.22,2.5,.67,3.33,.45,.83,1.21,1.5,2.29,2.03,.79,.39,1.92,.58,3.37,.58,1.74,0,3.12-.37,4.12-1.1,1.01-.73,1.64-1.54,1.9-2.41,.26-.88,.39-2.3,.39-4.27v-6.38c0-.69,.05-1.16,.16-1.42,.14-.38,.37-.66,.68-.85s.71-.29,1.18-.29h.35v-.46h-5.81v.43h0Z"/>
        <path class="cls-1" d="M141.42,70.02c.12-.28,.29-.48,.51-.59,.3-.17,.69-.26,1.18-.26h.56v-.46h-8.78v.46h.56c.47,0,.84,.08,1.12,.24s.46,.35,.55,.56c.09,.22,.14,.75,.14,1.61v11.04c0,.84-.05,1.36-.14,1.56-.11,.28-.28,.48-.49,.59-.3,.17-.69,.26-1.18,.26h-.56v.46h8.78v-.46h-.56c-.47,0-.84-.08-1.12-.24-.27-.16-.46-.35-.56-.56-.09-.21-.14-.75-.14-1.61v-11.04c0-.84,.05-1.36,.14-1.56h-.01Z"/>
      </g>
      <g>
        <polygon class="cls-1" points="68.92 7.05 67.11 4 66.5 8.62 67.96 8.97 68.92 7.05"/>
        <polygon class="cls-1" points="78.06 8.6 77.45 3.98 75.64 7.02 76.59 8.95 78.06 8.6"/>
        <path class="cls-1" d="M62.17,8.95c.1,0,.19-.03,.28-.06l2.14,5.1h15.47l2.2-5.25c.07,.02,.14,.05,.22,.05,.5,0,.9-.41,.9-.92s-.4-.92-.9-.92-.9,.41-.9,.92c0,.2,.07,.37,.18,.52l-5.32,1.27-3.94-7.86c.41-.08,.73-.44,.73-.88,0-.51-.4-.92-.9-.92s-.9,.41-.9,.92c0,.44,.32,.8,.73,.88l-3.94,7.86-5.23-1.25c.05-.12,.09-.25,.09-.38,0-.51-.4-.92-.9-.92s-.9,.41-.9,.92,.4,.92,.9,.92h-.01Z"/>
        <path class="cls-1" d="M104.96,19.19c.23-.54,.69-1.01,1.38-1.42,.7-.4,1.63-.61,2.81-.61h1.4v-1.15h-20.99v1.15c1.43,0,2.52,.21,3.27,.62,.54,.29,.96,.78,1.28,1.46,.25,.52,.37,1.85,.37,3.98v13.13l-15.64-12.66c-2.18-1.76-3.27-3.17-3.27-4.23,0-.13,.03-.25,.05-.37,.76-.55,1.36-.96,1.72-1.14,.84-.42,2-.69,3.47-.79v-1.15h-16.97v1.15c1.47,.1,2.63,.37,3.47,.79,.36,.18,.96,.59,1.73,1.14,.02,.12,.05,.24,.05,.37,0,1.06-1.09,2.47-3.27,4.23l-15.64,12.66v-13.13c0-2.14,.12-3.46,.37-3.98,.31-.68,.74-1.17,1.28-1.46,.75-.41,1.84-.62,3.27-.62v-1.15h-20.99v1.15h1.4c1.18,0,2.12,.2,2.81,.61,.69,.4,1.16,.88,1.38,1.42,.23,.54,.34,1.89,.34,4.04v27.74c0,2.11-.11,3.42-.34,3.92-.29,.7-.71,1.2-1.24,1.49-.75,.44-1.73,.65-2.95,.65h-1.4v1.15h21.27v-1.15c-1.55,0-2.69-.19-3.39-.58-.71-.38-1.18-.84-1.43-1.38s-.37-1.91-.37-4.11v-11.51l1.55-1.31,9.67,12.16c1.91,2.41,2.86,4.04,2.86,4.91,0,.46-.2,.84-.61,1.15-.4,.31-1.3,.53-2.69,.65v1.15h22.71v-1.15c-1.39-.12-2.29-.34-2.69-.65-.4-.31-.61-.69-.61-1.15,0-.87,.95-2.51,2.86-4.91l9.67-12.16,1.55,1.31v11.51c0,2.2-.12,3.57-.37,4.11-.25,.54-.73,1-1.43,1.38-.7,.38-1.83,.58-3.39,.58v1.15h21.27v-1.15h-1.4c-1.22,0-2.21-.22-2.95-.65-.54-.29-.95-.79-1.24-1.49-.23-.5-.34-1.8-.34-3.92V23.23c0-2.16,.11-3.5,.34-4.04h0Zm-32.63,29.4l-13.13-16.43,12.35-9.89c.29-.23,.51-.41,.78-.62,.27,.21,.5,.39,.78,.62l12.35,9.89-13.13,16.43Z"/>
      </g>
      <g>
        <path class="cls-1" d="M5.43,130.84v-3.14H1.02v3.14H.49v-6.91h.53v3.29H5.43v-3.29h.53v6.91h-.53Z"/>
        <path class="cls-1" d="M13.29,124.37c0,.51-.78,.51-.78,0s.78-.51,.78,0Zm-.64,1.57v4.9h.48v-4.9h-.48Z"/>
        <path class="cls-1" d="M23.13,126.85c-.49-.43-.98-.51-1.52-.51-.76-.01-1.49,.28-1.47,.9,.02,.65,.87,.78,1.48,.89,.87,.15,2.06,.3,2.02,1.43-.03,1.08-1.15,1.36-2,1.36s-1.71-.33-2.13-.98l.36-.32c.4,.58,1.14,.83,1.79,.83,.59,0,1.49-.16,1.52-.93,.02-.7-.79-.84-1.59-.97-.95-.16-1.89-.34-1.9-1.31,0-.96,.95-1.37,1.94-1.36,.71,0,1.33,.2,1.82,.65l-.3,.32h-.02Z"/>
        <path class="cls-1" d="M31.08,124.49v1.47h1.66v.41h-1.66v2.97c0,.66,.14,1.13,.9,1.13,.24,0,.5-.08,.75-.2l.17,.4c-.31,.15-.61,.25-.92,.25-1.04,0-1.37-.61-1.37-1.57v-2.97h-1.04v-.41h1.04v-1.42l.47-.05h0Z"/>
        <path class="cls-1" d="M38.89,128.41c0-1.55,1.11-2.54,2.48-2.54s2.48,.99,2.48,2.54-1.11,2.5-2.48,2.5-2.48-.95-2.48-2.5Zm4.48,0c0-1.26-.9-2.08-2.01-2.08s-2.01,.82-2.01,2.08,.9,2.02,2.01,2.02,2.01-.76,2.01-2.02Z"/>
        <path class="cls-1" d="M50.86,124.37c0,.51-.78,.51-.78,0s.78-.51,.78,0Zm-.64,1.57v4.9h.48v-4.9h-.48Z"/>
        <path class="cls-1" d="M57.8,125.96l.02,.87c.31-.66,1-.92,1.62-.92,.37,0,.72,.09,1.05,.29l-.22,.4c-.26-.16-.54-.23-.83-.23-.91,0-1.61,.74-1.61,1.63v2.84h-.48v-4.88h.45Z"/>
        <path class="cls-1" d="M66.2,128.4c0-1.46,1.11-2.52,2.48-2.52s2.6,.84,2.41,2.75h-4.4c.1,1.15,.98,1.81,1.99,1.81,.64,0,1.39-.26,1.76-.74l.35,.28c-.47,.62-1.32,.94-2.1,.94-1.37,0-2.48-.96-2.48-2.51h-.01Zm4.46-.21c-.01-1.21-.8-1.88-1.98-1.88-1.01,0-1.88,.68-1.99,1.88h3.97Z"/>
        <path class="cls-1" d="M90.26,123.93v6.91h-.47v-1.08c-.41,.74-1.21,1.16-2.04,1.16-1.36,0-2.44-.9-2.44-2.52s1.09-2.52,2.45-2.52c.84,0,1.63,.36,2.03,1.15v-3.1h.47Zm-4.47,4.47c0,1.35,.9,2.04,2,2.04s2-.84,2-2.06-.87-2.04-2-2.04-2,.68-2,2.05h0Z"/>
        <path class="cls-1" d="M118.18,124.41h-2.5v-.47h5.53v.47h-2.5v6.43h-.53v-6.43Z"/>
        <path class="cls-1" d="M127.86,123.93v2.94c.39-.7,1.08-.97,1.76-.98,1.36,0,2.04,.88,2.04,2.15v2.8h-.47v-2.8c0-1.01-.47-1.69-1.57-1.69-1.03,0-1.74,.79-1.74,1.81v2.68h-.48v-6.91h.46Z"/>
        <path class="cls-1" d="M140.39,130.91c-1.37,0-2.48-.96-2.48-2.51,0-1.46,1.11-2.52,2.48-2.52s2.6,.84,2.41,2.75h-4.4c.1,1.15,.98,1.81,1.99,1.81,.64,0,1.39-.26,1.76-.74l.35,.28c-.47,.62-1.32,.94-2.1,.94h-.01Zm-1.99-2.72h3.96c-.01-1.21-.8-1.88-1.98-1.88-1.01,0-1.88,.68-1.99,1.88h.01Zm2.12-3.06l.91-1.21h-.64l-.74,1.19v.04h.47v-.02h0Z"/>
        <path class="cls-1" d="M101.08,130.92v-.93c-.4,.72-1.12,1.01-1.85,1.02-1.38,0-2.33-.85-2.33-2.28v-2.99h.51v2.98c0,1.17,.72,1.8,1.85,1.79,1.07,0,1.81-.82,1.81-1.89v-2.88h.51v5.19h-.5Z"/>
      </g>
      <g>
        <rect class="cls-1" x="12.73" y="113.29" width="3.97" height="3.14"/>
        <rect class="cls-1" x="7" y="113.29" width="3.99" height="3.14"/>
        <path class="cls-1" d="M12.09,96.38c-.41,.03-.76,.08-1.05,.15-.81,.14-1.4,.54-1.75,1.18s-.54,1.58-.57,2.81c.09,.3,.17,.59,.25,.85,.07,.27,.2,.55,.38,.84,.18,.29,.45,.59,.81,.91,.35,.32,.86,.68,1.5,1.08,.65,.4,1.47,.85,2.47,1.35s2.23,1.06,3.7,1.69H5.19c-.83-.2-1.24-.81-1.24-1.85v-9.06H0v10.42c0,1.23,.16,2.16,.49,2.79s.87,1.04,1.63,1.22c.68,.16,1.58,.24,2.69,.24H23.47c.01-.63,.02-1.3,.03-2.01v-2.09c-.37-.3-.83-.62-1.39-.95s-1.16-.67-1.8-1.01-1.3-.68-1.99-1.03c-.68-.35-1.33-.68-1.95-1.01s-1.17-.64-1.66-.93-.87-.57-1.13-.82c-.26-.24-.39-.44-.39-.61,0,0,0-.03,.02-.04,.01-.18,.22-.33,.61-.43h9.67v-3.72H13.52c-.55,0-1.03,.02-1.44,.05v-.02h0Z"/>
        <path class="cls-1" d="M28.6,96.38c-.41,.03-.76,.08-1.05,.15-.83,.14-1.42,.52-1.77,1.14s-.53,1.57-.53,2.85v6.23c0,.66,.04,1.22,.13,1.69s.22,.87,.41,1.2c.19,.33,.43,.59,.73,.78,.3,.19,.65,.33,1.07,.42h-.02c.27,.07,.62,.11,1.03,.13s.89,.03,1.44,.03h6.96v1.65c0,.55-.1,.98-.3,1.28-.2,.3-.53,.5-.99,.61h-2.58v3.7h3.03c.56,0,1.05,0,1.45-.03,.41-.02,.75-.06,1.02-.11h-.02c.42-.09,.78-.23,1.08-.42,.3-.19,.55-.45,.74-.77s.33-.71,.41-1.18c.08-.47,.13-1.03,.13-1.68v-17.71h-10.93c-.55,0-1.03,.02-1.44,.05h0Zm2.07,3.69c.27-.03,.61-.04,1-.04h5.33v7.19h-6.21c-1.05,0-1.57-.62-1.57-1.85v-3.46c0-.5,.08-.9,.24-1.2s.36-.49,.61-.57c.13-.03,.33-.05,.61-.08h-.01Z"/>
        <rect class="cls-1" x="63.6" y="91.12" width="3.97" height="3.14"/>
        <rect class="cls-1" x="57.88" y="91.12" width="3.99" height="3.14"/>
        <rect class="cls-1" x="78.88" y="91.12" width="3.97" height="3.14"/>
        <path class="cls-1" d="M131.11,105.39c0,1.04-.42,1.65-1.26,1.85h-10.75v-4.58c0-1.28-.18-2.23-.55-2.85s-.97-1-1.81-1.14c-.27-.05-.62-.1-1.04-.14-.42-.04-.9-.06-1.45-.06h-13.13l9.3-5.96-2.4-2.4c-2.1,1.34-4.15,2.67-6.17,3.99s-4.08,2.66-6.19,4.01v4.13h16.95c.38,0,.7,.02,.96,.07s.49,.13,.67,.25c.6,.41,.9,1.07,.9,1.99v2.71l-21.19-.02h-8.75v.04h-1.16c-.42-.14-.73-.37-.92-.67-.2-.3-.29-.71-.29-1.22v-9.06h-3.97v9.02c0,.96-.39,1.56-1.16,1.81-.08,.01-.25,.03-.5,.04-.17,0-.35,.02-.53,.04h-8.68v.04h-1.77c-.43-.14-.75-.37-.94-.67-.2-.3-.29-.71-.29-1.22v-9.06h-3.97v9.02c0,.5-.09,.89-.27,1.18s-.47,.5-.88,.63l-2.48,.08h-8.87c-.83-.2-1.24-.81-1.24-1.85v-13.84h-3.95v15.2c0,1.23,.16,2.16,.49,2.78,.33,.62,.88,1.03,1.65,1.23,.67,.16,1.57,.24,2.69,.24h11.82c.37,0,.61-.02,.72-.05,.24-.04,.47-.1,.69-.18s.44-.2,.64-.36c.2-.16,.4-.39,.58-.67,.18-.28,.35-.65,.51-1.09,.18,.47,.38,.85,.6,1.14,.22,.29,.45,.51,.69,.68,.24,.16,.49,.28,.76,.35,.26,.07,.54,.13,.83,.17h1.99v.02h8.41l.96,.04h.35c.55,0,1-.05,1.36-.16,.42-.12,.76-.3,1.01-.53,.26-.24,.45-.51,.57-.82s.24-.63,.34-.97c.13,.56,.37,1.01,.71,1.34s.73,.57,1.16,.74c.43,.16,.88,.27,1.36,.3,.35,.03,.67,.04,.98,.04v.02h45.02c1.14,0,2.04-.08,2.71-.24,.76-.2,1.3-.61,1.63-1.23s.49-1.55,.49-2.78v-15.2h-3.93v13.84h0Z"/>
        <rect class="cls-1" x="138.48" y="91.55" width="3.99" height="19.44"/>
      </g>
    </g>
  </g>
</svg>