<?xml version="1.0" encoding="UTF-8"?>
<svg id="Layer_2" data-name="Layer 2" xmlns="http://www.w3.org/2000/svg" viewBox="0 0 220.14 76.64">
  <defs>
    <style>
      .cls-1 {
        fill: #efd721;
      }
    </style>
  </defs>
  <g id="Calque_1" data-name="Calque 1">
    <g>
      <path d="M63.09,52.93c0,.46-.33,1.11-.91,1.7-6.66,6.66-13.35,13.35-20.01,20.01-.41,.41-.79,.84-1.24,1.22-1.16,1.01-2.71,1.06-3.8,0-3.09-3.01-6.13-6.08-9.17-9.17-1.14-1.16-1.04-2.81,.18-4,4.46-4.48,8.94-8.94,13.4-13.4l7.52-7.52c1.37-1.37,2.96-1.39,4.33-.05,2.91,2.89,5.82,5.77,8.71,8.69,.63,.58,1.01,1.29,.99,2.53h0Z"/>
      <path d="M35.82,25.22c0,.94-.33,1.6-.89,2.18-4.43,4.41-8.84,8.84-13.25,13.25-2.58,2.58-5.17,5.14-7.72,7.72-1.29,1.29-2.96,1.32-4.23,.05-2.96-2.96-5.93-5.95-8.89-8.91-1.14-1.14-1.11-2.86,.05-4.03,5.42-5.42,10.84-10.84,16.26-16.28,1.6-1.6,3.19-3.22,4.81-4.81,1.29-1.27,2.91-1.27,4.18,0,2.94,2.94,5.88,5.88,8.81,8.81,.56,.61,.89,1.29,.86,2.03h0Z"/>
      <path d="M62.99,25.35c0,.84-.33,1.52-.94,2.13-5.27,5.27-10.56,10.54-15.83,15.8-1.67,1.67-3.34,3.34-4.99,5.04-.76,.79-1.65,1.24-2.79,1.06-.61-.1-1.14-.38-1.57-.84-2.96-2.96-5.93-5.93-8.89-8.91-1.22-1.22-1.22-2.86,.03-4.1,5.85-5.85,11.7-11.7,17.55-17.55,1.16-1.16,2.3-2.33,3.47-3.47,1.27-1.27,2.91-1.32,4.18-.05,2.99,2.94,5.95,5.93,8.91,8.89,.56,.53,.86,1.19,.86,2h0Z"/>
      <path d="M192.25,41.84c0-2.36-.03-4.69,0-7.04,.03-2.58,1.37-4.38,3.47-5.72,3.34-2.1,7.34-1.67,10.13,1.14,.35,.35,.51,.35,.86,0,3.52-3.6,9.32-3.22,12.16,.79,.89,1.24,1.24,2.63,1.24,4.13,.03,4.76,0,9.52,.03,14.28,0,.35-.1,.48-.46,.48-1.01-.03-2.05-.03-3.06,0-.41,0-.51-.13-.51-.53,.03-4.66,0-9.35,0-14.01,0-2.03-1.42-3.52-3.67-3.7-1.72-.13-3.49,.99-3.9,2.86-.05,.25-.08,.51-.08,.79v13.95c0,.41-.08,.56-.53,.56-1.14-.03-2.25-.03-3.39,0-.41,0-.48-.1-.48-.48,.03-4.61,0-9.19,0-13.8,0-1.85-.99-3.19-2.68-3.7-1.7-.51-3.47,.15-4.41,1.62-.38,.61-.53,1.27-.53,1.98v13.7c0,.43-.05,.61-.56,.58-1.06-.05-2.15-.03-3.22,0-.38,0-.46-.1-.46-.46,.08-2.51,.05-4.96,.05-7.42h0Z"/>
      <path d="M98.37,43.46c.38-1.11,.71-2.13,1.04-3.14,2.48-7.42,4.99-14.87,7.47-22.29,.1-.3,.23-.43,.58-.43,1.11,.03,2.23,.03,3.34,0,.35,0,.51,.03,.35,.46-2.91,8.81-5.82,17.65-8.74,26.47-.33,.99-.53,2-1.06,2.94-.3,.51-.66,.99-1.09,1.37-1.14,.99-2.58,1.01-3.75,.05-.73-.61-1.24-1.39-1.54-2.3-2.46-7.37-4.91-14.74-7.4-22.08-.71-2.13-1.44-4.28-2.15-6.41-.05-.13-.08-.25-.13-.43h4.25c.3,0,.28,.25,.35,.43,1.06,3.22,2.15,6.46,3.22,9.67,1.7,5.07,3.37,10.13,5.07,15.2,.03,.1,.08,.25,.18,.51v-.02h.01Z"/>
      <path d="M110.15,38.47c0-5.55,3.87-10.21,9.35-11.12,5.12-.86,9.78,2.08,11.83,6.51,.13,.28,.03,.38-.2,.51-4.53,2.56-9.07,5.12-13.6,7.67-.28,.15-.38,.1-.51-.15-.41-.84-.84-1.67-1.29-2.51-.18-.3-.08-.43,.2-.58,3.06-1.8,6.13-3.6,9.19-5.39,.58-.35,.68-.23,.08-.81-2.76-2.66-6.99-1.8-9.19,.94-2.94,3.67-2.05,9.12,1.87,11.47,3.01,1.8,6.94,.89,8.94-2.1,.71-1.06,1.16-2.2,1.32-3.47,.03-.3,.15-.38,.43-.33,1.11,.18,2.23,.33,3.34,.48,.33,.05,.35,.15,.3,.43-.99,7.17-8.15,11.55-14.84,9.07-4.31-1.6-7.22-5.85-7.22-10.61h0Z"/>
      <path d="M188.4,43.1c0,2-.03,4,0,5.98,0,.41-.13,.48-.51,.48-.91-.03-1.85-.03-2.76,0-.41,.03-.53-.1-.53-.51,.03-3.7,0-7.4,0-11.09,0-.68-.08-1.34-.23-2-.51-2.2-2.08-3.39-4.05-4.13-3.57-1.29-7.32,.33-8.99,3.77-1.6,3.27-.43,7.27,2.58,9.35,3.52,2.43,6.99,.81,8.69-1.49,.08-.13,.15-.3,.35-.23,.15,.08,.08,.25,.08,.38-.03,1.27-.05,2.53-.05,3.8,0,.41-.13,.63-.43,.86-1.98,1.42-4.2,1.8-6.58,1.65-5.27-.35-8.97-5.39-9.29-9.9-.35-5.12,1.72-8.97,6.18-11.47,1.27-.71,2.74-.89,4.18-.96,2.2-.1,4.31,.23,6.33,1.19,2.81,1.32,4.25,3.62,4.79,6.58,.28,1.57,.2,3.14,.2,4.74,.05,.96,.05,1.98,.05,3.01h0Z"/>
      <path class="cls-1" d="M65.09,50.73c-1.04,.05-1.82-.35-2.46-.99-2.79-2.76-5.57-5.55-8.33-8.33-.46-.46-.86-.94-1.09-1.6-.35-.96-.15-1.87,.46-2.53,2.2-2.33,4.51-4.56,6.76-6.84,.79-.79,1.65-1.54,2.38-2.38,.84-.96,2.99-1.11,4.08-.03,3.04,3.06,6.18,6.08,9.14,9.22,.91,.96,1.04,2.48-.2,3.75-2.71,2.79-5.47,5.5-8.21,8.26l-.76,.76c-.51,.48-1.09,.79-1.77,.71h0Z"/>
      <path class="cls-1" d="M37.31,.03c1.01-.13,1.77,.18,2.46,.86,2.81,2.84,5.62,5.67,8.48,8.46,1.42,1.37,1.42,3.42-.05,4.86-2.74,2.68-5.37,5.45-8.13,8.1-1.67,1.6-3.17,1.65-4.84-.03-2.66-2.63-5.29-5.27-7.9-7.9-.79-.79-1.42-1.65-1.37-2.89,.05-.86,.43-1.47,.96-2,2.91-2.96,5.85-5.9,8.76-8.84,.48-.51,1.04-.71,1.62-.63h.01Z"/>
      <path class="cls-1" d="M25.51,62.88c-.96,.13-1.67-.28-2.25-.86-1.11-1.09-2.15-2.23-3.29-3.27-1.01-.94-2-1.95-2.96-2.94s-2.08-1.85-2.86-3.01c-.86-1.24-.61-2.91,.51-3.93,1.44-1.32,2.79-2.76,4.18-4.15,1.44-1.44,2.94-2.86,4.36-4.36,1.24-1.32,3.14-1.19,4.33,0,2.91,2.91,5.85,5.82,8.76,8.74,1.14,1.14,1.19,2.84,.08,4-1.49,1.54-3.01,3.06-4.53,4.58-1.44,1.44-2.89,2.91-4.36,4.33-.56,.56-1.16,1.06-1.95,.86h-.02Z"/>
      <path d="M136.16,33.35v-10.56c0-.38,.1-.51,.48-.48,1.04,.03,2.08,.03,3.12,0,.38,0,.46,.13,.46,.46-.03,1.47,0,2.94-.03,4.43,0,.41,.1,.53,.51,.53,2.2-.03,4.41,0,6.61-.03,.38,0,.51,.1,.48,.48-.03,1.01-.03,2.03,0,3.01,.03,.41-.13,.48-.51,.48-2.23-.03-4.43,0-6.66-.03-.46,0-.53,.15-.53,.56,0,3.7,0,7.4-.03,11.09,0,1.14,.76,2.03,1.9,2.05,1.72,.05,3.44,.08,5.14,.08,.43,0,.53,.15,.51,.53-.05,1.01-.05,2.05-.05,3.06,0,.33-.13,.38-.41,.35-1.9-.03-3.77,0-5.67-.1-2.96-.13-5.37-2.71-5.37-5.65,.05-3.42,.05-6.84,.05-10.28v.02h0Z"/>
      <path d="M161.96,27.88h2.48c.25,0,.33,.08,.33,.33,0,1.11-.03,2.23,0,3.34,0,.33-.18,.3-.41,.3-1.22,0-2.43-.03-3.65,.05-2.89,.18-5.37,2.2-6.13,4.99-.79,2.81,.28,5.75,2.71,7.42,1.19,.84,2.51,1.22,3.95,1.24,1.06,.03,2.13,.08,3.17,.08,.28,0,.35,.1,.33,.35-.05,1.06-.08,2.13-.1,3.17,0,.18,.03,.35-.25,.35-2.05-.05-4.13,.18-6.18-.35-4.48-1.16-7.88-5.17-8.13-9.65-.28-4.91,2.46-9.17,7.04-10.94,1.67-.66,3.42-.76,4.84-.68h0Z"/>
      <path d="M98.35,60.6c.71-2.05,1.37-3.95,2.03-5.85,.05-.18,.05-.41,.3-.41,.2,0,.46-.05,.61,.05,.18,.13-.03,.35-.1,.51-.71,2-1.42,4-2.1,6.03-.13,.35-.28,.48-.63,.43-.33-.05-.68,.1-.86-.41-.68-2.05-1.42-4.08-2.15-6.13-.05-.15-.28-.41,0-.46,.25-.05,.63-.23,.79,.23,.35,1.06,.76,2.13,1.11,3.19,.35,.89,.66,1.77,1.01,2.81h-.01Z"/>
      <path d="M195.37,61.11c-.03,.43-.33,.23-.53,.25-.25,.03-.2-.15-.2-.33v-6.36c0-.28,.13-.35,.38-.35s.38,.05,.35,.35c-.03,.61,0,1.22,0,1.82,0,.23,.05,.35,.3,.18,.56-.38,1.19-.35,1.8-.28,.68,.08,1.14,.48,1.29,1.16,.18,.84,.2,1.7,.03,2.53-.18,.86-.53,1.16-1.39,1.32-.68,.1-1.34,.08-1.9-.43-.05,0-.08-.03-.13-.03-.03,.05-.03,.1,0,.15v.02h0Zm2.71-2.2c-.03-.28-.03-.58-.05-.91-.1-.76-.41-.99-1.24-1.01-.89,0-1.27,.25-1.37,1.01-.08,.61-.08,1.22,0,1.8,.03,.28,.05,.58,.3,.73,.53,.35,1.11,.33,1.7,.15,.51-.15,.56-.61,.58-1.04,.05-.23,.05-.46,.08-.73h0Z"/>
      <path d="M126.56,60.93c0,.79-.03,1.44,0,2.13,0,.3-.05,.43-.41,.43-.3,0-.35-.13-.35-.41v-6.28c0-.15-.05-.35,.18-.35,.18,0,.48-.13,.56,.13,.1,.3,.2,.18,.35,.08,.56-.35,1.19-.33,1.82-.23,.61,.1,1.04,.46,1.16,1.09,.2,.96,.23,1.92,0,2.89-.15,.58-.53,.91-1.14,1.01-.73,.1-1.42,.05-2.18-.48h.01Zm2.68-2.01v-.46c-.05-1.29-.63-1.72-1.9-1.42-.35,.08-.58,.28-.66,.63-.18,.79-.18,1.6,0,2.38,.08,.41,.35,.63,.76,.68,.3,.05,.61,.08,.94,.03,.43-.08,.68-.28,.79-.71,.1-.38,.08-.76,.08-1.14h0Z"/>
      <path d="M161.86,59.39v1.67c0,.13,.08,.3-.18,.3-.18,0-.48,.13-.53-.13-.08-.28-.13-.2-.28-.1-.71,.41-1.47,.41-2.23,.2-.73-.2-1.04-.73-.99-1.62,.05-.81,.35-1.16,1.14-1.29,.68-.1,1.34-.13,2,.13,.13,.05,.23,.15,.33-.08,.25-.73-.2-1.47-.99-1.52-.33-.03-.66-.03-.99,.08-.23,.08-.51,.2-.51,.46-.03,.48-.38,.33-.61,.33-.35-.03-.15-.33-.13-.48,.05-.48,.33-.79,.81-.89,.68-.13,1.34-.15,2,0,.76,.15,1.06,.48,1.11,1.29,.05,.53,.03,1.09,.03,1.65h.02Zm-2.12-.46c-.23,.03-.51,.05-.76,.08-.41,.05-.53,.35-.53,.71-.03,.41-.05,.86,.46,.99,.58,.15,1.16,.15,1.75-.05,.46-.15,.56-.53,.51-.96s-.28-.66-.71-.71c-.23-.03-.46-.03-.71-.05h-.01Z"/>
      <path d="M182.17,59.03h-1.42c-.28,0-.35,.1-.33,.35,.03,1.11,.35,1.44,1.49,1.42,.2,0,.38-.03,.58-.05,.41-.03,.68-.2,.68-.63s.3-.28,.51-.3c.3-.03,.28,.18,.25,.38-.05,.58-.3,.94-.89,1.09-.76,.2-1.54,.2-2.33,.03-.53-.13-.84-.46-.96-.99-.2-.89-.2-1.8-.05-2.68,.13-.73,.56-1.14,1.27-1.24,.53-.08,1.06-.08,1.6,0,.89,.15,1.14,.43,1.27,1.32,.13,.86-.23,1.29-1.09,1.29-.18,.03-.38,.03-.58,.03v-.02h0Zm-.38-.58h1.04c.13,0,.23,.03,.3-.13,.15-.3-.1-1.09-.41-1.19-.61-.2-1.24-.2-1.85,0-.3,.1-.58,.79-.46,1.14,.13,.35,.46,.13,.68,.18,.23,.03,.46,0,.68,0h.02Z"/>
      <path d="M148.54,59.03h-1.39c-.13,0-.28-.05-.35,.15-.25,.66,.25,1.49,.96,1.6,.35,.05,.68,.03,1.04,0,.43-.03,.73-.2,.76-.66,.03-.43,.33-.23,.53-.25,.28-.05,.23,.2,.23,.35-.03,.61-.33,1.01-.94,1.14-.71,.15-1.44,.15-2.18,.03-.79-.15-1.04-.73-1.11-1.44-.08-.73-.1-1.49,.05-2.23,.18-.86,.51-1.19,1.39-1.29,.58-.08,1.16-.05,1.75,.08,.51,.13,.81,.43,.94,.94,.1,.48,.28,1.04,.1,1.42-.25,.51-.86,.1-1.32,.2-.18,0-.33-.03-.46-.03h0Zm-.38-.59h1.09c.1,0,.2,.03,.28-.1,.15-.25-.13-1.14-.46-1.24-.58-.2-1.19-.2-1.8,0-.33,.13-.63,.79-.48,1.16,.13,.35,.46,.13,.68,.15,.23,.05,.46,.03,.68,.03h0Z"/>
      <path d="M202.89,59.03h-1.39c-.28,0-.35,.08-.35,.35-.03,1.04,.23,1.34,1.27,1.39,.25,.03,.51-.03,.79-.03,.38-.03,.68-.18,.68-.61s.33-.3,.56-.3c.33,0,.2,.25,.2,.43-.08,.63-.33,.94-.96,1.06-.71,.15-1.42,.15-2.13,.03-.58-.13-.94-.46-1.06-1.06-.18-.89-.2-1.75-.03-2.63,.15-.81,.48-1.14,1.32-1.24,.56-.08,1.11-.08,1.65,.05,.76,.18,1.04,.46,1.16,1.19,.15,.93-.23,1.39-1.14,1.39-.2-.03-.38-.03-.56-.03h-.01Zm-.43-.57h1.09c.1,0,.23,.03,.3-.13,.18-.41-.13-1.14-.56-1.24-.53-.15-1.06-.13-1.6,0-.38,.1-.68,.68-.56,1.16,.1,.41,.46,.15,.71,.2,.18,.03,.41,0,.61,0h.01Z"/>
      <path d="M134.82,61.09c-.73,.43-1.52,.46-2.3,.25-.73-.18-1.06-.73-1.01-1.6,.05-.81,.33-1.16,1.14-1.32,.68-.13,1.39-.15,2.05,.15,.25,.1,.33,.03,.3-.2-.05-.46,.1-1.01-.41-1.27-.61-.28-1.24-.25-1.85,.08-.15,.08-.25,.2-.23,.38,0,.25-.15,.25-.33,.28-.38,.05-.48-.1-.41-.46,.1-.51,.33-.81,.84-.91,.66-.13,1.34-.15,2,0,.76,.15,1.06,.46,1.09,1.22,.05,1.14,.03,2.28,.03,3.44,0,.33-.35,.35-.76,.1,.03-.05,.05-.13,0-.18-.05-.03-.1,0-.15,.03h0Zm-1.25-2.15c-.25,.03-.48,.05-.71,.08-.46,.05-.58,.38-.61,.76,0,.41,0,.84,.51,.96,.56,.13,1.09,.13,1.65-.05,.48-.15,.61-.51,.56-.99-.05-.43-.3-.63-.71-.68-.23-.05-.48-.05-.68-.08h-.01Z"/>
      <path d="M173.23,59.03h-1.42c-.1,0-.23-.05-.3,.13-.28,.61,.25,1.52,.91,1.62,.33,.05,.66,.03,.99,0,.46-.03,.81-.13,.84-.71,0-.38,.33-.2,.51-.23,.23-.05,.23,.13,.23,.28,0,.58-.25,1.01-.84,1.16-.79,.2-1.57,.2-2.38,.03-.58-.13-.86-.53-.96-1.09-.18-.89-.18-1.75,0-2.63,.13-.71,.58-1.09,1.27-1.16,.58-.08,1.16-.08,1.75,.05,.61,.13,.91,.46,1.06,1.06,.3,1.44,.25,1.52-1.16,1.52-.13-.03-.3-.03-.48-.03h-.02Zm-.32-2.02c-1.04,0-1.37,.28-1.37,1.11,0,.23,.05,.35,.3,.35,.71-.03,1.42,0,2.13,0,.23,0,.28-.1,.3-.3,.03-.89-.33-1.19-1.37-1.16h0Z"/>
      <path d="M119.32,59.03c-.48,0-.94,.03-1.42,0-.28,0-.35,.1-.35,.35-.03,1.04,.23,1.34,1.27,1.42,.3,.03,.58-.03,.89-.05,.33-.03,.58-.2,.56-.56,0-.41,.28-.35,.53-.35,.35,0,.25,.25,.23,.46-.05,.58-.33,.91-.91,1.04-.71,.15-1.44,.18-2.18,.03-.56-.13-.91-.43-1.04-1.01-.2-.94-.2-1.87-.03-2.79,.15-.73,.58-1.06,1.42-1.14,.41-.03,.84-.05,1.24,0,1.06,.1,1.42,.53,1.49,1.7,.03,.64-.26,.96-.89,.96-.25-.05-.53-.05-.81-.05h0Zm-.43-.59h1.04c.1,0,.25,.05,.33-.1,.18-.28-.08-1.11-.41-1.24-.61-.2-1.22-.2-1.82,0-.3,.1-.56,.79-.46,1.14,.13,.38,.43,.15,.66,.18,.2,.05,.43,.03,.66,.03h0Z"/>
      <path d="M106.68,58.78c0,.66-.03,1.16-.15,1.7-.1,.46-.38,.73-.81,.86-.81,.2-1.62,.2-2.41-.03-.46-.13-.71-.43-.81-.86-.2-.94-.2-1.9-.05-2.84,.1-.66,.48-1.04,1.16-1.14,.66-.1,1.32-.1,1.95,.03,.58,.13,.91,.46,1.01,1.04,.08,.43,.1,.89,.1,1.24h.01Zm-3.6,.13c.03,.38,.08,.76,.1,1.16,.05,.43,.3,.63,.71,.68,.38,.05,.76,.05,1.14,0,.46-.05,.71-.28,.79-.73,.08-.46,.08-.89,.08-1.34-.05-1.52-.1-1.77-1.9-1.65-.48,.03-.76,.28-.81,.79-.03,.35-.08,.71-.1,1.09h0Z"/>
      <path d="M214.36,58.91c0,.56,0,1.11-.18,1.65-.13,.41-.38,.66-.79,.76-.79,.2-1.57,.2-2.36,0-.48-.13-.79-.43-.86-.94-.18-.99-.2-2,0-2.99,.1-.48,.41-.79,.89-.91,.66-.15,1.34-.15,2-.05,.68,.1,1.06,.48,1.19,1.16,.1,.46,.1,.89,.1,1.32h.01Zm-.76,.05h.03c-.05-.43-.08-.86-.13-1.29-.08-.56-.51-.66-.96-.66-.56,0-1.22-.2-1.57,.46-.13,.23-.13,.51-.15,.76-.03,.41-.03,.84,0,1.24,.03,1.11,.33,1.37,1.42,1.34,1.06-.03,1.27-.23,1.32-1.29,.03-.18,.05-.35,.05-.56h-.01Z"/>
      <path d="M186.3,56.91c.71-.61,1.52-.61,2.3-.46,.68,.13,.99,.43,1.04,1.16,.05,1.16,.03,2.36,.03,3.55,0,.33-.23,.23-.41,.23-.23,.03-.35-.03-.35-.3,.03-.94,0-1.87,0-2.81s-.2-1.22-.96-1.27c-1.01-.05-1.6,.33-1.65,1.22-.05,.91-.05,1.82-.03,2.76,0,.3-.08,.43-.41,.41-.33,0-.35-.13-.35-.41v-4c0-.2-.18-.51,.25-.56,.38-.05,.51,.1,.53,.48h0Z"/>
      <path d="M152.67,56.88c.76-.61,1.6-.58,2.43-.43,.53,.1,.84,.46,.89,.96,.15,1.24,.05,2.48,.08,3.75,0,.35-.3,.18-.46,.23-.23,.05-.3-.05-.3-.28v-2.91c0-.86-.18-1.09-.84-1.16-.99-.1-1.62,.23-1.72,.99-.08,.61-.03,1.22-.05,1.82,0,.38-.03,.76,0,1.14,.03,.3-.05,.43-.38,.43-.38,0-.38-.18-.38-.46v-4c0-.18-.15-.48,.23-.51,.3-.05,.56,0,.51,.43h-.01Z"/>
      <path d="M215.98,58.88v-2.13c0-.15-.03-.35,.2-.33,.18,.03,.46-.15,.48,.2,.03,.28,.13,.2,.28,.1,.73-.51,1.54-.43,2.36-.23,.53,.13,.73,.58,.76,1.06,.03,1.19,.03,2.36,.03,3.55,0,.33-.2,.25-.38,.25-.23,.03-.35-.03-.35-.3v-2.86c0-.96-.2-1.19-1.01-1.22-.99-.03-1.57,.38-1.6,1.22-.03,.91-.03,1.8,0,2.71,0,.33-.05,.46-.41,.46-.41,0-.35-.23-.35-.46v-2.03h-.01Z"/>
      <path d="M108.27,58.83v-1.09c0-.35,.1-.76-.51-.66-.2,.03-.18-.18-.18-.3s-.05-.33,.15-.33c.68,.08,.53-.41,.53-.76,0-.25,0-.43,.35-.43,.3,0,.43,.08,.41,.41,0,.76,0,.79,.79,.76h.73c.25-.03,.38,.08,.35,.35,0,.28-.13,.33-.35,.3-.41-.03-.81,0-1.19-.03-.28-.03-.35,.08-.35,.35,.03,.86,0,1.7,0,2.56,0,.58,.23,.84,.68,.84s.66-.23,.66-.81c0-.3,.08-.41,.41-.41,.35,0,.33,.18,.33,.43-.03,.53-.13,1.01-.66,1.27-.58,.25-1.19,.23-1.75-.1-.33-.2-.43-.53-.43-.91,.03-.48,.03-.96,.03-1.44h0Z"/>
      <path d="M142.21,58.88v-1.14c0-.35,.1-.76-.51-.68-.25,.03-.13-.23-.15-.35-.03-.15,.03-.3,.2-.28,.56,.08,.46-.28,.48-.61,.03-.2-.18-.51,.23-.58,.35-.05,.53,.03,.51,.46-.03,.71,0,.71,.71,.71h.84c.23,0,.35,.05,.35,.33,0,.25-.08,.35-.33,.33-.41-.03-.81,0-1.19,0-.25,0-.38,.03-.38,.33,.03,.89,0,1.77,0,2.66,0,.46,.18,.73,.66,.76,.51,0,.68-.33,.68-.73,0-.35,.05-.51,.46-.48,.46,.05,.28,.35,.25,.58-.13,1.14-1.44,1.7-2.38,1.01-.28-.2-.41-.51-.41-.86-.03-.48-.03-.96-.03-1.44v-.02h.01Z"/>
      <path d="M206.23,58.83v-1.24c.03-.33,0-.58-.46-.51-.18,.03-.25-.08-.23-.25,.03-.15-.08-.41,.15-.38,.73,.1,.53-.43,.53-.79,0-.33,.08-.43,.41-.41,.28,.03,.38,.1,.35,.38v.3c-.05,.38,.08,.56,.48,.51,.3-.03,.63,0,.94,0,.23,0,.48-.08,.48,.33,0,.38-.23,.3-.46,.3-.33,0-.66,.03-.99,0s-.46,.08-.46,.43c.03,.81,0,1.62,0,2.46,0,.58,.23,.86,.68,.86s.66-.2,.68-.84c0-.3,.1-.35,.41-.38,.35-.03,.33,.18,.33,.41-.03,.94-.46,1.42-1.34,1.44-.89,.03-1.42-.35-1.47-1.11-.05-.51-.05-1.01-.05-1.52h.02Z"/>
      <path d="M112.28,58.86v-2.03c0-.13-.08-.35,.13-.38s.48-.13,.56,.08c.13,.3,.2,.18,.35,.08,.46-.3,.99-.33,1.49-.23,.61,.13,1.09,.99,.89,1.57-.1,.25-.33,.13-.48,.15-.15,.03-.28-.03-.25-.23,.05-.51-.1-.86-.66-.91-.63-.05-1.06,.23-1.22,.81-.08,.3-.08,.61-.1,.94,0,.76-.03,1.52,0,2.28,0,.28-.08,.38-.38,.38-.28,0-.38-.08-.38-.38,.05-.68,.05-1.42,.05-2.13h0Z"/>
      <path d="M166.24,58.91v-2.03c0-.15-.1-.35,.1-.41,.18-.08,.48-.13,.58,.03,.18,.28,.3,.15,.46,.05,.35-.2,.76-.25,1.16-.2,.81,.08,1.29,.76,1.14,1.54-.05,.3-.28,.18-.43,.2-.18,.03-.3,0-.28-.25,.05-.51-.13-.84-.68-.89-.58-.05-1.01,.23-1.19,.79-.18,.58-.08,1.22-.1,1.8-.03,.46-.03,.94,0,1.39,.03,.3-.05,.43-.38,.43-.38,0-.38-.18-.35-.46-.03-.66-.03-1.32-.03-2h0Z"/>
      <path d="M138.31,56.88c.56-.53,1.16-.63,1.8-.51,.66,.13,1.14,.99,.91,1.57-.1,.28-.33,.1-.48,.13-.18,.03-.23-.08-.23-.25,.05-.46-.1-.79-.61-.86-.56-.1-1.01,.15-1.24,.63-.13,.3-.15,.61-.15,.91v2.46c0,.23,.03,.43-.33,.41-.3-.03-.41-.08-.41-.41,.03-1.37,0-2.74,0-4.1,0-.2-.08-.43,.28-.43,.28,0,.56-.05,.46,.46h0Z"/>
      <path d="M164.42,58.93c0,.68-.03,1.39,0,2.08,0,.33-.13,.38-.41,.38s-.35-.08-.35-.35c.03-1.42,.03-2.84,0-4.25,0-.28,.1-.35,.35-.35,.3,0,.41,.08,.38,.38,.03,.71,.03,1.42,.03,2.13h0v-.02h0Z"/>
      <path d="M203.73,54.93c-.43,.28-.86,.53-1.27,.79-.1,.05-.2,.18-.3,.05-.15-.15-.25-.28-.03-.46,.33-.23,.66-.51,.99-.76,.08-.05,.15-.18,.25-.08,.13,.13,.23,.28,.35,.46h.01Z"/>
      <path d="M164.42,54.7c.05,.3,0,.48-.35,.48-.3,0-.38-.1-.38-.38,0-.25,0-.48,.35-.46,.3,0,.46,.08,.38,.35h0Z"/>
    </g>
  </g>
</svg>