<?xml version="1.0" encoding="UTF-8"?>
<svg id="Layer_2" data-name="Layer 2" xmlns="http://www.w3.org/2000/svg" viewBox="0 0 177.7 123.69">
  <defs>
    <style>
      .cls-1 {
        fill: #303c49;
      }
    </style>
  </defs>
  <g id="Calque_1" data-name="Calque 1">
    <g>
      <polygon class="cls-1" points="32.19 86.76 39.96 94.53 47.73 86.76 47.73 96.62 62.12 96.62 62.12 69.52 48.86 69.52 39.96 78.43 31.06 69.52 17.79 69.52 17.79 96.62 32.19 96.62 32.19 86.76"/>
      <polygon class="cls-1" points="159.5 96.62 159.5 69.52 145.1 69.52 145.1 81.27 129.38 69.52 115.36 69.52 115.36 96.62 129.57 96.62 129.57 85.06 145.29 96.62 159.5 96.62"/>
      <path class="cls-1" d="M63.64,96.62h14.97l1.89-3.03h16.48l1.89,3.03h14.97l-17.62-27.09h-14.97l-17.62,27.09h0Zm21.98-10.61l3.22-5.12,3.41,5.12h-6.63Z"/>
      <path class="cls-1" d="M11.54,96.81c-.38-3.22-.57-6.44-.57-9.66C10.97,44.33,45.64,9.67,88.45,9.67s77.48,34.67,77.48,77.48c0,3.22-.19,6.44-.57,9.66h9.85c.38-3.22,.57-6.44,.57-9.66C175.78,39.03,136.75,0,88.63,0S1.48,39.03,1.48,87.15c0,3.22,.19,6.44,.57,9.66H11.54Z"/>
      <path class="cls-1" d="M13.82,113.48c-.95-.57-2.46-1.14-4.55-1.71-2.08-.38-3.22-.95-3.79-1.14s-.76-.76-.76-1.33c0-.76,.19-1.33,.76-1.71s1.33-.57,2.27-.57,1.89,.19,2.46,.76c.57,.38,.95,1.14,.95,2.08h3.79c0-2.27-.95-3.79-2.84-4.74-1.14-.76-2.65-1.14-4.55-1.14-2.27,0-3.98,.38-5.3,1.52-1.33,1.14-1.89,2.46-1.89,4.17,0,1.52,.57,2.65,1.52,3.6,.38,.38,1.14,.76,1.71,.95s1.52,.57,2.84,.95c2.08,.57,3.22,.95,3.79,1.14,.95,.38,1.52,.95,1.52,1.7s-.19,1.52-.95,1.89c-.57,.38-1.52,.57-2.46,.57-1.52,0-2.65-.38-3.41-1.14-.38-.38-.76-1.14-.76-2.27H0c.19,2.08,.76,3.79,2.27,4.93,1.52,1.14,3.41,1.7,6.06,1.7,2.27,0,4.17-.57,5.49-1.52,1.52-.95,2.27-2.65,2.27-4.55,0-1.71-.76-3.22-2.27-4.17v.03h0Z"/>
      <polygon class="cls-1" points="17.98 123.14 32.38 123.14 32.38 119.73 22.15 119.73 22.15 114.99 31.43 114.99 31.43 111.77 22.15 111.77 22.15 107.79 32.38 107.79 32.38 104.38 32.38 104.19 17.98 104.19 17.98 123.14"/>
      <polygon class="cls-1" points="39.39 107.79 48.67 107.79 48.67 104.38 48.67 104.19 35.41 104.19 35.41 123.14 39.39 123.14 39.39 115.37 47.35 115.37 47.35 112.15 39.39 112.15 39.39 107.79"/>
      <path class="cls-1" d="M54.93,104.38l-7.2,18.94h4.17l1.52-4.17h7.01l1.52,4.17h4.36l-7.2-18.94h-4.18Zm-.57,11.56l1.14-3.41c.57-1.71,.95-3.03,1.33-4.17,.38,1.33,.76,2.65,1.33,4.17l1.14,3.41h-4.94Z"/>
      <path class="cls-1" d="M79.55,112.53c-.76,2.08-1.33,4.17-1.7,6.06-.38-2.27-.95-4.36-1.52-6.06l-2.84-8.15h-5.87v18.94h3.98v-6.06c0-2.27,0-5.3-.19-9.09,.57,2.46,1.14,4.74,1.89,6.63l3.03,8.53h3.22l3.03-8.71c.57-1.89,1.33-4.17,1.89-6.63-.19,3.6-.19,6.63-.19,9.66v5.68h3.98v-18.94h-6.06l-2.65,8.15h0Z"/>
      <path class="cls-1" d="M97.17,104.38l-7.2,18.94h4.17l1.52-4.17h7.01l1.52,4.17h4.36l-7.2-18.94h-4.18Zm-.57,11.56l1.14-3.41c.57-1.71,.95-3.03,1.33-4.17,.38,1.33,.76,2.65,1.33,4.17l1.14,3.41h-4.94Z"/>
      <path class="cls-1" d="M125.59,120.68c-.19-1.7-.38-2.84-.38-3.41s-.19-1.14-.57-1.52c-.38-.57-1.14-1.14-1.89-1.33,.95-.38,1.7-.95,2.27-1.71s.76-1.7,.76-2.84c0-.95-.19-1.89-.57-2.65-.57-.76-1.14-1.52-1.89-1.89-.95-.57-2.27-.95-4.17-.95h-9.47v18.94h4.17v-7.39h3.79c1.33,0,2.27,.19,2.84,.76,.57,.57,.76,1.52,.95,2.84,0,1.52,.19,2.46,.19,2.84,.19,.38,.19,.76,.38,.95h4.36l-.19-.19c-.19-.38-.38-1.14-.57-2.46h0Zm-4.93-8.33c-.57,.38-1.33,.57-2.65,.57h-3.98v-5.12h4.17c1.14,0,2.08,.19,2.65,.57,.57,.38,.76,.95,.76,1.89s-.38,1.71-.95,2.08h0Z"/>
      <path class="cls-1" d="M149.27,113.48c-.95-.57-2.46-1.14-4.55-1.71-2.08-.38-3.22-.95-3.79-1.14-.57-.19-.76-.76-.76-1.33,0-.76,.19-1.33,.76-1.71,.57-.38,1.33-.57,2.27-.57s1.89,.19,2.46,.76c.57,.38,.95,1.14,.95,2.08h3.98c0-2.27-.95-3.79-3.03-4.74-1.14-.76-2.65-1.14-4.55-1.14-2.27,0-3.98,.57-5.3,1.52-1.33,1.14-1.89,2.46-1.89,4.17,0,1.52,.57,2.65,1.52,3.6,.38,.38,1.14,.57,1.71,.95s1.71,.57,2.84,.95c2.08,.57,3.22,.95,3.79,1.14,.95,.38,1.52,.95,1.52,1.7s-.19,1.52-.95,1.89c-.57,.38-1.52,.57-2.46,.57-1.52,0-2.65-.38-3.41-1.14-.38-.38-.76-1.14-.76-2.27h-4.17c.19,2.08,.76,3.79,2.27,4.93,1.52,1.14,3.41,1.7,6.06,1.7,2.27,0,4.17-.57,5.49-1.52,1.52-.95,2.27-2.65,2.27-4.55,0-1.71-.76-3.22-2.27-4.17v.03h0Z"/>
      <rect class="cls-1" x="153.44" y="119.16" width="4.36" height="4.17"/>
      <path class="cls-1" d="M170.49,104.38v-.19h-4.17l-7.2,18.94h4.17l1.52-4.17h7.01l1.52,4.36h4.36l-7.2-18.94h0Zm-4.55,11.56l1.14-3.41c.57-1.71,.95-3.03,1.33-4.17,.38,1.33,.76,2.65,1.33,4.17l1.14,3.41h-4.94Z"/>
    </g>
  </g>
</svg>