<?xml version="1.0" encoding="UTF-8"?>
<svg id="Layer_2" data-name="Layer 2" xmlns="http://www.w3.org/2000/svg" viewBox="0 0 126.99 110.97">
  <defs>
    <style>
      .cls-1 {
        fill: #143320;
      }
    </style>
  </defs>
  <g id="Calque_1" data-name="Calque 1">
    <g>
      <path class="cls-1" d="M65.66,57.13c-1.1,1.4-2.09,2.65-3.07,3.9-.51,.65-1.09,1.22-1.81,1.64-1.58,.92-3.05,.29-3.47-1.49-.22-.97-.13-1.96-.01-2.93,.5-4.03,1.36-7.99,2.43-11.9,.1-.35,.15-.72,.17-1.09,.02-.57-.2-1.05-.71-1.33-.55-.3-1.04-.09-1.48,.25-.7,.53-1.2,1.22-1.58,2.01-1.75,3.57-2.47,7.44-3.27,11.29-.25,1.2-.38,2.43-.68,3.62-.21,.82-.54,1.81-1.65,1.65-1.13-.16-1.29-1.14-1.22-2.1,.34-4.62,1-9.19,1.84-13.75,.11-.6,.14-1.22,.15-1.83,0-.56-.2-1.05-.76-1.3-.59-.27-1.13-.1-1.6,.28-.85,.69-1.34,1.64-1.79,2.61-2.14,4.61-3.24,9.52-4.25,14.46-.17,.85-.29,1.65-1.4,1.66-1.06,.01-1.68-.57-1.98-1.52-.17-.54-.25-1.11-.42-1.85-.55,.65-1,1.25-1.51,1.8-2.11,2.27-4.18,2.08-5.57-.6-.54-1.05-.76-1.09-1.42-.08-1.53,2.32-3.18,2.63-5.5,1.16-.58-.37-.89-.34-1.3,.22-1.12,1.51-2.28,3-3.45,4.47-1.36,1.72-2.95,2.32-4.6,1.78-1.77-.58-2.78-2.12-2.8-4.3-.05-6.11,1.18-12.05,2.37-17.99,.96-4.77,2.14-9.5,3.2-14.26,.09-.4,.5-.92,.03-1.23-.37-.24-.74,.23-1.07,.44-3.98,2.54-7.58,5.58-11.26,8.52-.64,.51-1.29,1.01-2.08,1.28-1.46,.49-2.96,.2-3.63-.69-.76-1.01-.68-2.85,.29-4.02,.6-.72,1.29-1.38,2.04-1.95,5.89-4.43,12.02-8.54,18.17-12.59,.7-.46,1.12-1.02,1.28-1.84,.32-1.61,.67-3.21,1.02-4.81,.12-.56,.29-1.1,.67-1.57,.81-1,2.05-1.43,3.04-1.01,1.21,.51,1.48,1.56,1.46,2.73-.01,.69-.11,1.39-.16,2.08-.05,.73,.25,.85,.89,.57,6.76-3.03,13.8-5.14,21.06-6.57,.8-.16,1.12-.74,1.43-1.38,2.34-4.7,6.09-7.69,11.19-8.79,5.82-1.26,11.64-.96,17.38,.63,9.02,2.51,16.72,7.4,23.83,13.33,4.06,3.39,7.8,7.12,11.2,11.17,.28,.33,.67,.61,.64,1.21-1.48-.15-2.88-.59-4.35-.66-5.21-.25-10.2,.83-15.03,2.6-4.93,1.81-9.97,3.09-15.22,3-9.55-.17-18.3-2.6-25.18-9.74-.94-.97-1.75-2.06-2.45-3.22-.7-1.15-.64-1.35,.66-1.85,3.23-1.25,6.58-1.99,10.02-2.32,5.65-.55,11.28-.32,16.96,.27-.8-.3-1.58-.62-2.39-.88-.86-.28-1.72-.53-2.6-.74-.87-.21-1.76-.38-2.65-.53-8.12-1.32-16.07-.41-23.92,1.83-7.97,2.27-15.43,5.67-22.5,9.98-.94,.57-1.51,1.29-1.82,2.33-2.03,6.66-3.63,13.44-5.27,20.2-1.18,4.85-2.45,9.69-3.08,14.65-.1,.81-.19,1.64-.12,2.44,.1,1.13,.97,1.57,1.93,.98,2.12-1.31,3.41-3.38,4.69-5.43,.2-.33,.07-.72,.06-1.09-.18-4.49,.48-8.83,2.64-12.83,1.23-2.27,2.84-4.22,5.2-5.4,2.16-1.08,3.5-.44,3.98,1.91,.07,.36,.23,.56,.54,.74,1.9,1.07,2.43,2.23,2.22,4.43-.26,2.72-1.08,5.28-2.06,7.81-.44,1.15-.84,2.31-.81,3.57,0,.4-.09,.88,.37,1.09,.45,.21,.76-.15,1.08-.4,1.94-1.52,2.87-3.51,3.21-5.96,.48-3.5,1.54-6.87,2.83-10.16,.33-.83,.77-1.55,1.73-1.74,.73-.14,1.48-.07,1.86,.62,.51,.92,.82,.85,1.39,.05s1.34-1.43,2.25-1.86c2.17-1.03,3.75-.39,4.56,1.87,.22,.61,.35,1.25,.58,2.1,.38-.5,.67-.88,.95-1.25,.68-.88,1.42-1.7,2.39-2.27,2.36-1.4,4.37-.46,4.76,2.23,.3,2.09-.25,4.06-.96,6-.9,2.46-1.75,4.94-2.23,7.53-.14,.77-.17,1.54-.16,2.32,0,.36-.04,.78,.4,.94,.39,.15,.74-.05,1-.31,.55-.55,1.04-1.16,1.57-1.72,2.03-2.12,2.44-4.74,2.64-7.54,.24-3.22,1.41-6.15,3.91-8.37,1.79-1.58,3.86-2.28,6.25-1.63,1.02,.28,1.71,.91,1.98,1.98,.78,3.13,.97,6.17-1.28,8.85-1.4,1.67-3.27,2.55-5.34,3.07-1.82,.46-2.41,1.79-1.56,3.54,1.02,2.1,3.65,2.76,5.53,1.4,.55-.4,.9-.84,.91-1.61,.02-1.61,.61-2.24,2.24-2.52,.5-.09,.82-.33,1.07-.72,1.94-3,3.49-6.21,5.02-9.42,.32-.66,.15-1.37,.07-2.06-.2-1.67-.27-3.35,.05-5.02,.07-.36,.16-.72,.29-1.06,.35-.92,.95-1.58,2.02-1.45,1.03,.13,1.54,.89,1.7,1.85,.32,1.96-.09,3.86-1.26,5.37-1.2,1.54-1.1,2.71-.17,4.34,2.02,3.52,3.01,7.32,2.01,11.66,1.5-.87,2.1-2,2.36-3.36,.75-3.99,1.88-7.88,3.05-11.76,.22-.71,.47-1.4,1.1-1.87,1.13-.85,2.55-.64,3.1,.58,.44,.98,.69,.57,1.1,.04,.4-.51,.82-1.03,1.31-1.45,1.37-1.19,3.02-1.47,4.32-.76,1.53,.84,1.74,2.27,1.66,3.81-.26,4.43-1.64,8.59-3.03,12.74-.29,.85-.64,1.69-.91,2.54-.11,.34-.2,.77,.14,1.03,.36,.28,.71,.03,1.01-.18,1.46-1.04,2.62-2.33,3.44-3.93,1.4-2.75,2.08-5.78,3.35-8.57,.85-1.87,1.75-3.7,3-5.34,.53-.69,1.13-1.3,1.91-1.7,1.96-1.02,3.89-.4,4.83,1.6,.35,.74,.62,1.49,1.21,2.1,.44,.46,.45,1.12,.45,1.74,.01,2.54-.68,4.94-1.47,7.31-.59,1.78-.92,3.56-.78,5.43,.04,.53,.02,1.11,.63,1.36,.57,.23,1.04-.07,1.46-.41,1.59-1.3,2.64-3,3.61-4.77,.22-.41,.3-.93,1.09-1.29-1.03,3.35-1.95,6.48-4.62,8.67-1.3,1.07-2.72,.8-3.89-.55-.68-.78-1.12-1.7-1.54-2.66-.62,.35-.74,.95-1.06,1.4-.48,.67-.97,1.31-1.66,1.79-1.44,.99-2.55,.81-3.59-.61-.86-1.18-1.12-2.59-1.42-4.12-1.2,1.34-2.31,2.58-3.41,3.83-.67,.77-1.48,1.28-2.48,1.49-1.67,.35-3.11-.57-3.55-2.21-.47-1.74,0-3.42,.34-5.1,.61-2.98,1.64-5.83,2.78-8.64,.18-.45,.37-.91,.51-1.38,.16-.55,.35-1.18-.25-1.57s-1.21-.12-1.69,.3c-1.16,1.01-1.98,2.29-2.7,3.62-2.04,3.75-3.12,7.82-3.83,12-.13,.77-.26,1.54-.77,2.17-.42,.52-.87,1.05-1.64,.84-.8-.21-1.23-.81-1.33-1.6-.09-.71-.08-1.44-.12-2.33-1.09,.88-2,1.67-2.97,2.39-2.85,2.12-7.04,2.27-9.89,.17-1.12-.83-1.88-.76-3.02-.14-3.26,1.78-5.68,1.36-7.66-1.14-.59-.74-1.06-1.56-1.43-2.43-.1-.22-.2-.44-.38-.84l-.06-.02h0Zm53.53-11.2c-.11-.92,.3-2.22-.93-2.52-1.07-.26-1.55,.88-1.98,1.69-1.85,3.41-3.15,7.01-3.62,10.87-.13,1.06-.12,2.12,.2,3.16,.15,.49,.33,.96,.9,1.05,.53,.09,.83-.29,1.07-.68,.28-.45,.55-.91,.76-1.4,.96-2.17,1.8-4.39,2.5-6.66,.55-1.8,1.05-3.61,1.11-5.53v.02h-.01ZM27.77,56.66c0,.41-.01,.82,0,1.22,.03,.8,.28,1.49,1.15,1.65,.86,.16,1.23-.48,1.53-1.14,1.29-2.87,2.37-5.82,3.17-8.87,.37-1.43,.58-2.88,.5-4.36-.03-.6,.06-1.33-.67-1.56-.69-.22-1.11,.36-1.53,.8-.17,.18-.32,.37-.44,.59-2.05,3.63-3.47,7.46-3.7,11.66h-.01Zm57.08-8.97c-.17,.14-.29,.2-.33,.29-1.42,2.81-3.01,5.53-4.51,8.3-.83,1.53-.26,3.11,.48,4.57,.2,.39,.62,.49,1.04,.55,1.66,.22,2.78-.66,3.32-2.71,.96-3.63,.6-7.26,0-10.99h0Zm-15.05,4c-.09,1.87,.13,2.02,1.58,1.28,2.65-1.34,4.78-5.93,4.18-8.94-.17-.84-.73-.91-1.39-.65-.94,.37-1.64,1.05-2.22,1.87-1.42,2-1.97,4.28-2.15,6.45h0Z"/>
      <path class="cls-1" d="M73.15,100.22c-1.88,1.88-3.52,3.4-5.61,4.36-5.5,2.54-8.6-1.57-8.84-5.27-.33-5.06,1.06-9.73,4.08-13.85,1.23-1.67,2.79-2.84,4.96-3.09,2.24-.26,3.74,.75,4.2,2.96,1.1,5.35-2.55,10.85-7.98,11.79-1.41,.24-1.62,.88-1.53,2.05,.15,2.17,1.47,3.45,3.66,3.44,2.83-.02,4.57-1.72,5.99-3.9,1.29-1.98,1.98-4.21,2.54-6.49,.55-2.22,1.14-4.44,1.72-6.66,.1-.39,.24-.78,.42-1.15,.3-.59,.78-1,1.47-.89,.77,.12,.86,.78,.9,1.41,.03,.43,.04,.87,.07,1.51,.66-.87,1.17-1.6,1.73-2.28,.53-.64,1.15-1.17,2-1.35,1.07-.23,2.06-.11,2.82,.75s.61,1.82,.15,2.76c-.9,1.84-1.77,3.69-2.01,5.77-.11,.93-.18,1.87,.9,2.29,1.01,.4,1.76-.12,2.32-.9,1.78-2.46,2.37-5.36,2.91-8.26,.08-.45-.16-.68-.6-.74-.4-.06-.81-.12-1.19-.25-.32-.11-.53-.39-.49-.77,.03-.32,.26-.52,.53-.63,.22-.09,.47-.13,.71-.15,1.97-.17,1.95-.17,2.35-2.09,.22-1.04,.48-2.07,.79-3.09,.42-1.4,1.38-2.11,2.47-1.91,1.02,.19,1.58,1.16,1.42,2.64-.12,1.18-.24,2.37-.63,3.5-.25,.72,0,.99,.73,.95,.57-.03,1.15,0,1.72,0s1.17,.05,1.22,.73c.06,.75-.59,.94-1.17,.99-.81,.07-1.64,.09-2.45,.04-.93-.05-1.37,.32-1.65,1.23-1.2,3.92-2.37,7.84-2.98,11.9-.19,1.26-.18,2.53-.13,3.8,.02,.45,.04,.94,.54,1.15,.53,.22,.97-.05,1.34-.38,.97-.85,1.62-1.94,2.2-3.08,.61-1.21,1.24-2.41,2.07-3.48,.19-.25,.43-.58,.81-.39s.23,.58,.15,.88c-.74,2.71-1.81,5.27-3.82,7.32-.85,.86-1.85,1.49-3.02,1.82-1.81,.52-2.94-.09-3.45-1.92-.51-1.85-.43-3.73-.23-5.61,.1-.93,.23-1.85,.37-2.97-.78,.43-1.39,.81-2.04,1.1-2.16,.98-3.74,.17-4.15-2.16-.36-2.08,.26-4.06,.77-6.04,.17-.65,.67-1.58,0-1.91-.79-.39-1.22,.61-1.59,1.19-2.04,3.22-3.25,6.78-4.24,10.42-.5,1.86-.9,3.74-1.24,5.64-.15,.83-.29,1.98-1.36,1.88-1.16-.11-.85-1.3-.86-2.11,0-.72,.12-1.44,.23-2.54v.04h0Zm-4.42-12.89c-.04-.81,.16-1.53-.61-1.89-.73-.34-1.24,.16-1.75,.55-.35,.28-.67,.59-.96,.93-1.68,2-2.15,4.44-2.44,6.93-.06,.46-.28,1.07,.16,1.38s.94-.08,1.36-.3c3.15-1.64,3.91-4.59,4.24-7.61h0Z"/>
      <path class="cls-1" d="M44.31,95.92c-.94-.17-1.55-.26-2.13-.4-.38-.09-.92-.07-.98-.58-.06-.45,.38-.7,.7-.94,.64-.48,1.4-.69,2.18-.75,1.91-.14,3.74,.27,5.52,.94,.54,.2,.95,.56,.28,1.03-1.91,1.37-3.91,2.55-6.38,2.59-1.38,.02-2.58-.37-3.61-1.28-.51-.45-1.08-.67-1.77-.74-3.87-.37-6.26-2.81-6.53-6.7-.5-7.14,1.41-13.46,6.55-18.6,1.75-1.75,3.73-3.16,6.3-3.59,3.48-.58,7.83,.88,7.61,6.38-.27,6.59-.86,13.15-1.68,19.69-.11,.86-.44,1.03-1.22,.71-.83-.35-1.73-.56-2.63-.55-1.09,.01-1.31-.47-1.15-1.45,.57-3.52,1.13-7.03,1.61-10.56,.43-3.16,.72-6.35,.6-9.55-.07-1.83-.82-2.65-2.26-2.57-.47,.02-.9,.15-1.22,.49-4.73,4.97-8.22,10.54-8.22,17.68,0,3.67,1.63,6.54,4.84,8.4,1.01,.58,2.09,.83,3.59,.35h0Z"/>
      <path class="cls-1" d="M49.82,102.49c2.24-5.6,4.73-11.07,6.62-16.78,1.68-5.09,3.61-10.09,4.85-15.32,.14-.59,.36-1.18,.59-1.74,.63-1.54,2.06-2.33,3.52-1.97,1.6,.39,2.5,1.68,2.32,3.42-.14,1.35-.56,2.63-1.17,3.85-5.85,11.8-11.68,23.62-17.54,35.42-.31,.62-.38,1.59-1.31,1.6-1.05,0-1.67-.78-2.13-1.63-.98-1.81-1.18-3.82-1.34-5.82-.11-1.38-.04-2.78-.04-4.17,0-.52,.11-1,.71-1.14,1.55-.35,2.86-1.21,4.19-2,.75-.44,.9-.24,.84,.55-.13,1.9-.48,3.8-.12,5.73h0Z"/>
    </g>
  </g>
</svg>