<?xml version="1.0" encoding="UTF-8"?>
<svg id="Layer_2" data-name="Layer 2" xmlns="http://www.w3.org/2000/svg" viewBox="0 0 167.62 111.98">
  <defs>
    <style>
      .cls-1 {
        fill: #0c457e;
      }
    </style>
  </defs>
  <g id="Calque_1" data-name="Calque 1">
    <g>
      <path class="cls-1" d="M59.23,.02h3.72c1.92,0,3.55,.67,4.92,2.04,4.56,4.61,9.13,9.2,13.7,13.8,1.71,1.72,2.83,1.7,4.55-.04,4.47-4.52,8.95-9.03,13.4-13.57C101.02,.72,102.78-.03,104.92,0c2.42,.04,4.84,0,7.26,.01,.31,0,.63-.02,.93,.04,.8,.15,.98,.58,.51,1.24-.21,.3-.47,.58-.73,.84-6.16,6.2-12.33,12.4-18.5,18.61-2.89,2.9-5.76,5.82-8.65,8.72-1.33,1.34-2.54,1.35-3.85,.03-8.18-8.23-16.34-16.46-24.51-24.7-1.03-1.03-2.04-2.08-3.06-3.12-.32-.33-.76-.67-.51-1.19C54.04,0,54.57,.01,55.04,.01h4.19Z"/>
      <path class="cls-1" d="M52.5,29.42V8.4c0-.34-.02-.68,.01-1.02,.04-.44-.06-1.01,.5-1.19,.52-.16,.87,.26,1.19,.58,1.91,1.91,3.8,3.82,5.69,5.75,1.3,1.32,1.93,2.93,1.93,4.78V51.06c0,2.03-.84,2.86-2.87,2.87h-3.72c-1.87-.01-2.72-.84-2.72-2.74-.01-4.84,0-9.67,0-14.51v-7.25h-.01Z"/>
      <path class="cls-1" d="M115.13,29.48v21.01c0,.43,0,.87-.04,1.3-.11,1.25-1,2.1-2.27,2.12-1.49,.03-2.98,.02-4.46,0-1.6-.01-2.54-.95-2.54-2.55-.01-3.56,0-7.13,0-10.69,0-7.5,.05-15-.03-22.5-.03-2.57,.79-4.62,2.63-6.37,1.66-1.58,3.24-3.24,4.87-4.86,.38-.38,.74-.99,1.38-.71,.63,.27,.46,.97,.46,1.5,.02,3.41,.01,6.82,.01,10.23v11.53h0Z"/>
      <path d="M113.45,84.49c0-4,.02-8-.02-12,0-.74,.16-1.01,.96-1.01,8,.03,16,.03,24,0,.69,0,.89,.17,.89,.88-.02,2.39,.01,2.39-2.33,2.39-6.45,0-12.9,.01-19.35-.02-.77,0-1.01,.21-.99,.99,.05,2.05,.06,4.09,0,6.14-.03,.87,.29,1.01,1.06,1,6.14-.03,12.28,0,18.42-.04,.88,0,1.09,.27,1.07,1.1-.05,2.22-.01,2.22-2.23,2.22-5.77,0-11.54,.02-17.3-.02-.85,0-1.03,.25-1.01,1.04,.05,2.05,.06,4.09,0,6.14-.03,.89,.29,1.06,1.11,1.06,6.85-.03,13.71,0,20.56-.04,.85,0,1.03,.24,1.01,1.03-.05,2.19-.01,2.19-2.17,2.19-7.54,0-15.07-.01-22.61,.02-.83,0-1.1-.19-1.09-1.07,.05-4,.02-8,.02-12h0Z"/>
      <path d="M25.79,87.42c0,3.07-.01,6.14,.01,9.21,0,.64-.1,.93-.85,.93-2.34-.01-2.34,.02-2.34-2.3,0-5.33-.01-10.67,0-16,0-1.79-.65-3.2-2.26-4.06-2.38-1.26-5.43,.31-5.8,2.99-.07,.49-.08,.99-.08,1.48,0,5.61-.02,11.23,.01,16.84,0,.8-.18,1.07-1.02,1.05-2.2-.05-2.2,0-2.2-2.16,0-5.49,.01-10.98,0-16.47,0-2.35-1.67-4.1-3.87-4.16-2.18-.07-4.08,1.58-4.15,3.77-.09,2.82-.05,5.64-.05,8.46,0,3.19-.02,6.39,.01,9.58,0,.68-.12,.98-.9,.97-2.3-.02-2.3,.01-2.3-2.27v-16c0-3.07,1.2-5.48,3.97-6.93,2.83-1.48,6.03-.98,8.3,1.25,.47,.47,.69,.56,1.22,.04,2.21-2.17,4.85-2.72,7.7-1.59,2.8,1.11,4.42,3.29,4.54,6.33,.12,3,.03,6.01,.03,9.02h.04v.02h-.01Z"/>
      <path d="M151.84,97.54c-3.04,0-6.08-.02-9.12,.01-.68,0-.91-.16-.9-.87,.01-2.34-.02-2.34,2.29-2.34,5.33,0,10.67,.02,16,0,3.15-.02,5.13-2.89,3.95-5.69-.76-1.79-2.23-2.48-4.1-2.49h-10.6c-3.03,0-5.28-1.33-6.73-4-2.37-4.36,.68-10.12,5.62-10.52,3.28-.27,6.57-.07,9.85-.1,2.88-.03,5.77,.01,8.65-.02,.66,0,.83,.21,.83,.85,0,2.4,.03,2.4-2.34,2.4-5.27,0-10.54-.01-15.81,0-2.14,0-3.57,.97-4.19,2.75-.99,2.86,1.09,5.44,4.44,5.46,3.47,.02,6.95-.02,10.42,.01,3.61,.03,6.27,2.02,7.25,5.38,1.24,4.26-1.97,8.92-6.41,9.11-3.03,.13-6.08,.02-9.11,.02v.05h.01Z"/>
      <path d="M41.21,90.5c-2.91,0-5.83,.02-8.74-.02-.75-.01-.95,.24-.93,.95,.05,1.77,0,3.53,.02,5.3,0,.58-.13,.81-.76,.82-2.45,.04-2.45,.06-2.45-2.37,0-3.6-.08-7.2,.03-10.79,.17-5.66,2.92-9.69,8.11-11.92,7.61-3.26,16.62,2.08,17.53,10.33,.33,3,.09,6.01,.14,9.01,.03,1.67-.01,3.35,.01,5.02,0,.52-.16,.69-.69,.71-2.51,.11-2.51,.12-2.51-2.42,0-1.27-.03-2.54,.01-3.81,.02-.67-.23-.84-.86-.83-2.98,.03-5.95,.01-8.93,.01h.02Zm.08-3.22c2.94,0,5.89-.02,8.83,.02,.71,0,.93-.2,.88-.89-.07-.86-.04-1.73-.08-2.6-.24-4.23-3.38-7.89-7.54-8.81-4.27-.94-8.55,1.04-10.6,4.86-1.09,2.01-1.24,4.17-1.23,6.39,0,.79,.16,1.07,1.02,1.05,2.91-.06,5.83-.02,8.74-.02h-.02Z"/>
      <path d="M56.74,97.54c2.18-2.63,4.2-5.08,6.23-7.52,1.36-1.64,2.71-3.3,4.11-4.91,.4-.46,.32-.72-.03-1.15-3.25-3.9-6.48-7.82-9.72-11.73-.14-.16-.33-.29-.35-.68,1.25,0,2.5-.02,3.75,.01,.37,0,.53,.4,.74,.66,2.55,3.04,5.1,6.07,7.61,9.13,.49,.6,.69,.52,1.14-.03,2.51-3.07,5.06-6.09,7.58-9.15,.39-.48,.81-.68,1.43-.65,1.01,.05,2.02,.01,3.29,.01-1.18,1.43-2.2,2.68-3.24,3.93-2.34,2.81-4.67,5.62-7.02,8.41-.38,.46-.51,.74-.04,1.3,3.18,3.76,6.31,7.56,9.45,11.35,.23,.28,.46,.56,.83,1.02h-3.93c-.4,0-.54-.38-.75-.63-2.52-3.02-5.06-6.03-7.52-9.09-.61-.76-.86-.51-1.32,.06-2.52,3.05-5.08,6.08-7.6,9.14-.33,.4-.65,.58-1.17,.56-1.08-.03-2.16-.01-3.47-.01v-.03h0Z"/>
      <path class="cls-1" d="M88.46,42.35v9.29c0,1.52-.63,2.22-2.15,2.27-1.61,.05-3.22,.04-4.83,0-1.34-.03-2.29-.96-2.3-2.3-.02-6.38,0-12.76,0-19.14,0-.4,0-.84,.43-1.05,.5-.24,.81,.15,1.11,.44,.48,.44,.91,.94,1.39,1.37,1.11,.99,2.41,.95,3.49-.09,.45-.43,.87-.88,1.32-1.3,.32-.29,.67-.63,1.14-.4,.42,.21,.4,.66,.4,1.06v9.85h0Z"/>
      <path d="M110.88,71.47c-.75,.93-1.36,1.69-1.98,2.45-2.88,3.48-5.77,6.97-8.67,10.44-.44,.53-.63,1.07-.62,1.77,.03,3.5,0,7.01,.03,10.51,0,.75-.22,.93-.94,.92-2.25-.02-2.25,0-2.25-2.2v-9.49c0-.49-.12-.87-.45-1.25-3.41-4.09-6.81-8.2-10.21-12.31-.18-.21-.35-.43-.66-.82,1.44,0,2.71-.02,3.99,.01,.38,0,.51,.42,.72,.67,2.56,3.07,5.12,6.14,7.65,9.23,.41,.5,.6,.5,1.01,0,2.45-3,4.94-5.96,7.38-8.97,.54-.67,1.09-1.08,2.02-.98,.89,.1,1.8,.02,2.96,.02h.02Z"/>
      <path class="cls-1" d="M33.9,109c.68-1.17,1.28-2.2,1.88-3.24,.19-.32,.33-.71,.81-.59,.51,.13,.27,.56,.27,.85,.03,1.7,.02,3.4,0,5.11,0,.27,.17,.68-.33,.72-.54,.04-.46-.38-.47-.71v-3.84c-.08-.02-.15-.03-.23-.05-.61,1.05-1.23,2.1-1.93,3.3-.69-1.17-1.31-2.23-1.99-3.37-.35,.44-.21,.84-.22,1.21-.02,.99,0,1.98-.01,2.97,0,.22,0,.45-.31,.48-.27,.02-.41-.11-.41-.38v-5.94c0-.21,.07-.34,.32-.36,.29-.02,.46,.12,.59,.36,.44,.78,.89,1.55,1.34,2.33,.19,.32,.37,.64,.68,1.16h.01Z"/>
      <path class="cls-1" d="M51.07,107.25c-.63,1.07-1.26,2.15-1.94,3.3-.69-1.18-1.32-2.27-1.96-3.35-.08,0-.15,.02-.23,.03v1.87c0,.68,.01,1.36,0,2.04,0,.27,.14,.7-.37,.68-.48-.02-.35-.43-.36-.71-.01-1.77-.01-3.53,0-5.3,0-.24-.13-.59,.31-.65,.34-.05,.49,.15,.64,.42,.62,1.1,1.26,2.19,1.98,3.42,.63-1.09,1.19-2.04,1.74-3,.12-.21,.26-.42,.38-.64,.13-.24,.35-.21,.57-.2,.32,.02,.29,.26,.29,.48v5.67c0,.26,0,.51-.36,.53-.4,.03-.45-.22-.45-.54v-3.99c-.08-.02-.15-.05-.23-.07h-.01Z"/>
      <path class="cls-1" d="M15.1,108.54c-.02-1.96,1.51-3.53,3.43-3.5,1.85,.02,3.36,1.53,3.4,3.37,.04,1.92-1.52,3.56-3.41,3.56s-3.41-1.52-3.42-3.43Zm6.03,0c0-1.52-1.11-2.68-2.59-2.7-1.46-.02-2.66,1.15-2.68,2.62-.03,1.51,1.17,2.7,2.7,2.69,1.43-.01,2.57-1.17,2.58-2.61h0Z"/>
      <path class="cls-1" d="M146.92,108.5c0-1.9,1.53-3.48,3.39-3.46,1.9,.01,3.43,1.53,3.45,3.42,.02,1.92-1.54,3.52-3.45,3.52s-3.38-1.56-3.39-3.47h0Zm3.36,2.64c1.51,0,2.66-1.12,2.68-2.61,.02-1.51-1.11-2.68-2.59-2.7-1.46-.02-2.68,1.16-2.7,2.62-.02,1.46,1.16,2.69,2.61,2.69h0Z"/>
      <path class="cls-1" d="M166.15,109.64c0-1.22-.01-2.44,0-3.66,0-.32-.19-.83,.44-.81,.59,.02,.34,.5,.35,.77,.02,1.7,.02,3.4,0,5.11,0,.27,.19,.66-.25,.79-.48,.13-.62-.25-.81-.58-.77-1.37-1.56-2.72-2.35-4.08-.08,0-.17,.02-.25,.02v2.49c0,.59,0,1.18-.01,1.76,0,.26-.13,.4-.41,.38-.24-.02-.3-.18-.3-.38v-5.94c0-.22,.08-.33,.32-.35,.34-.03,.5,.18,.65,.43,.65,1.13,1.29,2.25,1.94,3.37,.14,.24,.28,.48,.42,.71,.09-.01,.17-.02,.26-.04h0Z"/>
      <path class="cls-1" d="M75.4,107.22v3.97c0,.25,.11,.61-.32,.64-.49,.03-.42-.37-.42-.66v-5.39c0-.23-.08-.52,.26-.61,.33-.09,.5,.11,.65,.37,.64,1.13,1.29,2.25,1.94,3.37,.15,.26,.32,.51,.49,.77,.4-.19,.24-.51,.25-.75,.02-1.08,0-2.17,.01-3.25,0-.24-.04-.51,.34-.52,.3,0,.38,.16,.38,.4v5.85c0,.18-.02,.38-.27,.42-.34,.05-.5-.15-.65-.41-.73-1.29-1.47-2.57-2.21-3.86-.07-.13-.16-.25-.24-.38-.07,.01-.14,.02-.2,.03h-.01Z"/>
      <path class="cls-1" d="M62,107.76c0,.59-.01,1.18,0,1.77,.02,.93,.54,1.54,1.34,1.6,.84,.06,1.5-.48,1.57-1.46,.08-1.11,.04-2.23,.05-3.34,0-.25,0-.5,.01-.74s.08-.41,.37-.42c.3,0,.37,.16,.37,.41,0,1.46,.06,2.92-.04,4.36-.08,1.17-1.09,2-2.19,2.02-1.15,.02-2.11-.77-2.22-2.04-.12-1.41-.06-2.84-.08-4.27,0-.27,.07-.48,.41-.49,.44-.01,.4,.29,.4,.56v2.04h0Z"/>
      <path class="cls-1" d="M98.46,108.52c-.01,2.02,2.08,3.27,3.88,2.31,.16-.09,.3-.22,.47-.3,.24-.12,.41,.03,.56,.2,.24,.28-.05,.37-.2,.49-1.3,1.06-3.3,.95-4.49-.24-1.28-1.27-1.36-3.33-.18-4.72,1.08-1.28,3.08-1.57,4.44-.61,.19,.14,.7,.2,.4,.65-.27,.41-.52,.18-.84,0-1.89-1.09-4.01,.1-4.03,2.22h-.01Z"/>
      <path class="cls-1" d="M4.14,105.09c.5-.02,1.13,.15,1.67,.53,.2,.14,.69,.21,.45,.65-.22,.41-.52,.26-.85,.05-.84-.54-1.71-.66-2.63-.15-1.37,.76-1.83,2.3-1.08,3.65,.72,1.3,2.26,1.71,3.6,.96,.08-.04,.16-.09,.23-.15,.27-.21,.5-.17,.7,.11,.25,.35-.1,.43-.27,.55-1.65,1.27-4.11,.67-5.06-1.24-1.13-2.27,.51-4.96,3.22-4.97h.02Z"/>
      <path class="cls-1" d="M112.21,111.86c-.36,0-.47-.12-.34-.46,.72-1.97,1.42-3.95,2.14-5.92,.16-.42,.47-.45,.63-.02,.74,2,1.45,4.01,2.17,6.01,.05,.15,.1,.31-.13,.36-.3,.06-.55,.04-.67-.31-.17-.5-.39-.98-.53-1.48-.19-.67-.71-.57-1.2-.58-.47-.01-.93-.05-1.1,.57-.13,.47-.36,.92-.51,1.39-.09,.26-.19,.46-.47,.44h0Zm2.11-4.61c-.16,.48-.72,.87-.36,1.38,.09,.13,.69,.11,.76-.01,.3-.52-.18-.91-.41-1.37h.01Z"/>
      <path class="cls-1" d="M126.3,108.91c0-.68-.03-1.37,0-2.05,.04-.67-.1-1.08-.89-.99-.28,.03-.69,.09-.64-.42,.04-.43,.41-.3,.65-.3,.9-.02,1.8,0,2.7,0,.25,0,.52-.02,.51,.36,0,.37-.28,.4-.52,.36-.96-.15-1.04,.39-1.02,1.14,.04,1.39,.01,2.79,.01,4.19,0,.31,.04,.66-.44,.64-.42-.02-.37-.34-.37-.61v-2.33h.01Z"/>
      <path class="cls-1" d="M87.98,108.47v-2.78c0-.31,.04-.55,.44-.54,.37,0,.37,.25,.37,.51v5.64c0,.3-.02,.57-.43,.55-.41-.03-.38-.33-.38-.61v-2.78h0Z"/>
      <path class="cls-1" d="M137.98,108.48v2.78c0,.27,.03,.6-.4,.58-.37-.02-.33-.31-.33-.54v-5.55c0-.26-.06-.6,.39-.57,.43,.03,.33,.38,.34,.63,.01,.89,0,1.79,0,2.68h0Z"/>
    </g>
  </g>
</svg>