<?xml version="1.0" encoding="UTF-8"?>
<svg id="Layer_2" data-name="Layer 2" xmlns="http://www.w3.org/2000/svg" viewBox="0 0 156.88 134.13">
  <defs>
    <style>
      .cls-1 {
        fill: #c95a16;
      }

      .cls-2 {
        fill: #59af31;
      }

      .cls-3 {
        fill: #189cd8;
      }

      .cls-4 {
        fill: #fab813;
      }
    </style>
  </defs>
  <g id="Calque_1" data-name="Calque 1">
    <g>
      <g>
        <g>
          <path class="cls-2" d="M123.49,42.13c-.05,9.91-2.06,23.82-14.17,25.21-12.18-.07-24.4,.3-36.54,.42-6.15,.06-13.11-.47-19.13-.02-6.7,.5-8.1,7.38-6.19,12.82-5.54-6.87-11.7-16.61-5.13-24.97,3.13-3.98,6.83-4.36,11.53-4.64,17.42-1.04,35.6,.8,52.93-.2,6.85-.4,11.79-3.4,16.21-8.35,.12-.14-.01-.41,.48-.27h.01Z"/>
          <path class="cls-1" d="M78.76,99.67c-2.92-.26-5.61-.54-8.44-1.32-8.28-2.28-14.81-7.86-18.89-15.34-4.51-8.27-1.93-12.2,7.28-12.74,2.39-.14,10.04-.14,12.01,.59,2.57,.95,2.48,3.24,2.37,5.6-.35,7.91-2.55,14.39,3.46,20.9,.29,.31,2.53,1.97,2.21,2.31Z"/>
        </g>
        <g>
          <path class="cls-3" d="M38.23,68.17c-4.47-4.37-8.42-10.82-9.21-17.14-1.61-12.79,10.92-21.86,22.55-22.55,16.46-.98,33.96,.99,50.41,0,5.88-.35,12.09-2.47,14.84-8.06,2.04-4.16,1.17-7.68-.04-11.9,7.77,8.08,13.4,20.29,5.45,30.34-5.31,6.71-13.95,9.73-22.35,9.57-15.66,.78-32.37-1.07-47.9-.02-4.76,.32-10.37,2.37-12.99,6.54-2.78,4.43-2.36,8.43-.75,13.21h-.01Z"/>
          <circle class="cls-4" cx="74.92" cy="12.79" r="12.79"/>
        </g>
      </g>
      <path d="M14.92,109.97c.55,.12,2.38-.18,2.7,.03,.29,.18,1.79,5.71,2.02,6.48,.32-.79,1.74-6.3,2.02-6.48,.32-.2,2.15,.09,2.7-.03v9.03h-1.89v-6.3l-2.08,6.18c-.18,.25-1.35,.22-1.6-.08l-1.99-6.09v6.3h-1.89v-9.03h.01Z"/>
      <path d="M136.09,109.97c.63,.1,2.26-.24,2.63,.21,.69,.83,1.3,4.89,1.89,6.1,.33,0,1.75-6.1,2.02-6.28,.31-.2,2.16,.09,2.7-.03v9.03h-1.89v-6.09l-1.99,5.88c-.3,.35-1,.19-1.44,.22l-2.24-6.52v6.51h-1.68v-9.03h0Z"/>
      <path d="M116.88,109.97c2.75,.46,2.97,4.46,.31,5.36l2.31,3.67c-.62-.1-1.81,.2-2.31-.1-.59-.36-1.57-3.2-2.2-3.27-.55-.06-1.22,.08-1.79,.02-.02,.57,.09,3.06-.23,3.34-.17,.15-1.49-.05-1.87,.02v-9.03c1.75,.21,4.1-.28,5.78,0h0Zm-3.68,3.98h3.05c.74,0,.93-1.29,.63-1.89-.39-.78-2.88-.62-3.68-.63v2.52Z"/>
      <path d="M52.61,109.97c2.75,.46,2.97,4.46,.31,5.36l2.31,3.67c-.62-.1-1.81,.2-2.31-.1-.59-.36-1.57-3.19-2.2-3.27-2.9-.35-2,1.25-1.79,3.37h-2.1v-9.03c1.75,.21,4.1-.28,5.78,0h0Zm-3.88,3.99h3.26c.69,0,.91-1.35,.63-1.89-.4-.79-2.88-.62-3.68-.63l-.21,2.52h0Z"/>
      <path d="M98.42,114.47c0,2.63-2.13,4.76-4.76,4.76s-4.76-2.13-4.76-4.76,2.13-4.76,4.76-4.76,4.76,2.13,4.76,4.76Zm-5.44-2.99c-2.48,.51-2.42,5.02-.48,5.85,4.52,1.94,5.25-6.82,.48-5.85Z"/>
      <path d="M155.2,109.97v1.47h-5.25v2.1h4.52c.41,0,.33,1.34,.32,1.68h-4.83v2.31h5.46v1.47h-7.56v-9.03h7.34Z"/>
      <path d="M102.49,109.97v6.2c0,.1,.58,1.02,.76,1.13,1.11,.71,3.23-.02,3.23-1.34v-5.99h2.1v5.57c0,.07-.26,1.22-.31,1.37-.99,2.91-6.23,3.15-7.44,.5-.09-.2-.44-1.33-.44-1.45v-5.99h2.1Z"/>
      <path d="M7.78,112.27c-.48-.2-1.49,.24-1.77,.18-.26-.06-.44-.67-.76-.91-.67-.5-2.54-.48-2.73,.42-.05,.25-.09,.79,.13,.97,1.24,.97,4.77,.44,5.28,2.65,1.04,4.5-6.83,4.87-7.93,1.22,.02-.25,1.68-.58,1.97-.54,.16,.02,.13,.65,.54,.96,.82,.63,3.75,.7,3.57-.83-.2-1.75-5.68-.55-5.68-4s7.2-3.63,7.35-.11h.03Z"/>
      <path d="M133.36,112.27c-.39-.2-1.81,.27-1.89,.21-.04-.03-.06-.57-.27-.79-.99-1.05-3.94-.29-2.9,1.12,.91,1.23,5.7,.31,5.47,3.74-.25,3.59-7.75,3.65-7.97-.08,.53,.2,1.39-.28,1.75-.23,.13,.02,.53,.96,.98,1.16,1.04,.46,3.85,.29,3.04-1.36-.68-1.38-6-.27-5.34-4.29,.44-2.71,7.29-2.86,7.13,.51h0Z"/>
      <path d="M113.2,126.98l2.07,.03,2.87,5.01c.52-.7,2.44-4.74,2.88-5,.22-.13,1.63-.1,1.86,.05,.27,.18-.3,5.61,.18,6.49-.17,.55-1.21,.31-1.66,.34v-4.41c-1.04,.74-1.84,3.56-2.63,4.2-.34,.28-1.05,.38-1.38,.08l-2.5-4.27v4.41h-1.68v-6.93h0Z"/>
      <path d="M45.79,126.98c.5,.05,1.1-.09,1.57,0,.83,.16,2.44,3.65,3,4.56,.08,.13-.02,.39,.36,.27,.26-.08,2.32-4.07,2.73-4.62,.47-.42,1.39-.14,2-.21v6.93h-1.47v-4.41c-1.04,.76-1.85,3.51-2.62,4.2-.37,.33-1.1,.34-1.48,0l-2.41-4.2v4.41h-1.68v-6.93Z"/>
      <path d="M36.73,109.99c.4,.26,2.73,7.92,3.18,9-2.75,.4-1.76-.66-2.55-1.96-.44-.72-2.55-.18-3.41-.36-.21,.06-.58,2.16-.79,2.29-.29,.18-1.61-.07-2.07,.03l3.17-9.01c.09-.08,2.37-.06,2.47,0h0Zm.03,5.23l-1.15-3.36-1.16,3.36h2.31Z"/>
      <path d="M8.62,133.91v-6.93h5.15c.1,0,.95,.43,1.14,.54,2.24,1.33,1.96,5.03-.47,6.02-.16,.07-1.24,.37-1.31,.37h-4.51Zm1.68-5.46v3.78h3.26c.37,0,.87-.81,.93-1.17,.51-2.99-2.04-2.67-4.19-2.61h0Z"/>
      <path d="M79.34,126.83c2.61-.31,4.93,.6,5.02,3.5,.15,4.99-7.68,4.66-8.28,1.12-.44-2.57,.63-4.31,3.26-4.61h0Zm.21,1.44c-2.32,.32-2.17,3.72-.43,4.11,1.44,.32,3.18,.17,3.41-1.55,.27-2.01-1.16-2.82-2.98-2.56Z"/>
      <path d="M22.79,126.98c2.28,.38,2.85,3.27,.52,4.1l2.1,2.83c-.66-.08-1.66,.21-2.22-.19-.5-.37-1.35-2.28-1.87-2.34-.49-.06-1.08,.07-1.58,.02v2.52h-1.68l-.14-6.52c-.04-.15,.17-.42,.25-.42,1.3,0,3.45-.19,4.62,0Zm-.16,1.52c-.47-.41-2.23-.21-2.89-.26v1.89c.83-.13,3.03,.46,3.15-.74,.02-.22-.1-.74-.27-.89h.01Z"/>
      <polygon points="63.85 126.98 63.85 128.45 59.23 128.45 59.23 129.71 63.22 129.71 63.22 130.97 59.23 130.97 59.23 132.44 64.06 132.44 64.06 133.91 57.55 133.91 57.55 126.98 63.85 126.98"/>
      <path d="M87.58,126.98v4.52c0,1.39,3.99,1.3,3.99,0v-4.52h1.89v4.73c0,.08-.65,1.25-.78,1.37-1.49,1.46-5.24,1.34-6.45-.44-.11-.16-.53-1.06-.53-1.15v-4.52h1.88Z"/>
      <path d="M42.32,126.98c1.66,.27,2.82,2.38,1.67,3.77-1.29,1.56-4.54,.88-4.72,1.06-.08,.08,.06,1.75,0,2.1-.35,0-1.89,.12-1.89-.32v-6.62c1.5,.18,3.5-.24,4.94,0h0Zm-3.04,3.37c4.75,.68,4.35-2.52,0-2.1v2.1Z"/>
      <path d="M153.28,127.01l3.6,6.89c-.56-.07-1.39,.16-1.89-.11-.41-.23-.58-1.26-.66-1.33-.15-.13-3.75-.09-4.03,0-.55,.19-.44,1.13-.76,1.34-.39,.26-1.4,.02-1.9,.1l3.46-6.72c.45-.4,1.56-.19,2.17-.17h.01Zm-.81,1.44c-.31-.31-.37,.1-.47,.27-.18,.29-1.13,2.33-1,2.46h2.52c-.25-.38-.95-2.62-1.05-2.73h0Z"/>
      <path d="M133.15,133.91c-2.41,.42-1.68-.51-2.41-1.27-.27-.28-3.26-.3-3.78-.2-1.13,.22-.37,1.79-2.53,1.47-.29-.04-.36,.12-.31-.32l3.39-6.58c.1-.09,2.1-.2,2.26,.31,.3,.77,3.65,6.33,3.38,6.59h0Zm-3.36-2.74c.25-.25-.99-2.29-1.15-2.73l-1.37,2.73h2.52Z"/>
      <path d="M107.92,127.21c.15,.24,.09,1.32-.3,1.42-.46,.11-3.59-1.05-3.87,.13-.28,1.2,4.62,.28,4.63,2.94,0,2.85-5.71,2.76-6.43,1.58-.06-.09,.08-1.22,.12-1.26,.18-.18,2.63,1.08,4.05,.37,2-1-2.13-1.4-2.69-1.62-2.9-1.12-1.12-3.88,1.68-4.01,.43-.02,2.66,.21,2.81,.46h0Z"/>
      <path d="M6.94,127.19c.11,.13-.31,1.15-.21,1.47-.69-.28-4.25-.82-4.19,.32,.05,.96,4.84,0,4.62,2.94-.11,1.47-2.03,2.18-3.28,2.21-.38,0-2.92-.52-3.01-.66-.16-.24-.09-1.31,.31-1.43,.6-.18,2.18,1.04,3.6,.46,2.43-1-1.9-1.46-2.43-1.67-2.92-1.15-1.25-3.9,1.54-4.05,.42-.02,2.92,.29,3.04,.42h0Z"/>
      <path d="M146.98,127.21c.15,.25-.04,1.08,.03,1.44-.73-.19-3.97-.83-4.2,.11-.26,1.07,4.15,.55,4.56,2.36,.48,2.11-1.71,2.95-3.43,2.97-.39,0-2.65-.43-2.78-.64-.16-.25,.04-1.07-.03-1.44,1.33,.16,2.72,1.03,4.05,.37,.67-.33,.85-.69,.05-1-1.34-.52-4.21-.19-4.11-2.41,.13-2.82,5.5-2.35,5.87-1.76h0Z"/>
      <path d="M139.85,127.21c.2,.29-.14,1.09-.19,1.45-.84-.22-3.79-1-3.99,.31-.07,.46,.16,.28,.46,.37,1.06,.32,2.75,.3,3.54,1.09,1.7,1.67-.69,3.62-2.45,3.67-.38,.01-3.33-.48-3.45-.61s.31-1.15,.21-1.47c1.56,.25,3.3,1.34,4.61-.1-1.28-1.36-4.7-.38-4.63-2.94,.07-2.78,5.41-2.43,5.87-1.76h.02Z"/>
      <path d="M100.81,127.19c.06,.07-.15,1.41-.21,1.46-.16,.15-3.61-1.23-4.19,.31,1.15,.98,4.36,.41,4.63,2.3,.4,2.91-3.59,3.15-5.57,2.42-1.07-.39-.56-.75-.53-1.68,.92,.03,1.69,.63,2.62,.65,.69,.01,2.69-.49,1.43-1.24-.56-.33-1.99-.32-2.85-.72-2.64-1.2-1.06-3.74,1.43-3.94,.46-.04,3.09,.25,3.25,.42v.02h0Z"/>
      <polygon points="69.1 109.97 69.1 111.44 66.16 111.44 66.16 119 64.06 119 64.06 111.44 61.12 111.44 61.12 109.97 69.1 109.97"/>
      <path d="M74.76,127.19c.06,.07-.15,1.41-.21,1.46-.16,.15-3.65-1.19-4.19,.31,0,.8,4.15,.31,4.57,2.14,.64,2.78-2.73,3.01-4.66,2.77-1.39-.17-1.99-.43-1.38-1.87,.91,.1,1.66,.63,2.62,.64,.64,0,2.51-.38,1.57-1.17-.39-.33-2.33-.44-3.15-.84-2.68-1.33-.73-3.7,1.58-3.88,.46-.04,3.09,.25,3.25,.42v.02h0Z"/>
      <polygon points="87.37 109.97 87.37 111.44 84.43 111.44 84.43 119 82.54 119 82.54 111.44 79.6 111.44 79.6 109.97 87.37 109.97"/>
      <polygon points="36.34 126.98 36.34 128.45 33.61 128.45 33.61 133.91 31.93 133.91 31.93 128.45 29.2 128.45 29.2 126.98 36.34 126.98"/>
      <path d="M123.49,109.97v8.3c0,.11,.33,.44,.21,.73h-2.1v-9.03h1.89Z"/>
      <path d="M28.99,116.89v2.1h-2.1c-.17-2.11,0-2.27,2.1-2.1Z"/>
      <path d="M12.4,119h-2.1v-2.1c2.11-.17,2.28,0,2.1,2.1Z"/>
      <rect x="57.34" y="116.89" width="1.9" height="2.11"/>
      <rect x="70.99" y="116.89" width="1.9" height="2.11"/>
      <rect x="42.21" y="116.89" width="1.9" height="2.11"/>
    </g>
  </g>
</svg>