<?xml version="1.0" encoding="UTF-8"?>
<svg id="Layer_2" data-name="Layer 2" xmlns="http://www.w3.org/2000/svg" viewBox="0 0 140.7 136.31">
  <defs>
    <style>
      .cls-1 {
        fill: #432e17;
      }
    </style>
  </defs>
  <g id="Calque_1" data-name="Calque 1">
    <g>
      <path class="cls-1" d="M123.27,23.47c-.36-.29-.71-.59-1.09-.85-.32-.23-.67-.41-1.17-.44,2.24,1.79,3.16,4.53,5.09,6.57v-.71c.1,.08,.23,.15,.31,.25,1.09,1.62,2.24,3.21,3.25,4.88,1.9,3.16,3.75,6.35,5.55,9.57,.41,.73,.53,1.62,.6,2.53-.66-.91-1.33-1.83-1.99-2.74-.11,.06-.23,.11-.34,.17,2.25,5.87,4.09,11.84,4.71,18.14,.18-.02,.35-.03,.53-.05,.07-2.18-1.01-4.47,.4-6.52,.89,2.94,1.67,5.94,1.58,9.1-.67-.72-.86-1.54-.59-2.45,.41-1.41-.43-2.51-.72-3.74-.12,.01-.23,.02-.35,.04,.02,.33,.02,.66,.05,.99,.16,1.84,.46,3.68,.44,5.51,0,1.2-.52,2.39-.71,3.6-.15,.96-.15,1.94-.22,2.91,.12,.02,.24,.04,.36,.06,.21-.29,.43-.58,.6-.83,1.13,2.11,.17,4.15-.03,6.25-.4,4.19-1.77,8.14-2.8,12.17-.63,2.43-1.75,4.77-2.9,7.02-1.94,3.77-3.96,7.5-6.17,11.11-2.43,3.97-5.48,7.49-8.73,10.83-1.19,1.22-2.26,2.56-3.51,3.71-1,.92-2.21,1.62-3.31,2.43-4.59,3.36-9.37,6.43-14.59,8.69-3.79,1.65-7.76,2.85-11.86,3.5-5.16,.82-10.37,1.28-15.6,1.1-2.64-.1-5.28-.42-7.9-.82-1.04-.16-1.97-.89-3-1.22-1.09-.35-2.26-.49-3.36-.82-3.08-.91-6.15-1.88-9.23-2.8-4.16-1.24-7.64-3.74-11.19-6.09-.74-.49-1.26-1.31-1.99-1.82-1.75-1.23-3.72-2.19-5.31-3.58-3.3-2.9-6.34-6.07-8.72-9.81-1.84-2.89-3.74-5.75-5.51-8.69-1.13-1.88-2.24-3.8-3.04-5.83-1.05-2.69-1.83-5.49-2.64-8.27-.17-.57,.1-1.24,.06-1.86-.05-.83-.13-1.66-.32-2.47-.08-.34-.47-.59-.69-.91-.17-.24-.37-.51-.42-.79-.98-5.73-1.84-11.47-1.12-17.31,.43-3.45,.76-6.93,1.5-10.32,.7-3.24,1.85-6.39,2.86-9.56,.29-.91,.88-1.71,1.16-2.62,.75-2.43-.59-4.14-3.15-4.19-1.12-.02-2.26-.02-3.35-.25-3.87-.83-5.97-5.23-3.86-9.22,2.29-4.33,7.25-5.77,11.52-3.36,1.93,1.09,3.54,2.51,4.74,4.39,.56,.88,.85,.93,1.54,.1,1.15-1.4,2.18-2.9,3.36-4.28,1.72-2.01,3.35-4.14,5.33-5.87,2.55-2.22,5.37-4.14,8.13-6.11,1.94-1.38,3.97-2.63,5.96-3.93,.11,.11,.22,.23,.32,.34-.49,.56-.99,1.13-1.48,1.69,.02,.05,.05,.11,.07,.16,.23-.08,.47-.14,.69-.24,1.4-.67,2.8-1.33,4.17-2.04,.54-.28,1.01-.7,1.41-.99,.53-.08,1.06-.06,1.49-.25,1.71-.78,3.39-1.63,5.09-2.45-.02-.11-.05-.22-.07-.33-.28-.08-.56-.16-.84-.24,.01-.04,.01-.13,.05-.14,1.41-.51,2.81-1.1,4.25-1.47,.82-.21,1.75,.02,2.61-.09,1-.13,1.99-.38,2.96-.66C65.7,.24,69.33-.05,73.01,.02c.07,0,.18-.04,.21,0,1.08,1.16,2.26,.34,3.43,.24,.78-.07,1.58,.16,2.37,.26,.46,.06,.94,.22,1.39,.17,2.95-.35,5.67,.61,8.43,1.39,1.8,.51,3.64,.85,5.46,1.27,1.98,.46,3.8,1.23,5.47,2.47,.95,.71,2.18,1.26,3.34,1.42,1.29,.17,2.17,.85,3.13,1.53,.38,.27,.75,.6,1.18,.74,3.11,1.03,5.6,3.01,8.02,5.09,.18,.15,.18,.51,.29,.76,.12,.27,.22,.59,.43,.79,1.01,.94,2.11,1.79,3.07,2.77,.87,.89,1.57,1.93,2.38,2.88,.51,.59,1.08,1.13,1.62,1.69l.02-.02h.02ZM40.52,44.58c.28,.38,.37,.54,.48,.66,1.24,1.36,2.92,1.33,4.54,1.32,.97,0,1.32,.22,1.31,1.27-.06,3.96-.12,7.92,.03,11.87,.05,1.23,.5,2.62,1.22,3.62,2.16,3.04,5.9,3.95,9.41,2.55,1.6-.64,2.98-2.94,2.74-4.56-.32-2.16-1.76-3.46-3.97-3.6-1.59-.1-1.96-.45-1.97-2.06-.02-4.98-.05-9.95,0-14.93,.01-.94-.28-1.52-1.08-1.91-1.66-.81-3.34-1.58-4.96-2.46-1-.54-2.12-1.09-2.83-1.93-2.13-2.53-2.55-5.65-2.58-8.86,.5,.88,.86,1.8,1.26,2.71,1.15,2.6,2.75,4.85,5.09,6.53,.66,.48,1.07,.4,1.2-.44,.13-.82,.28-1.63,.33-2.45,.25-5.04-2.86-10.09-7.41-12.24-.94-.44-1.42-.27-1.92,.59-1.34,2.28-2.71,4.55-4.15,6.77-.37,.56-1.05,.92-1.6,1.35-.89,.7-2.11,1.22-2.62,2.13-1,1.77-1.75,3.72-2.33,5.68-1.81,6.04-3.49,12.12-5.23,18.18-.09,.3-.23,.59-.35,.89-1.04-2.83-1.81-5.62-2.63-8.39-1.36-4.62-2.7-9.25-4.14-13.85-1.01-3.21-2.65-6.05-5.55-7.97-3.67-2.42-8.21-2.03-10.63,1.51-2.04,3-1.61,7.24,2.17,8.63,1.14,.42,2.49,.33,3.75,.37,2.08,.07,3.32,.9,4.03,2.85,.22,.61,.37,1.25,.57,1.87,1.33,4.22,2.66,8.43,3.99,12.65,1.19,3.8,2.37,7.61,3.55,11.42,.41,1.32,1.24,2.1,2.67,2.13,1.16,.03,2.32,.11,3.48,.08,1.96-.05,2.67-.67,3.25-2.56,1.2-3.91,2.38-7.83,3.67-11.72,1.33-4.02,2.77-8,4.17-12,.57-1.63,1.16-3.24,1.79-5.03,1.68,1.53,3.48,2.33,5.76,2.08-.5,1.41-.94,2.67-1.37,3.92-.53,1.52-.98,3.11-3.16,3.35l.02-.02h0Zm2.4,45.33c.12-.04,.25-.08,.37-.12,.24,.49,.51,.98,.73,1.48,.84,1.93,1.57,3.91,2.53,5.78,.74,1.45,2.11,2.16,3.76,2.18,2.26,.03,4.15-1.43,5.04-3.79,.7-1.84,1.46-3.65,2.19-5.48,.09,0,.19,.01,.28,.02,.56,1.78,1.2,3.54,1.67,5.33,.82,3.07,2.65,4.39,5.54,3.86,2.54-.47,4.14-2.95,3.72-5.78-.15-1.04-.3-2.08-.49-3.12-.57-3.2-1.14-6.41-1.74-9.6-.54-2.89-1.06-5.78-1.7-8.65-.5-2.25-1.92-3.52-3.87-3.73-2.24-.24-4.04,.75-5.04,2.81-1.27,2.6-2.51,5.22-3.77,7.83-.49,1.02-1.03,2.01-1.6,3.13-.22-.28-.34-.38-.39-.5-1.3-2.79-2.62-5.58-3.89-8.38-.8-1.76-1.49-3.65-3.42-4.45-2.55-1.06-5.97-.65-6.8,3.78-1.28,6.88-2.46,13.78-3.66,20.67-.29,1.69,.04,3.26,1.23,4.56,1.3,1.42,2.98,1.88,4.77,1.4,1.74-.46,2.78-1.79,3.2-3.54,.46-1.89,.89-3.79,1.33-5.69h0Zm54.09-27.66c.44,.71,.75,1.23,1.08,1.73,1.42,2.09,3.41,2.24,5.22,.48,1.75-1.7,1.8-3.7,1.4-5.94-1.01-5.68-1.06-11.33,1-16.85,.1-.27,.16-.56,.17-.84,.1-1.68-1.01-3.16-3.1-3.64-1.41-.32-2.94-.34-4.4-.21-2.05,.18-3.86,.06-4.98-1.96-.06-.1-.24-.13-.51-.26-.19,.51-.46,.96-.51,1.43-.09,.85-.53,1.07-1.3,1.07-1.2,0-2.4,.04-3.59,.17-4,.44-7.23,2.16-9.43,5.66-1.23,1.94-1.95,4.04-2.28,6.28-.6,4.15,.03,8.14,2.27,11.71,2.29,3.67,5.9,5.07,10.08,5.25,2.71,.12,5.19-.51,7.27-2.32,.56-.49,1.02-1.1,1.61-1.76h0Zm-.96,29.25c.31,.36,.54,.63,.77,.91,1.5,1.82,2.94,3.69,4.51,5.45,1.45,1.62,3.84,1.81,5.66,.61,1.84-1.21,2.73-3.73,1.92-5.62-.34-.79-.79-1.55-1.3-2.25-1.53-2.11-3.08-4.22-4.69-6.27-.59-.75-.65-1.27-.04-2.07,1.69-2.26,3.3-4.59,4.88-6.93,.72-1.06,1.23-2.22,.78-3.59-1.06-3.22-4.46-4.42-7.24-2.51-.65,.45-1.22,1.03-1.74,1.63-1.19,1.35-2.32,2.74-3.56,4.21-.86-1.09-1.59-2.13-2.42-3.06-.98-1.11-1.94-2.29-3.12-3.15-1.61-1.17-4.11-.71-5.59,.77-1.68,1.68-1.98,3.87-.63,5.84,1.41,2.06,2.95,4.04,4.46,6.04,1.18,1.55,1.16,1.94-.04,3.51-1.8,2.36-3.64,4.71-5.29,7.18-1.35,2.01-.59,4.59,1.59,6.19,1.9,1.39,4.23,1.11,5.84-.74,1.73-1.99,3.44-4.01,5.26-6.14h-.01Zm-26.51-55.76c-.02-.35-.06-.69-.06-1.04,0-2.21-.1-4.43,.01-6.64,.12-2.39-1.97-3.77-3.65-3.77-.65,0-1.31,.02-1.96,.07-1.36,.11-1.88,.64-1.91,1.99-.03,1.42,.1,2.85-.11,4.24-.14,.95-.52,2.03-1.15,2.69-1.12,1.16-1.22,1.02,.34,1.78,.38,.19,.81,.67,.87,1.07,.19,1.33-.1,1.57-1.47,1.53-1.76-.05-2.02,.19-2.1,1.93-.02,.44-.03,.87-.03,1.31,0,1.26,.62,1.9,1.87,1.91,1.84,.02,1.82,.06,1.85,1.89,.08,4.79,.06,9.58,.37,14.36,.23,3.63,2.37,6.55,6.3,7.13,2.13,.31,4.26,.24,5.87-1.47,1.39-1.48,1.4-3.27,.79-5.1-.57-1.72-2.05-1.99-3.58-2.11-.25-.02-.51-.02-.76-.02-.99,0-1.44-.48-1.45-1.48-.02-3.7-.04-7.41-.1-11.11-.01-.78,.31-1.12,1.04-1.24,.97-.15,1.93-.33,2.89-.52,3.19-.63,4.66-2.06,3.79-5.7-.37-1.55-1.28-2.49-2.88-2.44-1.53,.05-3.05,.46-4.78,.74h0ZM13.65,45.7c-.13-.01-.27-.02-.4-.03-.15,.31-.34,.6-.45,.92-.49,1.44-.99,2.88-1.42,4.34-1.09,3.78-1.59,7.64-1.92,11.56-.7,8.35,0,16.53,2.5,24.52,1.51,4.81,3.52,9.41,6.05,13.8,3.81,6.6,8.43,12.47,14.32,17.36,4.06,3.37,8.46,6.13,13.34,8.09,3.56,1.43,7.2,2.64,10.82,3.92,3.87,1.36,7.88,1.96,11.97,1.98,1.78,0,3.56-.11,5.33-.06,3.89,.11,7.75,.19,11.61-.5,4.39-.79,8.65-2.02,12.59-4.05,7.71-3.98,14.84-8.78,20.72-15.29,3.2-3.54,6.16-7.26,8.59-11.35,1.95-3.29,3.56-6.79,5.27-10.22,1.55-3.11,2.64-6.35,2.64-9.88,0-1.4,.07-2.81,.25-4.2,.23-1.77,.58-3.53,.92-5.29,.05-.24,.29-.48,.49-.66,.71-.62,.66-1.94-.18-2.35-.24-.12-.9,.06-.94,.21-.37,1.35-.7,2.73-.92,4.11-.23,1.45-.22,2.93-.47,4.37-.48,2.85-.96,5.71-1.64,8.52-.5,2.06-.85,4.19-2.09,6.01-.59,.87-1.1,1.79-1.55,2.73-.62,1.29-1.13,2.64-1.74,3.95-.4,.85-.79,1.73-1.34,2.47-1.88,2.53-3.89,4.96-5.74,7.51-2.25,3.1-4.88,5.81-7.87,8.17-.71,.56-1.38,1.19-2.14,1.68-2.95,1.9-5.49,4.36-8.92,5.63-3.81,1.41-7.32,3.53-11.31,4.67-4.34,1.24-8.63,2.51-13.16,2.55-2.75,.02-5.5-.24-8.24-.42-1.69-.11-3.34-.55-5.07-.08-.78,.21-1.76,.06-2.56-.2-3.12-1.04-6.21-2.18-9.3-3.3-6.36-2.29-12.26-5.44-17.62-9.56-7.8-5.99-13.71-13.48-17.62-22.52-1.03-2.38-1.98-4.8-2.86-7.24-1.75-4.81-2.51-9.8-2.88-14.9-.31-4.21-.53-8.39,.1-12.59,.28-1.83,.36-3.7,.77-5.49,.6-2.64,1.43-5.23,2.13-7.85,.08-.32-.04-.69-.07-1.04h0Zm67.18,37.9h-.03c0-3.63,.04-7.26-.02-10.88-.03-2.18-1.89-4.15-3.97-4.4-3.23-.39-5.5,1.58-5.55,4.87-.05,3.52-.09,7.04-.07,10.56,.03,3.84,.07,7.69,.23,11.53,.08,1.96,1.38,3.21,3.15,3.76,1.72,.54,3.38,.1,4.74-1.14,1.3-1.18,1.49-2.76,1.5-4.38v-9.91h.02Zm39.58-26.44c-.11,.31-.17,.39-.15,.44,1,2.91,.11,5.25-1.97,7.41-1.42,1.47-2.7,3.13-3.75,4.89-1.31,2.2-1.69,4.58,.06,6.82,1.82,2.33,4.2,3.49,7.16,2.81,4.55-1.04,7.74-5.96,7.08-10.6-.7-4.92-3.37-8.54-7.36-11.3-.3-.21-.68-.31-1.07-.48h0ZM19.91,34.22c2.45-3.03,4.71-6.1,7.26-8.89,1.97-2.15,4.21-4.09,6.5-5.9,2.47-1.95,5.17-3.6,7.71-5.48,1.99-1.47,3.99-2.83,6.4-3.56,1.52-.46,2.99-1.11,4.49-1.63,1.4-.48,2.81-.98,4.25-1.3,2-.45,4.04-.76,6.07-1.1,1.64-.28,3.29-.74,4.94-.76,3.69-.04,7.38,.07,11.07,.27,4.86,.27,9.55,1.34,14.18,2.91,6.13,2.08,11.76,5.05,17.17,8.55,4.19,2.71,7.6,6.24,11.01,9.79,.59,.62,1.31,1.14,1.82,1.81,1.62,2.14,3.28,4.26,4.72,6.52,2.51,3.94,4.65,8.08,6.08,12.56,.53,1.66,1.13,3.29,1.63,4.95,.36,1.18,.6,2.4,.9,3.6,.13,0,.26-.02,.39-.02,.04-.27,.18-.56,.12-.79-.81-2.84-1.58-5.7-2.52-8.5-.65-1.94-1.52-3.82-2.37-5.69-.69-1.52-1.42-3.03-2.28-4.46-4.23-7.05-9.16-13.48-15.89-18.39-3.25-2.37-6.24-5.14-9.89-6.89-2.83-1.36-5.77-2.52-8.74-3.56-3.31-1.15-6.66-2.27-10.08-3.02-5.63-1.23-11.35-1.39-17.11-.93-6.78,.54-13.33,1.95-19.64,4.46-6.3,2.5-12.04,5.93-16.99,10.55-2.51,2.34-4.8,4.94-7.06,7.53-1.55,1.77-2.88,3.73-4.3,5.6-.5,.66-.45,1.25,.17,1.76h-.01Zm95.72,29.63c.16-.13,.31-.2,.36-.31,.85-1.9,1.49-3.86,1.47-5.97-.02-3.31-1.57-5.55-4.58-6.67-2.19-.82-4.05-.29-5.61,1.59-1,1.2-1.09,2.97-.21,4.48,.8,1.36,2.1,2.02,3.51,2.6,1.22,.5,2.47,1.05,3.5,1.85,.68,.53,1,1.53,1.55,2.43h.01Zm11.59,19.47c0-.4,.04-.8-.01-1.19-.04-.29-.2-.56-.31-.85-.25,.12-.55,.19-.73,.37-.89,.95-2,1.16-3.25,1.17-1.47,.01-2.96,.09-4.42,.27-1.58,.2-2.5,1.27-2.87,2.74-.42,1.67-.05,3.19,1.37,4.28,1.46,1.12,3.11,1.54,4.91,1.01,3.36-.99,5.32-3.88,5.3-7.81h.01Zm-21.28,18.69c.26,.21,.38,.33,.53,.42,4.07,2.25,9.45-1.57,9.67-5.35,.11-1.87-.37-2.71-1.75-3.16-2.24-.73-3.21,.58-3.63,2.41-.53,2.31-1.77,4-3.93,5.01-.3,.14-.54,.4-.89,.66h0ZM55.33,34.98c.09,.11,.18,.22,.27,.33-.45,.65-.94,1.27-1.34,1.96-.14,.25-.19,.72-.04,.93,.52,.73,1.66,.95,2.45,.52,1.13-.61,1.59-1.59,1.59-2.87,0-2-1.16-3.37-2.44-4.67-.19-.2-.69-.26-.97-.16-1.4,.46-3.47,3.26-3.4,4.75,.02,.46,.53,.95,.93,1.28,.11,.09,.68-.31,.99-.54,.67-.49,1.3-1.02,1.95-1.53h0ZM102.79,9.77c2.38,1.16,4.38,3,7.14,4-.78-1.77-5.24-4.28-7.14-4Zm-1.07-.38c-.45-1.39-5.05-3.23-6.08-2.55,2.01,.85,3.97,1.67,6.08,2.55Zm35.16,53.56c.12-.02,.23-.04,.35-.06,.46-1.02,.06-2.91-.81-3.56,.16,1.25,.31,2.44,.46,3.62Z"/>
      <path class="cls-1" d="M123.24,23.5c1.08,.6,2.19,1.12,2.52,2.55,.13,.57,.74,1.02,1.14,1.52-.08,.07-.17,.14-.25,.2l-3.39-4.29-.02,.02h0Z"/>
      <path class="cls-1" d="M95.54,51.19c-.12,2.81-.59,5.29-2.78,7.1-2.33,1.93-6.11,1.48-7.92-.96-2.09-2.81-2.14-7.97-.11-10.79,1.55-2.16,3.54-2.85,6.31-2.19,2.15,.51,3.9,2.46,4.25,4.74,.11,.75,.18,1.51,.25,2.09h0Z"/>
    </g>
  </g>
</svg>