<?xml version="1.0" encoding="UTF-8"?>
<svg id="Layer_2" data-name="Layer 2" xmlns="http://www.w3.org/2000/svg" viewBox="0 0 110.04 141.47">
  <defs>
    <style>
      .cls-1 {
        fill: #c2c2c3;
      }

      .cls-2 {
        fill: #597ab7;
      }

      .cls-3 {
        fill: #004f98;
      }

      .cls-4 {
        fill: #58ab32;
      }

      .cls-5 {
        fill: #fff;
        stroke: #004f98;
        stroke-miterlimit: 10;
        stroke-width: .44px;
      }
    </style>
  </defs>
  <g id="Calque_1" data-name="Calque 1">
    <g>
      <path class="cls-5" d="M1.91,141.25H87.22c12.48,0,22.6-10.12,22.6-22.6V1.91c0-.93-.75-1.69-1.69-1.69H22.82C10.34,.22,.22,10.34,.22,22.82v116.74c0,.93,.75,1.69,1.69,1.69h0Z"/>
      <path class="cls-3" d="M21.29,124.88c-.44,.31-1.07,.53-1.63,.53-3.01,0-3.46-3.93-3.46-6.13,0-2.08,.07-7.05,3.58-7.05,.48,0,1.12,.12,1.52,.41v1.31c-.48-.32-.9-.56-1.5-.56-2.08,0-2.37,3.01-2.37,5.4,0,1.5,0,5.46,2.28,5.46,.58,0,1.12-.26,1.58-.58v1.21h0Z"/>
      <path class="cls-3" d="M23.68,117.2c.44-.51,1.04-.83,1.72-.83,1.6,0,1.69,1.4,1.69,2.62v6.25h-1.11v-6.06c0-1.36-.15-1.91-.99-1.91-1.26,0-1.31,1.38-1.31,2.3v5.67h-1.11v-13.62h1.11v5.59h0Z"/>
      <path class="cls-3" d="M33.02,125.23h-1.11v-.68h-.03c-.32,.49-.82,.82-1.45,.82-1.4,0-2.08-.78-2.08-4.6,0-1.96,.07-4.41,2.18-4.41,.61,0,1.01,.26,1.34,.73h.03v-.6h1.11v8.73h0Zm-2.23-7.96c-1.22,0-1.29,1.94-1.29,3.42,0,3.61,.6,3.78,1.24,3.78,1.07,0,1.28-1,1.28-3.75,0-1.89-.13-3.45-1.22-3.45h-.01Z"/>
      <path class="cls-3" d="M38.97,125.23h-1.11v-.68h-.03c-.32,.49-.82,.82-1.45,.82-1.4,0-2.08-.78-2.08-4.6,0-1.96,.07-4.41,2.18-4.41,.61,0,1.01,.26,1.34,.73h.03v-.6h1.11v8.73h0Zm-2.23-7.96c-1.22,0-1.29,1.94-1.29,3.42,0,3.61,.6,3.78,1.24,3.78,1.07,0,1.28-1,1.28-3.75,0-1.89-.14-3.45-1.22-3.45h-.01Z"/>
      <path class="cls-3" d="M40.5,111.61h1.11v5.48h.03c.32-.49,.73-.73,1.36-.73,2.03,0,2.16,2.43,2.16,4.41,0,2.21-.17,4.6-2.08,4.6-.63,0-1.12-.32-1.45-.82h-.03v.68h-1.11v-13.62h0Zm3.52,9.08c0-1.99-.19-3.42-1.29-3.42-1.34,0-1.22,2.57-1.22,3.35,0,1.07-.14,3.85,1.28,3.85,.9,0,1.24-.78,1.24-3.78h-.01Z"/>
      <path class="cls-3" d="M47,114.74c-.46,0-.83-.38-.83-.83s.38-.82,.83-.82,.82,.38,.82,.82-.38,.83-.82,.83Zm.55,10.49h-1.11v-8.73h1.11v8.73Z"/>
      <path class="cls-3" d="M53.73,125.23h-1.11v-13.62h1.11v13.62Z"/>
      <path class="cls-3" d="M55.82,114.74c-.46,0-.83-.38-.83-.83s.38-.82,.83-.82,.82,.38,.82,.82-.38,.83-.82,.83Zm.55,10.49h-1.11v-8.73h1.11v8.73Z"/>
      <path class="cls-3" d="M59.01,125.23h-1.11v-13.62h1.11v13.62Z"/>
      <path class="cls-3" d="M64.64,114.74c-.46,0-.83-.38-.83-.83s.38-.82,.83-.82,.82,.38,.82,.82-.38,.83-.82,.83Zm.55,10.49h-1.11v-8.73h1.11v8.73Z"/>
      <path class="cls-3" d="M70.06,118.28h-.03c-.32-.46-.83-.89-1.45-.89-.66,0-1.09,.51-1.09,1.16,0,.83,.72,1.34,1.41,1.92,.71,.6,1.41,1.24,1.41,2.38,0,1.4-.94,2.5-2.38,2.5-.54,0-1.16-.26-1.58-.6v-1.29c.42,.44,.89,.85,1.55,.85,.77,0,1.28-.6,1.28-1.33,0-.87-.7-1.45-1.41-2.08-.7-.61-1.41-1.29-1.41-2.33,0-1.31,.87-2.23,2.18-2.23,.56,0,1.09,.22,1.53,.56v1.37h-.01Z"/>
      <path class="cls-3" d="M72.56,120.04h.03l2.13-3.54h1.26l-2.61,3.92,3.29,4.82h-1.38l-2.69-4.19h-.03v4.19h-1.11v-13.62h1.11v8.43h0Z"/>
      <path class="cls-3" d="M81.84,125.23h-1.11v-.68h-.03c-.32,.49-.82,.82-1.45,.82-1.4,0-2.08-.78-2.08-4.6,0-1.96,.07-4.41,2.18-4.41,.61,0,1,.26,1.34,.73h.03v-.6h1.11v8.73h0Zm-2.23-7.96c-1.22,0-1.29,1.94-1.29,3.42,0,3.61,.6,3.78,1.24,3.78,1.07,0,1.28-1,1.28-3.75,0-1.89-.14-3.45-1.22-3.45h-.01Z"/>
      <path class="cls-3" d="M84.48,117.2c.44-.51,1.04-.83,1.72-.83,1.55,0,1.69,1.43,1.69,2.62v6.25h-1.11v-6.13c0-1.04-.07-1.84-.99-1.84-1.26,0-1.31,1.38-1.31,2.3v5.67h-1.11v-8.73h1.11v.7h0Z"/>
      <path class="cls-3" d="M90.31,121.1v.26c0,.87,.15,2.98,1.36,2.98,.97,0,1.11-1.36,1.11-2.06h1.14c-.02,1.33-.53,3.1-2.14,3.1-2.3,0-2.61-2.72-2.61-4.48,0-1.57,.34-4.53,2.45-4.53s2.37,2.67,2.37,4.21v.53h-3.68Zm2.55-.95l-.02-.15c-.03-.83-.07-2.61-1.22-2.61-1.06,0-1.29,1.98-1.29,2.76h2.53Z"/>
      <polygon class="cls-3" points="94.49 34.18 94.49 107.76 57.71 107.76 57.71 75.57 36.25 75.57 36.25 34.18 94.49 34.18"/>
      <rect class="cls-3" x="15.83" y="79.73" width="28.03" height="28.03"/>
      <polygon class="cls-1" points="43.86 107.76 56.56 97.68 43.86 97.68 43.86 107.76"/>
      <rect class="cls-3" x="15.83" y="68.13" width="7.21" height="7.21"/>
      <rect class="cls-3" x="15.83" y="51.16" width="7.21" height="7.21"/>
      <rect class="cls-3" x="15.83" y="34.18" width="7.21" height="7.21"/>
      <g>
        <path class="cls-3" d="M43.63,23.52c.46,.87,.71,1.71,.71,2.72,0,.66-.21,1.41-.47,1.69-.57,.61-1.43,1.01-2.21,1.01-1.25,0-2.04-.83-2.04-2.01,0-.84,.27-1.43,.57-1.93l.25,.14c-.23,.42-.37,.94-.37,1.24,0,.57,.19,.92,.45,1.15,.29,.27,.76,.45,1.26,.45,.53,0,1.19-.25,1.61-.58,.29-.23,.46-.42,.46-.55,0-.46-.11-.85-.21-1.18-.16-.52-.35-.96-.56-1.31,.16-.28,.32-.56,.51-.84h.04Zm-1.81-2.15c.27,.2,.54,.44,.8,.71-.15,.24-.33,.46-.55,.65-.26-.25-.52-.46-.78-.68,.18-.24,.36-.47,.54-.68h-.01Z"/>
        <path class="cls-3" d="M47.28,27.36h-.07c-.52,0-.86-.11-1.14-.38-.4-.41-.41-.88-.41-1.86,0-1.26-.07-2.58-.17-3.99,.23-.25,.43-.47,.62-.62l.05,.03c.11,1.46,.11,3.18,.11,4.81v.38c0,.42,.24,.62,.5,.71,.17,.06,.34,.07,.42,.07h.09v.85h0Z"/>
        <path class="cls-3" d="M52.39,27.36h-.13c-.81,0-1.25-.45-1.72-1.08-.22-.28-.42-.56-.59-.74h-.03c0,1.04-.59,1.81-2.47,1.81h-.18c-.37,0-.47-.27-.47-.45,0-.16,.11-.4,.47-.4h.27c.54,0,1.18-.09,1.61-.39,.13-.09,.33-.23,.33-.33,0-.14-.06-.29-.13-.45-.28-.6-.93-1.31-1.64-2.02-.18-.19-.33-.34-.42-.45-.02-.11-.05-.24-.05-.37,0-.19,.07-.37,.18-.57,.05-.09,.15-.19,.24-.25,.69-.45,2.26-.98,4.09-1.55l.03,.04c-.14,.28-.31,.55-.51,.82-.4,.1-.97,.29-1.52,.49-.8,.3-1.55,.6-2.01,.84v.02c.36,.23,.74,.4,1.02,.52l-.2,.33c.71,.64,1.55,1.58,2.45,2.63,.37,.44,.75,.68,1.28,.68h.11v.85h0v.02h0Z"/>
        <path class="cls-3" d="M57.75,24.52c.08,.5,.11,.9,.11,1.18,0,.3-.12,.68-.24,.91-.25,.42-.6,.73-.98,.73-.28,0-.59-.21-.83-.55h-.05c-.3,.33-.67,.57-1.16,.57-.37,0-.6-.17-.64-.57h-.03c-.4,.47-.96,.57-1.41,.57h-.11c-.37,0-.47-.27-.47-.45,0-.16,.11-.4,.47-.4h.23c.6,0,1.08-.16,1.4-.62l.37-.52,.51-.18,.03,.03c-.27,.42-.45,.76-.45,.96s.14,.33,.35,.33c.19,0,.41-.07,.59-.19,.23-.17,.27-.37,.47-1.06l.4-.23,.04,.03c-.05,.21-.09,.47-.09,.65,0,.51,.37,.76,.69,.76,.19,0,.35-.1,.35-.3,0-.26-.08-.68-.17-1.08,.19-.22,.39-.42,.6-.6l.03,.02h0Z"/>
        <path class="cls-3" d="M62.02,20.53c.04,1.29,.07,2.6,.07,3.89,0,.59,.01,1.1,.17,1.48,.13,.32,.45,.61,.8,.61h.05v.85h-.13c-.62,0-1.37-.56-1.37-1.83h-.05c-.26,.95-.83,1.42-1.45,1.71-.48,.19-.82,.27-1.35,.27l-.73-.07-.03-.05c1.08-.4,1.89-.82,2.53-1.24-.11-.66-.75-1.71-1.91-3.25-.34-.46-.69-.86-.69-1.09,0-.17,.11-.43,.18-.61h.03c.35,.35,.81,.66,1.26,.94l-.23,.39c.35,.49,.71,1,1.06,1.61,.27,.47,.52,1,.52,1.42,0,.15-.01,.27-.03,.42h.02c.2-.19,.35-.37,.48-.57,.27-.42,.27-.89,.27-2.03,0-.76-.05-1.53-.09-2.31,.18-.22,.33-.4,.54-.57l.05,.02h.03Zm-1.62,8.5c-.08,.17-.17,.32-.26,.45-.66,.11-1.24,.28-1.73,.5v-.02l.14-.28c.06-.07,.19-.18,.31-.22v-.02c-.31-.09-.52-.29-.52-.58,0-.18,.12-.39,.31-.59,.26-.23,.53-.38,.8-.38s.42,.15,.42,.33-.11,.31-.21,.43h-.01c-.07-.15-.14-.24-.21-.26-.05-.01-.13-.02-.21-.02-.23,0-.47,.13-.47,.23,0,.32,.56,.42,.95,.42,.23,0,.45-.01,.68-.03v.02h0v.02h0Z"/>
        <path class="cls-3" d="M63.26,26.51c.21,0,.46-.03,.74-.18,.23-.13,.35-.37,.35-.72-.01-1.06-.09-2.23-.19-3.45-.03-.31-.07-.59-.07-.83,0-.15,.07-.3,.2-.45,.09-.11,.22-.24,.37-.37l.05,.03c-.01,.43,.19,.95,.54,1.52-.12,.11-.26,.23-.42,.34,.03,.76,.09,1.57,.09,2.31s-.07,1.27-.27,1.67c-.14,.34-.3,.62-.61,.77-.26,.13-.57,.2-.83,.2h-.1c-.37,0-.47-.27-.47-.45,0-.16,.11-.4,.47-.4h.15Z"/>
        <path class="cls-3" d="M75.07,26.51v.85h-.39c.02,.19,.03,.35,.03,.48,0,.22-.21,.69-.3,.83-.86,.77-2.12,1.24-3.09,1.24-.85,0-1.44-.29-1.83-.72-.41-.46-.58-1.1-.58-1.85,0-.66,.25-1.56,.62-2.19l.25,.11c-.28,.68-.4,1.22-.4,1.67,0,.57,.19,1.09,.53,1.45,.4,.42,.98,.62,1.61,.62s1.32-.18,2.12-.57c.3-.17,.54-.33,.6-.46-.15-.32-.88-.61-1.93-.61l-.05-.09,.47-.76h2.34Zm-4.04,5.36c-.27-.26-.51-.47-.78-.69,.17-.24,.36-.46,.52-.63,.27,.21,.5,.43,.76,.71-.19,.26-.32,.44-.5,.61Zm1.28-.09c-.27-.26-.51-.47-.78-.69,.17-.24,.36-.46,.52-.63,.27,.21,.5,.43,.76,.71-.19,.27-.32,.44-.5,.61Z"/>
        <path class="cls-3" d="M75.22,26.51c.51,0,1.04-.21,1.14-.59l.19-.72,.46-.33,.04,.05c-.09,.34-.15,.62-.15,.77,0,.23,.06,.42,.22,.55,.21,.17,.47,.27,.82,.27h.12v.85h-.15c-.65,0-1.14-.18-1.37-.68h-.03c-.23,.45-.75,.68-1.32,.68h-.13c-.37,0-.47-.27-.47-.45,0-.16,.11-.4,.47-.4h.16Zm1.22,2.11c.27,.2,.54,.44,.8,.71-.15,.24-.33,.46-.55,.65-.26-.25-.52-.46-.78-.68,.18-.24,.36-.47,.54-.68h-.01Z"/>
        <path class="cls-3" d="M78.34,26.51c.57,0,1.04-.02,1.74-.33v-.03c-.31-.21-.62-.57-.93-.86-.17-.15-.35-.28-.46-.28h-.23l.26-.78,.21-.03c.52-.11,1.13-.22,1.78-.22,.77,0,1.44,.13,1.93,.33l-.23,.72-1.15,1.07v.03c.45,.24,.95,.37,1.51,.37h.26v.85h-.2c-.74,0-1.57-.28-2.21-.78h-.03c-.82,.59-1.53,.78-2.33,.78h-.21c-.37,0-.47-.27-.47-.45,0-.16,.11-.4,.47-.4h.29Zm2.41-.64c.39-.28,.8-.59,1.22-.99v-.03c-.37-.09-.77-.16-1.23-.16-.43,0-.84,.05-1.23,.12v.03c.12,.11,.25,.25,.39,.38,.22,.21,.51,.44,.82,.66h.03Z"/>
        <path class="cls-3" d="M89.83,27.36h-.17c-.82,0-1.2-.25-1.37-.62h-.04c-.37,.44-.75,.62-1.14,.62-.29,0-.62-.09-.72-.55h-.03c-.3,.33-.66,.55-1.15,.55-.37,0-.6-.17-.64-.57h-.03c-.4,.47-.96,.57-1.41,.57h-.11c-.37,0-.47-.27-.47-.45,0-.16,.11-.4,.47-.4h.23c.6,0,1.07-.17,1.4-.62l.33-.52,.51-.18,.03,.03c-.25,.44-.43,.75-.43,.95s.15,.33,.36,.33c.19,0,.4-.07,.58-.2,.17-.12,.33-.35,.43-.59l.16-.39,.51-.23,.03,.03c-.2,.51-.27,.75-.27,1,0,.18,.11,.39,.37,.39,.22,0,.36-.08,.46-.15,.2-.13,.31-.35,.39-.64,.03-.11,.07-.23,.13-.52l.51-.34,.03,.02c-.09,.29-.17,.66-.17,.91,0,.52,.46,.72,1.09,.72h.15v.85h-.02Zm-3.53-3.23c-.27-.26-.51-.47-.78-.69,.17-.24,.36-.46,.52-.63,.27,.21,.5,.43,.76,.71-.18,.27-.32,.44-.5,.61Zm.36-1.42c-.27-.26-.51-.47-.78-.69,.17-.24,.36-.46,.52-.63,.27,.21,.5,.43,.76,.71-.19,.26-.32,.44-.5,.61Zm.92,1.33c-.27-.26-.51-.47-.78-.69,.17-.24,.36-.46,.52-.63,.27,.21,.5,.43,.76,.71-.18,.26-.32,.44-.5,.61Z"/>
        <path class="cls-3" d="M89.98,26.51c.21,0,.46-.03,.74-.18,.23-.13,.35-.37,.35-.72-.01-1.06-.09-2.23-.19-3.45-.03-.31-.07-.59-.07-.83,0-.15,.07-.3,.2-.45,.09-.11,.22-.24,.37-.37l.05,.03c-.01,.43,.19,.95,.54,1.52-.12,.11-.26,.23-.42,.34,.03,.76,.09,1.57,.09,2.31s-.07,1.27-.27,1.67c-.14,.34-.3,.62-.6,.77-.26,.13-.57,.2-.83,.2h-.1c-.37,0-.47-.27-.47-.45,0-.16,.11-.4,.47-.4h.14Z"/>
        <path class="cls-3" d="M93.11,27.48c.07-.42,.07-.89,.07-1.33v-.65c0-1.22-.13-2.98-.24-4.13,.19-.24,.45-.52,.65-.71l.06,.02c.14,1.45,.17,3.13,.17,4.68,0,.4-.01,.8-.05,1.1-.02,.37-.2,.64-.59,1.07l-.08-.05h0Z"/>
      </g>
      <polygon class="cls-4" points="26.03 26.16 36.25 26.16 31.14 19.33 26.03 12.49 20.93 19.33 15.82 26.16 26.03 26.16"/>
      <polygon class="cls-2" points="94.49 74.8 65.37 107.76 57.71 99.29 57.71 75.57 36.25 75.57 65.37 34.38 94.49 74.8"/>
    </g>
  </g>
</svg>