<?xml version="1.0" encoding="UTF-8"?>
<svg id="Layer_2" data-name="Layer 2" xmlns="http://www.w3.org/2000/svg" viewBox="0 0 163.6 119.42">
  <defs>
    <style>
      .cls-1 {
        fill: #7f5112;
      }
    </style>
  </defs>
  <g id="Calque_1" data-name="Calque 1">
    <g>
      <path class="cls-1" d="M75.83,54.66c.47-.07,.65-.4,.89-.64,2.47-2.47,4.96-4.94,7.39-7.44,.5-.51,.76-.54,1.27-.01,2.29,2.38,4.64,4.69,6.93,7.07,.54,.56,.88,.56,1.39,0,.79-.87,1.62-1.72,2.5-2.5,.67-.59,.73-.98,.03-1.64-2.32-2.23-4.56-4.55-6.87-6.8-.52-.5-.58-.79,0-1.28,.69-.58,1.34-1.22,1.92-1.91,.58-.69,.98-.74,1.64-.04,2.18,2.27,4.46,4.43,6.64,6.7,.67,.7,1.05,.64,1.66-.03,.89-.99,1.84-1.95,2.84-2.83,.73-.64,.76-1.05,.03-1.75-2.3-2.2-4.51-4.49-6.8-6.7-.54-.52-.57-.82-.02-1.37,3.21-3.18,6.39-6.38,9.55-9.61,.54-.55,.84-.55,1.39,0,3.33,3.4,6.67,6.78,10.06,10.11,.73,.71,.77,1.08,.02,1.83-9.07,9-18.09,18.03-27.13,27.06-2.08,2.08-4.18,4.16-6.23,6.28-.58,.6-.9,.59-1.48,0-3.13-3.2-6.3-6.37-9.47-9.54-1.92-1.92-3.83-3.84-5.79-5.71-.58-.55-.63-.87-.02-1.46,2.04-1.96,4-4,6.03-5.97,.54-.52,.58-.84,.02-1.4-1.64-1.63-1.61-1.66-3.22-.05-1.72,1.72-3.46,3.43-5.16,5.18-.5,.51-.81,.53-1.33,.01-4.9-4.94-9.81-9.86-14.74-14.77-.45-.45-.42-.72,.02-1.13,.72-.67,1.44-1.34,2.08-2.09,.53-.62,.86-.62,1.46-.02,3.61,3.67,7.29,7.28,10.89,10.95,.73,.75,1.18,.88,1.9,.03,.75-.9,1.62-1.71,2.49-2.5,.57-.52,.58-.86,0-1.4-2.3-2.2-4.53-4.47-6.83-6.67-.56-.54-.68-.85-.06-1.46,2.75-2.69,5.47-5.42,8.17-8.16,.51-.52,.81-.6,1.37-.03,3.36,3.42,6.75,6.81,10.17,10.17,.56,.55,.53,.85,0,1.38-1.63,1.59-3.18,3.26-4.81,4.85-.55,.53-.59,.86-.01,1.4,1.43,1.35,2.77,2.79,4.19,4.14,.63,.59,.77,.96,.05,1.65-2,1.89-3.91,3.86-5.85,5.82-.25,.25-.82,.48-.54,.91,.36,.54,.91,.95,1.35,1.39l.02-.02Zm8.35,8.31c.16-.11,.3-.17,.4-.28,1.56-1.55,3.11-3.11,4.68-4.66,.45-.44,.08-.68-.19-.95-1.25-1.25-2.51-2.49-3.74-3.76-.4-.41-.68-.53-1.14-.06-1.42,1.47-2.86,2.92-4.33,4.34-.45,.44-.43,.72,.01,1.14,1.27,1.23,2.51,2.49,3.76,3.74,.16,.16,.35,.3,.55,.48h0Zm28.06-28.14c-.06-.08-.14-.22-.25-.32-1.35-1.36-2.72-2.71-4.07-4.08-.36-.36-.59-.21-.87,.07-1.05,1.06-2.1,2.11-3.16,3.16-.33,.33-.44,.58-.05,.96,1.35,1.31,2.68,2.65,3.99,3.99,.39,.4,.65,.26,.97-.07,1.02-1.03,2.05-2.05,3.07-3.08,.16-.16,.37-.3,.37-.63h0Zm-36.95-1.09c-.14-.16-.29-.34-.45-.51-.69-.7-1.38-1.39-2.08-2.08q-2.19-2.19-4.29,.11c-.41,.44-.46,.72,0,1.14,.8,.75,1.56,1.54,2.33,2.32,1.25,1.25,2.5,1.23,3.77-.04,.27-.27,.63-.48,.72-.95h0Z"/>
      <path class="cls-1" d="M81.59,36.01c.26,.39,.51,.8,.78,1.18,.38,.54,.73,.51,1.21,.03,4.99-5.01,9.99-10.01,15.02-14.99,.53-.53,.48-.85-.03-1.32-.84-.77-1.65-1.57-2.41-2.42-.53-.59-.87-.53-1.41,.01-3.62,3.66-7.29,7.28-10.88,10.96-.69,.71-1.05,.7-1.73,0-2.87-2.97-5.79-5.88-8.72-8.78-.47-.47-.48-.71,0-1.18,3.3-3.26,6.58-6.53,9.83-9.84,.54-.55,.84-.48,1.3,.04,.66,.73,1.35,1.43,2.08,2.08,.55,.48,.53,.79,0,1.3-2.11,2.05-4.16,4.18-6.28,6.22-.63,.61-.69,.98,0,1.56,.72,.6,1.39,1.28,2,2,.54,.63,.88,.49,1.4-.04,3.59-3.63,7.23-7.22,10.82-10.86,.61-.62,.96-.74,1.65-.05,3.1,3.05,6.26,6.05,9.16,9.31,.39,.44,.34,.65-.03,1.02-7.29,7.27-14.58,14.54-21.86,21.83-.4,.4-.65,.4-1.04,0-1.34-1.39-2.71-2.74-4.06-4.1-.22-.23-.48-.44-.14-.78,.92-.91,1.84-1.83,2.76-2.74,.08-.08,.19-.11,.29-.17,.1-.09,.19-.17,.29-.26h0Z"/>
      <path class="cls-1" d="M94.04,9.83c-.06,.13-.1,.24-.16,.33-.07,.1-.15,.18-.24,.26-.93,.9-1.78,2.38-2.82,2.53-1,.14-1.81-1.52-2.71-2.37-1.09-1.02-2.16-2.06-3.16-3.18-.62-.69-.97-.58-1.57,.03-8.04,8.08-16.12,16.11-24.14,24.21-.85,.86-1.34,.91-2.09-.02-.66-.82-2-1.51-2.04-2.31-.05-.92,1.32-1.61,2.09-2.38,7.49-7.51,15-15.01,22.5-22.51,1.33-1.33,2.65-2.68,3.95-4.04,.38-.4,.64-.58,1.12-.08,2.94,3.05,5.92,6.07,8.88,9.1,.13,.14,.25,.29,.39,.44h0Z"/>
      <path class="cls-1" d="M52.08,89.8c-.15-.27-.25-.43-.33-.59-1.1-2.04-.43-4.07,1.65-4.98,2.09-.92,4.57,.07,5.26,2.1,.8,2.35-1.17,4.69-3.88,4.52-2.04-.13-4.08-.06-6.13-.08-1.09,0-2.12-.17-2.94-.95-.32-.31-.56-.35-.88-.02-.81,.82-1.85,.96-2.94,.96h-6.95c-.55,0-.9,.08-1.1,.75-.46,1.54-1.75,2.39-3.39,2.42-1.58,.03-3.08-.81-3.58-2.2-.28-.77-.65-1.02-1.45-.98-1.21,.06-2.43,.05-3.64,0-.62-.02-.91,.19-1.07,.8-.32,1.28-1.28,1.92-2.49,2.22-.28,.07-.65,.22-.8-.22-.14-.41,.04-.64,.47-.77,.68-.21,1.3-.57,1.7-1.19,.33-.51,.23-.82-.42-.83-.83-.01-1.65,0-2.48-.01-1.76-.04-2.83-.91-3.04-2.47-.25-1.84,.57-3.33,2.15-3.87,1.03-.35,2.08-.37,3.13-.03,1.37,.44,1.97,1.25,2.01,2.69,.05,1.89,1.04,2.81,2.97,2.77,.43,0,.87,0,1.3,.03,.85,.09,1.35-.13,1.75-1.04,.6-1.35,1.88-1.92,3.38-1.91,1.58,0,2.75,.73,3.36,2.13,.3,.68,.64,.83,1.3,.82,2.32-.03,4.64,0,6.96-.02,2.16-.03,2.79-.69,2.79-2.84,0-.67-.02-1.34,.01-2,.02-.33-.2-.88,.47-.85,.57,.03,.39,.5,.39,.81,.02,.9,0,1.81,.01,2.71,.02,1.22,.56,1.98,1.77,2.08,1.51,.12,3.03,.03,4.68,.03h0Zm-34.02,.2c2.14,.01,1.91,.3,1.93-1.93v-.24c0-2.2-1.39-3.25-3.55-2.7-1.41,.36-1.98,1.15-1.92,2.66,.05,1.28,.73,2.01,2.14,2.2,.46,.06,.94,0,1.41,0h-.01Zm36.99-5.03c-1.6-.01-2.92,1.06-2.97,2.4-.05,1.42,1.19,2.64,2.71,2.67,1.62,.03,2.93-1.17,2.95-2.69,.02-1.28-1.21-2.37-2.69-2.38Zm-24.51,2.96c-1.57-.04-2.9,1.09-2.92,2.47-.02,1.44,1.1,2.56,2.61,2.62,1.63,.06,2.97-1.06,2.98-2.5,.01-1.39-1.19-2.55-2.67-2.59h0Z"/>
      <path class="cls-1" d="M156.39,89.81c-.09-.22-.14-.36-.2-.49-1.03-1.97-.64-3.78,1.06-4.83,1.72-1.07,4.26-.62,5.39,1,.74,1.06,.76,2.24,.21,3.36-.72,1.45-2.06,2.1-3.59,2-2.16-.13-4.32-.05-6.48-.08-1-.01-1.98-.15-2.73-.87-.4-.39-.68-.39-1.07,0-.55,.54-1.26,.8-2.02,.83-1.69,.05-3.37,.1-5.06,.1-1.18,0-2.16-1.17-3.06-1.11s-1.81,1.07-2.98,1.06c-4.2-.04-8.4-.05-12.61-.08-.28,0-.72,.15-.74-.33-.02-.53,.43-.46,.78-.46,1.3,0,2.59-.02,3.89,0,.59,.01,.88-.19,.84-.81-.05-.74,.01-1.5-.1-2.23-.2-1.33-1.08-2.03-2.44-2.05h-1.89c-.25,0-.47-.04-.48-.37,0-.26,.04-.48,.36-.48,1.05,.02,2.13-.21,3.16,.12,1.5,.48,2.2,1.6,2.24,3.36,.04,2.28,.04,2.3,2.31,2.39,1.53,.06,3.06,.09,4.59,.07,1.95-.03,2.59-.72,2.6-2.65,0-.79,0-1.57,.01-2.36,0-.29-.08-.67,.41-.69,.48-.01,.45,.34,.46,.65v2.59c0,1.57,.67,2.35,2.24,2.41,1.76,.07,3.54,.07,5.3,0,1.55-.06,2.21-.84,2.22-2.42v-2.59c0-.3-.05-.66,.45-.65,.49,.01,.42,.38,.42,.67v2.83c.01,1.28,.57,2.03,1.86,2.12,1.51,.11,3.04,.03,4.65,.03v-.04Zm.11-2.36c-.01,1.42,1.16,2.55,2.65,2.57,1.55,.02,2.87-1.11,2.89-2.47,.02-1.44-1.11-2.58-2.59-2.62-1.68-.04-2.94,1.03-2.95,2.52h0Z"/>
      <path class="cls-1" d="M101.22,89.74c-1.82-1.27-3.38-2.37-4.97-3.44-.68-.46-.89-.75,.02-1.25,1.82-1,3.58-2.11,5.35-3.19,.43-.26,.87-.53,1.19,.07,.32,.61-.37,.58-.62,.73-1.68,.98-3.4,1.91-5.23,2.93,1.89,1.35,3.64,2.6,5.39,3.84,.35,.25,.78,.47,.61,1s-.66,.3-1.01,.31c-2.98,.02-5.97-.05-8.95,.04-1.28,.04-2.48,.19-3.53-.76-.68-.62-1.08-1.33-1.08-2.25,.01-1.81,.02-3.61,.05-5.42,0-.32-.13-.78,.43-.79,.66-.01,.46,.53,.46,.86,.02,1.69,0,3.38,.02,5.06,.02,1.44,1.12,2.63,2.53,2.51,2.86-.25,5.72-.05,8.58-.14,.15,0,.3-.05,.78-.13l-.02,.02Z"/>
      <path class="cls-1" d="M42.17,112.48c-.57,1.24-1.14,2.49-1.71,3.73-.14,.31-.23,.69-.71,.65-.4-.03-.48-.36-.61-.64-.58-1.22-1.14-2.44-1.71-3.66-.1,.02-.21,.04-.31,.06v5.91c0,.3-.07,.56-.43,.58-.39,.02-.43-.27-.43-.56v-6.94c0-.36,.12-.6,.54-.59,.42,.01,.84-.07,1.08,.46,.45,1,.95,1.98,1.44,2.95,.17,.34,.26,.75,.7,1.03,.58-1.26,1.2-2.47,1.71-3.73,.26-.65,.67-.76,1.27-.71,.81,.06,.5,.67,.51,1.07,.03,2.04,.02,4.08,.01,6.12,0,.41,.13,.94-.56,.93-.72-.01-.5-.58-.5-.96-.02-1.9,0-3.8,0-5.71h-.29Z"/>
      <path class="cls-1" d="M131.65,115.42c.57-1.23,1.2-2.43,1.7-3.68,.27-.67,.68-.77,1.27-.7,.71,.08,.43,.65,.43,1.01,.03,2.04,.02,4.08,0,6.12,0,.37,.22,.98-.5,.95-.6-.03-.44-.56-.44-.91-.02-1.77,0-3.53-.02-5.3,0-.14,.05-.32-.28-.44-.53,1.13-1.06,2.28-1.61,3.42-.18,.36-.17,.91-.73,.96-.65,.05-.68-.57-.87-.95-.57-1.14-1.09-2.31-1.62-3.46-.1,.02-.19,.04-.29,.06v6.16c0,.26-.1,.46-.4,.47-.36,.02-.47-.19-.47-.51v-7.06c0-.32,.09-.54,.46-.52,.44,.03,.92-.17,1.19,.45,.47,1.07,1.03,2.11,1.56,3.16,.13,.26,.18,.6,.62,.77h0Z"/>
      <path class="cls-1" d="M109.83,112.52v5.75c0,.35,.16,.88-.48,.85-.55-.03-.39-.5-.39-.82-.01-2.12-.02-4.24,0-6.36,0-.33-.24-.86,.41-.9,.5-.04,.99-.1,1.28,.53,.6,1.3,1.27,2.57,2.02,4.09,.65-1.42,1.23-2.6,1.73-3.8,.26-.64,.63-.93,1.33-.82,.78,.12,.45,.73,.46,1.11,.04,2.04,.02,4.08,.01,6.12,0,.35,.16,.88-.48,.86-.61-.02-.46-.53-.47-.89-.01-1.91,0-3.83-.27-5.83-.55,1.17-1.08,2.34-1.65,3.49-.18,.36-.18,.93-.74,.94-.5,0-.53-.52-.7-.85-.61-1.17-1.19-2.36-1.79-3.54-.09,.02-.19,.04-.28,.06h.01Z"/>
      <path class="cls-1" d="M102.02,53.74c.14,.11,.27,.2,.38,.31,.14,.13,.28,.28,.42,.41,1.93,1.92,1.82,3.76-.34,5.51-.43,.35-.64,.24-.96-.08-.79-.82-1.6-1.62-2.41-2.41-.3-.29-.4-.53-.05-.87,.87-.84,1.72-1.71,2.58-2.57,.11-.11,.24-.19,.38-.3Z"/>
      <path class="cls-1" d="M24.3,119.03c-.71,.29-1.1,.02-1.45-.41-.6-.73-1.24-1.42-1.8-2.17-.46-.61-1.09-.64-1.7-.49-.64,.16-.28,.79-.33,1.21-.06,.46-.03,.94-.01,1.41,.01,.39-.15,.59-.55,.58-.32,0-.52-.13-.52-.49v-7.19c0-.37,.26-.44,.56-.44,.9,.01,1.82-.05,2.7,.07,.94,.13,1.67,.65,1.93,1.65,.26,1.03-.04,1.93-.91,2.48-.72,.45-.54,.76-.12,1.23,.73,.81,1.55,1.55,2.19,2.56h.01Zm-4.4-7.36c-.64-.18-1.12,.17-.85,.97,.25,.75-.92,2.12,.85,2.22,1.47,.09,2.3-.58,2.29-1.7,0-.96-.72-1.46-2.29-1.49h0Z"/>
      <path class="cls-1" d="M14.99,115c.01,2.76-1.43,4.45-3.78,4.42-2.47-.03-3.86-1.59-3.88-4.33-.02-2.52,1.4-4.15,3.63-4.19,2.63-.04,4.01,1.36,4.02,4.1h.01Zm-1.05,.08c-.01-.27-.01-.55-.04-.82-.15-1.46-1.11-2.46-2.45-2.57-1.53-.13-2.61,.68-2.98,2.23-.41,1.71,.16,3.59,1.3,4.24,.88,.5,1.83,.54,2.7,.05,1.18-.68,1.53-1.82,1.47-3.12h0Z"/>
      <path class="cls-1" d="M101.5,119.01c-.84,.31-1.21,0-1.55-.42-.6-.73-1.23-1.43-1.8-2.17-.47-.61-1.11-.61-1.71-.45-.56,.15-.26,.73-.3,1.12-.05,.51-.02,1.02-.01,1.53,0,.42-.21,.55-.59,.53-.35-.01-.48-.19-.48-.52v-7.07c0-.33,.14-.52,.49-.51,.98,.03,1.97-.13,2.93,.1,.9,.21,1.55,.72,1.79,1.67,.24,.99-.04,1.89-.86,2.38-.9,.54-.52,.91-.07,1.41,.7,.77,1.4,1.55,2.17,2.41h-.01Zm-5.57-5.83c.08,.76-.4,1.83,1.13,1.7,1.3-.11,2.16-.68,2.15-1.67,0-.98-.81-1.46-2.23-1.57-1.38-.11-1,.82-1.06,1.54h.01Z"/>
      <path class="cls-1" d="M81.39,118.98c-1.37,.01-2.05-.67-2.05-2.04,0-1.69,.02-3.37,0-5.06-.01-.74,.22-1.07,1.01-1.03,1.67,.09,3.4-.16,4.76,1.19,1.27,1.27,1.34,2.78,.88,4.35-.47,1.6-1.66,2.41-3.29,2.59-.43,.04-.86,0-1.29,0h-.02Zm-1.05-3.81v2.47c0,.3-.04,.6,.39,.73,2.09,.65,4.34-.89,4.44-3.06,.1-2.27-1.28-3.45-3.89-3.41-.69,.01-1.01,.18-.96,.92,.05,.78,.01,1.57,.01,2.35h.01Z"/>
      <path class="cls-1" d="M137.88,115.18c.01-3.16,1.81-4.68,4.78-4.16,1.36,.24,2.26,.99,2.59,2.38,.25,1.05,.27,2.1,.03,3.14-.44,1.97-1.83,2.98-3.85,2.85-2.1-.14-3.32-1.32-3.5-3.39-.03-.31-.04-.63-.05-.83h0Zm.95,.06c.03,.17,.08,.64,.19,1.09,.36,1.46,1.27,2.19,2.65,2.2,1.31,0,2.3-.82,2.65-2.23,.26-1.06,.19-2.11-.25-3.11-.79-1.78-3.26-2.09-4.48-.57-.54,.67-.72,1.47-.75,2.6v.02Z"/>
      <path class="cls-1" d="M106.35,49.38c.27,.25,.52,.43,.73,.66,.81,.89,2.35,1.63,2.31,2.63-.03,.87-1.51,1.66-2.27,2.55-.57,.65-.99,.73-1.57,.02-.76-.93-2.47-1.77-2.29-2.61,.24-1.11,1.68-1.95,2.62-2.9,.13-.13,.3-.22,.48-.35h-.01Z"/>
      <path class="cls-1" d="M119.56,115.04c0-1.06,.02-2.12,0-3.18-.02-.57,.1-.87,.77-.84,1.29,.04,2.59,0,3.88,.02,.34,0,.76-.07,.72,.49-.04,.49-.43,.37-.71,.38-.94,.02-1.88,.04-2.82,0-.8-.04-.81,.47-.73,.99,.07,.53-.4,1.38,.69,1.4,.82,.01,1.65-.03,2.47,.03,.39,.03,1.09-.32,1.08,.45-.01,.68-.66,.38-1.02,.4-.78,.05-1.57,.05-2.35,0-.65-.03-.9,.17-.89,.86,.06,2.79-.28,2.21,2.2,2.28,.55,.01,1.1,0,1.65,.01,.26,0,.45,.09,.45,.4s-.19,.42-.45,.42c-1.49,0-2.98,.02-4.47,0-.53,0-.43-.47-.43-.8v-3.3h-.04Z"/>
      <path class="cls-1" d="M67.47,116.88c0,1.21-.63,1.96-1.88,2.25-2.31,.53-4.35-.42-5.03-2.34-.77-2.17,.08-4.64,1.95-5.47,1.43-.63,2.9-.53,4.35,.02,.46,.17,.8,.51,.53,.98-.28,.49-.6-.02-.86-.15-1.81-.88-3.81-.61-4.72,.67-.92,1.29-.73,3.58,.37,4.69,.81,.81,2.59,1.11,3.63,.62,.86-.4,.44-1.16,.48-1.76,.04-.63-.5-.44-.86-.48-.19-.02-.39,0-.59,0-.26,0-.45-.06-.47-.38-.02-.36,.16-.49,.49-.49,.63,0,1.26,.02,1.89-.01,.59-.03,.75,.28,.73,.79-.01,.35,0,.71,0,1.06h-.01Z"/>
      <path class="cls-1" d="M72.47,90.79c-.67,0-1.34,.05-2-.01-1.16-.1-2.22-.14-2.93,1.09-.31,.54-.99,.75-1.6,.91-.24,.06-.58,.15-.62-.29-.02-.27,.07-.45,.36-.5,1.92-.34,2.2-1.75,2.18-3.35,0-.55-.01-1.1,0-1.65,.01-.29-.1-.67,.4-.69,.58-.02,.46,.41,.47,.74,.02,.67,.03,1.34,0,2-.03,.58,.14,.86,.78,.85,2.12-.03,4.24,.03,6.36-.04,1.73-.06,2.35-.79,2.36-2.53v-2.47c0-.3-.05-.65,.43-.68,.46-.03,.51,.26,.51,.6,0,1.22,.06,2.44-.03,3.65-.08,1.17-1.34,2.11-2.92,2.28-.62,.07-1.25,.06-1.88,.07s-1.26,0-1.88,0v.03h.01Z"/>
      <path class="cls-1" d="M154.88,119.02c-.73,.25-1.14,.12-1.51-.36-.57-.75-1.26-1.41-1.81-2.17-.49-.69-1.15-.69-1.78-.51-.6,.17-.28,.8-.33,1.23-.05,.43-.01,.86-.01,1.3,0,.33-.02,.65-.48,.64-.45,0-.47-.34-.47-.66v-3.3c0-1.1,.02-2.2,0-3.3-.01-.56,.13-.89,.79-.85,.82,.06,1.65,0,2.47,.09,.93,.11,1.62,.69,1.88,1.57,.28,.96,.07,1.96-.84,2.49-.88,.52-.58,.86-.08,1.38,.73,.76,1.4,1.56,2.18,2.45h-.01Zm-4.38-4.15c1.38,0,2.24-.65,2.23-1.7-.01-.95-.87-1.43-2.27-1.53-1.19-.08-1.08,.67-.98,1.34,.11,.72-.66,2,1.02,1.88h0Z"/>
      <path class="cls-1" d="M113.68,89.09c.23-.38-.43-1.34,.44-1.31,.73,.02,.33,.96,.36,1.47,.1,1.75,.62,2.5,2,2.69,1.8,.25,3.01-.37,3.42-1.72,.22-.72,.11-1.15-.77-1.07-.31,.03-.63,0-.94,0-1.55,0-1.73-.23-1.41-1.8,.39-1.89,1.65-3.07,3.6-3.35,.28-.04,.64-.26,.74,.26,.08,.41-.17,.55-.5,.65-.83,.24-1.64,.55-2.23,1.23-.31,.36-.48,.79-.64,1.24-.27,.78-.08,1.11,.77,1.02,.35-.04,.71,0,1.06,0,1.45,0,1.55,.12,1.29,1.53-.38,2.06-1.95,3.13-4.25,2.91-1.98-.19-2.92-1.37-2.92-3.75h-.02Z"/>
      <path class="cls-1" d="M32.95,114.29c-.06,.89,.11,1.95-.19,3-.39,1.35-1.47,2.14-3,2.12-1.49-.01-2.59-.76-2.91-2.07-.47-1.93-.14-3.9-.22-5.85-.01-.36,.21-.46,.53-.44,.4,.02,.4,.31,.41,.59,.01,1.21,0,2.43,.02,3.64,0,.51,.03,1.02,.12,1.52,.23,1.25,.71,1.59,2.04,1.58,1.11,0,1.72-.47,1.88-1.64,.22-1.61,.07-3.21,.13-4.81,.02-.41-.11-.89,.59-.9s.6,.46,.6,.87v2.39h0Z"/>
      <path class="cls-1" d="M.11,89.11c.22-.43-.41-1.44,.44-1.45,.63,0,.27,.98,.3,1.52,.09,1.78,.75,2.56,2.43,2.72,1.49,.14,2.72-.62,3.02-1.87,.15-.6,.17-1.12-.72-.99-.27,.04-.55,0-.82,0-1.91,0-1.95-.05-1.53-2.01,.37-1.68,1.59-2.85,3.27-3.09,.31-.04,.74-.27,.91,.2,.19,.54-.26,.64-.63,.77-1.24,.43-2.24,1.11-2.66,2.43-.23,.73-.11,1.15,.77,1.06,.31-.03,.63,0,.94,0,1.57,0,1.69,.15,1.36,1.67-.41,1.89-1.97,2.93-4.07,2.71-2.05-.22-3.02-1.35-3.04-3.66h.03Z"/>
      <path class="cls-1" d="M73.35,111.06c.59-.14,.85,.14,1.01,.6,.76,2.22,1.52,4.45,2.28,6.67,.09,.27,.36,.61-.11,.78-.35,.13-.68-.02-.71-.4-.17-2.04-1.59-1.86-3.05-1.87-1.01,0-1.53,.31-1.69,1.28-.05,.27-.15,.53-.28,.77-.15,.28-.45,.31-.73,.23-.51-.13-.15-.45-.08-.64,.81-2.28,1.65-4.56,2.47-6.84,.16-.45,.37-.79,.87-.59h.02Zm-1.75,4.94h2.46c.42,0,.58-.17,.44-.56-.4-1.09-.81-2.18-1.34-3.6-.59,1.58-1.04,2.79-1.55,4.16h0Z"/>
      <path class="cls-1" d="M58.07,118.82c.03,.27-.16,.32-.37,.33-.36,.02-.54-.15-.68-.5-.25-.59-.15-1.55-.83-1.69-1.02-.2-2.11-.08-3.16-.05-.32,0-.41,.32-.5,.58-.14,.41-.3,.81-.43,1.22-.12,.37-.38,.51-.72,.4-.4-.13-.22-.44-.13-.68,.83-2.31,1.68-4.62,2.51-6.94,.16-.44,.47-.47,.83-.46,.34,.01,.74-.09,.9,.36,.85,2.44,1.69,4.88,2.53,7.32,.01,.04,.03,.07,.04,.11h.01Zm-3.54-6.97c-.45,1.21-.72,2.11-1.12,2.95-.48,.98-.26,1.26,.83,1.22,1.89-.07,1.9-.01,1.22-1.77-.26-.69-.53-1.38-.92-2.4h0Z"/>
      <path class="cls-1" d="M.39,114.99v-.12c.1-1.24-.57-3,.26-3.6,1.06-.77,2.8-.18,4.24-.24,.28-.01,.57,0,.6,.39,.03,.46-.29,.48-.63,.48-.9,0-1.81,.04-2.71,0-.99-.05-.79,.64-.79,1.2s-.17,1.25,.8,1.2c.63-.03,1.26-.03,1.89,0,.34,.02,.89-.19,.86,.46-.02,.53-.49,.39-.82,.4-.59,.02-1.18,.05-1.77,0-.8-.07-1.03,.28-.98,1.03,.05,.74,.01,1.49,0,2.24,0,.31,.04,.67-.42,.69-.53,.03-.53-.36-.53-.72v-3.42H.39Z"/>
      <path class="cls-1" d="M83.78,90.68c-.71,0-1.42,.03-2.12-.01-.33-.02-.93,.26-.89-.4,.03-.57,.59-.38,.95-.39,1.14-.02,2.28-.04,3.42,0,.7,.03,1.01-.18,.95-.92-.05-.62,.01-1.26-.02-1.88-.06-1.32-1.02-2.25-2.34-2.29-.63-.02-1.26,0-1.89,0-.29,0-.56-.05-.55-.44,0-.3,.18-.42,.45-.41,.98,.02,1.97-.15,2.93,.1,1.33,.35,2.22,1.45,2.28,2.82,.04,1.02-.02,2.04,.02,3.06,.03,.64-.24,.81-.83,.79-.78-.04-1.57,0-2.36,0v-.03Z"/>
      <path class="cls-1" d="M162.84,111.13c-.38,.63-.68,1.19-1.04,1.69-1.19,1.65-2.13,3.37-1.75,5.52,.05,.31,.12,.76-.42,.8-.53,.03-.58-.38-.51-.72,.46-2.41-.89-4.19-2.04-6.04-.24-.39-.47-.8-.71-1.21,.68-.29,1.08-.07,1.4,.48,.43,.74,.93,1.45,1.35,2.2,.37,.66,.65,.8,1.07,.03,.43-.79,.97-1.52,1.41-2.3,.28-.5,.65-.62,1.25-.44h0Z"/>
      <path class="cls-1" d="M90.36,111.03c.27,0,.55-.02,.82,0,.25,.02,.6-.13,.69,.24,.1,.39-.22,.44-.5,.47-.5,.06-.49,.43-.49,.79v5.05c0,.41,0,.8,.58,.79,.26,0,.46,.12,.43,.42-.03,.31-.27,.34-.52,.35-.51,0-1.02,.03-1.53,0-.33-.02-.79,.18-.93-.26-.18-.55,.36-.44,.65-.56,.39-.16,.25-.54,.25-.82,.02-1.53,0-3.06,0-4.58,0-.53,.14-1.15-.69-1.22-.18-.02-.24-.18-.24-.35,0-.27,.2-.3,.4-.31h1.08Z"/>
      <path class="cls-1" d="M105.58,86.08c0,1.25,.01,2.51,0,3.76,0,.34,.2,.87-.46,.87-.57,0-.41-.48-.41-.79-.01-2.59-.01-5.17,0-7.76,0-.33-.11-.78,.45-.76,.55,.02,.41,.48,.42,.8,.01,1.29,0,2.59,0,3.88Z"/>
      <path class="cls-1" d="M12.21,87.58c.02,.94,.05,1.88-.25,2.79-.4,1.22-1.22,1.97-2.44,2.3-.21,.06-.48,.19-.58-.14-.09-.28-.07-.55,.3-.63,1.92-.44,2.21-1.83,2.1-3.5-.06-.82,0-1.64,0-2.47,0-.35,.07-.63,.51-.6,.41,.03,.36,.35,.36,.61,.01,.55,0,1.1,0,1.64h0Z"/>
      <path class="cls-1" d="M54.58,103.48c.02,1.2-.87,2.11-2.04,2.11s-2.02-.87-2.06-2c-.04-1.08,1-2.21,2.01-2.19,1.22,.02,2.07,.87,2.09,2.09h0Zm-2.14-1.56c-.85,0-1.62,.75-1.65,1.65-.04,.85,.75,1.66,1.61,1.65,.9,0,1.63-.73,1.65-1.63,.02-.89-.72-1.65-1.6-1.66h-.01Z"/>
      <path class="cls-1" d="M109.42,103.59c-.01,1.2-.91,2.05-2.12,2-1.08-.04-1.91-.9-1.9-1.98,0-1.24,.87-2.22,1.96-2.21,1.28,.02,2.08,.87,2.07,2.19h0Zm-2.2,1.66c.84,.03,1.66-.73,1.71-1.6,.06-.89-.64-1.64-1.57-1.69-.85-.05-1.66,.69-1.72,1.56-.05,.83,.74,1.7,1.57,1.73h.01Z"/>
      <path class="cls-1" d="M155.66,103.57c0,1.14-.83,1.99-1.99,2.02-1.08,.03-2.02-.87-2.05-1.96-.03-1.16,.91-2.24,1.95-2.23,1.27,0,2.08,.86,2.09,2.18h0Zm-.49-.08c-.03-.89-.79-1.57-1.72-1.53-.84,.03-1.61,.86-1.59,1.7,.02,.83,.9,1.62,1.74,1.56,.87-.06,1.6-.86,1.57-1.73Z"/>
      <path class="cls-1" d="M27.01,105.72c1.35-1.42,1.5-2.84-.22-4.29h3.29c-.46,.78-1.18,1.47-1.19,2.17,0,.68,.72,1.37,1.24,2.25-1.05-.76-2.12-.76-3.12-.13h0Zm.79-3.91c.37,.37,.39,.99,.95,.91,.3-.04,.65-.59,.51-.8-.32-.49-.86-.27-1.46-.11Z"/>
      <path class="cls-1" d="M73.13,101.4h3.06c-1.35,1.45-1.78,2.86,.21,4.39-.98-.1-1.14-.57-1.29-.89-.46-.98-.77-.7-1.19,.02-.18,.31-.3,.73-1.1,.94,1.31-1.54,1.89-2.95-.01-4.31,.1-.05,.21-.09,.31-.14h0Zm1.34,.24c-.23,.07-.66-.11-.63,.28,.03,.35,.25,.83,.66,.85,.41,.02,.66-.44,.68-.79,.03-.47-.44-.26-.71-.34h0Z"/>
      <path class="cls-1" d="M35.03,101.41h3.27v4.31s-.08,.03-.11,.02c-.64-.33-.67-1.48-1.34-1.42-.44,.04-.79,.94-1.35,1.44,1.12-1.46,1.46-2.87-.47-4.35h0Zm2.6,.58c0-.43-.35-.33-.57-.32-.31,.01-.81-.18-.84,.28-.02,.32,.27,.81,.65,.84,.42,.03,.53-.48,.75-.8h0Z"/>
      <path class="cls-1" d="M139.65,101.53c-.7,.87-2.44-.78-2.52,1.19-.03,.8-.33,1.77,.18,2.39,.48,.58,1.49-.03,2.32,.41-.92,.24-1.73,.12-2.54,.11-.39,0-.54-.24-.53-.62v-1.17c0-2.76,.19-2.91,3.09-2.32h0Z"/>
      <path class="cls-1" d="M123.41,101.78c-.56,0-1.12,.05-1.68-.01-.85-.09-1.05,.29-1.05,1.08,0,2.31-.04,2.31,2.26,2.48,.11,0,.21,.06,.47,.15-.95,.32-1.78,.15-2.6,.17-.38,0-.57-.19-.56-.58v-.94c0-2.07,1.05-2.95,3.16-2.64,0,.1,0,.2,.01,.29h0Z"/>
      <path class="cls-1" d="M15.19,101.54c-.76,.9-2.61-.91-2.71,1.24-.04,.79-.4,1.86,.24,2.33,.55,.41,1.54,.21,2.33,.35-.76,.29-1.54,.14-2.31,.18-.55,.03-.79-.22-.75-.77,.02-.35,0-.7,0-1.06,0-2.74,.29-2.95,3.19-2.28h.01Z"/>
      <path class="cls-1" d="M92.15,105.51c-.49-1.1-.98-2.19-1.52-3.41-1,1.02-.98,2.54-2.02,3.44,.28-1.36,.91-2.58,1.47-3.83,.26-.58,.61-.39,.82,.08,.52,1.17,1.01,2.36,1.52,3.54-.09,.06-.18,.11-.26,.17h0Z"/>
      <path class="cls-1" d="M149.67,83.63c-.73-.05-1.28-.36-1.3-1.1-.02-.79,.5-1.2,1.28-1.21,.72,0,1.23,.32,1.26,1.09,.03,.83-.49,1.17-1.23,1.22h-.01Zm.74-1.08c-.06-.45-.35-.69-.77-.74-.43-.06-.66,.21-.7,.6-.05,.46,.18,.75,.65,.81,.47,.05,.7-.25,.82-.67Z"/>
      <path class="cls-1" d="M100.25,101.22c-.4,.74-1.3,.61-1.8,1.24,.43,.46,.97,.92,.19,1.58-.33,.28,.02,.46,.26,.59,.47,.24,1.02,.34,1.55,.88-1.06-.14-1.83-.52-2.71-.98,1.01-.78,1.25-1.54-.2-2.34,1.05-.37,1.88-.67,2.71-.96h0Z"/>
      <path class="cls-1" d="M140.54,83.75c-.72-.07-1.29-.37-1.29-1.13,0-.8,.55-1.21,1.32-1.19,.76,.02,1.28,.43,1.27,1.25-.01,.84-.69,.93-1.3,1.06h0Zm.14-.51c.43-.06,.74-.31,.71-.75-.03-.45-.4-.67-.83-.68-.4,0-.68,.25-.66,.66,.03,.44,.3,.71,.77,.77h.01Z"/>
      <path class="cls-1" d="M129.5,102.36c.49,.66,.5,1.31,.03,1.94,.44,.55,1.28,.49,1.82,1.21-.98-.2-1.74-.56-2.63-.96,.99-.77,1.35-1.57-.15-2.39,1-.36,1.77-.63,2.81-1-.58,.87-1.44,.69-1.88,1.2Z"/>
      <path class="cls-1" d="M6.08,94.06c-.21,.4-.38,.88-.99,.91-.58,.02-1.02-.21-1.06-.83s.4-.93,.95-.97c.55-.04,.97,.23,1.11,.89h0Z"/>
      <path class="cls-1" d="M137.39,83.75c-.75-.08-1.29-.41-1.28-1.15,.01-.79,.56-1.19,1.32-1.16,.76,.03,1.25,.46,1.2,1.27-.05,.78-.61,1.01-1.24,1.05h0Zm-.13-1.97c-.39,.07-.6,.33-.58,.72,.02,.46,.3,.72,.75,.7,.45-.02,.75-.28,.68-.75-.07-.42-.39-.65-.85-.68h0Z"/>
      <path class="cls-1" d="M46.81,94.13c-.7-.14-1.25-.47-1.17-1.23,.08-.79,.65-1.15,1.42-1.08,.77,.08,1.26,.57,1.16,1.35-.09,.77-.78,.89-1.41,.96Zm.87-1.12c-.06-.42-.29-.78-.79-.8-.48-.03-.7,.36-.72,.76-.03,.54,.39,.75,.84,.78,.41,.02,.61-.28,.67-.73h0Z"/>
      <path class="cls-1" d="M2.38,94.99c-.54-.06-.99-.27-.97-.92,.02-.62,.46-.93,1.02-.89,.52,.03,1.07,.25,.99,.91-.06,.54-.42,.9-1.05,.9h.01Z"/>
      <path class="cls-1" d="M163.58,101.39c-.5,.63-1.32,.48-1.79,.97,.46,.64,.45,1.31-.04,2.02,.62,.3,1.24,.59,1.85,.88-.94,.07-1.69-.36-2.52-.72,.55-.68,1.38-1.29,.22-2.11-.3-.21-.01-.42,.2-.49,.65-.21,1.26-.6,2.07-.56h.01Z"/>
      <path class="cls-1" d="M78.07,93.87c-.78-.08-1.31-.41-1.29-1.23,.01-.81,.64-1.08,1.27-1.09,.73-.01,1.3,.41,1.26,1.22-.04,.73-.56,1.06-1.24,1.1h0Zm0-.27c.47-.05,.73-.29,.69-.76-.03-.44-.26-.73-.73-.74-.55-.01-.78,.36-.75,.82,.03,.42,.36,.66,.79,.68Z"/>
      <path class="cls-1" d="M74.78,93.88c-.71-.08-1.28-.36-1.25-1.22,.02-.8,.6-1.12,1.26-1.12,.71,0,1.32,.37,1.28,1.22-.03,.77-.56,1.06-1.29,1.12Zm.77-.97c-.1-.48-.3-.86-.84-.81-.45,.04-.7,.37-.69,.8,.02,.44,.32,.7,.78,.7s.71-.25,.75-.68h0Z"/>
      <path class="cls-1" d="M106.5,79.01c-.51,.26-1.29-.25-1.39,.45-.14,1,.98,.44,1.36,.87-.74,.4-1.54,.45-2.87,.13,.43-.36,.9-.56,.91-1.25,0-.65,1.12-.77,2-.2h-.01Z"/>
      <path class="cls-1" d="M43.71,94.12c-.62-.06-1.22-.36-1.2-1.17,.02-.72,.52-1.12,1.24-1.13,.77,0,1.32,.38,1.31,1.17,0,.71-.5,1.11-1.35,1.14h0Zm.13-.37c.45-.08,.74-.3,.67-.79-.06-.42-.28-.78-.73-.76-.49,.02-.77,.36-.74,.86,.03,.47,.41,.61,.8,.69h0Z"/>
      <path class="cls-1" d="M146.42,102.24c-.03,.59-.21,1-.82,.98-.55-.01-1.04-.19-.99-.87,.03-.49,.24-.95,.83-.94,.54,0,.99,.23,.98,.83Z"/>
      <path class="cls-1" d="M145.64,103.78c.52,.09,.98,.29,.94,.94-.03,.53-.3,.88-.88,.87-.52,0-.92-.17-.94-.79-.02-.61,.25-.95,.88-1.02Z"/>
      <path class="cls-1" d="M1.81,104.7c.02,.56-.22,.89-.82,.89S-.02,105.37,0,104.72c.01-.52,.29-.94,.85-.92,.52,.02,1.03,.19,.96,.9h0Z"/>
      <path class="cls-1" d="M21.92,104.59c-.01,.58-.16,1-.78,1-.56,0-1.05-.18-1.02-.83,.02-.54,.26-1.01,.92-.97,.52,.03,.88,.29,.89,.81h-.01Z"/>
      <path class="cls-1" d="M45.31,104.7c-.04,.61-.33,.93-.96,.89-.58-.03-.84-.34-.83-.9,.02-.62,.36-.94,.96-.9,.52,.03,.85,.33,.83,.91h0Z"/>
      <path class="cls-1" d="M7.15,101.45v4.29c-.48-.63-.57-3,0-4.29Z"/>
      <path class="cls-1" d="M21.02,101.39c.51,.09,.94,.27,.9,.95-.03,.56-.26,.9-.86,.88-.52-.02-.97-.21-.96-.8,.01-.53,.21-1.02,.92-1.03h0Zm.54,.91c-.05-.32-.16-.61-.56-.59-.38,.02-.53,.25-.52,.62,.01,.32,.18,.5,.5,.52,.39,.03,.56-.18,.58-.55h0Z"/>
      <path class="cls-1" d="M82.97,104.16c.37,.53,.34,1.05-.22,1.35-.41,.22-.92,.18-1.24-.28-.29-.41-.2-.84,.12-1.16,.48-.48,.96-.35,1.38,.12-.23-.03-.45-.09-.68-.08-.32,.01-.46,.24-.46,.54s.12,.53,.44,.57c.29,.03,.54-.09,.61-.39,.05-.22,.03-.45,.04-.68h.01Z"/>
      <path class="cls-1" d="M66.71,103.77c.76,.1,1.11,.49,.9,1.27-.16,.61-.64,.6-1.12,.51-.39-.07-.62-.35-.62-.73,0-.55,.23-.98,.86-1.05-.03,.1-.04,.25-.11,.3-.36,.27-.54,.57-.23,.98,.21,.27,.52,.24,.72,.05,.42-.4,.22-.76-.16-1.07-.09-.07-.16-.17-.24-.25h0Z"/>
    </g>
  </g>
</svg>