<?xml version="1.0" encoding="UTF-8"?>
<svg id="Layer_2" data-name="Layer 2" xmlns="http://www.w3.org/2000/svg" viewBox="0 0 188.66 98.65">
  <defs>
    <style>
      .cls-1 {
        fill: #283065;
      }

      .cls-2 {
        fill: #022e3e;
      }

      .cls-3 {
        fill: #21a5dc;
      }
    </style>
  </defs>
  <g id="Calque_1" data-name="Calque 1">
    <g>
      <path class="cls-1" d="M74.43,26.73h-.68v3.01c-2.47-2.86-5.83-4.33-10.05-4.33-3.11,0-5.83,.86-8.09,2.5-2.04,1.5-3.58,3.58-4.54,6.15-.72,1.86-1.07,3.83-1.07,5.87s.36,4.01,1.07,5.87c1,2.58,2.5,4.62,4.54,6.15,2.25,1.68,4.97,2.54,8.09,2.54,4.15,0,7.48-1.4,9.95-4.19-.32,2.36-1.25,4.4-2.86,6.15-1.97,2.18-4.29,3.22-7.08,3.22-2.11,0-3.97-.57-5.55-1.68-1.57-1.14-2.83-2.79-3.69-4.94l-.29-.68-.68,.32-2.18,1.04-.57,.29,.25,.61c1.14,2.86,2.83,5.12,5.04,6.69,2.22,1.57,4.79,2.36,7.66,2.36,3.83,0,7.12-1.5,9.8-4.44,2.68-2.97,4.04-6.55,4.04-10.7V26.82h-3.11v-.09h0Zm-4.87,21.9c-1.61,1.14-3.58,1.75-5.87,1.75s-4.26-.57-5.87-1.75c-1.47-1.07-2.58-2.54-3.26-4.37-.54-1.36-.79-2.83-.79-4.37s.25-3.01,.79-4.37c.72-1.82,1.79-3.29,3.26-4.33,1.61-1.18,3.58-1.79,5.87-1.79s4.26,.61,5.87,1.79c1.47,1.07,2.54,2.5,3.26,4.33,.5,1.36,.79,2.83,.79,4.37s-.25,3.01-.79,4.37c-.72,1.82-1.82,3.29-3.26,4.37"/>
      <path class="cls-1" d="M108.85,26.73h-.68v3.43c-.11-.11-.18-.21-.29-.29-2.68-2.93-5.98-4.44-9.8-4.44s-7.12,1.5-9.84,4.44c-2.68,2.97-4.01,6.55-4.01,10.7s1.36,7.76,4.01,10.7c2.72,2.97,6.01,4.47,9.84,4.47s7.12-1.5,9.8-4.47c.11-.11,.18-.18,.25-.29v3.47h3.76V26.72h-3.04Zm-10.77,24.99c-2.79,0-5.12-1.07-7.12-3.22-1.97-2.18-2.97-4.83-2.97-7.87s1-5.76,2.97-7.91c2-2.18,4.33-3.22,7.08-3.22s5.12,1.07,7.12,3.22c1.97,2.15,2.97,4.83,2.97,7.87s-1,5.76-2.97,7.91c-1.97,2.18-4.29,3.22-7.08,3.22"/>
      <path class="cls-1" d="M145.63,18.82h-3.11v11.31c-.07-.11-.18-.21-.25-.29-2.68-2.93-5.98-4.44-9.8-4.44s-7.12,1.5-9.84,4.44c-2.68,2.97-4.01,6.55-4.01,10.7s1.36,7.76,4.01,10.7c2.68,2.97,6.01,4.47,9.84,4.47s7.12-1.5,9.8-4.47c.11-.11,.18-.18,.25-.29v3.43h3.79V18.85h-.68v-.04h0Zm-13.17,32.9c-2.79,0-5.12-1.07-7.12-3.22-1.97-2.15-2.97-4.83-2.97-7.87s1-5.76,2.97-7.91c2-2.18,4.33-3.22,7.12-3.22s5.12,1.07,7.12,3.22c1.97,2.18,2.97,4.83,2.97,7.87s-1,5.76-2.97,7.91c-2,2.15-4.33,3.22-7.12,3.22"/>
      <polygon class="cls-1" points="154.14 26.73 153.46 26.73 153.46 27.41 153.46 53.74 153.46 54.42 154.14 54.42 156.54 54.42 157.22 54.42 157.22 53.74 157.22 27.41 157.22 26.73 156.54 26.73 154.14 26.73"/>
      <polygon class="cls-1" points="156.54 18.82 154.14 18.82 153.46 18.82 153.46 19.54 153.46 22.19 153.46 22.87 154.14 22.87 156.54 22.87 157.22 22.87 157.22 22.19 157.22 19.54 157.22 18.82 156.54 18.82"/>
      <path class="cls-1" d="M188.38,31.81c-.43-.72-.89-1.4-1.43-2.04-2.43-2.9-5.55-4.37-9.27-4.37s-6.69,1.43-9.12,4.22v-2.86h-3.76v27.66h3.76v-13.85c0-3.26,.89-6.01,2.65-8.09,1.72-2.04,3.83-3.01,6.44-3.01s4.72,1,6.44,3.01c.39,.47,.75,1,1.07,1.5l.39,.64,.61-.43,2-1.43,.5-.36-.29-.61v.02h0Z"/>
      <path class="cls-3" d="M14.07,41.44c-1.43-.72-2.79-1.54-4.15-2.43-.57-.39-1.14-.75-1.68-1.18l3.76,6.01-4.11,9.91h7.73l2.86-7.19,.04-.07,.93-2.33h0l.21-.54c-1.07-.36-2.15-.75-3.18-1.14-.86-.32-1.65-.68-2.4-1.04"/>
      <path class="cls-3" d="M12.53,27.77c1.47,1,3.18,1.9,5.04,2.68,.82,.36,1.65,.68,2.54,1,1.25,.47,2.54,.89,3.86,1.29l3.4-8.55,3.83,9.62,.25,.68,.07,.21c2.15,.47,4.19,.82,6.08,1.11,.64,.11,1.29,.18,1.86,.29,1.5,.21,2.86,.36,4.01,.47l.82,.07-5.44-2.04L27.33,6.87l-9.16,22.04-5.65-1.14h.01Z"/>
      <path class="cls-3" d="M44.44,48.09h-1.75c-.82-.04-1.65-.07-2.47-.11-1.18-.07-2.36-.18-3.51-.36-.86-.11-1.72-.21-2.54-.36l2.93,1.36,2.04,5.12h7.66l-1.9-4.54,2.43-1.22c-.93,.04-1.9,.11-2.9,.11"/>
      <path class="cls-1" d="M46.41,42.37c-1.18,.07-2.4,.11-3.61,.11-1.68,0-3.4-.07-5.12-.18l.11-1.47c2.54,.18,5.04,.25,7.48,.14l-1.93-2.4S-25.07,32.34,21.34,0c0,0-.64,.39-1.57,1-.25,.14-.47,.32-.75,.5-.25,.18-.54,.36-.82,.57-.57,.43-1.18,.82-1.75,1.29-.29,.21-.57,.47-.86,.68s-.57,.47-.82,.68-.54,.43-.79,.64c-.25,.18-.47,.39-.68,.57-.82,.75-1.36,1.22-1.36,1.22l-.5-.57s.57-.47,1.47-1.18c.21-.18,.47-.36,.72-.54s.54-.39,.82-.61c.29-.21,.57-.43,.89-.61,.32-.21,.61-.43,.93-.61,.61-.43,1.25-.79,1.86-1.18,.29-.18,.61-.36,.86-.5,.29-.14,.54-.32,.79-.43,.97-.54,1.65-.86,1.65-.86,0,0-43.54,18.96-6.51,39.68,0,0,18.96,8.16,34.35,6.05l-2.83-3.43h-.03ZM3.01,17.89c.04-.18,.11-.36,.18-.57,.04-.11,.07-.25,.11-.36,.07-.11,.11-.25,.18-.39,.11-.25,.25-.57,.36-.86,.14-.29,.32-.61,.47-.93,.07-.14,.18-.32,.25-.47,.11-.14,.18-.32,.29-.47,.21-.32,.39-.64,.61-.97,.21-.32,.47-.61,.68-.93s.47-.57,.68-.86,.43-.54,.68-.79c.21-.25,.43-.47,.61-.68,.39-.43,.72-.72,.93-.97,.21-.21,.36-.36,.36-.36l.64,.61s-.14,.14-.36,.36c-.21,.25-.54,.57-.89,1-.18,.21-.36,.43-.57,.68-.21,.21-.39,.5-.61,.79-.21,.29-.43,.54-.64,.86-.21,.29-.39,.61-.61,.89-.18,.32-.36,.61-.54,.93-.11,.14-.18,.32-.29,.47-.07,.14-.14,.32-.21,.47-.14,.29-.29,.61-.43,.86-.11,.29-.21,.57-.32,.82-.04,.14-.11,.25-.14,.36-.04,.11-.07,.21-.11,.32-.07,.21-.11,.39-.14,.54-.07,.29-.14,.47-.14,.47l-1.25-.29c.07-.04,.14-.21,.25-.54m4.77,14.08s-.54-.54-1.36-1.36c-.18-.21-.39-.47-.61-.72-.21-.25-.47-.5-.64-.82-.21-.29-.43-.61-.64-.93-.25-.29-.39-.68-.57-1l-.29-.5c-.11-.18-.14-.36-.25-.54-.14-.36-.29-.72-.43-1.07-.11-.36-.18-.72-.29-1.04-.04-.14-.07-.32-.11-.5s-.04-.32-.07-.47c-.04-.14-.04-.29-.07-.43-.04-.14-.04-.29-.04-.39v-1.07l1.32-.04s0,.18,.04,.5c0,.14,0,.36,.04,.57,0,.11,0,.21,.04,.36,.04,.11,.04,.21,.07,.36,.04,.11,.04,.25,.07,.39,0,.14,.04,.29,.11,.43,.07,.29,.18,.61,.25,.89,.11,.32,.25,.61,.39,.93,.07,.14,.11,.32,.21,.47l.25,.47c.18,.29,.32,.64,.54,.89,.21,.29,.39,.57,.57,.82,.18,.29,.43,.5,.61,.75,.21,.25,.39,.47,.57,.64,.79,.75,1.29,1.25,1.29,1.25l-1,1.14v.02Zm12.91,6.97s-.72-.25-1.79-.61c-.25-.11-.57-.18-.86-.29s-.61-.25-.93-.39-.68-.29-1-.43c-.18-.07-.36-.14-.54-.21l-.54-.25c-.36-.18-.68-.36-1.04-.5s-.64-.36-.97-.54c-.29-.18-.57-.36-.86-.5l-.04-.04h-.04l-.07-.04-.11-.07c-.07-.04-.14-.07-.18-.14-.11-.07-.25-.18-.36-.25-.93-.64-1.54-1.04-1.54-1.04l.86-1.22s.61,.43,1.54,1.07c.11,.07,.25,.18,.36,.25,.07,.04,.11,.07,.18,.14l.07,.07h.04l.04,.04c.29,.18,.57,.32,.86,.5s.61,.36,.93,.5,.64,.32,.97,.47l.5,.25c.14,.07,.32,.14,.5,.21,.32,.14,.64,.29,.97,.39,.32,.14,.61,.25,.93,.39,.29,.11,.57,.21,.82,.29,1.04,.36,1.72,.61,1.72,.61l-.43,1.32v.02h0Zm14.31,3.08c-4.01-.43-7.98-1.22-11.77-2.25l.39-1.43c3.72,1.04,7.62,1.79,11.56,2.22l-.18,1.47h0Z"/>
      <path class="cls-2" d="M18.29,48.02s.07,.04,.04,.04h0l-.04-.04h0Z"/>
      <path class="cls-3" d="M33.17,75.93c-2.9,0-5.22,1.07-6.87,3.15-.47,.57-.86,1.22-1.18,1.93-.32-.72-.75-1.36-1.22-1.93-1.68-2.08-3.97-3.15-6.87-3.15s-5.19,1.04-6.83,3.08v-2.08h-2.5v20.72h2.5v-10.38c0-2.83,.64-5.08,1.9-6.62,1.18-1.47,2.83-2.18,4.94-2.18s3.76,.75,4.94,2.18c1.25,1.57,1.9,3.83,1.9,6.65v10.34h2.54v-10.34c0-2.86,.64-5.08,1.9-6.65,1.14-1.47,2.83-2.18,4.94-2.18s3.79,.75,4.94,2.18c1.25,1.57,1.9,3.83,1.9,6.65v10.34h2.5v-10.34c0-3.43-.82-6.19-2.47-8.23-1.72-2.08-4.01-3.15-6.94-3.15"/>
      <path class="cls-3" d="M58.18,75.93c-3.11,0-5.83,1.11-8.05,3.33s-3.33,4.94-3.33,8.05,1.11,5.83,3.33,8.01c2.22,2.22,4.9,3.33,8.05,3.33s5.83-1.11,8.01-3.33c2.22-2.22,3.33-4.9,3.33-8.01s-1.11-5.83-3.33-8.05c-2.18-2.18-4.9-3.33-8.01-3.33m0,20.21c-2.43,0-4.54-.86-6.26-2.58s-2.58-3.83-2.58-6.26,.86-4.54,2.58-6.26c1.72-1.72,3.83-2.58,6.26-2.58s4.54,.86,6.26,2.58c1.72,1.72,2.58,3.83,2.58,6.26s-.86,4.54-2.58,6.26-3.83,2.58-6.26,2.58"/>
      <path class="cls-3" d="M85.38,75.96c-3.11,0-5.83,1.11-8.05,3.33-.29,.29-.57,.61-.82,.89v-9.3h-2.5v26.76h2.5v-3.22c.25,.32,.54,.61,.82,.89,2.22,2.22,4.9,3.33,8.05,3.33s5.83-1.11,8.01-3.33c2.22-2.22,3.33-4.9,3.33-8.01s-1.11-5.83-3.33-8.05c-2.18-2.18-4.9-3.29-8.01-3.29m0,20.18c-2.43,0-4.54-.86-6.26-2.58-1.72-1.72-2.58-3.83-2.58-6.26s.86-4.54,2.58-6.26c1.72-1.72,3.83-2.58,6.26-2.58s4.54,.86,6.26,2.58c1.72,1.72,2.58,3.83,2.58,6.26s-.86,4.54-2.58,6.26c-1.72,1.72-3.83,2.58-6.26,2.58"/>
      <rect class="cls-3" x="101.55" y="70.88" width="2.5" height="2.54"/>
      <rect class="cls-3" x="101.55" y="76.97" width="2.5" height="20.72"/>
      <rect class="cls-3" x="109.81" y="70.88" width="2.5" height="26.76"/>
      <rect class="cls-3" x="118.08" y="70.88" width="2.5" height="2.54"/>
      <rect class="cls-3" x="118.08" y="76.97" width="2.5" height="20.72"/>
      <polygon class="cls-3" points="130.89 70.88 128.35 70.88 128.35 76.97 124.3 76.97 124.3 79.4 128.35 79.4 128.35 97.65 130.89 97.65 130.89 79.4 134.89 79.4 134.89 76.97 130.89 76.97 130.89 70.88"/>
      <path class="cls-3" d="M159.22,82.55l-.64-1.11c-1-1.72-2.43-3.08-4.15-4.08-1.72-.97-3.61-1.47-5.62-1.47-3.11,0-5.83,1.11-8.05,3.33-2.18,2.22-3.33,4.94-3.33,8.05s1.11,5.83,3.33,8.01c2.22,2.22,4.94,3.33,8.05,3.33,2,0,3.86-.5,5.62-1.47,1.72-.97,3.11-2.36,4.15-4.08l.11-.21-2.15-1.29-.14,.21c-.79,1.32-1.9,2.4-3.26,3.15-1.32,.75-2.79,1.14-4.37,1.14-2.43,0-4.54-.86-6.26-2.58-.29-.29-.54-.57-.79-.89l16.39-9.45,1.11-.61v.02h0Zm-10.41-4.12c1.54,0,3.01,.39,4.37,1.14,.97,.54,1.82,1.25,2.54,2.11l-15.17,8.73c-.39-1-.57-2.08-.57-3.15,0-2.43,.86-4.54,2.58-6.26,1.72-1.68,3.83-2.58,6.26-2.58"/>
      <polygon class="cls-3" points="152.89 67.38 148.95 67.38 145.84 74.21 147.81 74.21 152.89 67.38"/>
      <path class="cls-3" d="M174.79,86.8c-1-.29-2.15-.29-3.11,0-.72,.21-1.29,.54-1.72,1-.47,.5-.72,1.11-.72,1.82,0,1,.43,1.75,1.22,2.25,.47,.29,1.36,.61,2.61,.89,1.04,.25,1.75,.5,2.15,.72,.64,.36,.93,.86,.93,1.47,0,.47-.14,.86-.47,1.18-.29,.32-.72,.54-1.22,.68-.79,.25-1.75,.25-2.54,0-.5-.14-.89-.39-1.22-.68-.32-.32-.5-.72-.5-1.18v-.11h-1v.11c0,.72,.25,1.32,.72,1.82,.43,.47,1,.79,1.72,1,.5,.14,1,.21,1.57,.21,.54,0,1.07-.07,1.57-.21,.72-.21,1.29-.57,1.68-1,.47-.5,.72-1.14,.72-1.82,0-.97-.43-1.75-1.22-2.25-.47-.29-1.36-.61-2.61-.93-1.04-.25-1.75-.5-2.15-.72-.64-.36-.93-.86-.93-1.5,0-.47,.18-.86,.5-1.18,.29-.29,.72-.54,1.22-.68,.79-.25,1.75-.25,2.54,0,.5,.14,.93,.39,1.22,.68,.32,.32,.47,.75,.47,1.18v.11h1v-.11c0-.72-.25-1.32-.72-1.82-.43-.39-1-.72-1.72-.93"/>
      <path class="cls-3" d="M183.77,87.41l-.47-.97-5.19,11.23h1.11l1.5-3.29h5.19l1.5,3.29h1.11l-4.76-10.27h.01Zm1.72,6.1h-4.33l2.15-4.65,2.18,4.65Z"/>
    </g>
  </g>
</svg>