<?xml version="1.0" encoding="UTF-8"?>
<svg id="Layer_2" data-name="Layer 2" xmlns="http://www.w3.org/2000/svg" viewBox="0 0 182.22 145.6">
  <defs>
    <style>
      .cls-1 {
        fill: #91bf25;
      }

      .cls-2 {
        fill: #263577;
      }
    </style>
  </defs>
  <g id="Calque_1" data-name="Calque 1">
    <g>
      <path class="cls-1" d="M80.38,51.48c1-.31,1.97-.09,2.89,.03,6.33,.87,11.08,4.13,14.09,9.76,1.66,3.1,2.28,6.45,1.99,9.99-.4,4.74-2.05,8.95-5.1,12.58-3.69,4.38-8.38,7.11-14.08,7.8-8.06,.97-15-1.54-20.61-7.42-4.02-4.21-6.28-9.31-6.99-15.08-.89-7.24,1.03-13.83,4.73-19.99,2.97-4.94,6.79-9.15,11.05-13,8.12-7.33,17.36-12.95,27.22-17.57,8.24-3.86,16.75-7.02,25.75-8.68,2.65-.49,5.33-.8,8.2-.61-.78,.36-1.47,.25-2.12,.35-5.52,.84-10.74,2.69-15.87,4.81-8.83,3.63-17.18,8.17-25.11,13.49-5.17,3.47-10.06,7.28-14.53,11.64-3.76,3.67-7.13,7.63-9.75,12.21-2.71,4.73-4.21,9.76-3.78,15.26,.67,8.53,6.44,16.48,15.31,18.14,10.28,1.92,18.39-5.14,19.38-13.87,.66-5.77-.75-10.91-4.87-15.13-1.97-2.02-4.32-3.45-7.01-4.3-.26-.08-.57-.09-.81-.39l.02-.02h0Z"/>
      <path class="cls-2" d="M120.95,91.84c-1.4,0-2.8-.02-4.19,0-.56,0-.87-.18-1.11-.69-2-4.38-4.02-8.75-6.04-13.13-3.01-6.54-6.05-13.07-9.03-19.63-4.21-9.25-8.65-18.4-12.61-27.76-.26-.62-.19-.93,.39-1.26,2.2-1.25,4.38-2.53,6.63-3.69,.56-.29,.83-.21,1.08,.38,5.28,12.21,10.95,24.23,16.5,36.31,4.39,9.54,8.78,19.08,13.17,28.62,.36,.79,.34,.83-.54,.83h-4.25v.02Z"/>
      <path class="cls-2" d="M80.69,15.26c-.74,1.61-1.42,3.07-2.09,4.53-1.08,2.34-2.17,4.68-3.23,7.02-.22,.48-.53,.83-.96,1.13-6.46,4.35-11.94,9.71-16.62,15.92-.16,.21-.32,.42-.49,.62-.02,.03-.08,.02-.25,.06,.43-.96,.83-1.85,1.23-2.73,5.86-12.71,11.73-25.41,17.57-38.12,.68-1.47,1.47-2.76,3.06-3.36,2.39-.9,5.03,.06,6.13,2.37,2.21,4.68,4.35,9.4,6.54,14.09,.22,.48,.12,.72-.35,.95-2.33,1.16-4.64,2.36-6.86,3.72-.51,.32-.75,.2-.98-.32-.86-1.91-1.74-3.81-2.7-5.89h0Z"/>
      <path class="cls-1" d="M75.96,61.71c3.69,0,6.6,2.99,6.58,6.72-.02,3.61-3.06,6.61-6.68,6.6-3.62,0-6.67-3.1-6.65-6.73,.02-3.63,3.06-6.61,6.75-6.59h0Z"/>
      <path class="cls-2" d="M4.72,110.87c.14,.94-.3,1.14-1.01,1.07-.5-.05-1.02,0-1.51-.09-.9-.17-1.35-.67-1.4-1.58-.04-.79-.04-1.59,0-2.38,.05-1.03,.51-1.52,1.52-1.73,.67-.13,1.35-.12,2.02-.03,.77,.1,1.27,.54,1.44,1.32,.14,.63,.28,1.27,.42,1.9,.13,.56,.49,.9,1.07,.9,2.07,0,4.14,.09,6.21-.05,.72-.05,.95-.41,.92-1.08-.03-.79,.01-1.59,0-2.38-.02-.64,.38-.66,.85-.67,.48,0,.79,.1,.78,.67-.02,.82,.01,1.64,0,2.46-.02,.61,.19,.98,.85,.99,.12,0,.24,.04,.36,.06,1.88,.24,2.22-.06,2.22-1.91,0-.53,.02-1.06,0-1.59-.03-.57,.28-.68,.77-.67,.48,0,.87,.02,.86,.66-.02,.84,0,1.69,0,2.53,0,.31-.05,.7,.32,.81,.48,.14,.98,.27,1.49,.13,.06-.02,.13-.1,.13-.15-.04-.79,.28-1.61-.08-2.38-.23-.49-.11-.98,.08-1.39,.18-.39,.64-.15,.99-.1,1.17,.16,2.34,.33,3.5,.5,1.43,.21,1.85,.63,2.07,2.06,.22,1.45,.28,1.5,1.79,1.53,2.06,.03,2.11-.02,2.11-2.06,0-.51,.02-1.01,0-1.52-.02-.55,.3-.63,.74-.62,.42,0,.78,.02,.77,.59-.02,1.01,.03,2.03-.03,3.03-.07,1.24-.95,2.12-2.28,2.19-1.14,.06-2.32,.28-3.39-.37-.17-.1-.32-.08-.47,.03-.57,.4-1.22,.39-1.88,.39-1.47,0-2.94-.04-4.41,0-.86,.03-1.61-.61-2.33-.53-.76,.09-1.5,.55-2.35,.53-.83-.02-1.64-.03-2.36-.51-.22-.15-.4-.1-.6,.03-.64,.4-1.34,.49-2.08,.48-1.86-.02-3.71,0-5.57,0-1.19,0-1.54-.14-2.52-1.06v-.02h0Zm-.95-.6c.71,.11,.87-.2,.7-.84-.11-.42-.15-.85-.23-1.28-.07-.37-.3-.61-.67-.66-.4-.05-.84,.03-1,.41-.27,.63-.28,1.35-.02,1.97,.2,.47,.8,.32,1.23,.39h0Zm22.03-1.13c.01-.53-.1-.97-.76-.97-.72,0-.78,.47-.78,1.02s.08,.98,.75,.98c.71,0,.79-.48,.79-1.02h0Zm1.12,.24c.44,.16-.42,.79,.35,.83,.52,.02,.93-.29,.95-.87,.03-.56-.32-.86-.84-.88-.71-.02-.22,.58-.47,.92h.01Z"/>
      <path class="cls-2" d="M116.09,110.26c.93-.05,2.06,.08,3.19-.09,.67-.1,.98-.41,.97-1.09-.02-.77,.02-1.54,0-2.31-.03-.68,.38-.69,.89-.71,.54,0,.8,.15,.77,.74-.03,.79-.03,1.59,.01,2.38,.04,.8,.64,1.21,1.4,1.02,.46-.11,.72-.36,.71-.86,0-.51,.01-1.01,0-1.52-.01-.58,.01-1.04,.81-1.03,.83,0,.78,.52,.77,1.07,0,.46-.01,.92,0,1.37,.02,.67,.36,.99,1.05,1,.62,0,1.06-.37,1.07-1.01,.02-.82,.03-1.64,0-2.46-.02-.6,.28-.72,.8-.72s.88,.1,.85,.74c-.03,.91,0,1.83,0,2.74-.02,1.69-.7,2.35-2.38,2.38-.77,0-1.45-.37-2.14-.47-.63-.09-1.35,.43-2.11,.5-.8,.07-1.45-.7-2.19-.37-.72,.32-1.44,.34-2.19,.34-1.69,0-3.37,.02-5.06,0-.6,0-.84,.14-.87,.8-.08,1.51-.39,1.93-2.82,2.25-.32,.04-.64,.11-.88-.29-.59-.99-.55-1.12,.58-1.28,.29-.04,.58-.05,.86-.12,.47-.12,.65-.47,.63-.93-.02-.54-.45-.38-.76-.41-.22-.02-.43-.02-.65,0-1.98,.17-2.67-1.17-2.54-2.92,.16-2.06,1.2-2.93,3.27-2.93,.51,0,1.01,.03,1.52,0,.65-.05,.85,.24,.82,.85-.03,.89,0,1.78-.01,2.67-.01,.5,.18,.69,.68,.67,.91-.02,1.83,0,2.95,0h0Zm-5.26-1.26c0-.93-.26-1.4-.79-1.41-1.06,0-1.72,.56-1.72,1.49,0,.85,.42,1.18,1.51,1.18,.67,0,1-.42,1-1.27h0Z"/>
      <path class="cls-2" d="M48.14,110.6v.8c0,.36-.18,.53-.53,.52h-.14c-2.73,.14-3.29-.4-3.26-3.13v-.36c.11-1.78,.69-2.34,2.48-2.36,.34,0,.68,0,1.01,.03,.8,.07,1.35,.47,1.55,1.28,.16,.65,.3,1.31,.45,1.97,.13,.56,.5,.89,1.07,.9,1.95,0,3.9,.04,5.85-.05,1.19-.06,1.29-.26,1.29-1.44,0-.7,.01-1.4,0-2.09,0-.68,.48-.58,.91-.6,.44-.02,.75,.06,.74,.61-.02,.77-.01,1.54,0,2.31,.01,.84,.42,1.28,1.15,1.25,.71-.02,.97-.34,.98-1.21,0-.53,.01-1.06,0-1.59,0-.58,.37-.63,.83-.63s.75,.13,.75,.64c0,.6,0,1.2,.01,1.81,.02,.66,.39,.98,1.07,.98,.59,0,1.03-.37,1.05-.96,.03-.84,.04-1.69,0-2.53-.02-.62,.32-.7,.82-.7s.85,.06,.83,.69c-.03,.96,.01,1.93,0,2.89-.03,1.58-.74,2.26-2.33,2.29-.68,0-1.36-.02-1.94-.42-.21-.14-.36-.12-.58,0-1.12,.59-2.26,.6-3.39,.04-.22-.11-.39-.12-.6,0-.48,.32-1.03,.38-1.59,.37h-6c-1.2,0-1.7-.26-2.49-1.32h.01Zm-.88-.33c.68,.1,.9-.14,.71-.8-.12-.43-.15-.9-.25-1.34-.08-.36-.3-.61-.68-.64-.4-.03-.81,.07-.99,.44-.3,.6-.32,1.27-.05,1.88,.24,.54,.83,.36,1.26,.46h0Z"/>
      <path class="cls-2" d="M94.21,109.37c0-.8,.02-1.59,0-2.39-.02-.59,.08-.94,.82-.93,.69,0,.87,.27,.84,.9-.04,.79,0,1.59-.01,2.38-.01,.65,.36,.84,.92,.83,.57,0,1.17,.02,1.2-.79,.02-.63,.02-1.25,.01-1.88,0-.56,.31-.68,.79-.68s.8,.12,.79,.68c0,.6-.01,1.21,.01,1.81,.02,.63,.38,.97,1.03,.92,.56-.04,1.07-.22,1.08-.92,.02-.84,.03-1.69,0-2.53-.02-.61,.29-.71,.8-.71s.88,.08,.86,.74c-.03,.99,.02,1.98-.02,2.96-.05,1.4-.77,2.1-2.18,2.16-.75,.03-1.5,0-2.15-.45-.15-.11-.28-.15-.45-.02-.62,.46-1.34,.51-2.07,.47-.41-.02-.61,.12-.66,.55-.08,.68-.44,1.23-1.01,1.61-1.27,.85-2.64,.99-4.07,.49-1.05-.36-1.56-1.16-1.6-2.26-.02-.43,.02-.87-.01-1.3-.05-.61,.17-.87,.81-.86,.62,0,.89,.25,.83,.86-.02,.26,0,.53,0,.79,.02,1.07,.47,1.5,1.57,1.5,1.29,0,1.85-.46,1.86-1.55v-2.39h.01Z"/>
      <path class="cls-2" d="M77.77,137.7c-.44,.94-.84,1.83-1.27,2.7-.15,.3-.17,.78-.64,.78-.5,0-.95-.24-1.19-.7-.29-.55-.53-1.13-.79-1.7-.16-.34-.32-.68-.58-1,0,1.39,.01,2.77-.01,4.16,0,.31,.2,.83-.38,.84-.53,0-1.09-.11-1.24-.76-.05-.21-.03-.43-.03-.65,0-2.02-.02-4.05,.01-6.07,0-.39-.29-.97,.39-1.15,.76-.2,1.49,.09,1.79,.73,.45,.93,.85,1.89,1.28,2.83,.13,.27,.14,.74,.46,.75,.33,0,.36-.45,.49-.72,.47-.98,.93-1.96,1.35-2.96,.22-.53,.56-.74,1.12-.63,.6,.12,1.06,.36,1.08,1.05,.02,.89,.01,1.78,.02,2.67,0,1.3,.02,2.6-.01,3.9,0,.37,.24,.96-.46,1-.74,.05-1.25-.39-1.27-1.07-.02-1.08,0-2.17-.01-3.25,0-.23,.07-.47-.1-.76h-.01Z"/>
      <path class="cls-2" d="M167.83,106.75c0-1.01,.02-2.02,0-3.03-.01-.61,.32-.7,.83-.69,.5,0,.82,.07,.81,.7-.03,1.73-.01,3.47,0,5.2,0,.99,.3,1.31,1.28,1.33,.87,.02,1.73,.02,2.6-.03,.36-.02,.81-.05,.93-.54,.13-.5-.13-.81-.53-1.07-.69-.44-1.38-.88-2.05-1.36-.87-.62-1.09-1.6-.68-2.86,.25-.8,.86-1.17,1.93-1.21,.77-.03,1.54-.09,2.3-.13,.41-.02,.72,.06,.71,.57,0,.46,.08,.96-.61,1-.58,.03-1.16,.04-1.73,.09-.43,.04-.91,.09-1.06,.59-.15,.53,.27,.77,.63,1.02,.68,.46,1.37,.9,2.03,1.38,.88,.62,1.11,1.66,.69,3-.27,.85-.85,1.22-1.97,1.22h-3.76c-1.61-.02-2.28-.68-2.35-2.28v-2.9Z"/>
      <path class="cls-2" d="M11.33,131.02c-.52,.03-1.2-.13-1.89-.23-.51-.08-.7-.3-.56-.83,.13-.46,.21-.81,.85-.66,.93,.22,1.89,.36,2.86,.21,.34-.05,.66-.13,.95-.31,.5-.31,.61-.95,.2-1.36-.56-.56-1.3-.88-2.06-.96-.54-.06-.87,.53-1.29,.84-.33,.24-.57,.39-.91,0-.37-.42-.42-.72,.1-1.03,.45-.27,.49-.55,.08-.95-.62-.6-.85-1.4-.88-2.23-.05-1.11-.02-2.21-.02-3.32,0-.27,0-.58,.35-.61,.38-.03,.91-.25,1.1,.22s.36,.24,.56,.1c.41-.28,.85-.45,1.34-.5,2.09-.21,3.45,1.37,2.96,3.43-.24,1.01-.85,1.77-1.59,2.43-.39,.35-.43,.55,.11,.79,1.09,.49,1.96,1.2,1.85,2.55-.09,1.09-1.09,1.96-2.48,2.3-.48,.12-.95,.11-1.62,.12h0Zm-1.08-8.02c0,.67,.14,1.3,.6,1.81,.31,.34,.64,.45,1.06,.1,.51-.44,1-.9,1.38-1.47,.43-.65,.35-1.79-.13-2.29-.49-.51-1.29-.55-1.99-.13-.77,.46-.87,1.21-.92,1.99h0Z"/>
      <path class="cls-2" d="M70.52,106.56c0-.94,.02-1.88,0-2.81-.02-.66,.36-.72,.88-.72s.87,.08,.87,.73c-.02,1.78,0,3.56,0,5.34,0,.6,.12,1.04,.85,1.06,.86,.03,1.14-.14,1.25-.93,.05-.38,.02-.77,.05-1.15,.06-1.04,.56-1.7,1.54-1.92,.78-.17,1.58-.18,2.36,0,1.4,.33,1.58,1.39,1.59,3.01,0,.29-.05,.57-.09,.86-.12,.9-.57,1.53-1.48,1.74-1.02,.23-2.06,.29-3.02-.22-.29-.16-.51-.14-.79,.02-.93,.52-1.9,.44-2.86,.1-.64-.23-.92-.74-1.01-1.38-.04-.26-.09-.52-.09-.79-.01-.99,0-1.97,0-2.96h0l-.05,.02h0Zm7.64,2.46c0-1.06-.21-1.45-.91-1.52-.52-.05-1.02,.04-1.19,.66-.25,.97-.02,2.03,.49,2.22,.07,.02,.14,.03,.21,.05,1.01,.17,1.4-.22,1.4-1.41Z"/>
      <path class="cls-2" d="M146.21,111.93c-1.2,0-2.41,.02-3.61,0-.54,0-.76,.14-.78,.73-.07,1.66-1.69,2.67-3.25,2.08-.58-.22-.37-.71-.38-1.11,0-.41,.32-.32,.58-.31,1.26,.04,1.41-.1,1.41-1.39,0-1.61,.01-3.23,0-4.84,0-.58,0-1.06,.81-1,.79,.05,.84,.06,.84,1.04,0,.84,.02,1.69,0,2.53-.01,.47,.17,.64,.64,.63h7.01c.14,0,.29-.04,.43-.04,.76,0,1.07-.35,1.02-1.12-.05-.77,0-1.54-.01-2.31-.02-.58,.27-.72,.8-.73,.54,0,.81,.16,.79,.74-.02,.82,0,1.64,0,2.46-.04,1.69-.96,2.63-2.67,2.67-1.2,.03-2.41,0-3.61,0h0l-.02-.02h0Z"/>
      <path class="cls-2" d="M155.36,139.34c0-.77,.01-1.54,0-2.31,0-.45,.09-.71,.62-.52,.38,.14,.76,.05,1.14-.04,.33-.07,.69-.22,.99-.14,1.28,.33,2.53,.1,3.8,.02,1.49-.09,2.3,.85,2.32,2.34,0,1.06,.02,2.12,0,3.18,0,.33,.22,.84-.44,.86-.64,.02-1.15-.35-1.17-.92-.03-.84-.01-1.69-.02-2.53,0-.26,.01-.53-.02-.79-.07-.56-.37-.88-.96-.84-.57,.04-.98,.26-.99,.91,0,1.08,.01,2.17-.02,3.25-.01,.35,.24,.9-.46,.91-.67,.02-1.14-.37-1.16-1.01-.02-1.04,0-2.07-.01-3.11,0-.57-.25-.9-.85-.95-.92-.08-1.11,.09-1.11,1.01,0,1.06,.02,2.12-.01,3.18-.01,.32,.27,.84-.4,.89-.66,.05-1.21-.34-1.23-.94-.03-.82,0-1.64,0-2.46h-.02Z"/>
      <path class="cls-2" d="M115.15,139.35v-2.31c0-.44,.06-.73,.6-.53,.35,.13,.71,.07,1.07-.02,.86-.23,1.72-.25,2.54,.13,.27,.12,.51,.06,.76-.03,.45-.18,.92-.27,1.41-.27,1.58,0,2.44,.82,2.47,2.39,.02,1.06,.02,2.12,0,3.18,0,.33,.2,.84-.45,.86-.64,.02-1.14-.35-1.15-.93-.03-.87,0-1.73-.01-2.6,0-.22,0-.44-.02-.65-.08-.57-.33-.95-.98-.9-.63,.05-.98,.34-.98,1,0,1.06,.02,2.12-.01,3.18,0,.35,.22,.89-.48,.89-.66,0-1.11-.36-1.12-.95-.02-1.04,0-2.07-.01-3.11,0-.59-.27-.95-.89-1-.87-.07-1.06,.09-1.07,.98,0,1.08,.01,2.17-.01,3.25,0,.31,.19,.78-.4,.84-.6,.06-1.2-.32-1.22-.86-.04-.84,0-1.69,0-2.53h-.05Z"/>
      <path class="cls-2" d="M26.14,122.12c.45-.63,.77-1.3,1.3-1.83,.53-.52,1.14-.9,1.91-.9s1.39,.33,1.74,1.06c.29,.62,.4,1.29,.41,1.96,.02,1.54,0,3.08,.01,4.62,0,.54-.16,.78-.74,.79-.61,0-.79-.24-.78-.82,.03-1.3,.01-2.6,0-3.9,0-.36-.06-.72-.11-1.07-.07-.44-.15-.88-.68-.99-.51-.1-.89,.15-1.19,.53-.85,1.09-1.25,2.38-1.55,3.7-.14,.63-.25,1.28-.3,1.92-.04,.58-.38,.63-.83,.63-.48,0-.79-.12-.79-.68v-6.93c0-.62,.38-.67,.86-.68,.51,0,.76,.17,.74,.71-.02,.62,0,1.25,0,1.87h0Z"/>
      <path class="cls-2" d="M148.48,137.99c0,.17-.01,.34,0,.51,.15,1.92-1.17,2.73-3.06,2.53-.26-.03-.7-.4-.79,.08-.08,.48,.44,.49,.78,.52,.5,.04,1.01,0,1.52,.03,.92,.04,1.5,.44,1.66,1.12,.23,.97-.09,1.96-.85,2.35-1.21,.62-2.47,.62-3.69,.04-.69-.32-.87-1.03-.52-1.65,.15-.26,.25-.38,.49-.03,.5,.74,1.79,1.02,2.59,.63,.29-.14,.48-.35,.44-.67-.05-.36-.34-.43-.65-.45-.62-.04-1.25-.05-1.87-.13-1.19-.16-1.64-1.04-1.08-2.09,.19-.35,.24-.63,.07-1.01-.27-.59-.23-1.23-.14-1.85,.15-1,1.13-1.64,2.35-1.59,.81,.03,1.59,.43,2.42,.14,.25-.09,.3,.17,.31,.37v1.16h.02Zm-1.64,.58c0-.82-.11-.95-.87-.95s-.97,.22-.97,.99c0,.81,.27,1.14,.94,1.14s.9-.32,.9-1.17h0Z"/>
      <path class="cls-2" d="M13.15,138c0,.14-.01,.29,0,.43,.17,2-1.19,2.79-3.07,2.59-.25-.03-.7-.4-.78,.09-.07,.48,.45,.48,.79,.51,.48,.04,.96,0,1.44,.03,.93,.03,1.52,.4,1.71,1.06,.27,.92-.03,1.96-.78,2.37-1.24,.67-2.54,.67-3.81,.04-.48-.23-.69-.66-.59-1.2,.05-.23,.09-.52,.33-.61,.31-.12,.28,.25,.41,.39,.46,.55,2.06,.76,2.63,.33,.2-.15,.34-.35,.29-.62-.06-.27-.27-.39-.53-.41-.65-.05-1.3-.06-1.94-.14-1.23-.16-1.7-1.05-1.11-2.12,.19-.35,.19-.62,.07-1-.29-.91-.42-1.89,.26-2.68,.65-.76,1.57-.85,2.53-.67,.56,.11,1.12,.29,1.71,.08,.31-.11,.44,.07,.44,.37v1.16h0Zm-1.65,.63c.01-.85-.09-.98-.82-1-.77-.02-1,.2-1.02,.94-.02,.83,.24,1.17,.89,1.18,.67,0,.93-.3,.95-1.13h0Z"/>
      <path class="cls-2" d="M42.3,136.58c-.7-1.03-1.97-1.47-3.26-1.15-.47,.12-.88,.31-.9,.88-.02,.62,.42,.83,.91,.94,.59,.14,1.19,.21,1.77,.35,1.53,.36,2.11,1.09,2.11,2.56,0,1.35-.7,2.18-2.11,2.53-1.11,.28-2.21,.2-3.27-.2-1.12-.43-1.32-1.21-.58-2.27,.73,1.4,2.01,1.23,3.25,1.13,.61-.05,.97-.44,1.01-1.04,.03-.6-.36-.92-.9-1.05-.68-.17-1.37-.28-2.04-.45-1.35-.34-1.94-1.07-1.93-2.33,.01-1.26,.69-2.07,2.01-2.36,1.12-.24,2.26-.25,3.35,.16,1.06,.4,1.29,1.37,.58,2.31h0Z"/>
      <path class="cls-2" d="M104.96,123.34c-.03,3.46-2.25,5.25-5.08,4.46-.69-.19-1.28-.56-1.73-1.12-1.39-1.71-1.2-5.12,.39-6.37,1.3-1.03,2.75-1.23,4.27-.53,1.68,.77,2.12,2.25,2.15,3.57h0Zm-6.11,.11c0,.71,0,1.27,.22,1.79,.38,.91,1.15,1.41,2.15,1.38,.91-.03,1.66-.62,1.94-1.55,.26-.85,.25-1.72,.08-2.57-.23-1.14-1.14-1.82-2.28-1.79-1,.03-1.85,.81-2.05,1.89-.06,.33-.05,.67-.07,.84h.01Z"/>
      <path class="cls-2" d="M64.77,124.04c-.59-.45-1.12-.83-1.61-1.24-1.16-.98-.97-2.37,.41-3.01,1.12-.52,2.28-.54,3.44-.09,.84,.32,1.37,.99,1.37,1.69s-.51,1.31-1.41,1.63c-.27,.1-.55,.16-.84,.25,0,.25,.23,.28,.36,.38,.5,.38,1.03,.71,1.46,1.18,.79,.86,.65,1.99-.36,2.57-1.38,.79-2.8,.79-4.21,.09-.62-.3-1.05-.79-1.04-1.52,.02-.73,.48-1.18,1.12-1.45,.39-.16,.81-.29,1.32-.46v-.02h0Zm.65,2.72c.3,.02,.65-.04,.99-.18,.27-.11,.56-.24,.57-.58,0-.35-.28-.6-.57-.67-.77-.2-1.57-.24-2.29,.19-.48,.28-.45,.72,.06,.99,.36,.2,.77,.26,1.24,.25h0Zm.03-4.62c.29,0,.74,0,1.14-.27,.49-.31,.5-.69,.01-1-.42-.27-.9-.3-1.38-.28-.84,.04-1.41,.37-1.31,.8,.17,.72,.78,.74,1.54,.74h0Z"/>
      <path class="cls-2" d="M176.6,123.32c.6,.46,1.14,.83,1.63,1.24,1.13,.95,.99,2.25-.31,2.92s-2.64,.67-3.95,.02c-.64-.31-1.12-.79-1.1-1.56s.55-1.19,1.19-1.49c.37-.17,.77-.28,1.24-.33-.17-.33-.48-.43-.7-.61-.38-.33-.81-.61-1.15-.98-.8-.85-.67-1.97,.35-2.57,1.35-.79,2.75-.79,4.13-.08,.62,.32,1.01,.84,.98,1.56-.03,.69-.45,1.15-1.06,1.43-.37,.17-.76,.27-1.24,.45h0Zm-.56,1.9c-.49-.02-.97,.03-1.39,.29-.46,.28-.46,.66-.02,.96,.59,.4,1.98,.4,2.57,0,.43-.29,.42-.61,.07-.95-.35-.34-.79-.31-1.22-.3h0Zm-.13-3.08c.34,.02,.75-.03,1.12-.21,.25-.12,.45-.28,.44-.59,0-.28-.2-.42-.42-.53-.4-.19-.82-.25-1.26-.22-.57,.04-1.22,.05-1.37,.77-.09,.42,.62,.78,1.49,.78h0Z"/>
      <path class="cls-2" d="M48,123.72c0,3.05-2.12,4.82-4.91,4.1-1.39-.36-2.23-1.29-2.58-2.66-.25-.97-.25-1.96-.02-2.93,.46-1.93,2.15-3.06,4.19-2.83,1.89,.21,3.24,1.68,3.31,3.6v.72h.01Zm-6.08-.06c-.04,.49,.05,.96,.19,1.42,.26,.89,1,1.48,1.88,1.54,1.03,.07,1.81-.37,2.18-1.32,.41-1.07,.45-2.16,.02-3.24-.36-.91-1.11-1.37-2.09-1.34-.91,.03-1.63,.56-1.95,1.45-.17,.48-.26,.98-.22,1.49h-.01Z"/>
      <path class="cls-2" d="M57.24,119.38c2.42,0,4.01,1.87,3.87,4.5-.18,3.13-2.61,4.85-5.39,3.81-.09-.03-.18-.07-.27-.11-1.81-.89-2.35-2.81-1.92-5.21,.34-1.88,1.81-2.98,3.71-2.98h0Zm2.26,4.3c.03-.51-.04-1.01-.2-1.49-.33-.93-1.11-1.48-2.08-1.48s-1.72,.54-2.04,1.52c-.32,.97-.29,1.95,.02,2.91,.3,.94,1.04,1.47,1.99,1.48,.99,.02,1.76-.51,2.1-1.45,.17-.48,.25-.98,.22-1.49h-.01Z"/>
      <path class="cls-2" d="M113.64,123.69c0,3.07-2.08,4.85-4.87,4.14-1.33-.33-2.18-1.18-2.56-2.49-.29-.99-.31-1.99-.1-3,.4-1.94,2.05-3.11,4.11-2.94,1.92,.16,3.34,1.64,3.42,3.57v.72Zm-6.07-.02c-.03,.54,.06,1.06,.24,1.56,.33,.9,1.1,1.41,2.06,1.41s1.7-.53,2.01-1.46c.33-1.01,.36-2.03-.01-3.04-.34-.92-1.07-1.41-2.05-1.4-.95,0-1.71,.55-2.02,1.45-.16,.48-.25,.98-.22,1.49h-.01Z"/>
      <path class="cls-2" d="M77.21,123.67c0,3.39-2.84,5.32-5.69,3.86-1.4-.72-1.85-2-2-3.46-.33-3.31,2.35-5.52,5.36-4.42,1.54,.57,2.33,1.93,2.33,4.01h0Zm-6.09,0c-.02,.53,.04,1.06,.23,1.56,.34,.91,1.09,1.43,2.04,1.43s1.71-.5,2.02-1.44c.34-1.01,.37-2.03,0-3.04-.34-.92-1.07-1.43-2.04-1.42-.96,0-1.7,.52-2.04,1.43-.18,.48-.25,.98-.22,1.49h.01Z"/>
      <path class="cls-2" d="M110.67,140.37c-.24,0-.48,.02-.72,0-.43-.03-.66,.16-.78,.57-.11,.37-.25,.73-.42,1.07-.2,.41-.55,.66-1.01,.73-.75,.11-.91-.09-.68-.8,.45-1.4,.89-2.8,1.32-4.2,.39-1.28,.94-2.47,1.84-3.48,.36-.41,.65-.39,1,0,.77,.89,1.32,1.89,1.68,3,.52,1.63,1.02,3.26,1.55,4.89,.15,.45-.04,.57-.42,.6-.49,.04-.91-.11-1.21-.51-.14-.19-.25-.41-.34-.63-.34-.83-.95-1.24-1.82-1.24h.01Zm.04-1.44c.98,0,.99,0,.69-.97-.13-.44-.29-.87-.44-1.3-.05-.13-.08-.31-.25-.32-.17,0-.21,.17-.25,.3-.15,.46-.31,.91-.44,1.37-.26,.91-.25,.91,.69,.91h0Z"/>
      <path class="cls-2" d="M6.93,142.77c-.73,0-1.21-.44-1.34-1.09-.23-1.22-.96-1.37-2.02-1.34-.85,.03-1.31,.22-1.53,1.09-.24,.96-.79,1.36-1.48,1.33-.43-.02-.68-.13-.5-.67,.54-1.62,1.02-3.26,1.55-4.89,.35-1.09,.91-2.07,1.65-2.95,.35-.41,.64-.41,1,0,.88,.97,1.42,2.11,1.81,3.34,.48,1.49,.91,2.99,1.42,4.47,.2,.58-.07,.68-.54,.69l-.02,.02h0Zm-3.23-6.7c-.23,.7-.42,1.22-.58,1.74-.34,1.11-.29,1.17,.89,1.12h.22c.31,0,.44-.14,.35-.46-.2-.76-.41-1.52-.88-2.4Z"/>
      <path class="cls-2" d="M25.26,138.49c0,1.15-.01,2.31,0,3.46,.01,.55-.09,.88-.76,.76-.47-.09-.96,0-1.43,.09-.63,.12-1.25,.04-1.84-.21-.75-.32-1.2-.86-1.21-1.71v-2.31c.01-1.51,1.2-2.48,2.69-2.22,.61,.11,.92-.15,.92-.77,0-.48,.01-.96,0-1.44-.01-.5,.22-.63,.68-.51,.62,.16,.95,.53,.94,1.18v3.67h.01Zm-1.63,1.34c-.03-.43,.07-.94-.08-1.43-.18-.57-.61-.77-1.18-.73-.55,.05-.71,.43-.72,.91v2.09c0,.47,.22,.76,.71,.83,1.06,.16,1.26,0,1.26-1.1v-.58h.01Z"/>
      <path class="cls-2" d="M163.24,123.75c0,.63,.04,1.26,0,1.88-.05,.65,.17,.94,.85,.88,.35-.03,.76-.07,.83,.46,.07,.56-.11,.86-.74,.86-.35,0-.95-.23-.9,.46,.06,.88,.1,1.4,.89,1.36,.65-.03,.63,.48,.67,.9,.04,.48-.35,.44-.65,.46-1.55,.11-2.32-.54-2.4-2.18-.04-.75-.2-1.13-1.02-1.03-.47,.06-.62-.22-.62-.66,0-.47,.22-.68,.66-.63,.78,.09,1-.26,.97-1-.05-1.23-.04-2.46,0-3.68,.02-.69-.14-1.07-.91-.98-.52,.06-.74-.2-.71-.73,.02-.39,.19-.57,.57-.57h3.61c.43,0,.6,.21,.61,.63,.01,.44-.16,.65-.63,.69-1.06,.08-1.06,.1-1.06,1.16v1.73h-.02Z"/>
      <path class="cls-2" d="M159.43,111.92c-.94,0-1.88-.02-2.81,0-.66,.02-.64-.42-.64-.87s.04-.81,.64-.8c1.66,.02,3.32,.02,4.98,0,.93,0,1.21-.24,1.29-.92,.13-1.1-.17-1.45-1.29-1.45-1.18,0-2.36-.03-3.54,0-.62,.02-.85-.19-.84-.83,0-.59,.14-.88,.81-.86,1.37,.04,2.74,0,4.11,.02,1.3,.02,1.92,.6,2.12,1.88,.1,.65,.08,1.29-.01,1.94-.18,1.24-.82,1.82-2.07,1.88h-2.75Z"/>
      <path class="cls-2" d="M145.13,119.38c.75-.02,1.42,.15,2.07,.41,.31,.12,.62,.25,.38,.67-.18,.33-.25,.85-.86,.57s-1.25-.33-1.91-.29c-.29,.02-.57,.09-.83,.23-.69,.39-.75,.99-.17,1.52,.5,.46,1.11,.54,1.75,.53,.48,0,.87,.05,.85,.68-.02,.6-.42,.62-.85,.61-.63,0-1.26,0-1.81,.38-.33,.23-.6,.52-.57,.94,.03,.43,.37,.66,.75,.8,1.02,.36,2.01,.22,2.92-.31,.55-.31,.76-.09,1.01,.34,.3,.51,0,.69-.39,.87-1.46,.66-2.94,.94-4.45,.17-1.55-.79-1.8-2.34-.54-3.54,.34-.32,.3-.46,.01-.78-1.01-1.14-.72-2.61,.64-3.32,.62-.33,1.29-.52,1.98-.5l.02,.02h0Z"/>
      <path class="cls-2" d="M36.64,119.38c.71-.02,1.38,.18,2.04,.42,.33,.12,.59,.28,.37,.68-.19,.35-.29,.83-.87,.55-.63-.3-1.3-.36-1.98-.28-.6,.07-1.22,.27-1.3,.94-.08,.68,.51,.98,1.06,1.2,.36,.15,.76,.12,1.14,.12,.43,0,.75,.09,.76,.63,0,.58-.34,.66-.8,.67-.48,0-.97-.05-1.42,.17-.49,.23-.97,.52-.93,1.15,.04,.67,.6,.83,1.13,.93,.88,.16,1.75,.04,2.51-.43,.6-.37,.8,0,1.04,.42,.3,.52-.11,.63-.43,.78-1.41,.64-2.84,.94-4.32,.26-1.64-.75-1.96-2.35-.69-3.62,.31-.31,.33-.46,.03-.8-.98-1.08-.77-2.42,.46-3.2,.67-.42,1.41-.61,2.2-.6h0Z"/>
      <path class="cls-2" d="M49.42,139.59v.72c0,1.64-.69,2.39-2.32,2.53-.55,.05-1.11,.02-1.65-.13-.92-.26-1.51-.79-1.62-1.79-.1-.94-.12-1.87,.03-2.8,.03-.16,.06-.33,.12-.49,.4-.99,1.83-1.52,3.33-1.25,1.43,.26,2.05,.89,2.1,2.14,.01,.36,0,.72,0,1.08h.01Zm-3.92-.05h0v1.01c-.02,.68,.34,.94,.98,.95,.88,0,1.24-.19,1.28-.9,.04-.7,.02-1.4,0-2.09-.01-.42-.21-.73-.65-.85-1.1-.27-1.61,.11-1.62,1.22v.65h.01Z"/>
      <path class="cls-2" d="M165.22,139.55v-.65c.03-.89,.16-1.76,1.06-2.22,1.03-.51,2.1-.54,3.12,.02,.7,.39,.96,1.06,.89,1.84s-.44,1.36-1.21,1.64c-.46,.17-.93,.21-1.42,.2-.23,0-.57-.24-.66,.17-.09,.41,.14,.68,.52,.84,.62,.26,1.67,0,2.14-.51,.12-.13,.13-.44,.37-.37,.26,.08,.27,.37,.31,.6,.1,.6-.16,1.04-.68,1.31-1.18,.61-2.38,.57-3.51-.1-.81-.47-.91-1.3-.92-2.15v-.62h-.01Zm2.65-1.9c-.5-.03-.85,.13-.9,.69-.04,.45,.16,.68,.61,.68s.97-.04,1.04-.63c.06-.51-.29-.71-.76-.74h.01Z"/>
      <path class="cls-2" d="M137.93,138.77c-.77-.62-.58-1.77,.35-2.15,1.01-.41,2.02-.44,3.02,0,.73,.32,1.09,.94,1.1,1.72,.02,1.28,0,2.55,.01,3.83,0,.39-.1,.58-.54,.53-.6-.07-1.2,.03-1.8,.11-1.35,.18-2.42-.38-2.69-1.38-.25-.91,.09-1.67,.93-2.11,.54-.28,1.14-.37,1.71-.57,.3-.11,.75-.15,.66-.61-.08-.44-.49-.47-.86-.48-.94-.03-1.26,.16-1.89,1.11Zm2.86,1.85c-.11-.19,.23-.65-.35-.64-.73,0-1.49,.47-1.48,.9,.01,.58,.46,.7,.9,.72,.71,.04,.92-.2,.93-.98h0Z"/>
      <path class="cls-2" d="M81.31,138.89c-.79-1.1-.53-1.99,.58-2.37,.7-.24,1.41-.29,2.13-.11,1.2,.29,1.7,.9,1.71,2.15,.01,1.18,0,2.36,0,3.54,0,.44-.07,.68-.6,.61-.55-.07-1.1,0-1.65,.1-.66,.11-1.3,.04-1.9-.28-.64-.34-.95-.89-.95-1.59s.29-1.25,.94-1.59c.59-.3,1.23-.4,1.85-.61,.3-.1,.66-.18,.6-.6-.06-.37-.39-.45-.71-.48-.93-.08-1.67,.17-2.02,1.22h.02Zm2.8,1.73c-.1-.18,.2-.6-.3-.63-.64-.04-1.52,.48-1.51,.89,.01,.56,.44,.71,.9,.73,.7,.04,.91-.2,.91-.99h0Z"/>
      <path class="cls-2" d="M98.75,138.81c-.75-1-.53-1.87,.55-2.27,.84-.31,1.7-.31,2.55-.03,.87,.29,1.35,.91,1.36,1.83,.02,1.28,0,2.55,.01,3.83,0,.38-.09,.59-.54,.53-.6-.07-1.2,.03-1.8,.11-1.39,.19-2.45-.4-2.71-1.45-.21-.85,.12-1.58,.89-2.01,.6-.33,1.28-.42,1.91-.63,.27-.09,.59-.19,.54-.57-.05-.34-.34-.44-.64-.48-.97-.15-1.56,.15-2.14,1.14h.02Zm2.82,1.78c-.07-.12,.27-.58-.28-.61-.7-.04-1.54,.49-1.51,.95,.05,.57,.5,.67,.94,.67,.56,0,1.02-.18,.84-1.01h.01Z"/>
      <path class="cls-2" d="M149.3,139.54v-.72c-.02-.98,.21-1.84,1.22-2.23,1.12-.43,2.24-.46,3.21,.33,1.07,.87,.69,2.79-.61,3.27-.48,.18-.98,.23-1.49,.19-.23-.02-.55-.26-.66,.15-.08,.31,.11,.55,.36,.73,.58,.43,1.86,.22,2.38-.38,.11-.13,.12-.43,.37-.35,.22,.07,.25,.34,.29,.55,.1,.58-.11,1.03-.61,1.35-.99,.63-2.86,.54-3.76-.2-.57-.47-.72-1.11-.7-1.82v-.87Zm2.41-.51c.45-.02,.94-.08,.97-.68,.02-.49-.34-.7-.82-.7-.56,0-.85,.28-.9,.81s.34,.55,.75,.57h0Z"/>
      <path class="cls-2" d="M125.01,139.53v-.58c0-.93,.13-1.82,1.07-2.28,1.06-.52,2.15-.53,3.18,.1,.66,.4,.88,1.07,.8,1.81-.08,.78-.48,1.36-1.25,1.62-.53,.18-1.08,.26-1.64,.14-.57-.12-.57,.17-.4,.57,.16,.37,.48,.56,.86,.57,.74,.03,1.46-.04,1.9-.76,.22-.36,.35-.21,.48,.06,.26,.56,.07,1.22-.46,1.6-.97,.69-2.91,.6-3.82-.17-.49-.42-.68-.98-.72-1.6-.02-.36,0-.72,0-1.08h0Zm2.55-1.88c-.57,0-.85,.31-.88,.83-.03,.53,.4,.53,.76,.53,.48,0,.98-.09,.98-.7,0-.49-.39-.68-.86-.67h0Z"/>
      <path class="cls-2" d="M18.94,140.16c0,.67-.01,1.35,0,2.02,0,.39-.11,.57-.54,.52-.55-.06-1.1,0-1.65,.11-.53,.1-1.06,.03-1.57-.13-.75-.24-1.21-.8-1.26-1.58-.06-.8,.24-1.4,.97-1.78,.56-.29,1.19-.36,1.78-.57,.29-.1,.65-.2,.58-.61-.06-.37-.39-.47-.72-.47-.77-.02-1.51,.02-1.83,.92-.14,.4-.3,.16-.42-.04-.43-.69-.2-1.56,.54-1.9,1.01-.46,2.05-.49,3.08-.03,.67,.3,1.03,.84,1.04,1.59v1.95Zm-1.53,.46c-.13-.17,.26-.65-.32-.64-.78,0-1.55,.47-1.54,.93,.02,.59,.49,.67,.92,.69,.71,.04,.93-.2,.94-.98Z"/>
      <path class="cls-2" d="M134.99,122.79v-2.53c0-.47,.14-.72,.66-.72h4.26c.47,0,.62,.23,.62,.67s-.18,.67-.64,.66h-2.31c-.66,0-.99,.34-.99,1.02v2.96c0,1.32,.54,1.82,1.86,1.75,.45-.02,.86-.15,1.21-.42,.32-.24,.56-.33,.8,.11,.21,.38,.4,.69-.09,1.04-1.1,.78-3.22,.85-4.33,.09-.74-.51-1.03-1.26-1.05-2.12-.02-.84,0-1.69,0-2.53v.02h0Z"/>
      <path class="cls-2" d="M94,122.13h1.52c.28,0,.56,.04,.58,.39,.02,.3,.15,.68-.26,.8-.33,.1-.27,.21-.16,.46,1.01,2.13-.07,3.94-2.46,4.17-.58,.06-1.16,0-1.72-.17-1.23-.35-2-1.26-2.06-2.41-.08-1.34,.59-2.44,1.79-2.93,.27-.11,.55-.22,.83-.24,.65-.06,1.3-.07,1.94-.1v.03h0Zm-1.27,4.5c1.05,0,1.89-.6,1.86-1.41-.04-.9-.71-1.93-1.51-1.89-1.28,.07-2.1,.67-2.12,1.76-.02,.93,.67,1.53,1.78,1.53h-.01Z"/>
      <path class="cls-2" d="M130.12,127.97c-.09,0-.31,0-.53-.04-1.79-.28-2.75-1.3-2.72-2.89,.03-1.52,1.2-2.74,2.89-2.87,1.08-.08,2.17-.03,3.25-.03,.26,0,.5,.06,.53,.37,.02,.3,.15,.68-.25,.81-.29,.1-.31,.18-.19,.45,1.06,2.33-.23,4.2-2.99,4.2h0Zm0-1.34c1.09,.02,1.96-.6,1.91-1.42-.06-.94-.72-1.92-1.52-1.88-1.28,.07-2.1,.68-2.11,1.77,0,.91,.66,1.5,1.72,1.52h0Z"/>
      <path class="cls-2" d="M20.81,122.13h1.52c.26,0,.58,0,.61,.35,.03,.31,.19,.72-.28,.85-.32,.09-.24,.22-.12,.4,1.16,1.76,.12,3.83-2.25,4.2-1.77,.27-3.44-.55-3.86-1.93-.58-1.9,.75-3.71,2.86-3.86,.5-.04,1.01,0,1.52,0h0Zm-1.19,4.49c1.07,0,1.82-.57,1.84-1.41,.02-1-.7-1.86-1.56-1.86-1.28,0-2,.62-2.01,1.74-.01,1.02,.56,1.53,1.73,1.53h0Z"/>
      <path class="cls-2" d="M119.25,122.13h1.52c.26,0,.58,0,.62,.34,.04,.31,.18,.72-.27,.86-.39,.12-.21,.3-.1,.47,1.09,1.75,0,3.7-2.09,4.09-.73,.14-1.44,.1-2.14-.11-1.42-.42-2.19-1.56-2.04-3,.14-1.38,1.36-2.5,2.92-2.63,.53-.05,1.06,0,1.59,0h0v-.02s-.01,0-.01,0Zm-1.23,4.5c1.09,0,1.93-.62,1.88-1.45-.05-.82-.63-1.89-1.55-1.84-1.28,.07-2.1,.71-2.08,1.8,.01,.92,.67,1.48,1.75,1.49h0Z"/>
      <path class="cls-2" d="M155.71,127.97c-2.1,0-3.46-1.19-3.39-2.99,.06-1.51,1.34-2.74,3.02-2.83,1.01-.05,2.02-.02,3.03-.02,.27,0,.57,0,.61,.36,.03,.31,.17,.71-.29,.84-.33,.09-.19,.24-.11,.42,1.01,2.35-.25,4.2-2.87,4.21h0Zm-.09-1.33c1.09,0,1.9-.62,1.88-1.46-.02-.98-.74-1.81-1.57-1.81-1.25,0-2.03,.65-2.07,1.72-.03,.94,.65,1.54,1.76,1.55h0Z"/>
      <path class="cls-2" d="M5.06,122.13h1.52c.26,0,.58,0,.61,.35,.02,.31,.19,.72-.28,.84-.41,.11-.18,.3-.1,.47,.92,1.97,.12,3.58-2.01,4.07-.48,.11-.96,.13-1.44,.07-1.79-.21-2.86-1.31-2.83-2.88s1.3-2.81,3.02-2.92c.5-.03,1.01,0,1.52,0h-.01Zm-1.23,4.5c1.04,0,1.84-.58,1.87-1.39,.02-.73-.65-1.96-1.57-1.9-1.3,.08-1.99,.61-2,1.74-.01,1.03,.54,1.54,1.7,1.55h0Z"/>
      <path class="cls-2" d="M82.92,122.9c0-.89,.01-1.78,0-2.67-.01-.49,.19-.69,.68-.69h4.19c.5,0,.69,.21,.68,.7,0,.46-.21,.65-.66,.64h-2.74c-.46,0-.65,.18-.64,.64,.02,1.08,0,2.17,0,3.25,0,1.54,1.01,2.25,2.5,1.75,.2-.07,.39-.18,.58-.28,.28-.16,.54-.48,.82,.02,.22,.4,.4,.75-.09,1.12-1.07,.79-3.34,.81-4.38,0-.6-.47-.94-1.08-.94-1.86v-2.62Z"/>
      <path class="cls-2" d="M55.66,139.81v2.46c0,.32-.08,.55-.46,.42-.51-.18-1-.06-1.49,.06-.57,.14-1.14,.15-1.71,0-.87-.24-1.42-.75-1.51-1.7-.13-1.35-.04-2.69-.05-4.04,0-.28,.07-.54,.44-.54,.48,0,.91,.13,1.15,.59,.14,.26,.13,.56,.13,.85v2.75c0,.72,.44,.86,1.05,.88,.62,.02,.86-.24,.84-.86-.03-1.13-.02-2.26,0-3.4,0-.37-.08-.85,.53-.81,.53,.04,1.05,.18,1.08,.83,.04,.84,0,1.69,0,2.53h0v-.02Z"/>
      <path class="cls-2" d="M168.95,119.54h2.09c.44,0,.67,.17,.68,.64,0,.48-.19,.71-.69,.7-.79,0-1.59,.04-2.38,0-.71-.05-1,.17-.96,.92,.06,.98,.01,1.97,.01,2.96,0,1.58,.93,2.25,2.46,1.78,.2-.06,.4-.17,.58-.28,.3-.18,.58-.49,.86,.06,.21,.42,.38,.79-.17,1.09-1.39,.77-2.8,.81-4.2,.06-.66-.36-1.02-.98-1.03-1.72-.03-1.85,0-3.71-.02-5.56,0-.48,.23-.63,.67-.63h2.1v-.02Z"/>
      <path class="cls-2" d="M94.89,142.85c-.75,0-1.37-.1-1.92-.42-.52-.3-.74-.74-.53-1.34,.09-.25,.16-.56,.45-.61,.27-.04,.25,.31,.37,.47,.41,.52,1.69,.75,2.27,.4,.19-.12,.35-.28,.35-.51,0-.29-.22-.44-.45-.49-.44-.1-.9-.16-1.35-.23-1.2-.18-1.76-.71-1.79-1.7-.04-1.09,.51-1.74,1.67-2,.85-.19,1.67-.13,2.48,.19,.6,.24,.82,.71,.71,1.34-.04,.24-.11,.52-.35,.59-.24,.07-.26-.23-.38-.36-.42-.44-1.44-.66-2.02-.43-.23,.09-.44,.23-.45,.51,0,.31,.25,.4,.49,.45,.47,.09,.95,.13,1.42,.22,1.09,.22,1.63,.83,1.66,1.86,.02,1.02-.5,1.67-1.57,1.94-.38,.09-.75,.15-1.03,.13h-.03Z"/>
      <path class="cls-2" d="M59.3,142.85c-.83,0-1.45-.08-2.01-.4-.68-.38-.84-1.07-.41-1.71,.17-.26,.3-.43,.55-.02,.42,.71,1.44,1.01,2.21,.71,.29-.11,.53-.29,.51-.62-.02-.31-.29-.44-.55-.5-.45-.1-.9-.14-1.35-.21-1.1-.18-1.64-.71-1.69-1.65-.05-1.07,.47-1.75,1.56-2.02,.87-.21,1.72-.17,2.55,.15,.6,.23,.85,.68,.75,1.31-.04,.24-.1,.52-.33,.61-.29,.12-.29-.24-.44-.37-.58-.5-1.25-.57-1.96-.41-.27,.06-.5,.24-.48,.55,.02,.3,.29,.38,.52,.42,.4,.08,.81,.11,1.21,.18,1.26,.22,1.83,.82,1.84,1.92,0,1.09-.57,1.71-1.82,1.96-.28,.06-.57,.07-.66,.08v.02h0Z"/>
      <path class="cls-2" d="M89.25,142.85c-.82,0-1.41-.08-1.96-.37-.47-.25-.73-.63-.64-1.18,.05-.31,.14-.67,.45-.78,.3-.1,.29,.31,.44,.47,.44,.46,1.48,.68,2.09,.41,.28-.12,.52-.3,.48-.65-.04-.32-.3-.43-.57-.47-.45-.08-.91-.12-1.36-.19-1.08-.18-1.61-.69-1.65-1.59-.06-1.09,.46-1.79,1.52-2.06,.87-.22,1.72-.17,2.56,.13,.55,.2,.9,.58,.82,1.2-.04,.28-.1,.63-.39,.73-.23,.08-.29-.26-.45-.39-.57-.47-1.23-.52-1.91-.4-.24,.04-.46,.18-.48,.47-.02,.34,.23,.46,.5,.52,.42,.08,.86,.11,1.28,.19,1.2,.24,1.79,.89,1.78,1.93,0,1.01-.63,1.69-1.8,1.92-.3,.06-.62,.08-.72,.1h.01Z"/>
      <path class="cls-2" d="M65,142.85c-.79,0-1.38-.09-1.93-.36-.72-.37-.89-1.13-.44-1.77,.18-.25,.29-.35,.51,0,.49,.73,1.41,1.01,2.21,.73,.29-.1,.52-.27,.5-.62-.02-.32-.25-.47-.52-.52-.47-.09-.95-.13-1.43-.21-1.04-.18-1.57-.72-1.63-1.63-.06-.94,.5-1.72,1.45-1.98,.93-.26,1.86-.24,2.76,.14,.56,.23,.82,.66,.69,1.27-.05,.23-.11,.52-.34,.61-.3,.12-.3-.24-.44-.37-.46-.43-1.57-.62-2.11-.34-.21,.11-.36,.25-.35,.5,.02,.23,.2,.33,.39,.37,.42,.09,.85,.15,1.28,.22,1.31,.23,1.88,.79,1.9,1.87,.02,1.14-.52,1.76-1.82,2.03-.28,.06-.57,.07-.68,.08h0v-.02Z"/>
      <path class="cls-2" d="M136.33,140.25c0,.55,.03,1.11-.01,1.66-.02,.3,.24,.82-.38,.82-.52,0-1.03-.12-1.2-.71-.05-.18-.04-.38-.04-.57v-2.74c-.02-.81-.29-1.03-1.12-1.05-.74-.02-.87,.37-.86,1,.03,1.08,.02,2.17,0,3.25,0,.29,.2,.77-.3,.83-.51,.06-1.03-.06-1.25-.63-.07-.19-.08-.42-.08-.64,0-1.44,.02-2.89-.01-4.33-.01-.6,.17-.8,.76-.59,.43,.15,.86,0,1.28-.11,.6-.16,1.19-.13,1.78,.04,.88,.25,1.37,.85,1.44,1.77v2h-.01Z"/>
      <path class="cls-2" d="M171.3,139.36v-2.38c0-.42,.13-.66,.61-.49,.58,.21,1.14,0,1.7-.12,.64-.12,1.25-.03,1.83,.21,.76,.31,1.09,.91,1.09,1.7,0,1.2,.02,2.4,0,3.61,0,.29,.21,.71-.29,.83-.47,.11-1.16-.28-1.28-.72-.06-.23-.06-.48-.06-.71,0-.91,.01-1.83-.01-2.74-.02-.7-.29-.88-1.1-.89-.65,0-.89,.26-.87,.91,.04,1.08,.04,2.16,0,3.24-.01,.33,.31,.9-.41,.93-.68,.03-1.15-.35-1.18-.99-.03-.79,0-1.59,0-2.38h-.03Z"/>
      <path class="cls-2" d="M177.76,138.34c0-.72-.01-1.44,0-2.17,0-.29-.15-.72,.26-.8,.43-.09,1.02,.04,1.12,.46,.25,1.03,.97,.93,1.71,.92,.26,0,.66-.13,.72,.27,.07,.44-.14,.83-.58,.97-.29,.1-.62,.1-.92,.09-.51-.02-.69,.2-.67,.69,.02,.55,0,1.11,0,1.66,0,.46,.08,.9,.6,1.02,.58,.13,1.1,0,1.45-.54,.1-.15,.07-.46,.31-.43,.27,.03,.33,.32,.4,.55,.18,.61-.08,1.18-.68,1.51-1.84,.99-3.7-.11-3.72-2.18v-2.02h0Z"/>
      <path class="cls-2" d="M179.64,107.47c0-1.23,.02-2.46,0-3.68-.01-.56,.18-.78,.75-.76,.51,0,.9,.03,.89,.71-.02,2.5-.02,5.01,0,7.51,0,.62-.33,.69-.83,.69s-.82-.1-.81-.71c.03-1.25,0-2.5,0-3.76h0Z"/>
      <path class="cls-2" d="M29.17,139.34v-2.31c0-.4,.12-.66,.61-.51,.49,.15,.95-.04,1.42-.14,.51-.11,1.01-.09,1.48,.11,.73,.31,.94,1.27,.43,1.88-.2,.24-.36,.22-.47-.05-.15-.34-.42-.52-.76-.6-.74-.18-1.09,.08-1.09,.84,0,1.08,.02,2.16-.02,3.24-.01,.32,.28,.83-.35,.92-.61,.08-1.21-.35-1.24-.93-.04-.82-.01-1.63-.01-2.45h0Z"/>
      <path class="cls-2" d="M149.32,123.61c0-1.11,.01-2.21,0-3.32,0-.56,.24-.76,.79-.76s.8,.18,.8,.75c-.01,2.26-.01,4.53,0,6.79,0,.56-.24,.76-.79,.76s-.81-.18-.8-.75c.02-1.16,0-2.31,0-3.47h0Z"/>
      <path class="cls-2" d="M182.03,123.72c0,1.13-.02,2.26,0,3.39,.01,.54-.22,.71-.73,.71s-.8-.13-.8-.73c.02-2.28,.02-4.57,0-6.85,0-.61,.3-.71,.81-.71s.73,.19,.72,.72c-.02,1.15,0,2.31,0,3.46h0Z"/>
      <path class="cls-2" d="M28.04,139.87c0,.67,.03,1.35-.01,2.02-.02,.3,.24,.78-.36,.85-.58,.07-1.19-.31-1.26-.82-.04-.26-.02-.53-.02-.79,0-1.25-.01-2.5,0-3.75,0-.38-.2-.94,.53-.94,.64,0,1.08,.36,1.1,.98,.03,.82,0,1.63,0,2.45h.02Z"/>
      <path class="cls-2" d="M15.34,102.62c.23,.02,.54-.06,.61,.31,.07,.35-.14,.45-.44,.51-.54,.11-.47,.38-.13,.67,.2,.17,.42,.31,.63,.47,.17,.13,.22,.31,.17,.51-.05,.23-.23,.29-.43,.3-.22,0-.43,0-.65,.03-.64,.03-.95-.28-.93-.95,0-.09-.05-.18-.07-.28-.26-1.01,.18-1.59,1.24-1.58h0Z"/>
      <path class="cls-2" d="M128.94,134.35c0,.51-.82,1.44-1.32,1.47-.3,.02-.57-.1-.75-.36-.2-.29,.01-.5,.19-.7,.31-.36,.68-.66,.84-1.15,.15-.46,.47-.18,.68-.02,.25,.17,.35,.45,.36,.75h0Z"/>
      <path class="cls-2" d="M180.32,102.23c-.61,.11-.88-.09-.71-.74,.04-.15-.05-.33-.06-.49-.04-.66,.45-1.08,1.11-.97,.17,.03,.34,.06,.38,.26,.05,.2-.05,.31-.23,.38-.44,.17-.33,.38-.06,.62,.22,.19,.65,.3,.47,.69-.17,.38-.6,.18-.9,.25h0Z"/>
      <path class="cls-2" d="M27.23,135.73c-.58,0-.84-.3-.83-.9,0-.56,.31-.69,.79-.66,.58,.03,.86,.3,.85,.91,0,.56-.31,.69-.8,.65h-.01Z"/>
      <path class="cls-2" d="M48.4,104.24c.08,.59-.24,.73-.77,.74-.59,0-.73-.27-.73-.79s.25-.7,.75-.7c.55,0,.83,.18,.75,.76h0Z"/>
      <path class="cls-2" d="M18.6,113.71c-.07-.64,.34-.67,.82-.68,.63-.02,.66,.37,.67,.84,0,.59-.34,.63-.8,.65-.6,.02-.76-.29-.69-.81Z"/>
      <path class="cls-2" d="M151.18,114.5c-.6,.08-.73-.24-.73-.77s.23-.7,.74-.71c.55,0,.77,.18,.77,.75s-.23,.8-.78,.73h0Z"/>
      <path class="cls-2" d="M32.32,104.96c-.59,.08-.73-.23-.74-.76,0-.6,.29-.71,.8-.72,.54,0,.7,.24,.71,.74,0,.56-.21,.81-.77,.73h0Z"/>
      <path class="cls-2" d="M4.18,103.5c.6-.08,.72,.25,.73,.77,.01,.61-.31,.7-.81,.7-.55,0-.69-.26-.7-.75,0-.57,.23-.8,.78-.72Z"/>
      <path class="cls-2" d="M34.2,104.96c-.51,.06-.75-.13-.75-.68s.13-.8,.72-.8,.78,.22,.77,.77c0,.52-.22,.77-.75,.71h.01Z"/>
      <path class="cls-2" d="M46.53,104.2c.07,.55-.14,.77-.68,.78-.54,0-.79-.19-.79-.75s.25-.75,.79-.74c.53,0,.76,.22,.67,.71h.01Z"/>
      <path class="cls-2" d="M21.15,113.05c.56-.07,.79,.18,.78,.74,0,.52-.21,.73-.73,.74-.56,0-.77-.19-.76-.76,.01-.51,.17-.79,.71-.72h0Z"/>
      <path class="cls-2" d="M3.02,104.21c.09,.57-.17,.77-.73,.77-.52,0-.74-.2-.75-.72,0-.55,.22-.78,.77-.77,.51,0,.78,.18,.7,.73h.01Z"/>
      <path class="cls-2" d="M175.42,100.99c-.03,.47-.3,.76-.77,.76-.44,0-.73-.28-.76-.72-.03-.48,.25-.8,.72-.82,.48-.02,.75,.28,.8,.77h.01Z"/>
      <path class="cls-2" d="M174.4,99.3c-.05,.47-.33,.75-.8,.72-.43-.03-.71-.32-.71-.76,0-.47,.3-.78,.77-.77,.47,0,.73,.31,.74,.82h0Z"/>
      <path class="cls-2" d="M150.07,113.74c.06,.49-.08,.78-.65,.78-.51,0-.74-.17-.73-.71,0-.48,.09-.78,.67-.78,.51,0,.79,.16,.71,.71Z"/>
      <path class="cls-2" d="M100.3,123.68c-.1-.62,.16-.85,.8-.85s.83,.24,.83,.85-.18,.86-.83,.85c-.64,0-.9-.23-.8-.85Z"/>
      <path class="cls-2" d="M58.07,123.71c.1,.63-.21,.8-.82,.82-.73,.03-.79-.33-.81-.92-.02-.67,.29-.78,.86-.79,.67-.02,.84,.3,.77,.88h0Z"/>
      <path class="cls-2" d="M110.59,123.71c.1,.59-.13,.8-.74,.82-.69,.02-.78-.32-.78-.88s.15-.81,.77-.82c.68,0,.84,.3,.76,.89h-.01Z"/>
      <path class="cls-2" d="M74.15,123.71c.12,.67-.23,.8-.82,.81-.69,.02-.78-.32-.79-.89-.02-.64,.25-.82,.86-.82,.68,0,.85,.3,.76,.89h-.01Z"/>
    </g>
  </g>
</svg>