<?xml version="1.0" encoding="UTF-8"?>
<svg id="Layer_2" data-name="Layer 2" xmlns="http://www.w3.org/2000/svg" viewBox="0 0 120.31 180.24">
  <defs>
    <style>
      .cls-1 {
        fill: #0458a1;
      }
    </style>
  </defs>
  <g id="Calque_1" data-name="Calque 1">
    <g id="LOGO">
      <g id="TEXTS">
        <g id="FR">
          <g id="Group_4" data-name="Group 4">
            <path id="Path_3" data-name="Path 3" class="cls-1" d="M0,169.58c.57-.26,1.2-.37,1.83-.33l3.15,8.68,3.27-8.68c.58-.06,1.17,.05,1.69,.31l-4.16,10.49c-.57,.08-1.15,.08-1.73,0l-4.05-10.47H0Z"/>
            <path id="Path_4" data-name="Path 4" class="cls-1" d="M11.2,169.83c.57-.34,1.22-.54,1.89-.56l-.02,10.7c-.51,.17-1.06,.21-1.58,.1,0,0-.02-6.36-.29-10.25h0Z"/>
            <path id="Path_5" data-name="Path 5" class="cls-1" d="M15.52,169.83c.57-.34,1.21-.53,1.87-.56v9.22h4.92c.16,.49,.16,1.01,0,1.5h-6.5s-.02-6.27-.29-10.16Z"/>
            <path id="Path_6" data-name="Path 6" class="cls-1" d="M23.77,169.83c.57-.34,1.21-.53,1.87-.56v9.22h4.92c.16,.49,.16,1.01,0,1.5h-6.5s-.02-6.27-.29-10.16Z"/>
            <path id="Path_7" data-name="Path 7" class="cls-1" d="M32.06,169.77c.86-.36,1.79-.5,2.72-.41h4.55c.15,.49,.15,1.01,0,1.5h-5.41l-.02,3.07h4.81c.15,.49,.15,1.01,0,1.5h-4.81v3.07h5.42c.18,.49,.18,1.02,0,1.5h-6.99s-.03-6.34-.25-10.22h-.02Z"/>
            <path id="Path_8" data-name="Path 8" class="cls-1" d="M48.39,179.99s-.02-6.42-.25-10.31c.86-.35,1.79-.48,2.72-.39h1.25c3.81,0,5.37,2.37,5.37,5.41s-1.62,5.29-5.31,5.29h-3.78Zm1.58-1.5h2.2c.83,.04,1.66-.1,2.43-.41,.76-.95,1.14-2.16,1.07-3.37,0-2.12-1.03-3.91-3.58-3.91h-2.1l-.02,7.7h0Z"/>
            <path id="Path_9" data-name="Path 9" class="cls-1" d="M60.44,172.55c-.35,.11-.74,.11-1.09,0l1.75-4.11c.62-.3,1.34-.3,1.95,0l-2.61,4.11Z"/>
            <path id="Path_10" data-name="Path 10" class="cls-1" d="M62.07,179.81l4.45-10.55c.57-.08,1.15-.08,1.73,0l4.34,10.51c-.57,.26-1.2,.37-1.83,.33l-1.11-2.82h-4.73l-1.13,2.82c-.59,.06-1.18-.04-1.71-.29h-.01Zm3.45-4.05h3.52l-1.73-4.45-1.79,4.45Z"/>
            <path id="Path_11" data-name="Path 11" class="cls-1" d="M73.01,174.71c0-3.05,1.67-5.51,5.43-5.51,1.32-.02,2.63,.31,3.79,.95-.1,.56-.33,1.09-.68,1.54-1.03-.59-2.19-.92-3.37-.95-.76-.04-1.53,.11-2.22,.43-.79,1.01-1.18,2.26-1.11,3.54,0,2.14,1.09,3.99,3.62,3.99,.86,0,1.71-.2,2.49-.58v-2.7h-2.74c-.1-.5-.1-1.01,0-1.5h4.3v5.21c-1.22,.73-2.63,1.12-4.05,1.11-3.82,0-5.45-2.47-5.45-5.53h-.01Z"/>
            <path id="Path_12" data-name="Path 12" class="cls-1" d="M83.94,179.81l4.45-10.55c.57-.08,1.15-.08,1.73,0l4.34,10.51c-.57,.26-1.2,.37-1.83,.33l-1.11-2.82h-4.73l-1.13,2.82c-.59,.06-1.18-.04-1.71-.29h-.01Zm3.45-4.05h3.52l-1.73-4.45-1.79,4.45Z"/>
            <path id="Path_13" data-name="Path 13" class="cls-1" d="M96.12,179.99s-.02-6.42-.25-10.31c.86-.35,1.79-.48,2.72-.39h1.25c3.81,0,5.37,2.37,5.37,5.41s-1.62,5.29-5.31,5.29h-3.78Zm1.58-1.5h2.2c.83,.04,1.66-.1,2.43-.41,.76-.95,1.14-2.16,1.07-3.37,0-2.12-1.03-3.91-3.58-3.91h-2.1l-.02,7.7h0Z"/>
            <path id="Path_14" data-name="Path 14" class="cls-1" d="M107.12,169.83c.57-.34,1.22-.54,1.89-.56l-.02,10.7c-.51,.17-1.06,.21-1.58,.1,0,0-.02-6.36-.29-10.25h0Z"/>
            <path id="Path_15" data-name="Path 15" class="cls-1" d="M114.8,175.57h-1.46v4.42c-.52,.16-1.07,.2-1.6,.1,0,0-.02-6.63-.25-10.39,1.14-.33,2.32-.48,3.5-.45,2.9,0,4.22,1.07,4.22,3.13,.12,1.57-1.05,2.94-2.62,3.06h-.03l3.48,4.49c-.66,.21-1.37,.27-2.06,.16l-3.17-4.53h0Zm-1.46-1.41h1.73c.59,.05,1.18,0,1.75-.19,.41-.4,.63-.95,.6-1.53,0-1.34-.97-1.69-2.43-1.69-.55,0-1.1,.04-1.65,.1v3.3h0Z"/>
          </g>
        </g>
        <g id="AR">
          <g id="Group_6" data-name="Group 6">
            <g id="Group_5" data-name="Group 5">
              <path id="Path_16" data-name="Path 16" class="cls-1" d="M22.34,162.14c-.53,.4-1.01,.87-1.43,1.39l1.43,1.41,1.41-1.32s-.76-.84-1.41-1.47h0Z"/>
              <path id="Path_17" data-name="Path 17" class="cls-1" d="M26.52,156.71c0-1.08-.17-2.15-.48-3.18-.66,.05-1.29,.32-1.78,.78,.45,1.05,.68,2.18,.67,3.32,0,.38-.03,.76-.08,1.13H7.69c-.53,0-1.06-.14-1.53-.38v-.15c-.09-1.66-.5-3.29-1.22-4.79-.65,.15-1.24,.49-1.68,.99,.89,1.37,1.49,2.91,1.76,4.52-.99,2.1-2.7,3.77-4.83,4.7,.31,.63,.88,1.09,1.56,1.26,2.04-1.18,3.55-3.09,4.24-5.34,.43,.47,1.05,.74,1.69,.71H25.92c.38-1.15,.59-2.36,.61-3.58h-.01Z"/>
              <path id="Path_18" data-name="Path 18" class="cls-1" d="M23.85,163.52l1.45,1.41,1.39-1.32s-.76-.84-1.39-1.47c-.54,.4-1.03,.87-1.45,1.39h0Z"/>
              <path id="Path_19" data-name="Path 19" class="cls-1" d="M31.54,153.12c1.2,1.4,1.85,3.18,1.85,5.02,0,.21-.02,.42-.04,.64-1.7,.05-3.39-.12-5.04-.53-.14,.59-.14,1.19,0,1.78,1.68,.24,3.39,.33,5.09,.27h1.16c.21-.77,.32-1.56,.34-2.35,.03-2.15-.6-4.25-1.81-6.03-.66,.16-1.22,.6-1.53,1.2h-.02Z"/>
              <path id="Path_20" data-name="Path 20" class="cls-1" d="M46.42,153.06c-.45-.03-.9,.02-1.32,.17,1.88-2.06,4-3.9,6.3-5.48-.4-.58-1.06-.94-1.76-.97-2.38,1.9-4.48,4.12-6.24,6.6,.13,.53,.4,1.02,.78,1.41,.44-.08,.89-.13,1.34-.13,2.65,0,5.21,1.07,5.21,4.12h-11.31v-10.91c-.67-.02-1.32,.18-1.87,.57,.13,2.14,.51,11.87,.51,11.87h13.87c.16-.67,.25-1.35,.27-2.03-.11-2.99-2.63-5.33-5.63-5.22h-.15Z"/>
              <path id="Path_21" data-name="Path 21" class="cls-1" d="M55.24,146.65c.21-.44,.66-.72,1.16-.71,.3,.02,.59,.1,.86,.23,.12-.25,.21-.52,.25-.8-.37-.28-.82-.44-1.28-.44-.91,0-1.65,.72-1.66,1.62v.06c.03,.5,.28,.96,.69,1.24-.36,.1-.71,.23-1.05,.38,0,.28,.1,.55,.29,.76,.98-.3,2-.44,3.03-.42,.12-.39,.18-.79,.17-1.2-.32,.08-.64,.11-.97,.11-.61,0-1.17-.31-1.5-.82h.01Z"/>
              <path id="Path_22" data-name="Path 22" class="cls-1" d="M55.64,160.31h.38c.35-.06,.68-.19,.99-.38v-10.5c-.67-.02-1.32,.18-1.87,.57,.12,2.23,.5,10.32,.5,10.32h0Z"/>
              <path id="Path_23" data-name="Path 23" class="cls-1" d="M70.64,149.19s-.76-.84-1.41-1.47c-.53,.4-1.01,.87-1.43,1.39l1.43,1.41,1.41-1.32h0Z"/>
              <path id="Path_24" data-name="Path 24" class="cls-1" d="M73.58,149.19s-.76-.84-1.39-1.47c-.54,.4-1.03,.87-1.45,1.39l1.45,1.41,1.39-1.32h0Z"/>
              <path id="Path_25" data-name="Path 25" class="cls-1" d="M79.24,152.09s-.76-.84-1.39-1.45c-.53,.39-1.01,.85-1.43,1.37l1.43,1.39,1.39-1.3h0Z"/>
              <path id="Path_26" data-name="Path 26" class="cls-1" d="M97.32,160.31c.39-1.16,.59-2.37,.61-3.59,0-1.08-.17-2.15-.48-3.18-.66,.05-1.29,.32-1.78,.78,.45,1.05,.68,2.18,.67,3.32,0,.38-.03,.76-.08,1.13h-16.11c-.75,.03-1.49-.09-2.19-.36,.4-.99,.71-2.01,.95-3.05-.55-.37-1.22-.49-1.87-.36-.04,1.29-.3,2.56-.78,3.76h-3.21v-7.06c-.66,.04-1.3,.27-1.85,.65,0,.23,.02,.53,.04,.82-2.02,.65-4.54,2.35-4.54,4.35,0,1.62,1.74,2.77,3.99,2.77,.38-.36,.73-.75,1.03-1.18,.23,.44,.54,.84,.9,1.18h4.26c.24-.32,.46-.66,.65-1.01,.66,.73,1.63,1.11,2.61,1.01h17.18v.02h0Zm-26.47-1.54c-1.15,.06-2.23-.53-2.8-1.53,.71-1.26,1.87-2.19,3.26-2.61l.25,4.08c-.24,.04-.47,.06-.71,.06Z"/>
              <path id="Path_27" data-name="Path 27" class="cls-1" d="M93.75,162.14c-.53,.4-1.01,.87-1.43,1.39l1.43,1.41,1.41-1.32s-.76-.84-1.41-1.47h0Z"/>
              <path id="Path_28" data-name="Path 28" class="cls-1" d="M95.26,163.52l1.45,1.41,1.39-1.32s-.76-.84-1.39-1.47c-.54,.4-1.03,.87-1.45,1.39h0Z"/>
            </g>
            <path id="Path_29" data-name="Path 29" class="cls-1" d="M115.12,153.1c-.44,.32-.81,.72-1.09,1.18-.27,2.94-.73,4.5-2.84,4.5h-4.42c-.71-2.24-1.09-4.57-1.14-6.91-.66,.02-1.3,.2-1.87,.53,.24,2.04,.7,4.06,1.35,6.01-.83,.25-1.7,.38-2.56,.38-.96,0-1.92-.15-2.84-.44-.13,.59-.13,1.2,0,1.79,.79,.13,1.59,.19,2.4,.19,1.32,.05,2.63-.18,3.85-.67,.21,.26,.45,.48,.71,.67h4.6c1.05,.02,2.04-.45,2.69-1.28,0,.16,0,.32,.02,.48,1.43,.65,2.97,.99,4.54,.99,.54-.4,.99-.9,1.32-1.47,.12-.45,.18-.92,.19-1.39-.01-2.53-2.07-4.57-4.6-4.56h-.31Zm3.35,5.86c-1.35-.05-2.67-.36-3.91-.9,.44-1.04,.7-2.15,.78-3.28,1.72,.05,3.14,1.37,3.32,3.09,0,.37-.07,.74-.19,1.09h0Z"/>
          </g>
          <g id="Group_8" data-name="Group 8">
            <g id="Group_7" data-name="Group 7">
              <path id="Path_30" data-name="Path 30" class="cls-1" d="M43.67,149.9c-.07-.56-.07-1.13-.01-1.69,.77-.03,1.73,0,1.73,0l-.02,1.64-1.71,.05h.01Z"/>
              <path id="Path_31" data-name="Path 31" class="cls-1" d="M43.31,147.73c-.06-.49-.06-.99,0-1.48,.67-.03,1.51,0,1.51,0l-.02,1.42-1.49,.06Z"/>
              <path id="Path_32" data-name="Path 32" class="cls-1" d="M45.39,148.09c-.07-.57-.07-1.14,0-1.71,.76-.02,1.72,0,1.72,0v1.63l-1.72,.06h0v.02Z"/>
            </g>
          </g>
        </g>
        <g id="AMZ">
          <path id="Path_33" data-name="Path 33" class="cls-1" d="M7.54,140.53c.18,.48,.18,1.02,0,1.5H3.04c-1.73,0-2.38-.05-2.86-.41,.78-1.2,2.08-3.1,3.23-4.83-1.18-1.75-2.45-3.51-3.23-4.73,.85-.54,1.86-.78,2.86-.67H7.54c.18,.48,.18,1,0,1.48H2.64c.69,1.02,1.31,1.99,2.05,3.09,.38,.46,.38,1.13,0,1.59-.74,1.16-1.31,1.97-1.98,2.98H7.54Z"/>
          <path id="Path_34" data-name="Path 34" class="cls-1" d="M11.8,131.43v4.45c1.3-.05,2.92-.13,4.21-.21-.05-1.14-.09-2.31-.16-3.56,.46-.42,1.05-.66,1.68-.67,.04,1.52,.04,2.77,.02,5.73-.44,.12-.89,.17-1.34,.14h-1.59c-.02,1.53-.02,3.05-.02,4.55-.45,.16-.93,.22-1.4,.16,0-.86-.02-2.59-.09-4.7h-2.86c-.07-2.54-.13-3.84-.19-5.2,.48-.42,1.09-.67,1.74-.68h0Z"/>
          <path id="Path_35" data-name="Path 35" class="cls-1" d="M20.31,136.68c0-2.98,1.6-5.45,5.26-5.45s5.31,2.47,5.31,5.45-1.64,5.49-5.26,5.49-5.31-2.43-5.31-5.49Zm7.78,3.64c.76-1.06,1.14-2.33,1.09-3.63,0-2.15-1.11-3.95-3.62-3.95-.85-.05-1.69,.07-2.49,.37-.76,1.04-1.13,2.3-1.08,3.58,0,2.19,1.06,4.02,3.62,4.02,.84,.02,1.68-.11,2.47-.39h.01Z"/>
          <path id="Path_36" data-name="Path 36" class="cls-1" d="M34.24,132.13c.85-.54,1.86-.78,2.86-.67h4.5c.18,.46,.18,.97,0,1.43h-5.64v7.76h5.64c.18,.45,.18,.95,0,1.4h-7.09c0-1.5-.03-5.61-.26-9.91h-.01Z"/>
          <path id="Path_37" data-name="Path 37" class="cls-1" d="M50.94,132.12c.49-.42,1.12-.66,1.76-.67-.02,3.4-.02,6.88,0,10.43-.48,.16-.98,.22-1.48,.16,0-1.5-.07-5.61-.28-9.92Z"/>
          <g id="Group_9" data-name="Group 9">
            <path id="Path_38" data-name="Path 38" class="cls-1" d="M60.57,134.02c-.03-1.34,1.03-2.45,2.37-2.48s2.45,1.03,2.48,2.37v.11c.12,1.25-.78,2.36-2.03,2.48h-.37c-1.23,.12-2.32-.78-2.44-2.01-.02-.16-.01-.32,0-.48h-.01Zm0,5.59c0-1.34,1.08-2.42,2.42-2.42s2.42,1.08,2.42,2.42c.13,1.25-.77,2.37-2.02,2.5-.13,0-.25,.02-.38,0-1.23,.12-2.33-.79-2.45-2.02-.02-.16-.01-.33,0-.49h0Zm3.27-4.34c.24-.37,.36-.8,.34-1.24,.07-.64-.39-1.22-1.04-1.29h-.19c-.28-.02-.57,.02-.84,.1-.24,.35-.35,.77-.32,1.19-.09,.64,.36,1.23,.99,1.32h.22c.28,.02,.57,0,.84-.09h0Zm0,5.6c.24-.37,.36-.8,.34-1.24,.07-.64-.39-1.22-1.04-1.29h-.19c-.28-.02-.57,.02-.84,.1-.24,.35-.35,.77-.32,1.19,0,.72,.32,1.33,1.21,1.33,.28,.02,.57,0,.84-.09h0Z"/>
          </g>
          <path id="Path_39" data-name="Path 39" class="cls-1" d="M77.01,141.71c-.52,.29-1.12,.39-1.71,.3l-2.1-3.46c-1.11,1.83-2.05,3.37-2.1,3.46-.59,.09-1.19,0-1.71-.3,.92-1.43,1.94-2.96,2.96-4.53l-3.1-5.09c.85-.54,1.86-.78,2.86-.67h4.5c.18,.51,.18,1.07,0,1.59-.53,.85-1.55,2.49-2.56,4.16,1.02,1.56,2.04,3.11,2.96,4.54Zm-3.81-5.84c.64-.97,1.25-1.92,1.83-2.86h-3.67c.58,.93,1.22,1.89,1.84,2.86h0Z"/>
          <path id="Path_40" data-name="Path 40" class="cls-1" d="M79.42,138.89c.06-1.71,1.5-3.04,3.21-2.98s3.04,1.5,2.98,3.21c-.06,1.66-1.41,2.97-3.07,2.98-1.58,.15-2.98-1.02-3.13-2.6-.02-.2-.02-.41,0-.61h.01Zm4.23,1.67c.34-.49,.51-1.08,.49-1.68,.11-.87-.51-1.66-1.38-1.77h-.27c-.69-.23-1.43,.15-1.65,.83-.1,.31-.08,.65,.05,.95,0,1,.46,1.85,1.65,1.85,.38,0,.75-.05,1.11-.18h0Z"/>
          <path id="Path_41" data-name="Path 41" class="cls-1" d="M97.23,141.71c-.56,.3-1.2,.42-1.83,.32l-2.97-8.59-2.96,8.59c-.63,.08-1.27-.03-1.83-.32l3.93-10.23c.57-.11,1.16-.11,1.73,0l3.94,10.23h-.01Z"/>
          <path id="Path_42" data-name="Path 42" class="cls-1" d="M107.12,140.53c.18,.48,.18,1.02,0,1.5h-4.5c-1.73,0-2.38-.05-2.86-.41,.78-1.2,2.08-3.1,3.23-4.83-1.18-1.75-2.45-3.51-3.23-4.73,.85-.54,1.86-.78,2.86-.67h4.5c.18,.48,.18,1,0,1.48h-4.9c.69,1.02,1.31,1.99,2.05,3.09,.38,.46,.38,1.13,0,1.59-.74,1.16-1.3,1.97-1.97,2.98h4.82Z"/>
          <path id="Path_43" data-name="Path 43" class="cls-1" d="M109.74,136.68c0-2.98,1.61-5.45,5.26-5.45s5.31,2.47,5.31,5.45-1.64,5.49-5.26,5.49-5.31-2.43-5.31-5.49Zm7.78,3.64c.76-1.06,1.14-2.33,1.09-3.63,0-2.15-1.11-3.95-3.62-3.95-.85-.05-1.69,.07-2.49,.37-.76,1.04-1.13,2.3-1.08,3.58,0,2.19,1.06,4.02,3.62,4.02,.84,.02,1.68-.11,2.47-.39h.01Z"/>
        </g>
      </g>
      <g id="ICON">
        <g id="Group_14" data-name="Group 14">
          <g id="Group_13" data-name="Group 13">
            <g id="Group_10" data-name="Group 10">
              <path id="Path_44" data-name="Path 44" class="cls-1" d="M77.47,11.57c4.96,0,8.98,4.02,8.98,8.97,0,4.25-2.98,7.92-7.14,8.79l1.01,1.74c5.81-1.57,9.25-7.56,7.68-13.37-1.57-5.81-7.56-9.25-13.37-7.68-1.83,.5-3.51,1.46-4.85,2.8l1.01,1.74c1.7-1.91,4.14-3,6.69-3h-.01Z"/>
              <path id="Path_45" data-name="Path 45" class="cls-1" d="M77.47,7.83c7.02,0,12.71,5.7,12.71,12.72,0,5.56-3.62,10.48-8.94,12.14l1.4,2.42c8.04-2.85,12.24-11.68,9.39-19.72s-11.68-12.24-19.72-9.39c-1.78,.63-3.42,1.58-4.86,2.81l1.4,2.42c2.34-2.18,5.42-3.38,8.62-3.38v-.02h0Z"/>
              <path id="Path_46" data-name="Path 46" class="cls-1" d="M83.38,20.54c0-3.26-2.65-5.91-5.91-5.91-2.05,0-3.95,1.06-5.03,2.81l5.2,9c3.19-.09,5.73-2.71,5.73-5.9h.01Z"/>
            </g>
            <g id="Group_12" data-name="Group 12">
              <g id="Group_11" data-name="Group 11">
                <path id="Path_47" data-name="Path 47" class="cls-1" d="M60.14,0l-5.14,8.9,5.16,8.93,5.15-8.92S60.14,0,60.14,0Z"/>
                <path id="Path_48" data-name="Path 48" class="cls-1" d="M53.96,10.69l-5.17,8.95,5.17,8.94,5.15-8.94-5.15-8.94h0Z"/>
                <path id="Path_49" data-name="Path 49" class="cls-1" d="M47.82,21.44l-5.17,8.95,5.17,8.94,5.15-8.94-5.15-8.94h0Z"/>
                <path id="Path_50" data-name="Path 50" class="cls-1" d="M53.95,50.03l-5.16-8.95,17.55-30.38,5.17,8.93-12.38,21.47,17.55,30.39h-22.71l-17.55-30.4,5.12-8.99,17.51,30.39,2.2,.13-7.3-12.58h0Z"/>
                <path id="Path_51" data-name="Path 51" class="cls-1" d="M103.53,92.93L67.36,30.38l5.16-8.94,41.28,71.49h-10.27Z"/>
                <path id="Path_52" data-name="Path 52" class="cls-1" d="M66.34,32.16l28.79,50.03H49.93l5.02-8.93,24.77,.06-18.54-32.24,5.16-8.92h0Z"/>
                <path id="Path_53" data-name="Path 53" class="cls-1" d="M37.46,82.18h10.34l5.13-8.93h-10.31l-5.15,8.93h0Z"/>
                <path id="Path_54" data-name="Path 54" class="cls-1" d="M25.04,82.18h10.34l5.15-8.96h-10.31l-5.17,8.96h0Z"/>
                <path id="Path_55" data-name="Path 55" class="cls-1" d="M35.39,42.87l16.51,28.45-22.72,.11-12.36,21.49H6.5l17.54-30.39h12.38l-6.19-10.73,5.16-8.93h0Z"/>
              </g>
            </g>
          </g>
          <path id="Path_56" data-name="Path 56" class="cls-1" d="M95.89,85l-11.92,4.21-11.92-4.21-11.92,4.21-11.95-4.21-11.95,4.21-11.92-4.21v5.85l11.92,4.21,11.95-4.13,11.95,4.13,11.92-4.21,11.92,4.21,11.92-4.21v-5.85Z"/>
          <path id="Path_57" data-name="Path 57" class="cls-1" d="M107.81,97.03l-11.92-4.21-11.92,4.21-11.92-4.21-11.92,4.21-11.95-4.21-11.95,4.21-11.92-4.21-11.92,4.21v5.85l11.92-4.21,11.91,4.21,11.95-4.13,11.95,4.13,11.92-4.21,11.92,4.21,11.92-4.21,11.92,4.21v-5.85h.01Z"/>
        </g>
      </g>
    </g>
  </g>
</svg>