<?xml version="1.0" encoding="UTF-8"?>
<svg id="Layer_2" data-name="Layer 2" xmlns="http://www.w3.org/2000/svg" viewBox="0 0 108.95 137.54">
  <defs>
    <style>
      .cls-1 {
        fill: #c36226;
      }

      .cls-2 {
        fill: #f5b82e;
      }

      .cls-3 {
        fill: #005b95;
      }

      .cls-4 {
        fill: #126aa5;
      }

      .cls-5 {
        fill: #8cbf46;
      }

      .cls-6 {
        fill: #4c1d11;
      }
    </style>
  </defs>
  <g id="Calque_1" data-name="Calque 1">
    <g>
      <path class="cls-6" d="M93.74,104.34c-.9-5.99-1.5-11.97-1.98-17.95l-.36-4.48c-.13-1.67-.05-3.23-.23-4.28-.08-.53-.24-.89-.34-1.02-.03-.02-.05-.06-.08-.06-.01,0-.03-.02-.03-.02l-.19-.23-.86-1.04c-1.11-1.45-1.99-3.18-2.55-5.02-1.14-3.75-.7-7.55-.1-10.63,.66-3.16,1.36-5.89,1.68-8.5,.68-5.32,.15-10.65-1.44-15.81-1.57-5.17-4.23-10.21-7.76-14.75-3.46-4.57-7.89-8.46-12.94-11.41-2.53-1.46-5.19-2.72-7.95-3.71-1.38-.5-2.78-.95-4.19-1.37l-2.13-.58c-.67-.16-1.32-.27-1.97-.3-1.36-.09-2.35,.14-3.84,.65-1.39,.45-2.77,.9-4.11,1.48-1.36,.52-2.69,1.09-3.98,1.78-1.31,.62-2.58,1.32-3.81,2.07-4.97,2.92-9.4,6.6-13.14,10.7-3.73,4.12-6.76,8.75-8.59,13.8-1.85,5.04-2.54,10.4-2.25,15.79,.18,2.75,.52,5.27,1.3,7.41,.2,.53,.41,1.06,.65,1.56l.42,.83c.23,.44,.46,.9,.67,1.4,.42,.99,.79,2.14,.95,3.47,.17,1.32,.08,2.84-.37,4.22-.44,1.39-1.15,2.57-1.9,3.52l-.78,.92c-.17,.18-.3,.38-.45,.57-.54,.79-.99,1.63-1.31,2.65-.33,1-.53,2.15-.64,3.4-.05,.63-.09,1.28-.11,1.95l-.09,2.23c-.22,6-.48,12.01-.84,18.01-.72,12-1.59,23.99-3.15,35.95h-.91c-1.54-12.01-2.39-23.97-3.1-35.92-.35-5.98-.6-11.95-.81-17.92l-.09-2.26c-.04-.82-.05-1.67-.03-2.54,.06-1.74,.24-3.57,.74-5.45,.47-1.88,1.29-3.78,2.42-5.48,.29-.41,.58-.84,.9-1.23l.65-.81c.16-.23,.2-.36,.21-.41-.02-.03,.07-.23-.28-1.06-.08-.19-.18-.4-.31-.63l-.6-1.17c-.42-.85-.76-1.72-1.06-2.59-1.2-3.52-1.53-7.03-1.57-10.26-.1-6.59,1.11-13.3,3.78-19.37,2.62-6.09,6.62-11.47,11.41-15.75,4.77-4.32,10.33-7.53,16.05-9.97,1.43-.63,2.87-1.2,4.35-1.67,1.46-.53,2.94-.98,4.43-1.39,1.47-.46,2.98-.77,4.49-1.11,.74-.16,1.46-.4,2.4-.49,.88-.09,1.76-.07,2.6,.05,.84,.11,1.67,.3,2.44,.54l2.19,.67c1.45,.47,2.9,.97,4.32,1.52,2.85,1.11,5.65,2.32,8.39,3.73,5.48,2.75,10.66,6.29,15.24,10.61,4.58,4.25,8.59,9.44,11.17,15.52,2.57,6.06,3.42,13.01,2.33,19.54-1.01,6.7-3.77,12.04-2.78,16.19,.21,1.05,.66,2.05,1.22,3.08l.48,.76,.44,.66c.2,.29,.34,.6,.49,.91,.53,1.22,.66,2.37,.69,3.32,.03,1.94-.23,3.37-.3,4.7l-.35,4.5c-.47,6-1.06,11.99-1.94,17.98h-.91Z"/>
      <path class="cls-4" d="M67.28,54.12c.33-.39,.62-.75,.93-1.08,.64-.7,1.27-1.41,1.96-2.06,.49-.47,.99-.49,1.36-.18,.4,.33,.47,.93,.06,1.47-.69,.9-1.42,1.77-2.16,2.62-.37,.43-.39,.7,.1,1.07,.84,.61,1.64,1.28,2.41,1.97,.37,.33,.67,.75,.36,1.33-.26,.49-.73,.84-1.22,.59-.82-.41-1.57-.96-2.34-1.47-.36-.24-.67-.53-1.04-.75-.12-.07-.41-.05-.5,.04-1.31,1.37-2.59,2.76-3.91,4.13-2.41,2.51-4.85,4.99-7.27,7.5-1.5,1.55-2.97,3.14-4.48,4.69-.36,.37-.37,.61-.07,1.03,1.46,2.07,2.87,4.16,4.33,6.23,.11,.16,.43,.23,.65,.22,.54,0,1.07-.16,1.61-.14,.8,.03,1.38,.58,1.38,1.2,0,.76-.6,1.4-1.4,1.46-.52,.03-1.05,.05-1.56,0-.54-.05-.86,.19-1.14,.61-1.22,1.85-2.46,3.68-3.71,5.51-.35,.5-.73,.99-1.17,1.41-.58,.56-1.44,.53-2.09,.06-.98-.7-1.63-1.68-2.26-2.66-.77-1.19-1.49-2.4-2.2-3.63-.29-.5-.62-.78-1.24-.75-.4,.02-.82-.08-1.21-.19-.53-.14-.96-.78-.92-1.27,.04-.5,.43-.92,1.04-1,.4-.05,.81,0,1.22,0,.36,.02,.59-.07,.8-.43,1.22-2.09,2.47-4.16,3.74-6.22,.36-.59,.36-.53-.21-.96-1.19-.89-2.4-1.77-3.49-2.77-1.48-1.36-2.85-2.83-4.28-4.24-2.66-2.62-4.97-5.53-7.17-8.54-.04-.06-.08-.12-.13-.18-.47-.6-.54-.61-1.08-.12-.49,.45-.93,.96-1.45,1.38-.28,.22-.66,.39-1.01,.43-.31,.03-.8-.05-.94-.26-.16-.25-.16-.79,.01-1.02,.53-.73,1.13-1.43,1.79-2.04,.93-.85,.94-.99,0-1.82-.72-.64-1.35-1.38-2.02-2.08-.05-.05-.12-.12-.12-.19-.02-.39-.16-.87,.02-1.13,.13-.19,.78-.23,1.04-.07,.84,.51,1.63,1.1,2.38,1.74,.98,.85,.97,.89,1.85-.02,1.72-1.78,3.41-3.58,5.14-5.35,2.86-2.93,5.75-5.84,8.63-8.75,.03-.03,.05-.05,.08-.08,.83-.75,.76-.7,.16-1.6-1.08-1.62-2.07-3.31-3.07-4.98-.29-.48-.45-1.03-.74-1.5-.12-.19-.42-.36-.65-.38-.59-.05-1.2,.05-1.78-.04-.65-.1-1.31-.28-1.9-.57-.28-.14-.49-.59-.56-.93-.09-.43,.3-.6,.65-.79,1-.54,2.08-.43,3.12-.31,.81,.09,1.28-.12,1.73-.81,1.16-1.79,2.38-3.55,3.66-5.26,.47-.63,1.13-1.14,1.78-1.59,.88-.61,2.27-.21,2.92,.83,.64,1.02,1.19,2.11,1.79,3.16,.59,1.03,1.19,2.06,1.84,3.06,.11,.17,.46,.27,.69,.26,.95-.06,1.89-.21,2.83-.26,.69-.03,1.16,.33,1.34,.89,.26,.8-.11,1.56-.95,1.7-1.01,.17-2.04,.19-3.05,.33-.27,.04-.59,.22-.75,.44-1.08,1.45-2.12,2.92-3.18,4.38-.52,.72-1.04,1.45-1.57,2.17-.24,.32-.19,.47,.17,.73,.91,.67,1.76,1.42,2.62,2.16,2.32,2.01,4.63,4.03,6.93,6.06,1.54,1.35,2.92,2.86,4.21,4.45,.85,1.04,1.72,2.05,2.66,3.16m-18.31,18.4c.21-.15,.39-.25,.53-.38,.71-.73,1.42-1.47,2.12-2.22,2.14-2.33,4.27-4.67,6.42-6.99,1.25-1.35,2.53-2.67,3.8-4.01,.8-.84,1.59-1.67,2.39-2.5,.28-.29,.32-.56,.03-.87-.28-.3-.55-.61-.81-.93-1.07-1.31-2.08-2.68-3.23-3.91-1.05-1.13-2.25-2.12-3.39-3.16-1.32-1.2-2.67-2.38-3.97-3.6-1.06-.99-2.06-2.05-3.1-3.06-.48-.47-.74-.48-1.25-.06-.3,.25-.63,.48-.9,.76-2.75,2.83-5.47,5.69-8.25,8.49-1.93,1.96-3.93,3.86-5.91,5.76-.28,.26-.27,.4-.04,.67,1.2,1.42,2.37,2.87,3.58,4.28,1.13,1.31,2.29,2.59,3.47,3.86,.52,.56,1.11,1.04,1.65,1.58,1.83,1.8,3.65,3.61,5.5,5.39,.38,.36,.88,.6,1.36,.91m-.24-36.11c.12-.09,.18-.13,.23-.18,.54-.69,1.08-1.38,1.61-2.07,.92-1.19,1.84-2.39,2.75-3.59,.44-.59,.57-1.19,.02-1.82-.2-.23-.33-.54-.47-.82-.75-1.48-1.47-2.97-2.23-4.44-.67-1.29-.96-1.35-1.81-.19-1.49,2.06-2.87,4.2-4.31,6.31-.24,.34-.14,.59,.08,.9,.65,.88,1.27,1.79,1.9,2.69,.73,1.05,1.46,2.11,2.22,3.21m.46,52.95c.19-.16,.27-.19,.3-.25,1.3-2,2.59-4,3.89-5.99,.2-.31,.11-.57-.1-.86-1.08-1.47-2.14-2.95-3.21-4.43-.22-.31-.44-.62-.73-1.02-.43,.59-.84,1.09-1.18,1.64-.85,1.37-1.66,2.78-2.52,4.15-.25,.4-.27,.73-.03,1.13,.46,.77,.85,1.57,1.33,2.32,.71,1.11,1.47,2.18,2.24,3.32"/>
      <path class="cls-4" d="M49.93,15.77c.75,0,1.3,.56,1.3,1.3,0,.68-.51,1.16-1.22,1.17-.77,0-1.35-.58-1.34-1.34,0-.63,.57-1.13,1.26-1.13"/>
      <path class="cls-4" d="M51.35,95.69c0,.62-.57,1.15-1.2,1.14-.71,0-1.28-.63-1.26-1.36,.02-.66,.6-1.19,1.31-1.18,.62,0,1.16,.67,1.15,1.4"/>
      <path class="cls-1" d="M42.11,62.52c-.84,0-1.28-.33-1.61-.76-.93-1.2-1.86-2.41-2.74-3.65-.81-1.14-.7-2.38,.23-3.42,.95-1.07,1.91-2.13,2.88-3.19,.15-.16,.34-.29,.52-.42,.36-.28,.76-.44,1.18-.14,.43,.31,.36,.78,.21,1.17-.17,.44-.43,.87-.73,1.24-.68,.83-1.41,1.63-2.13,2.43-.3,.33-.32,.6,0,.97,.9,1.04,1.8,2.09,2.62,3.19,.3,.4,.48,.97,.52,1.47,.05,.71-.46,1.12-.93,1.11"/>
      <path class="cls-1" d="M60.12,54.72c-.34,.78-.57,1.54-.96,2.19-.71,1.17-1.51,2.3-2.29,3.43-.41,.59-1.1,.78-1.55,.48-.5-.33-.66-1.02-.28-1.64,.67-1.07,1.45-2.08,2.08-3.17,.75-1.29,.81-1.06-.46-1.98-.95-.69-1.95-1.3-2.92-1.96-.34-.23-.62-.56-.42-.99,.19-.41,.61-.58,1.04-.46,.6,.18,1.24,.34,1.77,.67,1.12,.69,2.22,1.43,3.26,2.23,.33,.25,.47,.75,.73,1.19"/>
      <path class="cls-1" d="M48.33,51.02c-.62,0-1.09-.41-1.21-1.08-.03-.16-.04-.34-.03-.5,.05-.55-.14-.8-.73-.68-.19,.04-.46,.02-.59-.09-.26-.22-.6-.51-.64-.81-.04-.26,.24-.62,.46-.85,.15-.16,.44-.23,.67-.24,.66-.03,.89-.39,.92-1,.01-.31,.06-.63,.15-.93,.13-.43,.35-.78,.89-.77,.53,0,.73,.37,.86,.8,.02,.05,.02,.11,.03,.17,.04,.79,.21,1.39,1.23,1.37,.31,0,.89,.38,.89,.57,0,.36-.32,.73-.58,1.05-.14,.17-.41,.27-.64,.31-.47,.08-.58,.35-.58,.78,0,.4-.06,.82-.17,1.21-.14,.53-.39,.69-.93,.69"/>
      <path class="cls-1" d="M51.45,64.53c-.01,.63-.33,1.02-1.13,1.17-.55,.1-.72,.35-.66,.86,.03,.26,.02,.52-.02,.78-.08,.52-.41,.83-.93,.88-.53,.05-.9-.24-.95-.74-.11-.97-.5-1.42-1.56-1.31-.62,.07-.94-.32-1.01-.82-.07-.59,.26-1.01,.75-1.08,1.07-.14,1.52-.68,1.56-1.74,.02-.43,.29-.82,.84-.79,.53,.03,.82,.36,.87,.85,.07,.64,.35,.87,1.01,.84,.74-.04,1.23,.46,1.22,1.09"/>
      <path class="cls-4" d="M48,53.73c.6,.03,.94,.27,1.01,.8,.07,.58,.37,.77,.95,.73,.32-.02,.72,.02,.95,.2,.23,.19,.46,.64,.39,.88-.11,.36-.46,.66-.75,.95-.1,.1-.31,.1-.48,.12-.4,.06-.66,.24-.64,.69,0,.13-.04,.26-.08,.38-.13,.48-.36,.87-.93,.88-.51,0-.79-.32-.9-.76-.16-.63-.51-.82-1.15-.82-.82,0-1.22-.35-1.27-.91-.05-.53,.2-.89,.73-1.02,.16-.04,.33-.05,.5-.07,.78-.11,.81-.14,.89-.93,.07-.64,.44-1.13,.79-1.13"/>
      <path class="cls-2" d="M11.29,111.37c3.05-3.28,7.26-5.33,11.52-6.84,4.32-1.42,8.89-2.15,13.45-2.24,9.18-.35,18.18,1.87,26.61,4.98,2.17,.85,4.09,1.53,6.02,2.24,1.91,.84,3.92,1.21,5.88,1.8,.98,.34,1.98,.44,2.98,.63,1,.15,2,.41,3.01,.47,2.01,.11,4.03,.31,6.04,.15,8.01-.4,16.08-3.84,22.15-10.27-3.68,8.13-12.23,14.08-21.53,15.55-4.66,.95-9.41,.51-13.98-.21-2.26-.5-4.57-.93-6.71-1.74-2.18-.76-4.38-1.53-6.28-2.25l-2.95-1.15c-.99-.36-2-.65-3-.98-1-.31-1.99-.68-3.01-.94-1.01-.26-2.03-.5-3.04-.8-2.01-.61-4.08-.92-6.12-1.37-2.06-.25-4.13-.67-6.21-.8-4.15-.35-8.37-.4-12.54,.19-4.18,.55-8.37,1.56-12.28,3.6"/>
      <path class="cls-5" d="M11.29,121.11c3.05-3.28,7.26-5.33,11.52-6.84,4.32-1.42,8.89-2.15,13.45-2.24,9.18-.35,18.18,1.87,26.61,4.98,2.17,.85,4.09,1.53,6.02,2.24,1.91,.84,3.92,1.21,5.88,1.81,.98,.34,1.98,.44,2.98,.63,1,.15,2,.41,3.01,.47,2.01,.11,4.03,.31,6.04,.15,8.01-.4,16.08-3.84,22.15-10.27-3.68,8.13-12.23,14.08-21.53,15.55-4.66,.95-9.41,.51-13.98-.21-2.26-.5-4.57-.93-6.71-1.74-2.18-.76-4.38-1.53-6.28-2.25l-2.95-1.15c-.99-.36-2-.65-3-.98-1-.31-1.99-.68-3.01-.94-1.01-.26-2.03-.5-3.04-.8-2.01-.61-4.08-.92-6.12-1.37-2.06-.25-4.13-.67-6.21-.8-4.15-.35-8.37-.4-12.54,.19-4.18,.55-8.37,1.56-12.28,3.6"/>
      <path class="cls-3" d="M11.29,130.02c3.05-3.28,7.26-5.33,11.52-6.84,4.32-1.42,8.89-2.15,13.45-2.24,9.18-.35,18.18,1.87,26.61,4.98,2.17,.85,4.09,1.53,6.02,2.24,1.91,.84,3.92,1.21,5.88,1.81,.98,.34,1.98,.44,2.98,.63,1,.15,2,.41,3.01,.47,2.01,.11,4.03,.31,6.04,.15,8.01-.4,16.08-3.84,22.15-10.27-3.68,8.13-12.23,14.08-21.53,15.55-4.66,.95-9.41,.51-13.98-.21-2.26-.5-4.57-.93-6.71-1.74-2.18-.76-4.38-1.53-6.28-2.25l-2.95-1.15c-.99-.36-2-.65-3-.98-1-.31-1.99-.68-3.01-.94-1.01-.26-2.03-.5-3.04-.8-2.01-.61-4.08-.92-6.12-1.37-2.06-.25-4.13-.67-6.21-.8-4.15-.35-8.37-.4-12.54,.19-4.18,.55-8.37,1.56-12.28,3.6"/>
    </g>
  </g>
</svg>