<?xml version="1.0" encoding="UTF-8"?>
<svg data-name="Calque 1" xmlns="http://www.w3.org/2000/svg" viewBox="0 0 578.57 115.17" fill="#fff" width="130.9" height="31.5">
  <path d="M71.75 67.3H27.87c-.61 0-1.22-.01-1.83.03-.72.05-.97.31-1.03 1.02-.03.36-.04.73-.02 1.1.12 3.16.21 6.33.73 9.46.21 1.26.51 2.5.93 3.72 1.29 3.69 3.79 6.18 7.42 7.56 2.41.92 4.94 1.34 7.5 1.48 2.13.12 4.26.13 6.4.13h68.01c1.04 0 2.07-.02 3.1.17 1.94.36 2.85 1.32 3.07 3.3.05.48.04.97.04 1.46v13.52c0 .67-.02 1.35-.15 2-.29 1.46-1.17 2.39-2.67 2.64-.6.1-1.21.17-1.81.22-.48.04-.97.02-1.46.02-23.16 0-46.31.03-69.47-.02-5.66-.01-11.32-.3-16.92-1.32-4.09-.75-8.07-1.84-11.83-3.66-6.87-3.33-11.54-8.64-14.28-15.69-1.62-4.17-2.52-8.51-2.98-12.96-.48-4.61-.62-9.23-.6-13.86.02-8.1-.07-16.21.03-24.31.07-6.03.47-12.05 2.05-17.92 1.03-3.85 2.5-7.51 4.75-10.82C9.99 9.95 14.23 6.68 19.3 4.45c3.99-1.75 8.18-2.79 12.48-3.42C37.09.25 42.44 0 47.81 0c22.85.01 45.7 0 68.56.01.91 0 1.84 0 2.73.15 1.97.33 2.84 1.31 3.05 3.3.05.48.04.97.04 1.46v13.52c0 .73.02 1.46-.18 2.18-.4 1.45-1.35 2.29-2.84 2.46-.78.09-1.58.06-2.37.06H47.88c-3.23 0-6.45.18-9.65.67-1.45.23-2.86.61-4.23 1.13-3.57 1.36-6.01 3.83-7.31 7.44-.71 1.97-1.06 4.01-1.29 6.06-.23 2.12-.32 4.25-.4 6.38-.06 1.75.07 1.83 1.85 1.86h88.67c.79 0 1.59-.03 2.37.05 2 .21 3.07 1.33 3.23 3.31.02.3.02.61.02.91v11.88c0 .49 0 .98-.07 1.46-.24 1.46-1.06 2.41-2.54 2.77-.84.2-1.69.2-2.54.2H71.75Zm317.53 0h-44.06q-1.005 0-2.01.06c-.48.03-.77.33-.85.81-.03.18-.06.36-.06.54-.06 3.97.02 7.93.92 11.81.61 2.65 1.68 5.07 3.73 6.99 1.55 1.45 3.35 2.42 5.36 3.03 2.17.66 4.39 1.03 6.65 1.13 2.07.09 4.14.12 6.21.12H433c1.1 0 2.19-.02 3.28.18 1.95.36 2.87 1.37 3.02 3.32.02.3.02.61.02.91v14.99c-.09 2.43-1.07 3.53-3.52 3.83-.84.1-1.7.09-2.55.09h-60.33c-2.13 0-4.27-.04-6.4 0-3.72.09-7.44-.12-11.14-.35-4.99-.31-9.94-1.01-14.74-2.48-4.12-1.26-7.93-3.11-11.3-5.83-3.44-2.78-5.95-6.26-7.79-10.23-1.83-3.96-2.82-8.16-3.46-12.46-.61-4.11-.79-8.24-.77-12.39.03-10.54-.05-21.08.07-31.62.07-6.3.99-12.5 3.19-18.46 2.23-6.01 5.9-10.9 11.3-14.41 3.09-2.01 6.45-3.43 10-4.4 3.47-.95 7-1.58 10.59-1.93 4.24-.36 8.49-.55 12.76-.55h68.01c.91 0 1.83-.01 2.74.1 2.25.29 3.21 1.37 3.32 3.61.02.36.01.73.01 1.1v13.71c0 .55.01 1.1-.06 1.64-.21 1.72-1.24 2.75-2.98 2.93-.78.08-1.58.05-2.37.05h-68.74c-3.23 0-6.45.19-9.65.68-1.57.24-3.11.6-4.58 1.21-3.44 1.45-5.84 3.87-7.09 7.43-.88 2.5-1.21 5.09-1.42 7.7-.14 1.76-.11 3.53-.09 5.3 0 .92.29 1.16 1.23 1.21.67.03 1.34.02 2.01.02h87.02c.79 0 1.59-.02 2.38.04 1.95.15 2.96 1.08 3.32 3.03.1.54.14 1.09.15 1.63.01 3.72.02 7.43 0 11.15 0 .72-.1 1.46-.25 2.17-.26 1.25-1.07 2.03-2.3 2.34-.47.12-.96.19-1.44.22-.61.04-1.22.02-1.83.02h-43.33Zm139.52 1.54h-44.06c-2.74 0-2.75-.14-2.75 2.67v38.02c0 .79 0 1.59-.12 2.37-.3 1.97-1.09 2.76-3.05 3.07-.66.11-1.33.16-2 .16q-7.59.015-15.18 0c-.73 0-1.46-.06-2.18-.19-1.78-.32-2.67-1.23-2.94-3.02-.12-.78-.11-1.58-.11-2.37V85.06c0-14.07-.04-28.15.02-42.22.02-5.43.5-10.83 1.71-16.14.86-3.77 2.18-7.36 4.16-10.69 3.15-5.32 7.7-9.06 13.32-11.54 3.99-1.76 8.17-2.81 12.47-3.44C493.33.26 498.61 0 503.92 0c22.92.01 45.83 0 68.75 0 .97 0 1.95-.05 2.91.16 1.77.39 2.63 1.27 2.91 3.07.06.42.07.85.07 1.28v14.26c0 .49-.01.98-.1 1.46-.3 1.69-1.36 2.7-3.08 2.88-.78.08-1.58.05-2.37.05h-68.2c-3.23 0-6.45.18-9.65.69-.96.15-1.92.36-2.85.62-4.69 1.3-7.63 4.38-9.03 8.98-.69 2.28-1.05 4.64-1.19 7.01-.11 1.94-.08 3.9-.1 5.85 0 .36.02.73.08 1.09.07.48.38.77.86.8.73.05 1.46.07 2.19.07h86.85c.91 0 1.83-.02 2.73.19 1.76.4 2.62 1.36 2.8 3.14.04.42.04.85.04 1.28V64.4c0 .49 0 .98-.05 1.46-.22 1.74-1.24 2.76-2.97 2.94-.72.07-1.46.05-2.19.05h-43.52Zm-388.5-28.1V5.29c0-.73-.02-1.47.06-2.19.19-1.58 1.06-2.53 2.63-2.86.65-.14 1.33-.21 1.99-.21 5.42-.02 10.84-.01 16.27 0 .54 0 1.1.04 1.63.15 1.64.33 2.56 1.3 2.77 2.96.09.72.07 1.46.07 2.19v62.31c0 2.8-.02 5.6.36 8.39.28 2.06.61 4.09 1.31 6.06 1.36 3.79 3.88 6.41 7.7 7.76 1.33.47 2.68.84 4.07 1.02 1.87.25 3.74.52 5.64.5 2.01-.03 4.02 0 6.03 0h61.05c.79 0 1.59-.02 2.37.09 1.86.26 2.81 1.2 3.12 3.05.09.54.09 1.09.09 1.64v14.25c0 .79-.02 1.58-.27 2.35-.38 1.13-1.12 1.9-2.3 2.12-.83.16-1.69.25-2.54.27-1.7.04-3.41.01-5.12.01-20.11 0-40.21.03-60.32-.02-6.4-.02-12.78-.39-19.07-1.72-2.57-.54-5.08-1.25-7.52-2.23-3.48-1.4-6.66-3.31-9.4-5.87-2.8-2.61-4.91-5.72-6.48-9.2-1.77-3.92-2.77-8.05-3.39-12.29-.52-3.56-.77-7.14-.76-10.74.01-10.78 0-21.56 0-32.34Zm131.39 16.85V5.7c0-.91-.02-1.82.16-2.73.3-1.55 1.19-2.51 2.75-2.77.66-.11 1.33-.18 2-.18q7.95-.015 15.9 0c.55 0 1.1.02 1.64.12 1.86.32 2.66 1.11 3 2.93.08.42.11.84.13 1.27.02.55.01 1.1.01 1.64v102.87c0 .85.01 1.71-.07 2.55-.25 2.41-1.16 3.35-3.54 3.65-.54.07-1.09.09-1.64.09h-14.99c-.92 0-1.83-.05-2.72-.28-1.22-.31-2.04-1.07-2.36-2.3-.15-.58-.22-1.2-.26-1.8-.04-.61-.02-1.22-.02-1.83V57.58Z"/>
</svg>